<?xml version="1.0" encoding="UTF-8" standalone="no"?>
<!DOCTYPE svg PUBLIC "-//W3C//DTD SVG 1.1//EN"
 "http://www.w3.org/Graphics/SVG/1.1/DTD/svg11.dtd">
<!-- Generated by graphviz version 2.43.0 (0)
 -->
<!-- Title: structs Pages: 1 -->
<svg width="480pt" height="1214pt"
 viewBox="0.00 0.00 480.29 1214.00" xmlns="http://www.w3.org/2000/svg" xmlns:xlink="http://www.w3.org/1999/xlink">
<g id="graph0" class="graph" transform="scale(1 1) rotate(0) translate(4 1210)">
<title>structs</title>
<polygon fill="white" stroke="transparent" points="-4,4 -4,-1210 476.29,-1210 476.29,4 -4,4"/>
<!-- struct_liste_chainee -->
<g id="node1" class="node">
<title>struct_liste_chainee</title>
<polygon fill="chartreuse" stroke="transparent" points="69,-1160 69,-1202 168,-1202 168,-1160 69,-1160"/>
<polygon fill="none" stroke="black" points="69.5,-1181 69.5,-1202 168.5,-1202 168.5,-1181 69.5,-1181"/>
<text text-anchor="start" x="72.5" y="-1187.8" font-family="Times,serif" font-size="14.00">liste_chainee</text>
<polygon fill="none" stroke="black" points="69.5,-1160 69.5,-1181 168.5,-1181 168.5,-1160 69.5,-1160"/>
<text text-anchor="start" x="112.5" y="-1166.8" font-family="Times,serif" font-size="14.00">⏺</text>
</g>
<!-- struct_139696692244288 -->
<g id="node2" class="node">
<title>struct_139696692244288</title>
<polygon fill="gray" stroke="transparent" points="8,-1053 8,-1116 231,-1116 231,-1053 8,-1053"/>
<polygon fill="none" stroke="black" points="8.5,-1094.5 8.5,-1115.5 231.5,-1115.5 231.5,-1094.5 8.5,-1094.5"/>
<text text-anchor="start" x="11.5" y="-1102.3" font-family="Times,serif" text-decoration="underline" font-size="14.00">ListeSimplementChaineeTriee</text>
<polygon fill="none" stroke="black" points="8.5,-1073.5 8.5,-1094.5 231.5,-1094.5 231.5,-1073.5 8.5,-1073.5"/>
<text text-anchor="start" x="105.5" y="-1080.3" font-family="Times,serif" font-size="14.00">tete</text>
<polygon fill="none" stroke="black" points="8.5,-1052.5 8.5,-1073.5 231.5,-1073.5 231.5,-1052.5 8.5,-1052.5"/>
<text text-anchor="start" x="113.5" y="-1059.3" font-family="Times,serif" font-size="14.00">⏺</text>
</g>
<!-- struct_liste_chainee&#45;&gt;struct_139696692244288 -->
<g id="edge20" class="edge">
<title>struct_liste_chainee:port_liste_chainee&#45;&gt;struct_139696692244288</title>
<path fill="none" stroke="black" d="M119.5,-1159C119.5,-1149.72 119.5,-1139.79 119.5,-1130.31"/>
<polygon fill="black" stroke="black" points="123,-1130.27 119.5,-1120.27 116,-1130.27 123,-1130.27"/>
</g>
<!-- struct_139696692244096 -->
<g id="node3" class="node">
<title>struct_139696692244096</title>
<polygon fill="gray" stroke="transparent" points="65,-946 65,-1009 176,-1009 176,-946 65,-946"/>
<polygon fill="none" stroke="black" points="65.5,-987.5 65.5,-1008.5 176.5,-1008.5 176.5,-987.5 65.5,-987.5"/>
<text text-anchor="start" x="96" y="-995.3" font-family="Times,serif" text-decoration="underline" font-size="14.00">Cellule</text>
<polygon fill="none" stroke="black" points="65.5,-966.5 65.5,-987.5 117.5,-987.5 117.5,-966.5 65.5,-966.5"/>
<text text-anchor="start" x="68.5" y="-973.3" font-family="Times,serif" font-size="14.00">valeur</text>
<polygon fill="none" stroke="black" points="117.5,-966.5 117.5,-987.5 176.5,-987.5 176.5,-966.5 117.5,-966.5"/>
<text text-anchor="start" x="120.5" y="-973.3" font-family="Times,serif" font-size="14.00">suivant</text>
<polygon fill="none" stroke="black" points="65.5,-945.5 65.5,-966.5 117.5,-966.5 117.5,-945.5 65.5,-945.5"/>
<text text-anchor="start" x="85" y="-952.3" font-family="Times,serif" font-size="14.00">⏺</text>
<polygon fill="none" stroke="black" points="117.5,-945.5 117.5,-966.5 176.5,-966.5 176.5,-945.5 117.5,-945.5"/>
<text text-anchor="start" x="140.5" y="-952.3" font-family="Times,serif" font-size="14.00">⏺</text>
</g>
<!-- struct_139696692244288&#45;&gt;struct_139696692244096 -->
<g id="edge19" class="edge">
<title>struct_139696692244288:port_child0&#45;&gt;struct_139696692244096</title>
<path fill="none" stroke="black" d="M120.5,-1051.5C120.5,-1042.38 120.5,-1032.63 120.5,-1023.31"/>
<polygon fill="black" stroke="black" points="124,-1023.03 120.5,-1013.03 117,-1023.03 124,-1023.03"/>
</g>
<!-- struct_139696690357456 -->
<g id="node4" class="node">
<title>struct_139696690357456</title>
<polygon fill="gray" stroke="transparent" points="19,-849.5 19,-891.5 58,-891.5 58,-849.5 19,-849.5"/>
<polygon fill="none" stroke="black" points="19.5,-870.5 19.5,-891.5 58.5,-891.5 58.5,-870.5 19.5,-870.5"/>
<text text-anchor="start" x="22.5" y="-878.3" font-family="Times,serif" text-decoration="underline" font-size="14.00">float</text>
<polygon fill="none" stroke="black" points="19.5,-849.5 19.5,-870.5 58.5,-870.5 58.5,-849.5 19.5,-849.5"/>
<text text-anchor="start" x="29.5" y="-856.3" font-family="Times,serif" font-size="14.00">inf</text>
</g>
<!-- struct_139696692244096&#45;&gt;struct_139696690357456 -->
<g id="edge1" class="edge">
<title>struct_139696692244096:port_child0&#45;&gt;struct_139696690357456</title>
<path fill="none" stroke="black" d="M64.5,-955.5C42.56,-955.5 37.06,-929.02 36.46,-905.8"/>
<polygon fill="black" stroke="black" points="39.96,-905.8 36.47,-895.8 32.96,-905.79 39.96,-905.8"/>
</g>
<!-- struct_139696689706896 -->
<g id="node5" class="node">
<title>struct_139696689706896</title>
<polygon fill="gray" stroke="transparent" points="92,-839 92,-902 203,-902 203,-839 92,-839"/>
<polygon fill="none" stroke="black" points="92.5,-880.5 92.5,-901.5 203.5,-901.5 203.5,-880.5 92.5,-880.5"/>
<text text-anchor="start" x="123" y="-888.3" font-family="Times,serif" text-decoration="underline" font-size="14.00">Cellule</text>
<polygon fill="none" stroke="black" points="92.5,-859.5 92.5,-880.5 144.5,-880.5 144.5,-859.5 92.5,-859.5"/>
<text text-anchor="start" x="95.5" y="-866.3" font-family="Times,serif" font-size="14.00">valeur</text>
<polygon fill="none" stroke="black" points="144.5,-859.5 144.5,-880.5 203.5,-880.5 203.5,-859.5 144.5,-859.5"/>
<text text-anchor="start" x="147.5" y="-866.3" font-family="Times,serif" font-size="14.00">suivant</text>
<polygon fill="none" stroke="black" points="92.5,-838.5 92.5,-859.5 144.5,-859.5 144.5,-838.5 92.5,-838.5"/>
<text text-anchor="start" x="112" y="-845.3" font-family="Times,serif" font-size="14.00">⏺</text>
<polygon fill="none" stroke="black" points="144.5,-838.5 144.5,-859.5 203.5,-859.5 203.5,-838.5 144.5,-838.5"/>
<text text-anchor="start" x="167.5" y="-845.3" font-family="Times,serif" font-size="14.00">⏺</text>
</g>
<!-- struct_139696692244096&#45;&gt;struct_139696689706896 -->
<g id="edge18" class="edge">
<title>struct_139696692244096:port_child1&#45;&gt;struct_139696689706896</title>
<path fill="none" stroke="black" d="M147.5,-944.5C147.5,-935.38 147.5,-925.63 147.5,-916.31"/>
<polygon fill="black" stroke="black" points="151,-916.03 147.5,-906.03 144,-916.03 151,-916.03"/>
</g>
<!-- struct_9784832 -->
<g id="node6" class="node">
<title>struct_9784832</title>
<polygon fill="gray" stroke="transparent" points="52.5,-742.5 52.5,-784.5 78.5,-784.5 78.5,-742.5 52.5,-742.5"/>
<polygon fill="none" stroke="black" points="52.5,-763.5 52.5,-784.5 78.5,-784.5 78.5,-763.5 52.5,-763.5"/>
<text text-anchor="start" x="55.5" y="-771.3" font-family="Times,serif" text-decoration="underline" font-size="14.00">int</text>
<polygon fill="none" stroke="black" points="52.5,-742.5 52.5,-763.5 78.5,-763.5 78.5,-742.5 52.5,-742.5"/>
<text text-anchor="start" x="60.5" y="-749.3" font-family="Times,serif" font-size="14.00">0</text>
</g>
<!-- struct_139696689706896&#45;&gt;struct_9784832 -->
<g id="edge2" class="edge">
<title>struct_139696689706896:port_child0&#45;&gt;struct_9784832</title>
<path fill="none" stroke="black" d="M91.5,-848.5C80.53,-848.5 73.68,-822.02 69.79,-798.8"/>
<polygon fill="black" stroke="black" points="73.23,-798.15 68.25,-788.8 66.31,-799.21 73.23,-798.15"/>
</g>
<!-- struct_139696689706944 -->
<g id="node7" class="node">
<title>struct_139696689706944</title>
<polygon fill="gray" stroke="transparent" points="119,-732 119,-795 230,-795 230,-732 119,-732"/>
<polygon fill="none" stroke="black" points="119.5,-773.5 119.5,-794.5 230.5,-794.5 230.5,-773.5 119.5,-773.5"/>
<text text-anchor="start" x="150" y="-781.3" font-family="Times,serif" text-decoration="underline" font-size="14.00">Cellule</text>
<polygon fill="none" stroke="black" points="119.5,-752.5 119.5,-773.5 171.5,-773.5 171.5,-752.5 119.5,-752.5"/>
<text text-anchor="start" x="122.5" y="-759.3" font-family="Times,serif" font-size="14.00">valeur</text>
<polygon fill="none" stroke="black" points="171.5,-752.5 171.5,-773.5 230.5,-773.5 230.5,-752.5 171.5,-752.5"/>
<text text-anchor="start" x="174.5" y="-759.3" font-family="Times,serif" font-size="14.00">suivant</text>
<polygon fill="none" stroke="black" points="119.5,-731.5 119.5,-752.5 171.5,-752.5 171.5,-731.5 119.5,-731.5"/>
<text text-anchor="start" x="139" y="-738.3" font-family="Times,serif" font-size="14.00">⏺</text>
<polygon fill="none" stroke="black" points="171.5,-731.5 171.5,-752.5 230.5,-752.5 230.5,-731.5 171.5,-731.5"/>
<text text-anchor="start" x="194.5" y="-738.3" font-family="Times,serif" font-size="14.00">⏺</text>
</g>
<!-- struct_139696689706896&#45;&gt;struct_139696689706944 -->
<g id="edge17" class="edge">
<title>struct_139696689706896:port_child1&#45;&gt;struct_139696689706944</title>
<path fill="none" stroke="black" d="M174.5,-837.5C174.5,-828.38 174.5,-818.63 174.5,-809.31"/>
<polygon fill="black" stroke="black" points="178,-809.03 174.5,-799.03 171,-809.03 178,-809.03"/>
</g>
<!-- struct_9784864 -->
<g id="node8" class="node">
<title>struct_9784864</title>
<polygon fill="gray" stroke="transparent" points="79.5,-635.5 79.5,-677.5 105.5,-677.5 105.5,-635.5 79.5,-635.5"/>
<polygon fill="none" stroke="black" points="79.5,-656.5 79.5,-677.5 105.5,-677.5 105.5,-656.5 79.5,-656.5"/>
<text text-anchor="start" x="82.5" y="-664.3" font-family="Times,serif" text-decoration="underline" font-size="14.00">int</text>
<polygon fill="none" stroke="black" points="79.5,-635.5 79.5,-656.5 105.5,-656.5 105.5,-635.5 79.5,-635.5"/>
<text text-anchor="start" x="87.5" y="-642.3" font-family="Times,serif" font-size="14.00">1</text>
</g>
<!-- struct_139696689706944&#45;&gt;struct_9784864 -->
<g id="edge3" class="edge">
<title>struct_139696689706944:port_child0&#45;&gt;struct_9784864</title>
<path fill="none" stroke="black" d="M118.5,-741.5C107.53,-741.5 100.68,-715.02 96.79,-691.8"/>
<polygon fill="black" stroke="black" points="100.23,-691.15 95.25,-681.8 93.31,-692.21 100.23,-691.15"/>
</g>
<!-- struct_139696689707040 -->
<g id="node9" class="node">
<title>struct_139696689707040</title>
<polygon fill="gray" stroke="transparent" points="146,-625 146,-688 257,-688 257,-625 146,-625"/>
<polygon fill="none" stroke="black" points="146.5,-666.5 146.5,-687.5 257.5,-687.5 257.5,-666.5 146.5,-666.5"/>
<text text-anchor="start" x="177" y="-674.3" font-family="Times,serif" text-decoration="underline" font-size="14.00">Cellule</text>
<polygon fill="none" stroke="black" points="146.5,-645.5 146.5,-666.5 198.5,-666.5 198.5,-645.5 146.5,-645.5"/>
<text text-anchor="start" x="149.5" y="-652.3" font-family="Times,serif" font-size="14.00">valeur</text>
<polygon fill="none" stroke="black" points="198.5,-645.5 198.5,-666.5 257.5,-666.5 257.5,-645.5 198.5,-645.5"/>
<text text-anchor="start" x="201.5" y="-652.3" font-family="Times,serif" font-size="14.00">suivant</text>
<polygon fill="none" stroke="black" points="146.5,-624.5 146.5,-645.5 198.5,-645.5 198.5,-624.5 146.5,-624.5"/>
<text text-anchor="start" x="166" y="-631.3" font-family="Times,serif" font-size="14.00">⏺</text>
<polygon fill="none" stroke="black" points="198.5,-624.5 198.5,-645.5 257.5,-645.5 257.5,-624.5 198.5,-624.5"/>
<text text-anchor="start" x="221.5" y="-631.3" font-family="Times,serif" font-size="14.00">⏺</text>
</g>
<!-- struct_139696689706944&#45;&gt;struct_139696689707040 -->
<g id="edge16" class="edge">
<title>struct_139696689706944:port_child1&#45;&gt;struct_139696689707040</title>
<path fill="none" stroke="black" d="M201.5,-730.5C201.5,-721.38 201.5,-711.63 201.5,-702.31"/>
<polygon fill="black" stroke="black" points="205,-702.03 201.5,-692.03 198,-702.03 205,-702.03"/>
</g>
<!-- struct_9784896 -->
<g id="node10" class="node">
<title>struct_9784896</title>
<polygon fill="gray" stroke="transparent" points="106.5,-528.5 106.5,-570.5 132.5,-570.5 132.5,-528.5 106.5,-528.5"/>
<polygon fill="none" stroke="black" points="106.5,-549.5 106.5,-570.5 132.5,-570.5 132.5,-549.5 106.5,-549.5"/>
<text text-anchor="start" x="109.5" y="-557.3" font-family="Times,serif" text-decoration="underline" font-size="14.00">int</text>
<polygon fill="none" stroke="black" points="106.5,-528.5 106.5,-549.5 132.5,-549.5 132.5,-528.5 106.5,-528.5"/>
<text text-anchor="start" x="114.5" y="-535.3" font-family="Times,serif" font-size="14.00">2</text>
</g>
<!-- struct_139696689707040&#45;&gt;struct_9784896 -->
<g id="edge4" class="edge">
<title>struct_139696689707040:port_child0&#45;&gt;struct_9784896</title>
<path fill="none" stroke="black" d="M145.5,-634.5C134.53,-634.5 127.68,-608.02 123.79,-584.8"/>
<polygon fill="black" stroke="black" points="127.23,-584.15 122.25,-574.8 120.31,-585.21 127.23,-584.15"/>
</g>
<!-- struct_139696689707136 -->
<g id="node11" class="node">
<title>struct_139696689707136</title>
<polygon fill="gray" stroke="transparent" points="173,-518 173,-581 284,-581 284,-518 173,-518"/>
<polygon fill="none" stroke="black" points="173.5,-559.5 173.5,-580.5 284.5,-580.5 284.5,-559.5 173.5,-559.5"/>
<text text-anchor="start" x="204" y="-567.3" font-family="Times,serif" text-decoration="underline" font-size="14.00">Cellule</text>
<polygon fill="none" stroke="black" points="173.5,-538.5 173.5,-559.5 225.5,-559.5 225.5,-538.5 173.5,-538.5"/>
<text text-anchor="start" x="176.5" y="-545.3" font-family="Times,serif" font-size="14.00">valeur</text>
<polygon fill="none" stroke="black" points="225.5,-538.5 225.5,-559.5 284.5,-559.5 284.5,-538.5 225.5,-538.5"/>
<text text-anchor="start" x="228.5" y="-545.3" font-family="Times,serif" font-size="14.00">suivant</text>
<polygon fill="none" stroke="black" points="173.5,-517.5 173.5,-538.5 225.5,-538.5 225.5,-517.5 173.5,-517.5"/>
<text text-anchor="start" x="193" y="-524.3" font-family="Times,serif" font-size="14.00">⏺</text>
<polygon fill="none" stroke="black" points="225.5,-517.5 225.5,-538.5 284.5,-538.5 284.5,-517.5 225.5,-517.5"/>
<text text-anchor="start" x="248.5" y="-524.3" font-family="Times,serif" font-size="14.00">⏺</text>
</g>
<!-- struct_139696689707040&#45;&gt;struct_139696689707136 -->
<g id="edge15" class="edge">
<title>struct_139696689707040:port_child1&#45;&gt;struct_139696689707136</title>
<path fill="none" stroke="black" d="M228.5,-623.5C228.5,-614.38 228.5,-604.63 228.5,-595.31"/>
<polygon fill="black" stroke="black" points="232,-595.03 228.5,-585.03 225,-595.03 232,-595.03"/>
</g>
<!-- struct_9784928 -->
<g id="node12" class="node">
<title>struct_9784928</title>
<polygon fill="gray" stroke="transparent" points="133.5,-421.5 133.5,-463.5 159.5,-463.5 159.5,-421.5 133.5,-421.5"/>
<polygon fill="none" stroke="black" points="133.5,-442.5 133.5,-463.5 159.5,-463.5 159.5,-442.5 133.5,-442.5"/>
<text text-anchor="start" x="136.5" y="-450.3" font-family="Times,serif" text-decoration="underline" font-size="14.00">int</text>
<polygon fill="none" stroke="black" points="133.5,-421.5 133.5,-442.5 159.5,-442.5 159.5,-421.5 133.5,-421.5"/>
<text text-anchor="start" x="141.5" y="-428.3" font-family="Times,serif" font-size="14.00">3</text>
</g>
<!-- struct_139696689707136&#45;&gt;struct_9784928 -->
<g id="edge5" class="edge">
<title>struct_139696689707136:port_child0&#45;&gt;struct_9784928</title>
<path fill="none" stroke="black" d="M172.5,-527.5C161.53,-527.5 154.68,-501.02 150.79,-477.8"/>
<polygon fill="black" stroke="black" points="154.23,-477.15 149.25,-467.8 147.31,-478.21 154.23,-477.15"/>
</g>
<!-- struct_139696689707232 -->
<g id="node13" class="node">
<title>struct_139696689707232</title>
<polygon fill="gray" stroke="transparent" points="200,-411 200,-474 311,-474 311,-411 200,-411"/>
<polygon fill="none" stroke="black" points="200.5,-452.5 200.5,-473.5 311.5,-473.5 311.5,-452.5 200.5,-452.5"/>
<text text-anchor="start" x="231" y="-460.3" font-family="Times,serif" text-decoration="underline" font-size="14.00">Cellule</text>
<polygon fill="none" stroke="black" points="200.5,-431.5 200.5,-452.5 252.5,-452.5 252.5,-431.5 200.5,-431.5"/>
<text text-anchor="start" x="203.5" y="-438.3" font-family="Times,serif" font-size="14.00">valeur</text>
<polygon fill="none" stroke="black" points="252.5,-431.5 252.5,-452.5 311.5,-452.5 311.5,-431.5 252.5,-431.5"/>
<text text-anchor="start" x="255.5" y="-438.3" font-family="Times,serif" font-size="14.00">suivant</text>
<polygon fill="none" stroke="black" points="200.5,-410.5 200.5,-431.5 252.5,-431.5 252.5,-410.5 200.5,-410.5"/>
<text text-anchor="start" x="220" y="-417.3" font-family="Times,serif" font-size="14.00">⏺</text>
<polygon fill="none" stroke="black" points="252.5,-410.5 252.5,-431.5 311.5,-431.5 311.5,-410.5 252.5,-410.5"/>
<text text-anchor="start" x="275.5" y="-417.3" font-family="Times,serif" font-size="14.00">⏺</text>
</g>
<!-- struct_139696689707136&#45;&gt;struct_139696689707232 -->
<g id="edge14" class="edge">
<title>struct_139696689707136:port_child1&#45;&gt;struct_139696689707232</title>
<path fill="none" stroke="black" d="M255.5,-516.5C255.5,-507.38 255.5,-497.63 255.5,-488.31"/>
<polygon fill="black" stroke="black" points="259,-488.03 255.5,-478.03 252,-488.03 259,-488.03"/>
</g>
<!-- struct_9784960 -->
<g id="node14" class="node">
<title>struct_9784960</title>
<polygon fill="gray" stroke="transparent" points="160.5,-314.5 160.5,-356.5 186.5,-356.5 186.5,-314.5 160.5,-314.5"/>
<polygon fill="none" stroke="black" points="160.5,-335.5 160.5,-356.5 186.5,-356.5 186.5,-335.5 160.5,-335.5"/>
<text text-anchor="start" x="163.5" y="-343.3" font-family="Times,serif" text-decoration="underline" font-size="14.00">int</text>
<polygon fill="none" stroke="black" points="160.5,-314.5 160.5,-335.5 186.5,-335.5 186.5,-314.5 160.5,-314.5"/>
<text text-anchor="start" x="168.5" y="-321.3" font-family="Times,serif" font-size="14.00">4</text>
</g>
<!-- struct_139696689707232&#45;&gt;struct_9784960 -->
<g id="edge6" class="edge">
<title>struct_139696689707232:port_child0&#45;&gt;struct_9784960</title>
<path fill="none" stroke="black" d="M199.5,-420.5C188.53,-420.5 181.68,-394.02 177.79,-370.8"/>
<polygon fill="black" stroke="black" points="181.23,-370.15 176.25,-360.8 174.31,-371.21 181.23,-370.15"/>
</g>
<!-- struct_139696689707664 -->
<g id="node15" class="node">
<title>struct_139696689707664</title>
<polygon fill="gray" stroke="transparent" points="227,-304 227,-367 338,-367 338,-304 227,-304"/>
<polygon fill="none" stroke="black" points="227.5,-345.5 227.5,-366.5 338.5,-366.5 338.5,-345.5 227.5,-345.5"/>
<text text-anchor="start" x="258" y="-353.3" font-family="Times,serif" text-decoration="underline" font-size="14.00">Cellule</text>
<polygon fill="none" stroke="black" points="227.5,-324.5 227.5,-345.5 279.5,-345.5 279.5,-324.5 227.5,-324.5"/>
<text text-anchor="start" x="230.5" y="-331.3" font-family="Times,serif" font-size="14.00">valeur</text>
<polygon fill="none" stroke="black" points="279.5,-324.5 279.5,-345.5 338.5,-345.5 338.5,-324.5 279.5,-324.5"/>
<text text-anchor="start" x="282.5" y="-331.3" font-family="Times,serif" font-size="14.00">suivant</text>
<polygon fill="none" stroke="black" points="227.5,-303.5 227.5,-324.5 279.5,-324.5 279.5,-303.5 227.5,-303.5"/>
<text text-anchor="start" x="247" y="-310.3" font-family="Times,serif" font-size="14.00">⏺</text>
<polygon fill="none" stroke="black" points="279.5,-303.5 279.5,-324.5 338.5,-324.5 338.5,-303.5 279.5,-303.5"/>
<text text-anchor="start" x="302.5" y="-310.3" font-family="Times,serif" font-size="14.00">⏺</text>
</g>
<!-- struct_139696689707232&#45;&gt;struct_139696689707664 -->
<g id="edge13" class="edge">
<title>struct_139696689707232:port_child1&#45;&gt;struct_139696689707664</title>
<path fill="none" stroke="black" d="M282.5,-409.5C282.5,-400.38 282.5,-390.63 282.5,-381.31"/>
<polygon fill="black" stroke="black" points="286,-381.03 282.5,-371.03 279,-381.03 286,-381.03"/>
</g>
<!-- struct_9784992 -->
<g id="node16" class="node">
<title>struct_9784992</title>
<polygon fill="gray" stroke="transparent" points="187.5,-207.5 187.5,-249.5 213.5,-249.5 213.5,-207.5 187.5,-207.5"/>
<polygon fill="none" stroke="black" points="187.5,-228.5 187.5,-249.5 213.5,-249.5 213.5,-228.5 187.5,-228.5"/>
<text text-anchor="start" x="190.5" y="-236.3" font-family="Times,serif" text-decoration="underline" font-size="14.00">int</text>
<polygon fill="none" stroke="black" points="187.5,-207.5 187.5,-228.5 213.5,-228.5 213.5,-207.5 187.5,-207.5"/>
<text text-anchor="start" x="195.5" y="-214.3" font-family="Times,serif" font-size="14.00">5</text>
</g>
<!-- struct_139696689707664&#45;&gt;struct_9784992 -->
<g id="edge7" class="edge">
<title>struct_139696689707664:port_child0&#45;&gt;struct_9784992</title>
<path fill="none" stroke="black" d="M226.5,-313.5C215.53,-313.5 208.68,-287.02 204.79,-263.8"/>
<polygon fill="black" stroke="black" points="208.23,-263.15 203.25,-253.8 201.31,-264.21 208.23,-263.15"/>
</g>
<!-- struct_139696689707568 -->
<g id="node17" class="node">
<title>struct_139696689707568</title>
<polygon fill="gray" stroke="transparent" points="254,-197 254,-260 365,-260 365,-197 254,-197"/>
<polygon fill="none" stroke="black" points="254.5,-238.5 254.5,-259.5 365.5,-259.5 365.5,-238.5 254.5,-238.5"/>
<text text-anchor="start" x="285" y="-246.3" font-family="Times,serif" text-decoration="underline" font-size="14.00">Cellule</text>
<polygon fill="none" stroke="black" points="254.5,-217.5 254.5,-238.5 306.5,-238.5 306.5,-217.5 254.5,-217.5"/>
<text text-anchor="start" x="257.5" y="-224.3" font-family="Times,serif" font-size="14.00">valeur</text>
<polygon fill="none" stroke="black" points="306.5,-217.5 306.5,-238.5 365.5,-238.5 365.5,-217.5 306.5,-217.5"/>
<text text-anchor="start" x="309.5" y="-224.3" font-family="Times,serif" font-size="14.00">suivant</text>
<polygon fill="none" stroke="black" points="254.5,-196.5 254.5,-217.5 306.5,-217.5 306.5,-196.5 254.5,-196.5"/>
<text text-anchor="start" x="274" y="-203.3" font-family="Times,serif" font-size="14.00">⏺</text>
<polygon fill="none" stroke="black" points="306.5,-196.5 306.5,-217.5 365.5,-217.5 365.5,-196.5 306.5,-196.5"/>
<text text-anchor="start" x="329.5" y="-203.3" font-family="Times,serif" font-size="14.00">⏺</text>
</g>
<!-- struct_139696689707664&#45;&gt;struct_139696689707568 -->
<g id="edge12" class="edge">
<title>struct_139696689707664:port_child1&#45;&gt;struct_139696689707568</title>
<path fill="none" stroke="black" d="M309.5,-302.5C309.5,-293.38 309.5,-283.63 309.5,-274.31"/>
<polygon fill="black" stroke="black" points="313,-274.03 309.5,-264.03 306,-274.03 313,-274.03"/>
</g>
<!-- struct_9785024 -->
<g id="node18" class="node">
<title>struct_9785024</title>
<polygon fill="gray" stroke="transparent" points="252.5,-100.5 252.5,-142.5 278.5,-142.5 278.5,-100.5 252.5,-100.5"/>
<polygon fill="none" stroke="black" points="252.5,-121.5 252.5,-142.5 278.5,-142.5 278.5,-121.5 252.5,-121.5"/>
<text text-anchor="start" x="255.5" y="-129.3" font-family="Times,serif" text-decoration="underline" font-size="14.00">int</text>
<polygon fill="none" stroke="black" points="252.5,-100.5 252.5,-121.5 278.5,-121.5 278.5,-100.5 252.5,-100.5"/>
<text text-anchor="start" x="260.5" y="-107.3" font-family="Times,serif" font-size="14.00">6</text>
</g>
<!-- struct_139696689707568&#45;&gt;struct_9785024 -->
<g id="edge8" class="edge">
<title>struct_139696689707568:port_child0&#45;&gt;struct_9785024</title>
<path fill="none" stroke="black" d="M280.5,-195.5C280.5,-182.56 278.21,-168.59 275.42,-156.37"/>
<polygon fill="black" stroke="black" points="278.8,-155.45 273,-146.58 272,-157.13 278.8,-155.45"/>
</g>
<!-- struct_139696689707472 -->
<g id="node19" class="node">
<title>struct_139696689707472</title>
<polygon fill="gray" stroke="transparent" points="319,-90 319,-153 430,-153 430,-90 319,-90"/>
<polygon fill="none" stroke="black" points="319.5,-131.5 319.5,-152.5 430.5,-152.5 430.5,-131.5 319.5,-131.5"/>
<text text-anchor="start" x="350" y="-139.3" font-family="Times,serif" text-decoration="underline" font-size="14.00">Cellule</text>
<polygon fill="none" stroke="black" points="319.5,-110.5 319.5,-131.5 371.5,-131.5 371.5,-110.5 319.5,-110.5"/>
<text text-anchor="start" x="322.5" y="-117.3" font-family="Times,serif" font-size="14.00">valeur</text>
<polygon fill="none" stroke="black" points="371.5,-110.5 371.5,-131.5 430.5,-131.5 430.5,-110.5 371.5,-110.5"/>
<text text-anchor="start" x="374.5" y="-117.3" font-family="Times,serif" font-size="14.00">suivant</text>
<polygon fill="none" stroke="black" points="319.5,-89.5 319.5,-110.5 371.5,-110.5 371.5,-89.5 319.5,-89.5"/>
<text text-anchor="start" x="339" y="-96.3" font-family="Times,serif" font-size="14.00">⏺</text>
<polygon fill="none" stroke="black" points="371.5,-89.5 371.5,-110.5 430.5,-110.5 430.5,-89.5 371.5,-89.5"/>
<text text-anchor="start" x="394.5" y="-96.3" font-family="Times,serif" font-size="14.00">⏺</text>
</g>
<!-- struct_139696689707568&#45;&gt;struct_139696689707472 -->
<g id="edge11" class="edge">
<title>struct_139696689707568:port_child1&#45;&gt;struct_139696689707472</title>
<path fill="none" stroke="black" d="M336.5,-195.5C336.5,-185.43 339.38,-175.37 343.56,-166.07"/>
<polygon fill="black" stroke="black" points="346.72,-167.57 348.11,-157.07 340.48,-164.41 346.72,-167.57"/>
</g>
<!-- struct_139696689707472&#45;&gt;struct_139696692244096 -->
<g id="edge10" class="edge">
<title>struct_139696689707472:port_child1&#45;&gt;struct_139696692244096</title>
<path fill="none" stroke="black" d="M431.5,-99.5C536.79,-99.5 401.5,-229.21 401.5,-334.5 401.5,-764.5 401.5,-764.5 401.5,-764.5 401.5,-868.55 277.21,-927.97 193.95,-956.1"/>
<polygon fill="black" stroke="black" points="192.66,-952.84 184.26,-959.3 194.86,-959.49 192.66,-952.84"/>
</g>
<!-- struct_9785056 -->
<g id="node20" class="node">
<title>struct_9785056</title>
<polygon fill="gray" stroke="transparent" points="332.5,-4 332.5,-46 358.5,-46 358.5,-4 332.5,-4"/>
<polygon fill="none" stroke="black" points="332.5,-25 332.5,-46 358.5,-46 358.5,-25 332.5,-25"/>
<text text-anchor="start" x="335.5" y="-32.8" font-family="Times,serif" text-decoration="underline" font-size="14.00">int</text>
<polygon fill="none" stroke="black" points="332.5,-4 332.5,-25 358.5,-25 358.5,-4 332.5,-4"/>
<text text-anchor="start" x="340.5" y="-10.8" font-family="Times,serif" font-size="14.00">7</text>
</g>
<!-- struct_139696689707472&#45;&gt;struct_9785056 -->
<g id="edge9" class="edge">
<title>struct_139696689707472:port_child0&#45;&gt;struct_9785056</title>
<path fill="none" stroke="black" d="M345.5,-88.5C345.5,-79.28 345.5,-69.29 345.5,-60.06"/>
<polygon fill="black" stroke="black" points="349,-60.04 345.5,-50.04 342,-60.04 349,-60.04"/>
</g>
</g>
</svg>
