<?xml version="1.0" encoding="UTF-8" standalone="no"?>
<!DOCTYPE svg PUBLIC "-//W3C//DTD SVG 1.1//EN"
 "http://www.w3.org/Graphics/SVG/1.1/DTD/svg11.dtd">
<!-- Generated by graphviz version 2.43.0 (0)
 -->
<!-- Title: structs Pages: 1 -->
<svg width="721pt" height="872pt"
 viewBox="0.00 0.00 721.23 872.00" xmlns="http://www.w3.org/2000/svg" xmlns:xlink="http://www.w3.org/1999/xlink">
<g id="graph0" class="graph" transform="scale(1 1) rotate(0) translate(4 868)">
<title>structs</title>
<polygon fill="white" stroke="transparent" points="-4,4 -4,-868 717.23,-868 717.23,4 -4,4"/>
<!-- struct_res_decoupe -->
<g id="node1" class="node">
<title>struct_res_decoupe</title>
<polygon fill="chartreuse" stroke="transparent" points="314.5,-818 314.5,-860 409.5,-860 409.5,-818 314.5,-818"/>
<polygon fill="none" stroke="black" points="315,-839 315,-860 410,-860 410,-839 315,-839"/>
<text text-anchor="start" x="318" y="-845.8" font-family="Times,serif" font-size="14.00">res_decoupe</text>
<polygon fill="none" stroke="black" points="315,-818 315,-839 410,-839 410,-818 315,-818"/>
<text text-anchor="start" x="356" y="-824.8" font-family="Times,serif" font-size="14.00">⏺</text>
</g>
<!-- struct_139696689565952 -->
<g id="node2" class="node">
<title>struct_139696689565952</title>
<polygon fill="gray" stroke="transparent" points="344,-732 344,-774 382,-774 382,-732 344,-732"/>
<polygon fill="none" stroke="black" points="344,-753 344,-774 382,-774 382,-753 344,-753"/>
<text text-anchor="start" x="351.5" y="-760.8" font-family="Times,serif" text-decoration="underline" font-size="14.00">list</text>
<polygon fill="none" stroke="black" points="344,-732 344,-753 363,-753 363,-732 344,-732"/>
<text text-anchor="start" x="347" y="-738.8" font-family="Times,serif" font-size="14.00">⏺</text>
<polygon fill="none" stroke="black" points="363,-732 363,-753 382,-753 382,-732 363,-732"/>
<text text-anchor="start" x="366" y="-738.8" font-family="Times,serif" font-size="14.00">⏺</text>
</g>
<!-- struct_res_decoupe&#45;&gt;struct_139696689565952 -->
<g id="edge25" class="edge">
<title>struct_res_decoupe:port_res_decoupe&#45;&gt;struct_139696689565952</title>
<path fill="none" stroke="black" d="M363,-817C363,-807.7 363,-797.63 363,-788.33"/>
<polygon fill="black" stroke="black" points="366.5,-788.23 363,-778.23 359.5,-788.23 366.5,-788.23"/>
</g>
<!-- struct_139696689707856 -->
<g id="node3" class="node">
<title>struct_139696689707856</title>
<polygon fill="gray" stroke="transparent" points="123.5,-625 123.5,-688 346.5,-688 346.5,-625 123.5,-625"/>
<polygon fill="none" stroke="black" points="124,-666.5 124,-687.5 347,-687.5 347,-666.5 124,-666.5"/>
<text text-anchor="start" x="127" y="-674.3" font-family="Times,serif" text-decoration="underline" font-size="14.00">ListeSimplementChaineeTriee</text>
<polygon fill="none" stroke="black" points="124,-645.5 124,-666.5 347,-666.5 347,-645.5 124,-645.5"/>
<text text-anchor="start" x="221" y="-652.3" font-family="Times,serif" font-size="14.00">tete</text>
<polygon fill="none" stroke="black" points="124,-624.5 124,-645.5 347,-645.5 347,-624.5 124,-624.5"/>
<text text-anchor="start" x="229" y="-631.3" font-family="Times,serif" font-size="14.00">⏺</text>
</g>
<!-- struct_139696689565952&#45;&gt;struct_139696689707856 -->
<g id="edge12" class="edge">
<title>struct_139696689565952:port_child0&#45;&gt;struct_139696689707856</title>
<path fill="none" stroke="black" d="M343,-742C312.68,-742 285.8,-721.09 266.44,-700.07"/>
<polygon fill="black" stroke="black" points="268.89,-697.55 259.65,-692.36 263.63,-702.18 268.89,-697.55"/>
</g>
<!-- struct_139696689708048 -->
<g id="node14" class="node">
<title>struct_139696689708048</title>
<polygon fill="gray" stroke="transparent" points="380.5,-625 380.5,-688 603.5,-688 603.5,-625 380.5,-625"/>
<polygon fill="none" stroke="black" points="381,-666.5 381,-687.5 604,-687.5 604,-666.5 381,-666.5"/>
<text text-anchor="start" x="384" y="-674.3" font-family="Times,serif" text-decoration="underline" font-size="14.00">ListeSimplementChaineeTriee</text>
<polygon fill="none" stroke="black" points="381,-645.5 381,-666.5 604,-666.5 604,-645.5 381,-645.5"/>
<text text-anchor="start" x="478" y="-652.3" font-family="Times,serif" font-size="14.00">tete</text>
<polygon fill="none" stroke="black" points="381,-624.5 381,-645.5 604,-645.5 604,-624.5 381,-624.5"/>
<text text-anchor="start" x="486" y="-631.3" font-family="Times,serif" font-size="14.00">⏺</text>
</g>
<!-- struct_139696689565952&#45;&gt;struct_139696689708048 -->
<g id="edge24" class="edge">
<title>struct_139696689565952:port_child1&#45;&gt;struct_139696689708048</title>
<path fill="none" stroke="black" d="M383,-742C413.49,-742 440.63,-721.09 460.19,-700.07"/>
<polygon fill="black" stroke="black" points="463.02,-702.16 467.05,-692.36 457.79,-697.5 463.02,-702.16"/>
</g>
<!-- struct_139696689707952 -->
<g id="node4" class="node">
<title>struct_139696689707952</title>
<polygon fill="gray" stroke="transparent" points="195.5,-518 195.5,-581 306.5,-581 306.5,-518 195.5,-518"/>
<polygon fill="none" stroke="black" points="196,-559.5 196,-580.5 307,-580.5 307,-559.5 196,-559.5"/>
<text text-anchor="start" x="226.5" y="-567.3" font-family="Times,serif" text-decoration="underline" font-size="14.00">Cellule</text>
<polygon fill="none" stroke="black" points="196,-538.5 196,-559.5 248,-559.5 248,-538.5 196,-538.5"/>
<text text-anchor="start" x="199" y="-545.3" font-family="Times,serif" font-size="14.00">valeur</text>
<polygon fill="none" stroke="black" points="248,-538.5 248,-559.5 307,-559.5 307,-538.5 248,-538.5"/>
<text text-anchor="start" x="251" y="-545.3" font-family="Times,serif" font-size="14.00">suivant</text>
<polygon fill="none" stroke="black" points="196,-517.5 196,-538.5 248,-538.5 248,-517.5 196,-517.5"/>
<text text-anchor="start" x="215.5" y="-524.3" font-family="Times,serif" font-size="14.00">⏺</text>
<polygon fill="none" stroke="black" points="248,-517.5 248,-538.5 307,-538.5 307,-517.5 248,-517.5"/>
<text text-anchor="start" x="271" y="-524.3" font-family="Times,serif" font-size="14.00">⏺</text>
</g>
<!-- struct_139696689707856&#45;&gt;struct_139696689707952 -->
<g id="edge11" class="edge">
<title>struct_139696689707856:port_child0&#45;&gt;struct_139696689707952</title>
<path fill="none" stroke="black" d="M236,-623.5C236,-614.19 237.19,-604.34 238.89,-595"/>
<polygon fill="black" stroke="black" points="242.34,-595.61 240.91,-585.11 235.48,-594.2 242.34,-595.61"/>
</g>
<!-- struct_139696690357456 -->
<g id="node5" class="node">
<title>struct_139696690357456</title>
<polygon fill="gray" stroke="transparent" points="350.5,-421.5 350.5,-463.5 389.5,-463.5 389.5,-421.5 350.5,-421.5"/>
<polygon fill="none" stroke="black" points="351,-442.5 351,-463.5 390,-463.5 390,-442.5 351,-442.5"/>
<text text-anchor="start" x="354" y="-450.3" font-family="Times,serif" text-decoration="underline" font-size="14.00">float</text>
<polygon fill="none" stroke="black" points="351,-421.5 351,-442.5 390,-442.5 390,-421.5 351,-421.5"/>
<text text-anchor="start" x="361" y="-428.3" font-family="Times,serif" font-size="14.00">inf</text>
</g>
<!-- struct_139696689707952&#45;&gt;struct_139696690357456 -->
<g id="edge1" class="edge">
<title>struct_139696689707952:port_child0&#45;&gt;struct_139696690357456</title>
<path fill="none" stroke="black" d="M222,-516.5C222,-504.18 288.8,-475.46 332.65,-457.94"/>
<polygon fill="black" stroke="black" points="334.16,-461.11 342.16,-454.17 331.58,-454.6 334.16,-461.11"/>
</g>
<!-- struct_139696689706896 -->
<g id="node6" class="node">
<title>struct_139696689706896</title>
<polygon fill="gray" stroke="transparent" points="53.5,-411 53.5,-474 164.5,-474 164.5,-411 53.5,-411"/>
<polygon fill="none" stroke="black" points="54,-452.5 54,-473.5 165,-473.5 165,-452.5 54,-452.5"/>
<text text-anchor="start" x="84.5" y="-460.3" font-family="Times,serif" text-decoration="underline" font-size="14.00">Cellule</text>
<polygon fill="none" stroke="black" points="54,-431.5 54,-452.5 106,-452.5 106,-431.5 54,-431.5"/>
<text text-anchor="start" x="57" y="-438.3" font-family="Times,serif" font-size="14.00">valeur</text>
<polygon fill="none" stroke="black" points="106,-431.5 106,-452.5 165,-452.5 165,-431.5 106,-431.5"/>
<text text-anchor="start" x="109" y="-438.3" font-family="Times,serif" font-size="14.00">suivant</text>
<polygon fill="none" stroke="black" points="54,-410.5 54,-431.5 106,-431.5 106,-410.5 54,-410.5"/>
<text text-anchor="start" x="73.5" y="-417.3" font-family="Times,serif" font-size="14.00">⏺</text>
<polygon fill="none" stroke="black" points="106,-410.5 106,-431.5 165,-431.5 165,-410.5 106,-410.5"/>
<text text-anchor="start" x="129" y="-417.3" font-family="Times,serif" font-size="14.00">⏺</text>
</g>
<!-- struct_139696689707952&#45;&gt;struct_139696689706896 -->
<g id="edge10" class="edge">
<title>struct_139696689707952:port_child1&#45;&gt;struct_139696689706896</title>
<path fill="none" stroke="black" d="M278,-516.5C278,-494.27 228.1,-474.65 182.53,-461.36"/>
<polygon fill="black" stroke="black" points="183.47,-457.98 172.89,-458.62 181.55,-464.72 183.47,-457.98"/>
</g>
<!-- struct_9784832 -->
<g id="node7" class="node">
<title>struct_9784832</title>
<polygon fill="gray" stroke="transparent" points="14,-314.5 14,-356.5 40,-356.5 40,-314.5 14,-314.5"/>
<polygon fill="none" stroke="black" points="14,-335.5 14,-356.5 40,-356.5 40,-335.5 14,-335.5"/>
<text text-anchor="start" x="17" y="-343.3" font-family="Times,serif" text-decoration="underline" font-size="14.00">int</text>
<polygon fill="none" stroke="black" points="14,-314.5 14,-335.5 40,-335.5 40,-314.5 14,-314.5"/>
<text text-anchor="start" x="22" y="-321.3" font-family="Times,serif" font-size="14.00">0</text>
</g>
<!-- struct_139696689706896&#45;&gt;struct_9784832 -->
<g id="edge2" class="edge">
<title>struct_139696689706896:port_child0&#45;&gt;struct_9784832</title>
<path fill="none" stroke="black" d="M53,-420.5C31.06,-420.5 25.56,-394.02 24.96,-370.8"/>
<polygon fill="black" stroke="black" points="28.46,-370.8 24.97,-360.8 21.46,-370.79 28.46,-370.8"/>
</g>
<!-- struct_139696689707040 -->
<g id="node8" class="node">
<title>struct_139696689707040</title>
<polygon fill="gray" stroke="transparent" points="80.5,-304 80.5,-367 191.5,-367 191.5,-304 80.5,-304"/>
<polygon fill="none" stroke="black" points="81,-345.5 81,-366.5 192,-366.5 192,-345.5 81,-345.5"/>
<text text-anchor="start" x="111.5" y="-353.3" font-family="Times,serif" text-decoration="underline" font-size="14.00">Cellule</text>
<polygon fill="none" stroke="black" points="81,-324.5 81,-345.5 133,-345.5 133,-324.5 81,-324.5"/>
<text text-anchor="start" x="84" y="-331.3" font-family="Times,serif" font-size="14.00">valeur</text>
<polygon fill="none" stroke="black" points="133,-324.5 133,-345.5 192,-345.5 192,-324.5 133,-324.5"/>
<text text-anchor="start" x="136" y="-331.3" font-family="Times,serif" font-size="14.00">suivant</text>
<polygon fill="none" stroke="black" points="81,-303.5 81,-324.5 133,-324.5 133,-303.5 81,-303.5"/>
<text text-anchor="start" x="100.5" y="-310.3" font-family="Times,serif" font-size="14.00">⏺</text>
<polygon fill="none" stroke="black" points="133,-303.5 133,-324.5 192,-324.5 192,-303.5 133,-303.5"/>
<text text-anchor="start" x="156" y="-310.3" font-family="Times,serif" font-size="14.00">⏺</text>
</g>
<!-- struct_139696689706896&#45;&gt;struct_139696689707040 -->
<g id="edge9" class="edge">
<title>struct_139696689706896:port_child1&#45;&gt;struct_139696689707040</title>
<path fill="none" stroke="black" d="M136,-409.5C136,-400.38 136,-390.63 136,-381.31"/>
<polygon fill="black" stroke="black" points="139.5,-381.03 136,-371.03 132.5,-381.03 139.5,-381.03"/>
</g>
<!-- struct_9784896 -->
<g id="node9" class="node">
<title>struct_9784896</title>
<polygon fill="gray" stroke="transparent" points="41,-207.5 41,-249.5 67,-249.5 67,-207.5 41,-207.5"/>
<polygon fill="none" stroke="black" points="41,-228.5 41,-249.5 67,-249.5 67,-228.5 41,-228.5"/>
<text text-anchor="start" x="44" y="-236.3" font-family="Times,serif" text-decoration="underline" font-size="14.00">int</text>
<polygon fill="none" stroke="black" points="41,-207.5 41,-228.5 67,-228.5 67,-207.5 41,-207.5"/>
<text text-anchor="start" x="49" y="-214.3" font-family="Times,serif" font-size="14.00">2</text>
</g>
<!-- struct_139696689707040&#45;&gt;struct_9784896 -->
<g id="edge3" class="edge">
<title>struct_139696689707040:port_child0&#45;&gt;struct_9784896</title>
<path fill="none" stroke="black" d="M80,-313.5C69.03,-313.5 62.18,-287.02 58.29,-263.8"/>
<polygon fill="black" stroke="black" points="61.73,-263.15 56.75,-253.8 54.81,-264.21 61.73,-263.15"/>
</g>
<!-- struct_139696689707232 -->
<g id="node10" class="node">
<title>struct_139696689707232</title>
<polygon fill="gray" stroke="transparent" points="107.5,-197 107.5,-260 218.5,-260 218.5,-197 107.5,-197"/>
<polygon fill="none" stroke="black" points="108,-238.5 108,-259.5 219,-259.5 219,-238.5 108,-238.5"/>
<text text-anchor="start" x="138.5" y="-246.3" font-family="Times,serif" text-decoration="underline" font-size="14.00">Cellule</text>
<polygon fill="none" stroke="black" points="108,-217.5 108,-238.5 160,-238.5 160,-217.5 108,-217.5"/>
<text text-anchor="start" x="111" y="-224.3" font-family="Times,serif" font-size="14.00">valeur</text>
<polygon fill="none" stroke="black" points="160,-217.5 160,-238.5 219,-238.5 219,-217.5 160,-217.5"/>
<text text-anchor="start" x="163" y="-224.3" font-family="Times,serif" font-size="14.00">suivant</text>
<polygon fill="none" stroke="black" points="108,-196.5 108,-217.5 160,-217.5 160,-196.5 108,-196.5"/>
<text text-anchor="start" x="127.5" y="-203.3" font-family="Times,serif" font-size="14.00">⏺</text>
<polygon fill="none" stroke="black" points="160,-196.5 160,-217.5 219,-217.5 219,-196.5 160,-196.5"/>
<text text-anchor="start" x="183" y="-203.3" font-family="Times,serif" font-size="14.00">⏺</text>
</g>
<!-- struct_139696689707040&#45;&gt;struct_139696689707232 -->
<g id="edge8" class="edge">
<title>struct_139696689707040:port_child1&#45;&gt;struct_139696689707232</title>
<path fill="none" stroke="black" d="M163,-302.5C163,-293.38 163,-283.63 163,-274.31"/>
<polygon fill="black" stroke="black" points="166.5,-274.03 163,-264.03 159.5,-274.03 166.5,-274.03"/>
</g>
<!-- struct_9784960 -->
<g id="node11" class="node">
<title>struct_9784960</title>
<polygon fill="gray" stroke="transparent" points="106,-100.5 106,-142.5 132,-142.5 132,-100.5 106,-100.5"/>
<polygon fill="none" stroke="black" points="106,-121.5 106,-142.5 132,-142.5 132,-121.5 106,-121.5"/>
<text text-anchor="start" x="109" y="-129.3" font-family="Times,serif" text-decoration="underline" font-size="14.00">int</text>
<polygon fill="none" stroke="black" points="106,-100.5 106,-121.5 132,-121.5 132,-100.5 106,-100.5"/>
<text text-anchor="start" x="114" y="-107.3" font-family="Times,serif" font-size="14.00">4</text>
</g>
<!-- struct_139696689707232&#45;&gt;struct_9784960 -->
<g id="edge4" class="edge">
<title>struct_139696689707232:port_child0&#45;&gt;struct_9784960</title>
<path fill="none" stroke="black" d="M134,-195.5C134,-182.56 131.71,-168.59 128.92,-156.37"/>
<polygon fill="black" stroke="black" points="132.3,-155.45 126.5,-146.58 125.5,-157.13 132.3,-155.45"/>
</g>
<!-- struct_139696689707568 -->
<g id="node12" class="node">
<title>struct_139696689707568</title>
<polygon fill="gray" stroke="transparent" points="172.5,-90 172.5,-153 283.5,-153 283.5,-90 172.5,-90"/>
<polygon fill="none" stroke="black" points="173,-131.5 173,-152.5 284,-152.5 284,-131.5 173,-131.5"/>
<text text-anchor="start" x="203.5" y="-139.3" font-family="Times,serif" text-decoration="underline" font-size="14.00">Cellule</text>
<polygon fill="none" stroke="black" points="173,-110.5 173,-131.5 225,-131.5 225,-110.5 173,-110.5"/>
<text text-anchor="start" x="176" y="-117.3" font-family="Times,serif" font-size="14.00">valeur</text>
<polygon fill="none" stroke="black" points="225,-110.5 225,-131.5 284,-131.5 284,-110.5 225,-110.5"/>
<text text-anchor="start" x="228" y="-117.3" font-family="Times,serif" font-size="14.00">suivant</text>
<polygon fill="none" stroke="black" points="173,-89.5 173,-110.5 225,-110.5 225,-89.5 173,-89.5"/>
<text text-anchor="start" x="192.5" y="-96.3" font-family="Times,serif" font-size="14.00">⏺</text>
<polygon fill="none" stroke="black" points="225,-89.5 225,-110.5 284,-110.5 284,-89.5 225,-89.5"/>
<text text-anchor="start" x="248" y="-96.3" font-family="Times,serif" font-size="14.00">⏺</text>
</g>
<!-- struct_139696689707232&#45;&gt;struct_139696689707568 -->
<g id="edge7" class="edge">
<title>struct_139696689707232:port_child1&#45;&gt;struct_139696689707568</title>
<path fill="none" stroke="black" d="M190,-195.5C190,-185.43 192.88,-175.37 197.06,-166.07"/>
<polygon fill="black" stroke="black" points="200.22,-167.57 201.61,-157.07 193.98,-164.41 200.22,-167.57"/>
</g>
<!-- struct_139696689707568&#45;&gt;struct_139696689707952 -->
<g id="edge6" class="edge">
<title>struct_139696689707568:port_child1&#45;&gt;struct_139696689707952</title>
<path fill="none" stroke="black" d="M285,-99.5C446.39,-99.5 325.37,-391.5 272.47,-504.54"/>
<polygon fill="black" stroke="black" points="269.28,-503.1 268.18,-513.64 275.61,-506.09 269.28,-503.1"/>
</g>
<!-- struct_9785024 -->
<g id="node13" class="node">
<title>struct_9785024</title>
<polygon fill="gray" stroke="transparent" points="186,-4 186,-46 212,-46 212,-4 186,-4"/>
<polygon fill="none" stroke="black" points="186,-25 186,-46 212,-46 212,-25 186,-25"/>
<text text-anchor="start" x="189" y="-32.8" font-family="Times,serif" text-decoration="underline" font-size="14.00">int</text>
<polygon fill="none" stroke="black" points="186,-4 186,-25 212,-25 212,-4 186,-4"/>
<text text-anchor="start" x="194" y="-10.8" font-family="Times,serif" font-size="14.00">6</text>
</g>
<!-- struct_139696689707568&#45;&gt;struct_9785024 -->
<g id="edge5" class="edge">
<title>struct_139696689707568:port_child0&#45;&gt;struct_9785024</title>
<path fill="none" stroke="black" d="M199,-88.5C199,-79.28 199,-69.29 199,-60.06"/>
<polygon fill="black" stroke="black" points="202.5,-60.04 199,-50.04 195.5,-60.04 202.5,-60.04"/>
</g>
<!-- struct_139696689708480 -->
<g id="node15" class="node">
<title>struct_139696689708480</title>
<polygon fill="gray" stroke="transparent" points="430.5,-518 430.5,-581 541.5,-581 541.5,-518 430.5,-518"/>
<polygon fill="none" stroke="black" points="431,-559.5 431,-580.5 542,-580.5 542,-559.5 431,-559.5"/>
<text text-anchor="start" x="461.5" y="-567.3" font-family="Times,serif" text-decoration="underline" font-size="14.00">Cellule</text>
<polygon fill="none" stroke="black" points="431,-538.5 431,-559.5 483,-559.5 483,-538.5 431,-538.5"/>
<text text-anchor="start" x="434" y="-545.3" font-family="Times,serif" font-size="14.00">valeur</text>
<polygon fill="none" stroke="black" points="483,-538.5 483,-559.5 542,-559.5 542,-538.5 483,-538.5"/>
<text text-anchor="start" x="486" y="-545.3" font-family="Times,serif" font-size="14.00">suivant</text>
<polygon fill="none" stroke="black" points="431,-517.5 431,-538.5 483,-538.5 483,-517.5 431,-517.5"/>
<text text-anchor="start" x="450.5" y="-524.3" font-family="Times,serif" font-size="14.00">⏺</text>
<polygon fill="none" stroke="black" points="483,-517.5 483,-538.5 542,-538.5 542,-517.5 483,-517.5"/>
<text text-anchor="start" x="506" y="-524.3" font-family="Times,serif" font-size="14.00">⏺</text>
</g>
<!-- struct_139696689708048&#45;&gt;struct_139696689708480 -->
<g id="edge23" class="edge">
<title>struct_139696689708048:port_child0&#45;&gt;struct_139696689708480</title>
<path fill="none" stroke="black" d="M493,-623.5C493,-614.43 492.46,-604.76 491.68,-595.53"/>
<polygon fill="black" stroke="black" points="495.14,-594.96 490.71,-585.34 488.17,-595.63 495.14,-594.96"/>
</g>
<!-- struct_139696689708480&#45;&gt;struct_139696690357456 -->
<g id="edge13" class="edge">
<title>struct_139696689708480:port_child0&#45;&gt;struct_139696690357456</title>
<path fill="none" stroke="black" d="M430,-527.5C404.13,-527.5 388.35,-500.78 379.52,-477.48"/>
<polygon fill="black" stroke="black" points="382.74,-476.09 376.15,-467.8 376.13,-478.39 382.74,-476.09"/>
</g>
<!-- struct_139696689706944 -->
<g id="node16" class="node">
<title>struct_139696689706944</title>
<polygon fill="gray" stroke="transparent" points="453.5,-411 453.5,-474 564.5,-474 564.5,-411 453.5,-411"/>
<polygon fill="none" stroke="black" points="454,-452.5 454,-473.5 565,-473.5 565,-452.5 454,-452.5"/>
<text text-anchor="start" x="484.5" y="-460.3" font-family="Times,serif" text-decoration="underline" font-size="14.00">Cellule</text>
<polygon fill="none" stroke="black" points="454,-431.5 454,-452.5 506,-452.5 506,-431.5 454,-431.5"/>
<text text-anchor="start" x="457" y="-438.3" font-family="Times,serif" font-size="14.00">valeur</text>
<polygon fill="none" stroke="black" points="506,-431.5 506,-452.5 565,-452.5 565,-431.5 506,-431.5"/>
<text text-anchor="start" x="509" y="-438.3" font-family="Times,serif" font-size="14.00">suivant</text>
<polygon fill="none" stroke="black" points="454,-410.5 454,-431.5 506,-431.5 506,-410.5 454,-410.5"/>
<text text-anchor="start" x="473.5" y="-417.3" font-family="Times,serif" font-size="14.00">⏺</text>
<polygon fill="none" stroke="black" points="506,-410.5 506,-431.5 565,-431.5 565,-410.5 506,-410.5"/>
<text text-anchor="start" x="529" y="-417.3" font-family="Times,serif" font-size="14.00">⏺</text>
</g>
<!-- struct_139696689708480&#45;&gt;struct_139696689706944 -->
<g id="edge22" class="edge">
<title>struct_139696689708480:port_child1&#45;&gt;struct_139696689706944</title>
<path fill="none" stroke="black" d="M513,-516.5C513,-507.37 512.68,-497.61 512.23,-488.29"/>
<polygon fill="black" stroke="black" points="515.71,-487.81 511.67,-478.01 508.72,-488.19 515.71,-487.81"/>
</g>
<!-- struct_9784864 -->
<g id="node17" class="node">
<title>struct_9784864</title>
<polygon fill="gray" stroke="transparent" points="414,-314.5 414,-356.5 440,-356.5 440,-314.5 414,-314.5"/>
<polygon fill="none" stroke="black" points="414,-335.5 414,-356.5 440,-356.5 440,-335.5 414,-335.5"/>
<text text-anchor="start" x="417" y="-343.3" font-family="Times,serif" text-decoration="underline" font-size="14.00">int</text>
<polygon fill="none" stroke="black" points="414,-314.5 414,-335.5 440,-335.5 440,-314.5 414,-314.5"/>
<text text-anchor="start" x="422" y="-321.3" font-family="Times,serif" font-size="14.00">1</text>
</g>
<!-- struct_139696689706944&#45;&gt;struct_9784864 -->
<g id="edge14" class="edge">
<title>struct_139696689706944:port_child0&#45;&gt;struct_9784864</title>
<path fill="none" stroke="black" d="M453,-420.5C431.06,-420.5 425.56,-394.02 424.96,-370.8"/>
<polygon fill="black" stroke="black" points="428.46,-370.8 424.97,-360.8 421.46,-370.79 428.46,-370.8"/>
</g>
<!-- struct_139696689707136 -->
<g id="node18" class="node">
<title>struct_139696689707136</title>
<polygon fill="gray" stroke="transparent" points="480.5,-304 480.5,-367 591.5,-367 591.5,-304 480.5,-304"/>
<polygon fill="none" stroke="black" points="481,-345.5 481,-366.5 592,-366.5 592,-345.5 481,-345.5"/>
<text text-anchor="start" x="511.5" y="-353.3" font-family="Times,serif" text-decoration="underline" font-size="14.00">Cellule</text>
<polygon fill="none" stroke="black" points="481,-324.5 481,-345.5 533,-345.5 533,-324.5 481,-324.5"/>
<text text-anchor="start" x="484" y="-331.3" font-family="Times,serif" font-size="14.00">valeur</text>
<polygon fill="none" stroke="black" points="533,-324.5 533,-345.5 592,-345.5 592,-324.5 533,-324.5"/>
<text text-anchor="start" x="536" y="-331.3" font-family="Times,serif" font-size="14.00">suivant</text>
<polygon fill="none" stroke="black" points="481,-303.5 481,-324.5 533,-324.5 533,-303.5 481,-303.5"/>
<text text-anchor="start" x="500.5" y="-310.3" font-family="Times,serif" font-size="14.00">⏺</text>
<polygon fill="none" stroke="black" points="533,-303.5 533,-324.5 592,-324.5 592,-303.5 533,-303.5"/>
<text text-anchor="start" x="556" y="-310.3" font-family="Times,serif" font-size="14.00">⏺</text>
</g>
<!-- struct_139696689706944&#45;&gt;struct_139696689707136 -->
<g id="edge21" class="edge">
<title>struct_139696689706944:port_child1&#45;&gt;struct_139696689707136</title>
<path fill="none" stroke="black" d="M536,-409.5C536,-400.38 536,-390.63 536,-381.31"/>
<polygon fill="black" stroke="black" points="539.5,-381.03 536,-371.03 532.5,-381.03 539.5,-381.03"/>
</g>
<!-- struct_9784928 -->
<g id="node19" class="node">
<title>struct_9784928</title>
<polygon fill="gray" stroke="transparent" points="441,-207.5 441,-249.5 467,-249.5 467,-207.5 441,-207.5"/>
<polygon fill="none" stroke="black" points="441,-228.5 441,-249.5 467,-249.5 467,-228.5 441,-228.5"/>
<text text-anchor="start" x="444" y="-236.3" font-family="Times,serif" text-decoration="underline" font-size="14.00">int</text>
<polygon fill="none" stroke="black" points="441,-207.5 441,-228.5 467,-228.5 467,-207.5 441,-207.5"/>
<text text-anchor="start" x="449" y="-214.3" font-family="Times,serif" font-size="14.00">3</text>
</g>
<!-- struct_139696689707136&#45;&gt;struct_9784928 -->
<g id="edge15" class="edge">
<title>struct_139696689707136:port_child0&#45;&gt;struct_9784928</title>
<path fill="none" stroke="black" d="M480,-313.5C469.03,-313.5 462.18,-287.02 458.29,-263.8"/>
<polygon fill="black" stroke="black" points="461.73,-263.15 456.75,-253.8 454.81,-264.21 461.73,-263.15"/>
</g>
<!-- struct_139696689707664 -->
<g id="node20" class="node">
<title>struct_139696689707664</title>
<polygon fill="gray" stroke="transparent" points="507.5,-197 507.5,-260 618.5,-260 618.5,-197 507.5,-197"/>
<polygon fill="none" stroke="black" points="508,-238.5 508,-259.5 619,-259.5 619,-238.5 508,-238.5"/>
<text text-anchor="start" x="538.5" y="-246.3" font-family="Times,serif" text-decoration="underline" font-size="14.00">Cellule</text>
<polygon fill="none" stroke="black" points="508,-217.5 508,-238.5 560,-238.5 560,-217.5 508,-217.5"/>
<text text-anchor="start" x="511" y="-224.3" font-family="Times,serif" font-size="14.00">valeur</text>
<polygon fill="none" stroke="black" points="560,-217.5 560,-238.5 619,-238.5 619,-217.5 560,-217.5"/>
<text text-anchor="start" x="563" y="-224.3" font-family="Times,serif" font-size="14.00">suivant</text>
<polygon fill="none" stroke="black" points="508,-196.5 508,-217.5 560,-217.5 560,-196.5 508,-196.5"/>
<text text-anchor="start" x="527.5" y="-203.3" font-family="Times,serif" font-size="14.00">⏺</text>
<polygon fill="none" stroke="black" points="560,-196.5 560,-217.5 619,-217.5 619,-196.5 560,-196.5"/>
<text text-anchor="start" x="583" y="-203.3" font-family="Times,serif" font-size="14.00">⏺</text>
</g>
<!-- struct_139696689707136&#45;&gt;struct_139696689707664 -->
<g id="edge20" class="edge">
<title>struct_139696689707136:port_child1&#45;&gt;struct_139696689707664</title>
<path fill="none" stroke="black" d="M563,-302.5C563,-293.38 563,-283.63 563,-274.31"/>
<polygon fill="black" stroke="black" points="566.5,-274.03 563,-264.03 559.5,-274.03 566.5,-274.03"/>
</g>
<!-- struct_9784992 -->
<g id="node21" class="node">
<title>struct_9784992</title>
<polygon fill="gray" stroke="transparent" points="506,-100.5 506,-142.5 532,-142.5 532,-100.5 506,-100.5"/>
<polygon fill="none" stroke="black" points="506,-121.5 506,-142.5 532,-142.5 532,-121.5 506,-121.5"/>
<text text-anchor="start" x="509" y="-129.3" font-family="Times,serif" text-decoration="underline" font-size="14.00">int</text>
<polygon fill="none" stroke="black" points="506,-100.5 506,-121.5 532,-121.5 532,-100.5 506,-100.5"/>
<text text-anchor="start" x="514" y="-107.3" font-family="Times,serif" font-size="14.00">5</text>
</g>
<!-- struct_139696689707664&#45;&gt;struct_9784992 -->
<g id="edge16" class="edge">
<title>struct_139696689707664:port_child0&#45;&gt;struct_9784992</title>
<path fill="none" stroke="black" d="M534,-195.5C534,-182.56 531.71,-168.59 528.92,-156.37"/>
<polygon fill="black" stroke="black" points="532.3,-155.45 526.5,-146.58 525.5,-157.13 532.3,-155.45"/>
</g>
<!-- struct_139696689707472 -->
<g id="node22" class="node">
<title>struct_139696689707472</title>
<polygon fill="gray" stroke="transparent" points="572.5,-90 572.5,-153 683.5,-153 683.5,-90 572.5,-90"/>
<polygon fill="none" stroke="black" points="573,-131.5 573,-152.5 684,-152.5 684,-131.5 573,-131.5"/>
<text text-anchor="start" x="603.5" y="-139.3" font-family="Times,serif" text-decoration="underline" font-size="14.00">Cellule</text>
<polygon fill="none" stroke="black" points="573,-110.5 573,-131.5 625,-131.5 625,-110.5 573,-110.5"/>
<text text-anchor="start" x="576" y="-117.3" font-family="Times,serif" font-size="14.00">valeur</text>
<polygon fill="none" stroke="black" points="625,-110.5 625,-131.5 684,-131.5 684,-110.5 625,-110.5"/>
<text text-anchor="start" x="628" y="-117.3" font-family="Times,serif" font-size="14.00">suivant</text>
<polygon fill="none" stroke="black" points="573,-89.5 573,-110.5 625,-110.5 625,-89.5 573,-89.5"/>
<text text-anchor="start" x="592.5" y="-96.3" font-family="Times,serif" font-size="14.00">⏺</text>
<polygon fill="none" stroke="black" points="625,-89.5 625,-110.5 684,-110.5 684,-89.5 625,-89.5"/>
<text text-anchor="start" x="648" y="-96.3" font-family="Times,serif" font-size="14.00">⏺</text>
</g>
<!-- struct_139696689707664&#45;&gt;struct_139696689707472 -->
<g id="edge19" class="edge">
<title>struct_139696689707664:port_child1&#45;&gt;struct_139696689707472</title>
<path fill="none" stroke="black" d="M590,-195.5C590,-185.43 592.88,-175.37 597.06,-166.07"/>
<polygon fill="black" stroke="black" points="600.22,-167.57 601.61,-157.07 593.98,-164.41 600.22,-167.57"/>
</g>
<!-- struct_139696689707472&#45;&gt;struct_139696689708480 -->
<g id="edge18" class="edge">
<title>struct_139696689707472:port_child1&#45;&gt;struct_139696689708480</title>
<path fill="none" stroke="black" d="M685,-99.5C772.17,-99.5 632.83,-407.18 582,-478 574.22,-488.84 564.26,-498.7 553.71,-507.38"/>
<polygon fill="black" stroke="black" points="551.26,-504.85 545.56,-513.78 555.58,-510.36 551.26,-504.85"/>
</g>
<!-- struct_9785056 -->
<g id="node23" class="node">
<title>struct_9785056</title>
<polygon fill="gray" stroke="transparent" points="586,-4 586,-46 612,-46 612,-4 586,-4"/>
<polygon fill="none" stroke="black" points="586,-25 586,-46 612,-46 612,-25 586,-25"/>
<text text-anchor="start" x="589" y="-32.8" font-family="Times,serif" text-decoration="underline" font-size="14.00">int</text>
<polygon fill="none" stroke="black" points="586,-4 586,-25 612,-25 612,-4 586,-4"/>
<text text-anchor="start" x="594" y="-10.8" font-family="Times,serif" font-size="14.00">7</text>
</g>
<!-- struct_139696689707472&#45;&gt;struct_9785056 -->
<g id="edge17" class="edge">
<title>struct_139696689707472:port_child0&#45;&gt;struct_9785056</title>
<path fill="none" stroke="black" d="M599,-88.5C599,-79.28 599,-69.29 599,-60.06"/>
<polygon fill="black" stroke="black" points="602.5,-60.04 599,-50.04 595.5,-60.04 602.5,-60.04"/>
</g>
</g>
</svg>
