<?xml version="1.0" encoding="UTF-8" standalone="no"?>
<!DOCTYPE svg PUBLIC "-//W3C//DTD SVG 1.1//EN"
 "http://www.w3.org/Graphics/SVG/1.1/DTD/svg11.dtd">
<!-- Generated by graphviz version 2.43.0 (0)
 -->
<!-- Title: structs Pages: 1 -->
<svg width="284pt" height="316pt"
 viewBox="0.00 0.00 283.50 316.00" xmlns="http://www.w3.org/2000/svg" xmlns:xlink="http://www.w3.org/1999/xlink">
<g id="graph0" class="graph" transform="scale(1 1) rotate(0) translate(4 312)">
<title>structs</title>
<polygon fill="white" stroke="transparent" points="-4,4 -4,-312 279.5,-312 279.5,4 -4,4"/>
<!-- struct_my_tuple -->
<g id="node1" class="node">
<title>struct_my_tuple</title>
<polygon fill="chartreuse" stroke="transparent" points="160,-176 160,-218 232,-218 232,-176 160,-176"/>
<polygon fill="none" stroke="black" points="160,-197 160,-218 232,-218 232,-197 160,-197"/>
<text text-anchor="start" x="163" y="-203.8" font-family="Times,serif" font-size="14.00">my_tuple</text>
<polygon fill="none" stroke="black" points="160,-176 160,-197 232,-197 232,-176 160,-176"/>
<text text-anchor="start" x="189.5" y="-182.8" font-family="Times,serif" font-size="14.00">⏺</text>
</g>
<!-- struct_140537472268096 -->
<g id="node2" class="node">
<title>struct_140537472268096</title>
<polygon fill="gray" stroke="transparent" points="169.5,-90 169.5,-132 212.5,-132 212.5,-90 169.5,-90"/>
<polygon fill="none" stroke="black" points="170,-111 170,-132 213,-132 213,-111 170,-111"/>
<text text-anchor="start" x="173" y="-118.8" font-family="Times,serif" text-decoration="underline" font-size="14.00">tuple</text>
<polygon fill="none" stroke="black" points="170,-90 170,-111 191,-111 191,-90 170,-90"/>
<text text-anchor="start" x="174" y="-96.8" font-family="Times,serif" font-size="14.00">⏺</text>
<polygon fill="none" stroke="black" points="191,-90 191,-111 213,-111 213,-90 191,-90"/>
<text text-anchor="start" x="195.5" y="-96.8" font-family="Times,serif" font-size="14.00">⏺</text>
</g>
<!-- struct_my_tuple&#45;&gt;struct_140537472268096 -->
<g id="edge3" class="edge">
<title>struct_my_tuple:port_my_tuple&#45;&gt;struct_140537472268096</title>
<path fill="none" stroke="black" d="M196,-175C196,-165.67 195.45,-155.59 194.71,-146.29"/>
<polygon fill="black" stroke="black" points="198.19,-145.85 193.82,-136.2 191.21,-146.47 198.19,-145.85"/>
</g>
<!-- struct_140537470955600 -->
<g id="node3" class="node">
<title>struct_140537470955600</title>
<polygon fill="gray" stroke="transparent" points="127.5,-4 127.5,-46 166.5,-46 166.5,-4 127.5,-4"/>
<polygon fill="none" stroke="black" points="128,-25 128,-46 167,-46 167,-25 128,-25"/>
<text text-anchor="start" x="131" y="-32.8" font-family="Times,serif" text-decoration="underline" font-size="14.00">float</text>
<polygon fill="none" stroke="black" points="128,-4 128,-25 167,-25 167,-4 128,-4"/>
<text text-anchor="start" x="136" y="-10.8" font-family="Times,serif" font-size="14.00">3.0</text>
</g>
<!-- struct_140537472268096&#45;&gt;struct_140537470955600 -->
<g id="edge1" class="edge">
<title>struct_140537472268096:port_child0&#45;&gt;struct_140537470955600</title>
<path fill="none" stroke="black" d="M180,-89C180,-78.63 176.45,-68.28 171.67,-59.06"/>
<polygon fill="black" stroke="black" points="174.61,-57.15 166.58,-50.25 168.56,-60.66 174.61,-57.15"/>
</g>
<!-- struct_140537470946864 -->
<g id="node4" class="node">
<title>struct_140537470946864</title>
<polygon fill="gray" stroke="transparent" points="200.5,-4 200.5,-46 267.5,-46 267.5,-4 200.5,-4"/>
<polygon fill="none" stroke="black" points="201,-25 201,-46 268,-46 268,-25 201,-25"/>
<text text-anchor="start" x="224" y="-32.8" font-family="Times,serif" text-decoration="underline" font-size="14.00">str</text>
<polygon fill="none" stroke="black" points="201,-4 201,-25 268,-25 268,-4 201,-4"/>
<text text-anchor="start" x="204" y="-10.8" font-family="Times,serif" font-size="14.00">&quot;viva ...&quot;</text>
</g>
<!-- struct_140537472268096&#45;&gt;struct_140537470946864 -->
<g id="edge2" class="edge">
<title>struct_140537472268096:port_child1&#45;&gt;struct_140537470946864</title>
<path fill="none" stroke="black" d="M202,-89C202,-78.6 205.51,-68.19 210.2,-58.9"/>
<polygon fill="black" stroke="black" points="213.34,-60.46 215.2,-50.04 207.24,-57.03 213.34,-60.46"/>
</g>
<!-- struct_my_list -->
<g id="node5" class="node">
<title>struct_my_list</title>
<polygon fill="chartreuse" stroke="transparent" points="68,-262 68,-304 126,-304 126,-262 68,-262"/>
<polygon fill="none" stroke="black" points="68,-283 68,-304 126,-304 126,-283 68,-283"/>
<text text-anchor="start" x="71" y="-289.8" font-family="Times,serif" font-size="14.00">my_list</text>
<polygon fill="none" stroke="black" points="68,-262 68,-283 126,-283 126,-262 68,-262"/>
<text text-anchor="start" x="90.5" y="-268.8" font-family="Times,serif" font-size="14.00">⏺</text>
</g>
<!-- struct_140537469612864 -->
<g id="node6" class="node">
<title>struct_140537469612864</title>
<polygon fill="gray" stroke="transparent" points="68.5,-176 68.5,-218 125.5,-218 125.5,-176 68.5,-176"/>
<polygon fill="none" stroke="black" points="69,-197 69,-218 126,-218 126,-197 69,-197"/>
<text text-anchor="start" x="86" y="-204.8" font-family="Times,serif" text-decoration="underline" font-size="14.00">list</text>
<polygon fill="none" stroke="black" points="69,-176 69,-197 88,-197 88,-176 69,-176"/>
<text text-anchor="start" x="72" y="-182.8" font-family="Times,serif" font-size="14.00">⏺</text>
<polygon fill="none" stroke="black" points="88,-176 88,-197 107,-197 107,-176 88,-176"/>
<text text-anchor="start" x="91" y="-182.8" font-family="Times,serif" font-size="14.00">⏺</text>
<polygon fill="none" stroke="black" points="107,-176 107,-197 126,-197 126,-176 107,-176"/>
<text text-anchor="start" x="110" y="-182.8" font-family="Times,serif" font-size="14.00">⏺</text>
</g>
<!-- struct_my_list&#45;&gt;struct_140537469612864 -->
<g id="edge7" class="edge">
<title>struct_my_list:port_my_list&#45;&gt;struct_140537469612864</title>
<path fill="none" stroke="black" d="M97,-261C97,-251.7 97,-241.63 97,-232.33"/>
<polygon fill="black" stroke="black" points="100.5,-232.23 97,-222.23 93.5,-232.23 100.5,-232.23"/>
</g>
<!-- struct_140537469612864&#45;&gt;struct_140537472268096 -->
<g id="edge6" class="edge">
<title>struct_140537469612864:port_child2&#45;&gt;struct_140537472268096</title>
<path fill="none" stroke="black" d="M117,-175C117,-164.39 134.85,-149.01 153.02,-136.09"/>
<polygon fill="black" stroke="black" points="155.09,-138.92 161.33,-130.36 151.11,-133.16 155.09,-138.92"/>
</g>
<!-- struct_9784864 -->
<g id="node7" class="node">
<title>struct_9784864</title>
<polygon fill="gray" stroke="transparent" points="14,-90 14,-132 40,-132 40,-90 14,-90"/>
<polygon fill="none" stroke="black" points="14,-111 14,-132 40,-132 40,-111 14,-111"/>
<text text-anchor="start" x="17" y="-118.8" font-family="Times,serif" text-decoration="underline" font-size="14.00">int</text>
<polygon fill="none" stroke="black" points="14,-90 14,-111 40,-111 40,-90 14,-90"/>
<text text-anchor="start" x="22" y="-96.8" font-family="Times,serif" font-size="14.00">1</text>
</g>
<!-- struct_140537469612864&#45;&gt;struct_9784864 -->
<g id="edge4" class="edge">
<title>struct_140537469612864:port_child0&#45;&gt;struct_9784864</title>
<path fill="none" stroke="black" d="M78,-175C78,-161.32 70.64,-148.94 61.52,-138.85"/>
<polygon fill="black" stroke="black" points="63.83,-136.21 54.29,-131.6 58.87,-141.16 63.83,-136.21"/>
</g>
<!-- struct_140537470947184 -->
<g id="node8" class="node">
<title>struct_140537470947184</title>
<polygon fill="gray" stroke="transparent" points="80,-90 80,-132 126,-132 126,-90 80,-90"/>
<polygon fill="none" stroke="black" points="80,-111 80,-132 126,-132 126,-111 80,-111"/>
<text text-anchor="start" x="92.5" y="-118.8" font-family="Times,serif" text-decoration="underline" font-size="14.00">str</text>
<polygon fill="none" stroke="black" points="80,-90 80,-111 126,-111 126,-90 80,-90"/>
<text text-anchor="start" x="83" y="-96.8" font-family="Times,serif" font-size="14.00">&quot;two&quot;</text>
</g>
<!-- struct_140537469612864&#45;&gt;struct_140537470947184 -->
<g id="edge5" class="edge">
<title>struct_140537469612864:port_child1&#45;&gt;struct_140537470947184</title>
<path fill="none" stroke="black" d="M98,-175C98,-165.67 98.55,-155.59 99.29,-146.29"/>
<polygon fill="black" stroke="black" points="102.79,-146.47 100.18,-136.2 95.81,-145.85 102.79,-146.47"/>
</g>
</g>
</svg>
