<?xml version="1.0" encoding="UTF-8" standalone="no"?>
<!DOCTYPE svg PUBLIC "-//W3C//DTD SVG 1.1//EN"
 "http://www.w3.org/Graphics/SVG/1.1/DTD/svg11.dtd">
<!-- Generated by graphviz version 2.43.0 (0)
 -->
<!-- Title: structs Pages: 1 -->
<svg width="275pt" height="230pt"
 viewBox="0.00 0.00 274.50 230.00" xmlns="http://www.w3.org/2000/svg" xmlns:xlink="http://www.w3.org/1999/xlink">
<g id="graph0" class="graph" transform="scale(1 1) rotate(0) translate(4 226)">
<title>structs</title>
<polygon fill="white" stroke="transparent" points="-4,4 -4,-226 270.5,-226 270.5,4 -4,4"/>
<!-- struct_140119808053440 -->
<g id="node1" class="node">
<title>struct_140119808053440</title>
<polygon fill="gray" stroke="transparent" points="73.5,-176 73.5,-218 130.5,-218 130.5,-176 73.5,-176"/>
<polygon fill="none" stroke="black" points="74,-197 74,-218 131,-218 131,-197 74,-197"/>
<text text-anchor="start" x="91" y="-204.8" font-family="Times,serif" text-decoration="underline" font-size="14.00">list</text>
<polygon fill="none" stroke="black" points="74,-176 74,-197 93,-197 93,-176 74,-176"/>
<text text-anchor="start" x="77" y="-182.8" font-family="Times,serif" font-size="14.00">⏺</text>
<polygon fill="none" stroke="black" points="93,-176 93,-197 112,-197 112,-176 93,-176"/>
<text text-anchor="start" x="96" y="-182.8" font-family="Times,serif" font-size="14.00">⏺</text>
<polygon fill="none" stroke="black" points="112,-176 112,-197 131,-197 131,-176 112,-176"/>
<text text-anchor="start" x="115" y="-182.8" font-family="Times,serif" font-size="14.00">⏺</text>
</g>
<!-- struct_9784864 -->
<g id="node2" class="node">
<title>struct_9784864</title>
<polygon fill="gray" stroke="transparent" points="14,-90 14,-132 40,-132 40,-90 14,-90"/>
<polygon fill="none" stroke="black" points="14,-111 14,-132 40,-132 40,-111 14,-111"/>
<text text-anchor="start" x="17" y="-118.8" font-family="Times,serif" text-decoration="underline" font-size="14.00">int</text>
<polygon fill="none" stroke="black" points="14,-90 14,-111 40,-111 40,-90 14,-90"/>
<text text-anchor="start" x="22" y="-96.8" font-family="Times,serif" font-size="14.00">1</text>
</g>
<!-- struct_140119808053440&#45;&gt;struct_9784864 -->
<g id="edge1" class="edge">
<title>struct_140119808053440:port_child0&#45;&gt;struct_9784864</title>
<path fill="none" stroke="black" d="M83,-175C83,-159.27 73.13,-145.65 61.68,-135.13"/>
<polygon fill="black" stroke="black" points="63.92,-132.44 54.02,-128.68 59.41,-137.8 63.92,-132.44"/>
</g>
<!-- struct_140119809167088 -->
<g id="node3" class="node">
<title>struct_140119809167088</title>
<polygon fill="gray" stroke="transparent" points="80,-90 80,-132 126,-132 126,-90 80,-90"/>
<polygon fill="none" stroke="black" points="80,-111 80,-132 126,-132 126,-111 80,-111"/>
<text text-anchor="start" x="92.5" y="-118.8" font-family="Times,serif" text-decoration="underline" font-size="14.00">str</text>
<polygon fill="none" stroke="black" points="80,-90 80,-111 126,-111 126,-90 80,-90"/>
<text text-anchor="start" x="83" y="-96.8" font-family="Times,serif" font-size="14.00">&quot;two&quot;</text>
</g>
<!-- struct_140119808053440&#45;&gt;struct_140119809167088 -->
<g id="edge2" class="edge">
<title>struct_140119808053440:port_child1&#45;&gt;struct_140119809167088</title>
<path fill="none" stroke="black" d="M103,-175C103,-165.7 103,-155.63 103,-146.33"/>
<polygon fill="black" stroke="black" points="106.5,-146.23 103,-136.23 99.5,-146.23 106.5,-146.23"/>
</g>
<!-- struct_140119810488128 -->
<g id="node4" class="node">
<title>struct_140119810488128</title>
<polygon fill="gray" stroke="transparent" points="160.5,-90 160.5,-132 203.5,-132 203.5,-90 160.5,-90"/>
<polygon fill="none" stroke="black" points="161,-111 161,-132 204,-132 204,-111 161,-111"/>
<text text-anchor="start" x="164" y="-118.8" font-family="Times,serif" text-decoration="underline" font-size="14.00">tuple</text>
<polygon fill="none" stroke="black" points="161,-90 161,-111 182,-111 182,-90 161,-90"/>
<text text-anchor="start" x="165" y="-96.8" font-family="Times,serif" font-size="14.00">⏺</text>
<polygon fill="none" stroke="black" points="182,-90 182,-111 204,-111 204,-90 182,-90"/>
<text text-anchor="start" x="186.5" y="-96.8" font-family="Times,serif" font-size="14.00">⏺</text>
</g>
<!-- struct_140119808053440&#45;&gt;struct_140119810488128 -->
<g id="edge5" class="edge">
<title>struct_140119808053440:port_child2&#45;&gt;struct_140119810488128</title>
<path fill="none" stroke="black" d="M122,-175C122,-159.02 132.25,-145.48 144.28,-135.1"/>
<polygon fill="black" stroke="black" points="146.66,-137.68 152.35,-128.75 142.33,-132.18 146.66,-137.68"/>
</g>
<!-- struct_140119809175632 -->
<g id="node5" class="node">
<title>struct_140119809175632</title>
<polygon fill="gray" stroke="transparent" points="118.5,-4 118.5,-46 157.5,-46 157.5,-4 118.5,-4"/>
<polygon fill="none" stroke="black" points="119,-25 119,-46 158,-46 158,-25 119,-25"/>
<text text-anchor="start" x="122" y="-32.8" font-family="Times,serif" text-decoration="underline" font-size="14.00">float</text>
<polygon fill="none" stroke="black" points="119,-4 119,-25 158,-25 158,-4 119,-4"/>
<text text-anchor="start" x="127" y="-10.8" font-family="Times,serif" font-size="14.00">3.0</text>
</g>
<!-- struct_140119810488128&#45;&gt;struct_140119809175632 -->
<g id="edge3" class="edge">
<title>struct_140119810488128:port_child0&#45;&gt;struct_140119809175632</title>
<path fill="none" stroke="black" d="M171,-89C171,-78.63 167.45,-68.28 162.67,-59.06"/>
<polygon fill="black" stroke="black" points="165.61,-57.15 157.58,-50.25 159.56,-60.66 165.61,-57.15"/>
</g>
<!-- struct_140119809166768 -->
<g id="node6" class="node">
<title>struct_140119809166768</title>
<polygon fill="gray" stroke="transparent" points="191.5,-4 191.5,-46 258.5,-46 258.5,-4 191.5,-4"/>
<polygon fill="none" stroke="black" points="192,-25 192,-46 259,-46 259,-25 192,-25"/>
<text text-anchor="start" x="215" y="-32.8" font-family="Times,serif" text-decoration="underline" font-size="14.00">str</text>
<polygon fill="none" stroke="black" points="192,-4 192,-25 259,-25 259,-4 192,-4"/>
<text text-anchor="start" x="195" y="-10.8" font-family="Times,serif" font-size="14.00">&quot;viva ...&quot;</text>
</g>
<!-- struct_140119810488128&#45;&gt;struct_140119809166768 -->
<g id="edge4" class="edge">
<title>struct_140119810488128:port_child1&#45;&gt;struct_140119809166768</title>
<path fill="none" stroke="black" d="M193,-89C193,-78.6 196.51,-68.19 201.2,-58.9"/>
<polygon fill="black" stroke="black" points="204.34,-60.46 206.2,-50.04 198.24,-57.03 204.34,-60.46"/>
</g>
</g>
</svg>
