<svg xmlns="http://www.w3.org/2000/svg" version="1.1" width="640" height="480">
<g fill="white" stroke="black" stroke-width="2">
<circle cx="216" cy="57" r="1" />
<circle cx="19" cy="62" r="1" />
<circle cx="74" cy="73" r="1" />
<circle cx="82" cy="39" r="1" />
<circle cx="229" cy="52" r="1" />
<circle cx="61" cy="93" r="1" />
<circle cx="13" cy="87" r="1" />
<circle cx="28" cy="94" r="1" />
<circle cx="40" cy="70" r="1" />
<circle cx="78" cy="109" r="1" />
<circle cx="115" cy="105" r="1" />
<circle cx="218" cy="50" r="1" />
<circle cx="97" cy="69" r="1" />
<circle cx="228" cy="60" r="1" />
<circle cx="116" cy="45" r="1" />
<circle cx="165" cy="94" r="1" />
<circle cx="38" cy="92" r="1" />
<circle cx="61" cy="164" r="1" />
<circle cx="156" cy="67" r="1" />
<circle cx="202" cy="30" r="1" />
<circle cx="220" cy="61" r="1" />
<circle cx="32" cy="72" r="1" />
<circle cx="136" cy="73" r="1" />
<circle cx="209" cy="62" r="1" />
<circle cx="126" cy="41" r="1" />
<circle cx="39" cy="158" r="1" />
<circle cx="154" cy="68" r="1" />
<circle cx="235" cy="80" r="1" />
<circle cx="91" cy="93" r="1" />
<circle cx="211" cy="26" r="1" />
<circle cx="218" cy="86" r="1" />
<circle cx="96" cy="90" r="1" />
<circle cx="192" cy="28" r="1" />
<circle cx="203" cy="22" r="1" />
<circle cx="18" cy="194" r="1" />
<circle cx="208" cy="36" r="1" />
<circle cx="128" cy="43" r="1" />
<circle cx="163" cy="68" r="1" />
<circle cx="207" cy="94" r="1" />
<circle cx="76" cy="133" r="1" />
<circle cx="72" cy="138" r="1" />
<circle cx="177" cy="95" r="1" />
<circle cx="266" cy="28" r="1" />
<circle cx="229" cy="63" r="1" />
<circle cx="61" cy="68" r="1" />
<circle cx="69" cy="110" r="1" />
<circle cx="94" cy="41" r="1" />
<circle cx="83" cy="71" r="1" />
<circle cx="125" cy="67" r="1" />
<circle cx="161" cy="133" r="1" />
<circle cx="41" cy="72" r="1" />
<circle cx="63" cy="93" r="1" />
<circle cx="95" cy="64" r="1" />
<circle cx="36" cy="59" r="1" />
<circle cx="154" cy="112" r="1" />
<circle cx="121" cy="135" r="1" />
<circle cx="53" cy="51" r="1" />
<circle cx="223" cy="53" r="1" />
<circle cx="19" cy="56" r="1" />
<circle cx="106" cy="106" r="1" />
<circle cx="86" cy="107" r="1" />
<circle cx="222" cy="44" r="1" />
<circle cx="249" cy="79" r="1" />
<circle cx="159" cy="92" r="1" />
<circle cx="56" cy="42" r="1" />
<circle cx="220" cy="42" r="1" />
<circle cx="17" cy="90" r="1" />
<circle cx="37" cy="177" r="1" />
<circle cx="203" cy="60" r="1" />
<circle cx="19" cy="88" r="1" />
<circle cx="210" cy="63" r="1" />
<circle cx="213" cy="39" r="1" />
<circle cx="51" cy="165" r="1" />
<circle cx="241" cy="55" r="1" />
<circle cx="20" cy="56" r="1" />
<circle cx="19" cy="55" r="1" />
<circle cx="43" cy="71" r="1" />
<circle cx="227" cy="64" r="1" />
<circle cx="206" cy="24" r="1" />
<circle cx="107" cy="37" r="1" />
<circle cx="145" cy="129" r="1" />
<circle cx="242" cy="27" r="1" />
<circle cx="222" cy="84" r="1" />
<circle cx="120" cy="129" r="1" />
<circle cx="103" cy="119" r="1" />
<circle cx="88" cy="112" r="1" />
<circle cx="241" cy="23" r="1" />
<circle cx="103" cy="48" r="1" />
<circle cx="75" cy="71" r="1" />
<circle cx="232" cy="24" r="1" />
<circle cx="63" cy="94" r="1" />
<circle cx="45" cy="52" r="1" />
<circle cx="130" cy="68" r="1" />
<circle cx="244" cy="58" r="1" />
<circle cx="89" cy="133" r="1" />
<circle cx="35" cy="48" r="1" />
<circle cx="117" cy="70" r="1" />
<circle cx="186" cy="125" r="1" />
<circle cx="29" cy="137" r="1" />
<circle cx="100" cy="78" r="1" />
<circle cx="181" cy="71" r="1" />
<circle cx="47" cy="131" r="1" />
<circle cx="67" cy="92" r="1" />
<circle cx="124" cy="72" r="1" />
<circle cx="173" cy="130" r="1" />
<circle cx="94" cy="68" r="1" />
<circle cx="101" cy="64" r="1" />
<circle cx="154" cy="116" r="1" />
<circle cx="109" cy="45" r="1" />
<circle cx="221" cy="24" r="1" />
<circle cx="167" cy="95" r="1" />
<circle cx="178" cy="125" r="1" />
<circle cx="150" cy="49" r="1" />
<circle cx="106" cy="79" r="1" />
<circle cx="209" cy="46" r="1" />
<circle cx="149" cy="110" r="1" />
<circle cx="79" cy="91" r="1" />
<circle cx="224" cy="55" r="1" />
<circle cx="37" cy="50" r="1" />
<circle cx="120" cy="107" r="1" />
<circle cx="204" cy="97" r="1" />
<circle cx="217" cy="38" r="1" />
<circle cx="197" cy="40" r="1" />
<circle cx="166" cy="58" r="1" />
<circle cx="182" cy="128" r="1" />
<circle cx="167" cy="57" r="1" />
<circle cx="74" cy="39" r="1" />
<circle cx="17" cy="191" r="1" />
<circle cx="131" cy="71" r="1" />
<circle cx="133" cy="106" r="1" />
<circle cx="138" cy="59" r="1" />
<circle cx="170" cy="130" r="1" />
<circle cx="75" cy="139" r="1" />
<circle cx="24" cy="142" r="1" />
<circle cx="70" cy="41" r="1" />
<circle cx="29" cy="94" r="1" />
<circle cx="47" cy="123" r="1" />
<circle cx="200" cy="63" r="1" />
<circle cx="19" cy="176" r="1" />
<circle cx="26" cy="140" r="1" />
<circle cx="141" cy="115" r="1" />
<circle cx="195" cy="117" r="1" />
<circle cx="60" cy="41" r="1" />
<circle cx="173" cy="93" r="1" />
<circle cx="97" cy="131" r="1" />
<circle cx="41" cy="95" r="1" />
<circle cx="70" cy="120" r="1" />
<circle cx="45" cy="51" r="1" />
<circle cx="129" cy="63" r="1" />
<circle cx="188" cy="28" r="1" />
<circle cx="85" cy="92" r="1" />
<circle cx="130" cy="103" r="1" />
<circle cx="182" cy="63" r="1" />
<circle cx="167" cy="55" r="1" />
<circle cx="68" cy="139" r="1" />
<circle cx="104" cy="108" r="1" />
<circle cx="240" cy="49" r="1" />
<circle cx="100" cy="65" r="1" />
<circle cx="129" cy="42" r="1" />
<circle cx="55" cy="43" r="1" />
<circle cx="31" cy="137" r="1" />
<circle cx="203" cy="107" r="1" />
<circle cx="135" cy="67" r="1" />
<circle cx="167" cy="132" r="1" />
<circle cx="130" cy="133" r="1" />
<circle cx="193" cy="35" r="1" />
<circle cx="71" cy="117" r="1" />
<circle cx="145" cy="58" r="1" />
<circle cx="141" cy="101" r="1" />
<circle cx="83" cy="131" r="1" />
<circle cx="120" cy="104" r="1" />
<circle cx="65" cy="69" r="1" />
<circle cx="150" cy="49" r="1" />
<circle cx="184" cy="74" r="1" />
<circle cx="206" cy="94" r="1" />
<circle cx="215" cy="83" r="1" />
<circle cx="36" cy="85" r="1" />
<circle cx="252" cy="25" r="1" />
<circle cx="222" cy="67" r="1" />
<circle cx="261" cy="29" r="1" />
<circle cx="202" cy="93" r="1" />
<circle cx="105" cy="119" r="1" />
<circle cx="198" cy="111" r="1" />
<circle cx="40" cy="179" r="1" />
<circle cx="56" cy="166" r="1" />
<circle cx="60" cy="120" r="1" />
<circle cx="48" cy="55" r="1" />
<circle cx="47" cy="55" r="1" />
<circle cx="264" cy="30" r="1" />
<circle cx="209" cy="30" r="1" />
<circle cx="43" cy="93" r="1" />
<circle cx="99" cy="89" r="1" />
<circle cx="231" cy="57" r="1" />
<circle cx="203" cy="89" r="1" />
<circle cx="12" cy="80" r="1" />
<circle cx="81" cy="133" r="1" />
<circle cx="176" cy="92" r="1" />
<circle cx="104" cy="134" r="1" />
<circle cx="120" cy="108" r="1" />
<circle cx="157" cy="60" r="1" />
<circle cx="136" cy="133" r="1" />
<circle cx="128" cy="105" r="1" />
<circle cx="94" cy="110" r="1" />
<circle cx="225" cy="45" r="1" />
<circle cx="104" cy="118" r="1" />
<circle cx="158" cy="70" r="1" />
<circle cx="63" cy="77" r="1" />
<circle cx="43" cy="52" r="1" />
<circle cx="166" cy="84" r="1" />
<circle cx="80" cy="115" r="1" />
<circle cx="174" cy="130" r="1" />
<circle cx="77" cy="67" r="1" />
<circle cx="22" cy="178" r="1" />
<circle cx="37" cy="69" r="1" />
<circle cx="66" cy="146" r="1" />
<circle cx="215" cy="39" r="1" />
<circle cx="227" cy="83" r="1" />
<circle cx="216" cy="42" r="1" />
<circle cx="14" cy="194" r="1" />
<circle cx="112" cy="134" r="1" />
<circle cx="81" cy="107" r="1" />
<circle cx="93" cy="69" r="1" />
<circle cx="36" cy="156" r="1" />
<circle cx="123" cy="67" r="1" />
<circle cx="249" cy="79" r="1" />
<circle cx="90" cy="42" r="1" />
<circle cx="174" cy="89" r="1" />
<circle cx="72" cy="66" r="1" />
<circle cx="61" cy="66" r="1" />
<circle cx="214" cy="37" r="1" />
<circle cx="218" cy="54" r="1" />
<circle cx="214" cy="64" r="1" />
<circle cx="21" cy="55" r="1" />
<circle cx="54" cy="50" r="1" />
<circle cx="169" cy="104" r="1" />
<circle cx="192" cy="121" r="1" />
<circle cx="118" cy="90" r="1" />
<circle cx="64" cy="158" r="1" />
<circle cx="15" cy="189" r="1" />
<circle cx="129" cy="87" r="1" />
<circle cx="67" cy="146" r="1" />
<circle cx="111" cy="112" r="1" />
<circle cx="202" cy="30" r="1" />
<circle cx="19" cy="174" r="1" />
<circle cx="48" cy="172" r="1" />
<circle cx="98" cy="129" r="1" />
<circle cx="36" cy="56" r="1" />
<circle cx="263" cy="27" r="1" />
<circle cx="162" cy="54" r="1" />
<circle cx="135" cy="67" r="1" />
<circle cx="164" cy="97" r="1" />
<circle cx="249" cy="59" r="1" />
<circle cx="138" cy="74" r="1" />
<circle cx="66" cy="156" r="1" />
<circle cx="140" cy="45" r="1" />
<circle cx="86" cy="72" r="1" />
<circle cx="70" cy="122" r="1" />
<circle cx="225" cy="62" r="1" />
<circle cx="10" cy="83" r="1" />
<circle cx="133" cy="135" r="1" />
<circle cx="226" cy="57" r="1" />
<circle cx="207" cy="36" r="1" />
<circle cx="67" cy="94" r="1" />
<circle cx="217" cy="42" r="1" />
<circle cx="211" cy="38" r="1" />
<circle cx="146" cy="88" r="1" />
<circle cx="154" cy="72" r="1" />
<circle cx="146" cy="44" r="1" />
<circle cx="204" cy="60" r="1" />
<circle cx="166" cy="105" r="1" />
<circle cx="181" cy="126" r="1" />
<circle cx="104" cy="91" r="1" />
<circle cx="109" cy="130" r="1" />
<circle cx="210" cy="29" r="1" />
<circle cx="26" cy="85" r="1" />
<circle cx="39" cy="139" r="1" />
<circle cx="94" cy="93" r="1" />
<circle cx="43" cy="50" r="1" />
<circle cx="141" cy="43" r="1" />
<circle cx="44" cy="156" r="1" />
<circle cx="203" cy="40" r="1" />
<circle cx="156" cy="102" r="1" />
<circle cx="192" cy="25" r="1" />
<circle cx="265" cy="26" r="1" />
<circle cx="28" cy="92" r="1" />
<circle cx="255" cy="70" r="1" />
<circle cx="248" cy="62" r="1" />
<circle cx="177" cy="92" r="1" />
<circle cx="203" cy="91" r="1" />
<circle cx="112" cy="132" r="1" />
<circle cx="74" cy="113" r="1" />
<circle cx="11" cy="65" r="1" />
<circle cx="217" cy="27" r="1" />
<circle cx="55" cy="96" r="1" />
<circle cx="132" cy="88" r="1" />
<circle cx="240" cy="49" r="1" />
<circle cx="15" cy="60" r="1" />
<circle cx="24" cy="141" r="1" />
<circle cx="73" cy="122" r="1" />
<circle cx="145" cy="88" r="1" />
<circle cx="100" cy="47" r="1" />
<circle cx="195" cy="122" r="1" />
<circle cx="203" cy="102" r="1" />
<circle cx="10" cy="76" r="1" />
<circle cx="38" cy="130" r="1" />
<circle cx="33" cy="90" r="1" />
<circle cx="244" cy="52" r="1" />
<circle cx="58" cy="121" r="1" />
<circle cx="13" cy="74" r="1" />
<circle cx="99" cy="116" r="1" />
<circle cx="30" cy="53" r="1" />
<circle cx="128" cy="73" r="1" />
<circle cx="235" cy="21" r="1" />
<circle cx="114" cy="133" r="1" />
<circle cx="111" cy="38" r="1" />
<circle cx="149" cy="63" r="1" />
<circle cx="20" cy="185" r="1" />
<circle cx="108" cy="47" r="1" />
<circle cx="97" cy="119" r="1" />
<circle cx="91" cy="130" r="1" />
<circle cx="78" cy="117" r="1" />
<circle cx="197" cy="40" r="1" />
<circle cx="78" cy="117" r="1" />
<circle cx="197" cy="70" r="1" />
<circle cx="96" cy="41" r="1" />
<circle cx="233" cy="62" r="1" />
<circle cx="132" cy="67" r="1" />
<circle cx="23" cy="176" r="1" />
<circle cx="126" cy="73" r="1" />
<circle cx="62" cy="65" r="1" />
<circle cx="192" cy="60" r="1" />
<circle cx="230" cy="26" r="1" />
<circle cx="243" cy="53" r="1" />
<circle cx="183" cy="115" r="1" />
<circle cx="156" cy="106" r="1" />
<circle cx="216" cy="49" r="1" />
<circle cx="104" cy="107" r="1" />
<circle cx="193" cy="81" r="1" />
<circle cx="85" cy="71" r="1" />
<circle cx="236" cy="25" r="1" />
<circle cx="235" cy="50" r="1" />
<circle cx="33" cy="50" r="1" />
<circle cx="64" cy="60" r="1" />
<circle cx="242" cy="25" r="1" />
<circle cx="132" cy="40" r="1" />
<circle cx="116" cy="91" r="1" />
<circle cx="202" cy="60" r="1" />
<circle cx="65" cy="73" r="1" />
<circle cx="8" cy="71" r="1" />
<circle cx="223" cy="53" r="1" />
<circle cx="91" cy="133" r="1" />
<circle cx="118" cy="67" r="1" />
<circle cx="233" cy="58" r="1" />
<circle cx="33" cy="59" r="1" />
<circle cx="209" cy="62" r="1" />
<circle cx="35" cy="73" r="1" />
<circle cx="90" cy="112" r="1" />
<circle cx="127" cy="74" r="1" />
<circle cx="52" cy="121" r="1" />
<circle cx="237" cy="81" r="1" />
<circle cx="165" cy="129" r="1" />
<circle cx="15" cy="170" r="1" />
<circle cx="97" cy="76" r="1" />
<circle cx="93" cy="129" r="1" />
<circle cx="164" cy="96" r="1" />
<circle cx="99" cy="89" r="1" />
<circle cx="69" cy="138" r="1" />
<circle cx="185" cy="63" r="1" />
<circle cx="99" cy="118" r="1" />
<circle cx="194" cy="77" r="1" />
<circle cx="57" cy="66" r="1" />
<circle cx="202" cy="114" r="1" />
<circle cx="166" cy="65" r="1" />
<circle cx="14" cy="59" r="1" />
<circle cx="26" cy="82" r="1" />
<circle cx="140" cy="69" r="1" />
<circle cx="261" cy="27" r="1" />
<circle cx="120" cy="67" r="1" />
<circle cx="141" cy="55" r="1" />
<circle cx="129" cy="107" r="1" />
<circle cx="196" cy="60" r="1" />
<circle cx="165" cy="128" r="1" />
<circle cx="99" cy="47" r="1" />
<circle cx="87" cy="90" r="1" />
<circle cx="207" cy="107" r="1" />
<circle cx="276" cy="28" r="1" />
<circle cx="144" cy="87" r="1" />
<circle cx="196" cy="78" r="1" />
<circle cx="62" cy="113" r="1" />
<circle cx="220" cy="40" r="1" />
<circle cx="133" cy="43" r="1" />
<circle cx="226" cy="67" r="1" />
<circle cx="55" cy="94" r="1" />
<circle cx="71" cy="43" r="1" />
<circle cx="66" cy="160" r="1" />
<circle cx="34" cy="179" r="1" />
<circle cx="89" cy="40" r="1" />
<circle cx="92" cy="109" r="1" />
<circle cx="75" cy="113" r="1" />
<circle cx="119" cy="44" r="1" />
<circle cx="153" cy="61" r="1" />
<circle cx="66" cy="157" r="1" />
<circle cx="34" cy="132" r="1" />
<circle cx="101" cy="119" r="1" />
<circle cx="180" cy="88" r="1" />
<circle cx="192" cy="24" r="1" />
<circle cx="41" cy="177" r="1" />
<circle cx="30" cy="175" r="1" />
<circle cx="47" cy="152" r="1" />
<circle cx="99" cy="37" r="1" />
<circle cx="106" cy="45" r="1" />
<circle cx="134" cy="61" r="1" />
<circle cx="98" cy="47" r="1" />
<circle cx="50" cy="169" r="1" />
<circle cx="150" cy="72" r="1" />
<circle cx="225" cy="56" r="1" />
<circle cx="31" cy="91" r="1" />
<circle cx="215" cy="38" r="1" />
<circle cx="10" cy="81" r="1" />
<circle cx="49" cy="51" r="1" />
<circle cx="138" cy="44" r="1" />
<circle cx="107" cy="131" r="1" />
<circle cx="21" cy="183" r="1" />
<circle cx="78" cy="69" r="1" />
<circle cx="289" cy="35" r="1" />
<circle cx="77" cy="38" r="1" />
<circle cx="194" cy="77" r="1" />
<circle cx="174" cy="85" r="1" />
<circle cx="233" cy="63" r="1" />
<circle cx="43" cy="156" r="1" />
<circle cx="141" cy="88" r="1" />
<circle cx="207" cy="29" r="1" />
<circle cx="72" cy="62" r="1" />
<circle cx="164" cy="107" r="1" />
<circle cx="98" cy="105" r="1" />
<circle cx="32" cy="47" r="1" />
<circle cx="59" cy="47" r="1" />
<circle cx="165" cy="64" r="1" />
<circle cx="175" cy="128" r="1" />
<circle cx="93" cy="93" r="1" />
<circle cx="52" cy="127" r="1" />
<circle cx="238" cy="83" r="1" />
<circle cx="104" cy="77" r="1" />
<circle cx="226" cy="46" r="1" />
<circle cx="175" cy="65" r="1" />
<circle cx="35" cy="60" r="1" />
<circle cx="35" cy="85" r="1" />
<circle cx="197" cy="114" r="1" />
<circle cx="129" cy="104" r="1" />
<circle cx="159" cy="53" r="1" />
<circle cx="227" cy="82" r="1" />
<circle cx="39" cy="133" r="1" />
<circle cx="56" cy="44" r="1" />
<circle cx="137" cy="72" r="1" />
<circle cx="155" cy="60" r="1" />
<circle cx="202" cy="114" r="1" />
<circle cx="232" cy="21" r="1" />
<circle cx="166" cy="92" r="1" />
<circle cx="226" cy="67" r="1" />
<circle cx="71" cy="39" r="1" />
<circle cx="95" cy="65" r="1" />
<circle cx="105" cy="79" r="1" />
<circle cx="214" cy="50" r="1" />
<circle cx="42" cy="96" r="1" />
<circle cx="204" cy="37" r="1" />
<circle cx="210" cy="65" r="1" />
<circle cx="53" cy="41" r="1" />
<circle cx="160" cy="96" r="1" />
<circle cx="141" cy="132" r="1" />
<circle cx="107" cy="133" r="1" />
<circle cx="190" cy="125" r="1" />
<circle cx="155" cy="132" r="1" />
<circle cx="90" cy="130" r="1" />
<circle cx="107" cy="78" r="1" />
<circle cx="217" cy="24" r="1" />
<circle cx="16" cy="88" r="1" />
<circle cx="20" cy="180" r="1" />
<circle cx="192" cy="124" r="1" />
<circle cx="137" cy="72" r="1" />
<circle cx="262" cy="27" r="1" />
<circle cx="81" cy="65" r="1" />
<circle cx="92" cy="91" r="1" />
<circle cx="215" cy="67" r="1" />
<circle cx="227" cy="21" r="1" />
<circle cx="104" cy="43" r="1" />
<circle cx="214" cy="39" r="1" />
<circle cx="147" cy="44" r="1" />
<circle cx="221" cy="86" r="1" />
<circle cx="107" cy="91" r="1" />
<circle cx="164" cy="98" r="1" />
<circle cx="102" cy="91" r="1" />
<circle cx="223" cy="53" r="1" />
<circle cx="15" cy="189" r="1" />
<circle cx="41" cy="159" r="1" />
<circle cx="158" cy="104" r="1" />
<circle cx="204" cy="101" r="1" />
<circle cx="205" cy="96" r="1" />
<circle cx="260" cy="25" r="1" />
<circle cx="157" cy="71" r="1" />
<circle cx="166" cy="121" r="1" />
<circle cx="58" cy="121" r="1" />
<circle cx="18" cy="60" r="1" />
<circle cx="131" cy="60" r="1" />
<circle cx="91" cy="91" r="1" />
<circle cx="139" cy="66" r="1" />
<circle cx="207" cy="19" r="1" />
<circle cx="205" cy="108" r="1" />
<circle cx="192" cy="58" r="1" />
<circle cx="203" cy="63" r="1" />
<circle cx="129" cy="46" r="1" />
<circle cx="134" cy="72" r="1" />
<circle cx="202" cy="23" r="1" />
<circle cx="211" cy="85" r="1" />
<circle cx="136" cy="75" r="1" />
<circle cx="61" cy="115" r="1" />
<circle cx="128" cy="107" r="1" />
<circle cx="15" cy="82" r="1" />
<circle cx="218" cy="24" r="1" />
<circle cx="62" cy="43" r="1" />
<circle cx="13" cy="85" r="1" />
<circle cx="160" cy="103" r="1" />
<circle cx="21" cy="83" r="1" />
<circle cx="159" cy="66" r="1" />
<circle cx="34" cy="83" r="1" />
<circle cx="40" cy="54" r="1" />
<circle cx="66" cy="40" r="1" />
<circle cx="196" cy="84" r="1" />
<circle cx="28" cy="52" r="1" />
<circle cx="63" cy="71" r="1" />
<circle cx="119" cy="45" r="1" />
<circle cx="112" cy="39" r="1" />
<circle cx="31" cy="61" r="1" />
<circle cx="164" cy="94" r="1" />
<circle cx="150" cy="129" r="1" />
<circle cx="146" cy="69" r="1" />
<circle cx="240" cy="27" r="1" />
<circle cx="82" cy="111" r="1" />
<circle cx="152" cy="104" r="1" />
<circle cx="39" cy="96" r="1" />
<circle cx="244" cy="21" r="1" />
<circle cx="211" cy="65" r="1" />
<circle cx="187" cy="71" r="1" />
<circle cx="213" cy="48" r="1" />
<circle cx="147" cy="65" r="1" />
<circle cx="185" cy="80" r="1" />
<circle cx="229" cy="59" r="1" />
<circle cx="32" cy="177" r="1" />
<circle cx="16" cy="188" r="1" />
<circle cx="77" cy="53" r="1" />
<circle cx="199" cy="40" r="1" />
<circle cx="28" cy="95" r="1" />
<circle cx="145" cy="54" r="1" />
<circle cx="172" cy="95" r="1" />
<circle cx="81" cy="38" r="1" />
<circle cx="279" cy="34" r="1" />
<circle cx="155" cy="130" r="1" />
<circle cx="112" cy="130" r="1" />
<circle cx="98" cy="79" r="1" />
<circle cx="136" cy="91" r="1" />
<circle cx="147" cy="74" r="1" />
<circle cx="88" cy="132" r="1" />
<circle cx="173" cy="127" r="1" />
<circle cx="169" cy="92" r="1" />
<circle cx="12" cy="65" r="1" />
<circle cx="165" cy="104" r="1" />
<circle cx="139" cy="66" r="1" />
<circle cx="148" cy="55" r="1" />
<circle cx="53" cy="42" r="1" />
<circle cx="112" cy="130" r="1" />
<circle cx="88" cy="108" r="1" />
<circle cx="210" cy="83" r="1" />
<circle cx="65" cy="121" r="1" />
<circle cx="103" cy="77" r="1" />
<circle cx="65" cy="163" r="1" />
<circle cx="111" cy="108" r="1" />
<circle cx="211" cy="35" r="1" />
<circle cx="212" cy="40" r="1" />
<circle cx="67" cy="155" r="1" />
<circle cx="190" cy="62" r="1" />
<circle cx="195" cy="82" r="1" />
<circle cx="121" cy="68" r="1" />
<circle cx="203" cy="86" r="1" />
<circle cx="195" cy="24" r="1" />
<circle cx="202" cy="108" r="1" />
<circle cx="133" cy="103" r="1" />
<circle cx="171" cy="60" r="1" />
<circle cx="96" cy="134" r="1" />
<circle cx="112" cy="114" r="1" />
<circle cx="93" cy="70" r="1" />
<circle cx="177" cy="80" r="1" />
<circle cx="124" cy="42" r="1" />
<circle cx="75" cy="134" r="1" />
<circle cx="22" cy="157" r="1" />
<circle cx="22" cy="143" r="1" />
<circle cx="46" cy="84" r="1" />
<circle cx="216" cy="87" r="1" />
<circle cx="62" cy="47" r="1" />
<circle cx="143" cy="88" r="1" />
<circle cx="203" cy="113" r="1" />
<circle cx="203" cy="37" r="1" />
<circle cx="165" cy="50" r="1" />
<circle cx="203" cy="44" r="1" />
<circle cx="70" cy="77" r="1" />
<circle cx="148" cy="71" r="1" />
<circle cx="76" cy="119" r="1" />
<circle cx="64" cy="91" r="1" />
<circle cx="138" cy="89" r="1" />
<circle cx="204" cy="90" r="1" />
<circle cx="223" cy="54" r="1" />
<circle cx="29" cy="54" r="1" />
<circle cx="22" cy="141" r="1" />
<circle cx="232" cy="82" r="1" />
<circle cx="152" cy="103" r="1" />
<circle cx="133" cy="68" r="1" />
<circle cx="229" cy="19" r="1" />
<circle cx="174" cy="57" r="1" />
<circle cx="166" cy="131" r="1" />
<circle cx="61" cy="67" r="1" />
<circle cx="85" cy="131" r="1" />
<circle cx="130" cy="106" r="1" />
<circle cx="224" cy="58" r="1" />
<circle cx="49" cy="123" r="1" />
<circle cx="105" cy="90" r="1" />
<circle cx="219" cy="27" r="1" />
<circle cx="217" cy="64" r="1" />
<circle cx="54" cy="119" r="1" />
<circle cx="241" cy="50" r="1" />
<circle cx="42" cy="47" r="1" />
<circle cx="128" cy="89" r="1" />
<circle cx="180" cy="60" r="1" />
<circle cx="183" cy="116" r="1" />
<circle cx="66" cy="161" r="1" />
<circle cx="248" cy="56" r="1" />
<circle cx="64" cy="164" r="1" />
<circle cx="126" cy="69" r="1" />
<circle cx="64" cy="43" r="1" />
<circle cx="45" cy="73" r="1" />
<circle cx="82" cy="53" r="1" />
<circle cx="226" cy="57" r="1" />
<circle cx="76" cy="64" r="1" />
<circle cx="115" cy="89" r="1" />
<circle cx="62" cy="160" r="1" />
<circle cx="155" cy="49" r="1" />
<circle cx="107" cy="112" r="1" />
<circle cx="36" cy="74" r="1" />
<circle cx="181" cy="76" r="1" />
<circle cx="40" cy="91" r="1" />
<circle cx="107" cy="38" r="1" />
<circle cx="133" cy="129" r="1" />
<circle cx="16" cy="172" r="1" />
<circle cx="81" cy="91" r="1" />
<circle cx="252" cy="28" r="1" />
<circle cx="227" cy="21" r="1" />
<circle cx="176" cy="89" r="1" />
<circle cx="128" cy="132" r="1" />
<circle cx="85" cy="72" r="1" />
<circle cx="206" cy="87" r="1" />
<circle cx="250" cy="25" r="1" />
<circle cx="157" cy="69" r="1" />
<circle cx="191" cy="26" r="1" />
<circle cx="137" cy="89" r="1" />
<circle cx="154" cy="96" r="1" />
<circle cx="81" cy="112" r="1" />
<circle cx="197" cy="61" r="1" />
<circle cx="210" cy="48" r="1" />
<circle cx="20" cy="177" r="1" />
<circle cx="146" cy="74" r="1" />
<circle cx="13" cy="84" r="1" />
<circle cx="131" cy="69" r="1" />
<circle cx="35" cy="85" r="1" />
<circle cx="166" cy="99" r="1" />
<circle cx="56" cy="45" r="1" />
<circle cx="83" cy="36" r="1" />
<circle cx="161" cy="105" r="1" />
<circle cx="233" cy="57" r="1" />
<circle cx="147" cy="58" r="1" />
<circle cx="36" cy="159" r="1" />
<circle cx="125" cy="106" r="1" />
<circle cx="246" cy="28" r="1" />
<circle cx="57" cy="115" r="1" />
<circle cx="92" cy="109" r="1" />
<circle cx="231" cy="27" r="1" />
<circle cx="152" cy="63" r="1" />
<circle cx="63" cy="44" r="1" />
<circle cx="14" cy="68" r="1" />
<circle cx="141" cy="75" r="1" />
<circle cx="187" cy="30" r="1" />
<circle cx="184" cy="57" r="1" />
<circle cx="210" cy="48" r="1" />
<circle cx="215" cy="84" r="1" />
<circle cx="169" cy="54" r="1" />
<circle cx="80" cy="110" r="1" />
<circle cx="91" cy="63" r="1" />
<circle cx="31" cy="60" r="1" />
<circle cx="162" cy="61" r="1" />
<circle cx="28" cy="90" r="1" />
<circle cx="177" cy="99" r="1" />
<circle cx="236" cy="47" r="1" />
<circle cx="51" cy="127" r="1" />
<circle cx="63" cy="63" r="1" />
<circle cx="246" cy="22" r="1" />
<circle cx="38" cy="74" r="1" />
<circle cx="132" cy="45" r="1" />
<circle cx="64" cy="121" r="1" />
<circle cx="144" cy="61" r="1" />
<circle cx="97" cy="40" r="1" />
<circle cx="42" cy="51" r="1" />
<circle cx="230" cy="62" r="1" />
<circle cx="123" cy="73" r="1" />
<circle cx="204" cy="70" r="1" />
<circle cx="71" cy="42" r="1" />
<circle cx="214" cy="41" r="1" />
<circle cx="221" cy="63" r="1" />
<circle cx="146" cy="131" r="1" />
<circle cx="63" cy="117" r="1" />
<circle cx="222" cy="20" r="1" />
<circle cx="173" cy="120" r="1" />
<circle cx="97" cy="129" r="1" />
<circle cx="118" cy="129" r="1" />
<circle cx="170" cy="65" r="1" />
<circle cx="58" cy="64" r="1" />
<circle cx="14" cy="67" r="1" />
<circle cx="65" cy="151" r="1" />
<circle cx="198" cy="80" r="1" />
<circle cx="19" cy="174" r="1" />
<circle cx="70" cy="77" r="1" />
<circle cx="17" cy="89" r="1" />
<circle cx="266" cy="28" r="1" />
<circle cx="126" cy="106" r="1" />
<circle cx="24" cy="91" r="1" />
<circle cx="33" cy="58" r="1" />
<circle cx="76" cy="111" r="1" />
<circle cx="169" cy="54" r="1" />
<circle cx="199" cy="60" r="1" />
<circle cx="87" cy="117" r="1" />
<circle cx="149" cy="103" r="1" />
<circle cx="109" cy="114" r="1" />
<circle cx="185" cy="81" r="1" />
<circle cx="100" cy="120" r="1" />
<circle cx="143" cy="60" r="1" />
<circle cx="74" cy="90" r="1" />
<circle cx="61" cy="45" r="1" />
<circle cx="115" cy="88" r="1" />
<circle cx="129" cy="48" r="1" />
<circle cx="18" cy="173" r="1" />
<circle cx="123" cy="134" r="1" />
<circle cx="32" cy="72" r="1" />
<circle cx="111" cy="133" r="1" />
<circle cx="234" cy="48" r="1" />
<circle cx="124" cy="75" r="1" />
<circle cx="118" cy="114" r="1" />
<circle cx="48" cy="50" r="1" />
<circle cx="205" cy="107" r="1" />
<circle cx="100" cy="66" r="1" />
<circle cx="81" cy="38" r="1" />
<circle cx="257" cy="24" r="1" />
<circle cx="171" cy="97" r="1" />
<circle cx="54" cy="117" r="1" />
<circle cx="70" cy="62" r="1" />
<circle cx="134" cy="47" r="1" />
<circle cx="140" cy="132" r="1" />
<circle cx="209" cy="29" r="1" />
<circle cx="137" cy="104" r="1" />
<circle cx="234" cy="48" r="1" />
<circle cx="211" cy="26" r="1" />
<circle cx="92" cy="42" r="1" />
<circle cx="90" cy="109" r="1" />
<circle cx="63" cy="151" r="1" />
<circle cx="145" cy="115" r="1" />
<circle cx="186" cy="121" r="1" />
<circle cx="118" cy="106" r="1" />
<circle cx="161" cy="55" r="1" />
<circle cx="104" cy="89" r="1" />
<circle cx="211" cy="29" r="1" />
<circle cx="137" cy="61" r="1" />
<circle cx="123" cy="74" r="1" />
<circle cx="142" cy="60" r="1" />
<circle cx="122" cy="88" r="1" />
<circle cx="230" cy="83" r="1" />
<circle cx="166" cy="62" r="1" />
<circle cx="130" cy="129" r="1" />
<circle cx="215" cy="87" r="1" />
<circle cx="207" cy="20" r="1" />
<circle cx="33" cy="176" r="1" />
<circle cx="225" cy="24" r="1" />
<circle cx="72" cy="136" r="1" />
<circle cx="24" cy="54" r="1" />
<circle cx="32" cy="134" r="1" />
<circle cx="32" cy="58" r="1" />
<circle cx="124" cy="106" r="1" />
<circle cx="28" cy="154" r="1" />
<circle cx="126" cy="40" r="1" />
<circle cx="88" cy="117" r="1" />
<circle cx="109" cy="63" r="1" />
<circle cx="94" cy="133" r="1" />
<circle cx="150" cy="111" r="1" />
<circle cx="212" cy="17" r="1" />
<circle cx="203" cy="94" r="1" />
<circle cx="111" cy="113" r="1" />
<circle cx="229" cy="55" r="1" />
<circle cx="190" cy="119" r="1" />
<circle cx="156" cy="67" r="1" />
<circle cx="128" cy="110" r="1" />
<circle cx="150" cy="104" r="1" />
<circle cx="168" cy="86" r="1" />
<circle cx="173" cy="63" r="1" />
<circle cx="36" cy="132" r="1" />
<circle cx="255" cy="25" r="1" />
<circle cx="30" cy="175" r="1" />
<circle cx="212" cy="27" r="1" />
<circle cx="120" cy="88" r="1" />
<circle cx="10" cy="74" r="1" />
<circle cx="123" cy="90" r="1" />
<circle cx="165" cy="69" r="1" />
<circle cx="208" cy="21" r="1" />
<circle cx="230" cy="60" r="1" />
<circle cx="205" cy="37" r="1" />
<circle cx="184" cy="122" r="1" />
<circle cx="141" cy="73" r="1" />
<circle cx="133" cy="87" r="1" />
<circle cx="57" cy="166" r="1" />
<circle cx="42" cy="160" r="1" />
<circle cx="189" cy="30" r="1" />
<circle cx="9" cy="65" r="1" />
<circle cx="120" cy="91" r="1" />
<circle cx="208" cy="62" r="1" />
<circle cx="78" cy="107" r="1" />
<circle cx="242" cy="24" r="1" />
<circle cx="47" cy="75" r="1" />
<circle cx="42" cy="168" r="1" />
<circle cx="48" cy="158" r="1" />
<circle cx="53" cy="42" r="1" />
<circle cx="136" cy="130" r="1" />
<circle cx="226" cy="64" r="1" />
<circle cx="218" cy="27" r="1" />
<circle cx="54" cy="95" r="1" />
<circle cx="23" cy="177" r="1" />
<circle cx="35" cy="158" r="1" />
<circle cx="203" cy="95" r="1" />
<circle cx="233" cy="47" r="1" />
<circle cx="81" cy="110" r="1" />
<circle cx="257" cy="29" r="1" />
<circle cx="76" cy="134" r="1" />
<circle cx="62" cy="164" r="1" />
<circle cx="155" cy="103" r="1" />
<circle cx="17" cy="165" r="1" />
<circle cx="62" cy="117" r="1" />
<circle cx="24" cy="156" r="1" />
<circle cx="106" cy="79" r="1" />
<circle cx="207" cy="35" r="1" />
<circle cx="87" cy="65" r="1" />
<circle cx="160" cy="98" r="1" />
<circle cx="62" cy="93" r="1" />
<circle cx="98" cy="67" r="1" />
<circle cx="282" cy="31" r="1" />
<circle cx="140" cy="103" r="1" />
<circle cx="69" cy="61" r="1" />
<circle cx="205" cy="63" r="1" />
<circle cx="46" cy="45" r="1" />
<circle cx="34" cy="135" r="1" />
<circle cx="130" cy="72" r="1" />
<circle cx="140" cy="43" r="1" />
<circle cx="196" cy="61" r="1" />
<circle cx="142" cy="54" r="1" />
<circle cx="17" cy="59" r="1" />
<circle cx="174" cy="101" r="1" />
<circle cx="117" cy="112" r="1" />
<circle cx="26" cy="89" r="1" />
<circle cx="37" cy="131" r="1" />
<circle cx="153" cy="50" r="1" />
<circle cx="201" cy="25" r="1" />
<circle cx="128" cy="72" r="1" />
<circle cx="49" cy="131" r="1" />
<circle cx="114" cy="114" r="1" />
<circle cx="58" cy="64" r="1" />
<circle cx="50" cy="121" r="1" />
<circle cx="33" cy="49" r="1" />
<circle cx="52" cy="120" r="1" />
<circle cx="161" cy="98" r="1" />
<circle cx="65" cy="121" r="1" />
<circle cx="67" cy="39" r="1" />
<circle cx="128" cy="131" r="1" />
<circle cx="98" cy="77" r="1" />
<circle cx="159" cy="90" r="1" />
<circle cx="115" cy="131" r="1" />
<circle cx="208" cy="31" r="1" />
<circle cx="153" cy="60" r="1" />
<circle cx="94" cy="129" r="1" />
<circle cx="143" cy="91" r="1" />
<circle cx="63" cy="44" r="1" />
<circle cx="154" cy="92" r="1" />
<circle cx="55" cy="69" r="1" />
<circle cx="20" cy="173" r="1" />
<circle cx="123" cy="107" r="1" />
<circle cx="57" cy="70" r="1" />
<circle cx="48" cy="154" r="1" />
<circle cx="219" cy="24" r="1" />
<circle cx="66" cy="63" r="1" />
<circle cx="120" cy="61" r="1" />
<circle cx="78" cy="49" r="1" />
<circle cx="112" cy="130" r="1" />
<circle cx="210" cy="30" r="1" />
<circle cx="56" cy="122" r="1" />
<circle cx="148" cy="61" r="1" />
<circle cx="198" cy="20" r="1" />
<circle cx="112" cy="106" r="1" />
<circle cx="82" cy="113" r="1" />
<circle cx="203" cy="107" r="1" />
<circle cx="100" cy="63" r="1" />
<circle cx="87" cy="94" r="1" />
<circle cx="8" cy="76" r="1" />
<circle cx="131" cy="108" r="1" />
<circle cx="202" cy="20" r="1" />
<circle cx="229" cy="52" r="1" />
<circle cx="222" cy="87" r="1" />
<circle cx="93" cy="133" r="1" />
<circle cx="156" cy="129" r="1" />
<circle cx="201" cy="26" r="1" />
<circle cx="148" cy="130" r="1" />
<circle cx="39" cy="46" r="1" />
<circle cx="151" cy="130" r="1" />
<circle cx="230" cy="26" r="1" />
<circle cx="90" cy="132" r="1" />
<circle cx="14" cy="185" r="1" />
<circle cx="111" cy="43" r="1" />
<circle cx="213" cy="37" r="1" />
<circle cx="152" cy="64" r="1" />
<circle cx="44" cy="46" r="1" />
<circle cx="178" cy="62" r="1" />
<circle cx="219" cy="64" r="1" />
<circle cx="253" cy="25" r="1" />
<circle cx="31" cy="178" r="1" />
<circle cx="47" cy="173" r="1" />
<circle cx="163" cy="70" r="1" />
<circle cx="34" cy="48" r="1" />
<circle cx="63" cy="112" r="1" />
<circle cx="131" cy="71" r="1" />
<circle cx="188" cy="31" r="1" />
<circle cx="86" cy="69" r="1" />
<circle cx="225" cy="27" r="1" />
<circle cx="149" cy="93" r="1" />
<circle cx="149" cy="46" r="1" />
<circle cx="74" cy="94" r="1" />
<circle cx="146" cy="99" r="1" />
<circle cx="193" cy="22" r="1" />
<circle cx="205" cy="86" r="1" />
<circle cx="52" cy="155" r="1" />
<circle cx="149" cy="69" r="1" />
<circle cx="124" cy="63" r="1" />
<circle cx="127" cy="71" r="1" />
<circle cx="249" cy="73" r="1" />
<circle cx="84" cy="48" r="1" />
<circle cx="53" cy="47" r="1" />
<circle cx="31" cy="93" r="1" />
<circle cx="28" cy="91" r="1" />
<circle cx="173" cy="96" r="1" />
<circle cx="130" cy="43" r="1" />
<circle cx="113" cy="106" r="1" />
<circle cx="50" cy="95" r="1" />
<circle cx="128" cy="43" r="1" />
<circle cx="114" cy="46" r="1" />
<circle cx="150" cy="134" r="1" />
<circle cx="203" cy="113" r="1" />
<circle cx="156" cy="96" r="1" />
<circle cx="122" cy="104" r="1" />
<circle cx="176" cy="60" r="1" />
<circle cx="227" cy="25" r="1" />
<circle cx="117" cy="129" r="1" />
<circle cx="42" cy="55" r="1" />
<circle cx="160" cy="99" r="1" />
<circle cx="154" cy="114" r="1" />
<circle cx="214" cy="19" r="1" />
<circle cx="30" cy="176" r="1" />
<circle cx="81" cy="49" r="1" />
<circle cx="230" cy="83" r="1" />
<circle cx="146" cy="114" r="1" />
<circle cx="78" cy="107" r="1" />
<circle cx="123" cy="90" r="1" />
<circle cx="26" cy="141" r="1" />
<circle cx="196" cy="70" r="1" />
<circle cx="204" cy="27" r="1" />
<circle cx="217" cy="18" r="1" />
<circle cx="159" cy="67" r="1" />
<circle cx="278" cy="34" r="1" />
<circle cx="246" cy="80" r="1" />
<circle cx="139" cy="133" r="1" />
<circle cx="155" cy="95" r="1" />
<circle cx="165" cy="102" r="1" />
<circle cx="7" cy="72" r="1" />
<circle cx="100" cy="120" r="1" />
<circle cx="163" cy="51" r="1" />
<circle cx="100" cy="132" r="1" />
<circle cx="209" cy="37" r="1" />
<circle cx="50" cy="45" r="1" />
<circle cx="130" cy="48" r="1" />
<circle cx="116" cy="62" r="1" />
<circle cx="119" cy="131" r="1" />
<circle cx="200" cy="88" r="1" />
<circle cx="74" cy="108" r="1" />
<circle cx="211" cy="36" r="1" />
</g>
</svg>
