<svg xmlns="http://www.w3.org/2000/svg" version="1.1" width="640" height="480">
<g fill="white" stroke="black" stroke-width="2">
<circle cx="367" cy="260" r="1" />
<circle cx="349" cy="227" r="1" />
<circle cx="384" cy="263" r="1" />
<circle cx="313" cy="201" r="1" />
<circle cx="353" cy="422" r="1" />
<circle cx="213" cy="335" r="1" />
<circle cx="360" cy="236" r="1" />
<circle cx="217" cy="315" r="1" />
<circle cx="416" cy="286" r="1" />
<circle cx="249" cy="298" r="1" />
<circle cx="322" cy="317" r="1" />
<circle cx="198" cy="272" r="1" />
<circle cx="316" cy="264" r="1" />
<circle cx="369" cy="392" r="1" />
<circle cx="236" cy="330" r="1" />
<circle cx="401" cy="360" r="1" />
<circle cx="298" cy="414" r="1" />
<circle cx="236" cy="324" r="1" />
<circle cx="426" cy="338" r="1" />
<circle cx="411" cy="329" r="1" />
<circle cx="329" cy="426" r="1" />
<circle cx="329" cy="412" r="1" />
<circle cx="373" cy="351" r="1" />
<circle cx="371" cy="248" r="1" />
<circle cx="272" cy="240" r="1" />
<circle cx="309" cy="367" r="1" />
<circle cx="356" cy="221" r="1" />
<circle cx="351" cy="333" r="1" />
<circle cx="318" cy="366" r="1" />
<circle cx="188" cy="309" r="1" />
<circle cx="397" cy="315" r="1" />
<circle cx="294" cy="389" r="1" />
<circle cx="392" cy="363" r="1" />
<circle cx="425" cy="289" r="1" />
<circle cx="278" cy="254" r="1" />
<circle cx="249" cy="301" r="1" />
<circle cx="266" cy="294" r="1" />
<circle cx="302" cy="255" r="1" />
<circle cx="295" cy="375" r="1" />
<circle cx="287" cy="353" r="1" />
<circle cx="291" cy="292" r="1" />
<circle cx="353" cy="321" r="1" />
<circle cx="289" cy="386" r="1" />
<circle cx="331" cy="306" r="1" />
<circle cx="389" cy="288" r="1" />
<circle cx="205" cy="329" r="1" />
<circle cx="393" cy="342" r="1" />
<circle cx="346" cy="222" r="1" />
<circle cx="267" cy="331" r="1" />
<circle cx="353" cy="235" r="1" />
<circle cx="204" cy="321" r="1" />
<circle cx="339" cy="226" r="1" />
<circle cx="360" cy="247" r="1" />
<circle cx="425" cy="319" r="1" />
<circle cx="282" cy="237" r="1" />
<circle cx="237" cy="348" r="1" />
<circle cx="210" cy="290" r="1" />
<circle cx="357" cy="344" r="1" />
<circle cx="309" cy="320" r="1" />
<circle cx="280" cy="259" r="1" />
<circle cx="342" cy="353" r="1" />
<circle cx="200" cy="261" r="1" />
<circle cx="310" cy="224" r="1" />
<circle cx="434" cy="344" r="1" />
<circle cx="367" cy="361" r="1" />
<circle cx="343" cy="367" r="1" />
<circle cx="394" cy="307" r="1" />
<circle cx="342" cy="275" r="1" />
<circle cx="322" cy="325" r="1" />
<circle cx="355" cy="382" r="1" />
<circle cx="262" cy="377" r="1" />
<circle cx="358" cy="409" r="1" />
<circle cx="276" cy="396" r="1" />
<circle cx="338" cy="233" r="1" />
<circle cx="286" cy="397" r="1" />
<circle cx="314" cy="305" r="1" />
<circle cx="381" cy="333" r="1" />
<circle cx="219" cy="350" r="1" />
<circle cx="286" cy="294" r="1" />
<circle cx="275" cy="342" r="1" />
<circle cx="266" cy="342" r="1" />
<circle cx="308" cy="218" r="1" />
<circle cx="403" cy="313" r="1" />
<circle cx="291" cy="329" r="1" />
<circle cx="341" cy="204" r="1" />
<circle cx="332" cy="281" r="1" />
<circle cx="356" cy="388" r="1" />
<circle cx="321" cy="258" r="1" />
<circle cx="277" cy="270" r="1" />
<circle cx="273" cy="388" r="1" />
<circle cx="352" cy="258" r="1" />
<circle cx="269" cy="278" r="1" />
<circle cx="264" cy="228" r="1" />
<circle cx="360" cy="277" r="1" />
<circle cx="254" cy="234" r="1" />
<circle cx="369" cy="228" r="1" />
<circle cx="190" cy="280" r="1" />
<circle cx="256" cy="223" r="1" />
<circle cx="216" cy="354" r="1" />
<circle cx="402" cy="263" r="1" />
<circle cx="310" cy="367" r="1" />
<circle cx="275" cy="337" r="1" />
<circle cx="252" cy="383" r="1" />
<circle cx="199" cy="280" r="1" />
<circle cx="345" cy="345" r="1" />
<circle cx="424" cy="297" r="1" />
<circle cx="236" cy="287" r="1" />
<circle cx="302" cy="258" r="1" />
<circle cx="393" cy="315" r="1" />
<circle cx="192" cy="287" r="1" />
<circle cx="258" cy="230" r="1" />
<circle cx="273" cy="285" r="1" />
<circle cx="336" cy="247" r="1" />
<circle cx="328" cy="257" r="1" />
<circle cx="314" cy="245" r="1" />
<circle cx="383" cy="264" r="1" />
<circle cx="432" cy="295" r="1" />
<circle cx="202" cy="344" r="1" />
<circle cx="368" cy="280" r="1" />
<circle cx="276" cy="354" r="1" />
<circle cx="356" cy="299" r="1" />
<circle cx="396" cy="373" r="1" />
<circle cx="430" cy="355" r="1" />
<circle cx="242" cy="295" r="1" />
<circle cx="202" cy="273" r="1" />
<circle cx="327" cy="254" r="1" />
<circle cx="332" cy="208" r="1" />
<circle cx="385" cy="295" r="1" />
<circle cx="328" cy="281" r="1" />
<circle cx="226" cy="256" r="1" />
<circle cx="320" cy="235" r="1" />
<circle cx="399" cy="310" r="1" />
<circle cx="224" cy="313" r="1" />
<circle cx="381" cy="312" r="1" />
<circle cx="370" cy="316" r="1" />
<circle cx="327" cy="346" r="1" />
<circle cx="274" cy="287" r="1" />
<circle cx="298" cy="222" r="1" />
<circle cx="252" cy="253" r="1" />
<circle cx="360" cy="266" r="1" />
<circle cx="197" cy="316" r="1" />
<circle cx="257" cy="243" r="1" />
<circle cx="398" cy="345" r="1" />
<circle cx="358" cy="422" r="1" />
<circle cx="271" cy="201" r="1" />
<circle cx="272" cy="375" r="1" />
<circle cx="313" cy="209" r="1" />
<circle cx="220" cy="342" r="1" />
<circle cx="308" cy="428" r="1" />
<circle cx="331" cy="339" r="1" />
<circle cx="237" cy="297" r="1" />
<circle cx="199" cy="315" r="1" />
<circle cx="195" cy="288" r="1" />
<circle cx="355" cy="205" r="1" />
<circle cx="381" cy="271" r="1" />
<circle cx="326" cy="235" r="1" />
<circle cx="341" cy="240" r="1" />
<circle cx="262" cy="403" r="1" />
<circle cx="270" cy="344" r="1" />
<circle cx="241" cy="266" r="1" />
<circle cx="346" cy="248" r="1" />
<circle cx="354" cy="301" r="1" />
<circle cx="339" cy="353" r="1" />
<circle cx="209" cy="270" r="1" />
<circle cx="384" cy="271" r="1" />
<circle cx="389" cy="351" r="1" />
<circle cx="348" cy="272" r="1" />
<circle cx="229" cy="323" r="1" />
<circle cx="307" cy="305" r="1" />
<circle cx="186" cy="296" r="1" />
<circle cx="301" cy="335" r="1" />
<circle cx="324" cy="358" r="1" />
<circle cx="293" cy="420" r="1" />
<circle cx="283" cy="342" r="1" />
<circle cx="271" cy="395" r="1" />
<circle cx="399" cy="350" r="1" />
<circle cx="221" cy="299" r="1" />
<circle cx="339" cy="349" r="1" />
<circle cx="199" cy="272" r="1" />
<circle cx="326" cy="224" r="1" />
<circle cx="315" cy="234" r="1" />
<circle cx="287" cy="262" r="1" />
<circle cx="354" cy="257" r="1" />
<circle cx="231" cy="343" r="1" />
<circle cx="191" cy="311" r="1" />
<circle cx="342" cy="423" r="1" />
<circle cx="371" cy="355" r="1" />
<circle cx="367" cy="277" r="1" />
<circle cx="381" cy="368" r="1" />
<circle cx="261" cy="359" r="1" />
<circle cx="362" cy="333" r="1" />
<circle cx="238" cy="364" r="1" />
<circle cx="436" cy="340" r="1" />
<circle cx="281" cy="254" r="1" />
<circle cx="283" cy="258" r="1" />
<circle cx="232" cy="322" r="1" />
<circle cx="314" cy="265" r="1" />
<circle cx="270" cy="323" r="1" />
<circle cx="321" cy="338" r="1" />
<circle cx="191" cy="325" r="1" />
<circle cx="401" cy="372" r="1" />
<circle cx="304" cy="214" r="1" />
<circle cx="431" cy="345" r="1" />
<circle cx="216" cy="313" r="1" />
<circle cx="309" cy="301" r="1" />
<circle cx="304" cy="358" r="1" />
<circle cx="272" cy="388" r="1" />
<circle cx="279" cy="380" r="1" />
<circle cx="378" cy="297" r="1" />
<circle cx="372" cy="350" r="1" />
<circle cx="414" cy="353" r="1" />
<circle cx="399" cy="345" r="1" />
<circle cx="229" cy="269" r="1" />
<circle cx="332" cy="317" r="1" />
<circle cx="225" cy="363" r="1" />
<circle cx="275" cy="301" r="1" />
<circle cx="406" cy="281" r="1" />
<circle cx="306" cy="205" r="1" />
<circle cx="339" cy="266" r="1" />
<circle cx="245" cy="329" r="1" />
<circle cx="292" cy="399" r="1" />
<circle cx="433" cy="312" r="1" />
<circle cx="333" cy="201" r="1" />
<circle cx="328" cy="330" r="1" />
<circle cx="373" cy="341" r="1" />
<circle cx="299" cy="336" r="1" />
<circle cx="374" cy="364" r="1" />
<circle cx="404" cy="329" r="1" />
<circle cx="239" cy="366" r="1" />
<circle cx="241" cy="258" r="1" />
<circle cx="260" cy="212" r="1" />
<circle cx="319" cy="192" r="1" />
<circle cx="192" cy="291" r="1" />
<circle cx="321" cy="322" r="1" />
<circle cx="253" cy="267" r="1" />
<circle cx="268" cy="281" r="1" />
<circle cx="282" cy="343" r="1" />
<circle cx="337" cy="423" r="1" />
<circle cx="393" cy="292" r="1" />
<circle cx="236" cy="339" r="1" />
<circle cx="397" cy="345" r="1" />
<circle cx="300" cy="400" r="1" />
<circle cx="359" cy="242" r="1" />
<circle cx="225" cy="358" r="1" />
<circle cx="239" cy="305" r="1" />
<circle cx="309" cy="224" r="1" />
<circle cx="316" cy="294" r="1" />
<circle cx="280" cy="296" r="1" />
<circle cx="202" cy="264" r="1" />
<circle cx="282" cy="398" r="1" />
<circle cx="310" cy="388" r="1" />
<circle cx="383" cy="343" r="1" />
<circle cx="275" cy="298" r="1" />
<circle cx="311" cy="273" r="1" />
<circle cx="284" cy="417" r="1" />
<circle cx="361" cy="228" r="1" />
<circle cx="303" cy="274" r="1" />
<circle cx="334" cy="426" r="1" />
<circle cx="319" cy="421" r="1" />
<circle cx="333" cy="197" r="1" />
<circle cx="274" cy="280" r="1" />
<circle cx="342" cy="261" r="1" />
<circle cx="201" cy="349" r="1" />
<circle cx="345" cy="344" r="1" />
<circle cx="288" cy="268" r="1" />
<circle cx="392" cy="349" r="1" />
<circle cx="250" cy="254" r="1" />
<circle cx="206" cy="280" r="1" />
<circle cx="359" cy="367" r="1" />
<circle cx="419" cy="348" r="1" />
<circle cx="213" cy="314" r="1" />
<circle cx="323" cy="219" r="1" />
<circle cx="250" cy="292" r="1" />
<circle cx="378" cy="315" r="1" />
<circle cx="346" cy="318" r="1" />
<circle cx="296" cy="347" r="1" />
<circle cx="243" cy="277" r="1" />
<circle cx="227" cy="322" r="1" />
<circle cx="304" cy="392" r="1" />
<circle cx="311" cy="397" r="1" />
<circle cx="265" cy="408" r="1" />
<circle cx="328" cy="341" r="1" />
<circle cx="217" cy="349" r="1" />
<circle cx="265" cy="410" r="1" />
<circle cx="322" cy="242" r="1" />
<circle cx="366" cy="410" r="1" />
<circle cx="195" cy="315" r="1" />
<circle cx="259" cy="390" r="1" />
<circle cx="430" cy="324" r="1" />
<circle cx="389" cy="281" r="1" />
<circle cx="351" cy="336" r="1" />
<circle cx="283" cy="197" r="1" />
<circle cx="261" cy="288" r="1" />
<circle cx="220" cy="264" r="1" />
<circle cx="236" cy="328" r="1" />
<circle cx="274" cy="324" r="1" />
<circle cx="260" cy="401" r="1" />
<circle cx="385" cy="361" r="1" />
<circle cx="377" cy="330" r="1" />
<circle cx="306" cy="258" r="1" />
<circle cx="431" cy="315" r="1" />
<circle cx="304" cy="317" r="1" />
<circle cx="377" cy="338" r="1" />
<circle cx="330" cy="414" r="1" />
<circle cx="369" cy="268" r="1" />
<circle cx="308" cy="298" r="1" />
<circle cx="210" cy="284" r="1" />
<circle cx="369" cy="237" r="1" />
<circle cx="274" cy="256" r="1" />
<circle cx="285" cy="358" r="1" />
<circle cx="272" cy="284" r="1" />
<circle cx="355" cy="213" r="1" />
<circle cx="336" cy="317" r="1" />
<circle cx="373" cy="300" r="1" />
<circle cx="331" cy="380" r="1" />
<circle cx="384" cy="335" r="1" />
<circle cx="409" cy="321" r="1" />
<circle cx="318" cy="205" r="1" />
<circle cx="426" cy="321" r="1" />
<circle cx="380" cy="357" r="1" />
<circle cx="392" cy="309" r="1" />
<circle cx="334" cy="232" r="1" />
<circle cx="340" cy="373" r="1" />
<circle cx="319" cy="408" r="1" />
<circle cx="325" cy="296" r="1" />
<circle cx="222" cy="352" r="1" />
<circle cx="420" cy="347" r="1" />
<circle cx="283" cy="427" r="1" />
<circle cx="321" cy="216" r="1" />
<circle cx="211" cy="355" r="1" />
<circle cx="361" cy="295" r="1" />
<circle cx="227" cy="286" r="1" />
<circle cx="323" cy="388" r="1" />
<circle cx="204" cy="336" r="1" />
<circle cx="327" cy="370" r="1" />
<circle cx="376" cy="369" r="1" />
<circle cx="320" cy="295" r="1" />
<circle cx="332" cy="359" r="1" />
<circle cx="314" cy="358" r="1" />
<circle cx="400" cy="355" r="1" />
<circle cx="262" cy="209" r="1" />
<circle cx="244" cy="295" r="1" />
<circle cx="323" cy="432" r="1" />
<circle cx="222" cy="259" r="1" />
<circle cx="273" cy="289" r="1" />
<circle cx="425" cy="354" r="1" />
<circle cx="391" cy="337" r="1" />
<circle cx="290" cy="391" r="1" />
<circle cx="293" cy="258" r="1" />
<circle cx="301" cy="394" r="1" />
<circle cx="327" cy="324" r="1" />
<circle cx="212" cy="290" r="1" />
<circle cx="332" cy="251" r="1" />
<circle cx="408" cy="314" r="1" />
<circle cx="229" cy="364" r="1" />
<circle cx="336" cy="362" r="1" />
<circle cx="318" cy="322" r="1" />
<circle cx="335" cy="208" r="1" />
<circle cx="283" cy="420" r="1" />
<circle cx="440" cy="321" r="1" />
<circle cx="306" cy="398" r="1" />
<circle cx="234" cy="300" r="1" />
<circle cx="293" cy="372" r="1" />
<circle cx="390" cy="355" r="1" />
<circle cx="270" cy="410" r="1" />
<circle cx="188" cy="314" r="1" />
<circle cx="304" cy="359" r="1" />
<circle cx="420" cy="298" r="1" />
<circle cx="217" cy="310" r="1" />
<circle cx="363" cy="264" r="1" />
<circle cx="283" cy="421" r="1" />
<circle cx="295" cy="359" r="1" />
<circle cx="316" cy="433" r="1" />
<circle cx="331" cy="240" r="1" />
<circle cx="272" cy="386" r="1" />
<circle cx="325" cy="341" r="1" />
<circle cx="292" cy="429" r="1" />
<circle cx="332" cy="258" r="1" />
<circle cx="308" cy="221" r="1" />
<circle cx="260" cy="416" r="1" />
<circle cx="312" cy="210" r="1" />
<circle cx="292" cy="352" r="1" />
<circle cx="288" cy="370" r="1" />
<circle cx="305" cy="282" r="1" />
<circle cx="228" cy="271" r="1" />
<circle cx="372" cy="326" r="1" />
<circle cx="381" cy="354" r="1" />
<circle cx="256" cy="269" r="1" />
<circle cx="427" cy="324" r="1" />
<circle cx="300" cy="357" r="1" />
<circle cx="408" cy="286" r="1" />
<circle cx="289" cy="234" r="1" />
<circle cx="342" cy="344" r="1" />
<circle cx="248" cy="261" r="1" />
<circle cx="301" cy="395" r="1" />
<circle cx="216" cy="339" r="1" />
<circle cx="341" cy="381" r="1" />
<circle cx="340" cy="276" r="1" />
<circle cx="367" cy="413" r="1" />
<circle cx="382" cy="301" r="1" />
<circle cx="336" cy="196" r="1" />
<circle cx="196" cy="268" r="1" />
<circle cx="351" cy="207" r="1" />
<circle cx="434" cy="347" r="1" />
<circle cx="320" cy="356" r="1" />
<circle cx="410" cy="311" r="1" />
<circle cx="396" cy="268" r="1" />
<circle cx="229" cy="292" r="1" />
<circle cx="268" cy="206" r="1" />
<circle cx="252" cy="315" r="1" />
<circle cx="265" cy="214" r="1" />
<circle cx="371" cy="261" r="1" />
<circle cx="350" cy="263" r="1" />
<circle cx="332" cy="213" r="1" />
<circle cx="230" cy="357" r="1" />
<circle cx="350" cy="425" r="1" />
<circle cx="283" cy="344" r="1" />
<circle cx="428" cy="283" r="1" />
<circle cx="301" cy="346" r="1" />
<circle cx="316" cy="255" r="1" />
<circle cx="263" cy="240" r="1" />
<circle cx="393" cy="261" r="1" />
<circle cx="299" cy="227" r="1" />
<circle cx="338" cy="362" r="1" />
<circle cx="329" cy="304" r="1" />
<circle cx="276" cy="347" r="1" />
<circle cx="298" cy="346" r="1" />
<circle cx="429" cy="331" r="1" />
<circle cx="213" cy="255" r="1" />
<circle cx="365" cy="398" r="1" />
<circle cx="301" cy="368" r="1" />
<circle cx="264" cy="350" r="1" />
<circle cx="284" cy="398" r="1" />
<circle cx="290" cy="376" r="1" />
<circle cx="225" cy="341" r="1" />
<circle cx="253" cy="389" r="1" />
<circle cx="318" cy="255" r="1" />
<circle cx="320" cy="417" r="1" />
<circle cx="411" cy="281" r="1" />
<circle cx="282" cy="361" r="1" />
<circle cx="259" cy="229" r="1" />
<circle cx="343" cy="341" r="1" />
<circle cx="340" cy="254" r="1" />
<circle cx="423" cy="366" r="1" />
<circle cx="402" cy="337" r="1" />
<circle cx="390" cy="297" r="1" />
<circle cx="389" cy="330" r="1" />
<circle cx="317" cy="258" r="1" />
<circle cx="295" cy="334" r="1" />
<circle cx="283" cy="260" r="1" />
<circle cx="357" cy="258" r="1" />
<circle cx="288" cy="297" r="1" />
<circle cx="404" cy="364" r="1" />
<circle cx="358" cy="350" r="1" />
<circle cx="263" cy="399" r="1" />
<circle cx="315" cy="271" r="1" />
<circle cx="276" cy="322" r="1" />
<circle cx="377" cy="307" r="1" />
<circle cx="404" cy="337" r="1" />
<circle cx="306" cy="352" r="1" />
<circle cx="295" cy="429" r="1" />
<circle cx="335" cy="266" r="1" />
<circle cx="380" cy="354" r="1" />
<circle cx="350" cy="243" r="1" />
<circle cx="386" cy="262" r="1" />
<circle cx="288" cy="245" r="1" />
<circle cx="351" cy="336" r="1" />
<circle cx="242" cy="282" r="1" />
<circle cx="224" cy="256" r="1" />
<circle cx="341" cy="305" r="1" />
<circle cx="280" cy="390" r="1" />
<circle cx="405" cy="326" r="1" />
<circle cx="256" cy="282" r="1" />
<circle cx="218" cy="345" r="1" />
<circle cx="292" cy="337" r="1" />
<circle cx="241" cy="300" r="1" />
<circle cx="429" cy="315" r="1" />
<circle cx="205" cy="327" r="1" />
<circle cx="293" cy="381" r="1" />
<circle cx="279" cy="420" r="1" />
<circle cx="396" cy="284" r="1" />
<circle cx="432" cy="296" r="1" />
<circle cx="215" cy="363" r="1" />
<circle cx="305" cy="393" r="1" />
<circle cx="293" cy="285" r="1" />
<circle cx="332" cy="277" r="1" />
<circle cx="244" cy="342" r="1" />
<circle cx="410" cy="285" r="1" />
<circle cx="362" cy="246" r="1" />
<circle cx="238" cy="307" r="1" />
<circle cx="392" cy="276" r="1" />
<circle cx="413" cy="315" r="1" />
<circle cx="408" cy="269" r="1" />
<circle cx="306" cy="370" r="1" />
<circle cx="314" cy="403" r="1" />
<circle cx="339" cy="229" r="1" />
<circle cx="190" cy="284" r="1" />
<circle cx="299" cy="370" r="1" />
<circle cx="239" cy="352" r="1" />
<circle cx="293" cy="296" r="1" />
<circle cx="198" cy="313" r="1" />
<circle cx="364" cy="381" r="1" />
<circle cx="386" cy="296" r="1" />
<circle cx="293" cy="258" r="1" />
<circle cx="419" cy="288" r="1" />
<circle cx="278" cy="398" r="1" />
<circle cx="330" cy="237" r="1" />
<circle cx="399" cy="293" r="1" />
<circle cx="291" cy="354" r="1" />
<circle cx="221" cy="266" r="1" />
<circle cx="256" cy="216" r="1" />
<circle cx="342" cy="337" r="1" />
<circle cx="256" cy="373" r="1" />
<circle cx="337" cy="261" r="1" />
<circle cx="274" cy="292" r="1" />
<circle cx="206" cy="357" r="1" />
<circle cx="375" cy="314" r="1" />
<circle cx="384" cy="296" r="1" />
<circle cx="292" cy="212" r="1" />
<circle cx="302" cy="326" r="1" />
<circle cx="311" cy="396" r="1" />
<circle cx="304" cy="244" r="1" />
<circle cx="403" cy="355" r="1" />
<circle cx="322" cy="271" r="1" />
<circle cx="254" cy="376" r="1" />
<circle cx="405" cy="264" r="1" />
<circle cx="392" cy="314" r="1" />
<circle cx="245" cy="324" r="1" />
<circle cx="319" cy="433" r="1" />
<circle cx="334" cy="359" r="1" />
<circle cx="339" cy="267" r="1" />
<circle cx="349" cy="222" r="1" />
<circle cx="372" cy="346" r="1" />
<circle cx="407" cy="312" r="1" />
<circle cx="315" cy="291" r="1" />
<circle cx="362" cy="250" r="1" />
<circle cx="330" cy="411" r="1" />
<circle cx="400" cy="305" r="1" />
<circle cx="326" cy="300" r="1" />
<circle cx="240" cy="370" r="1" />
<circle cx="200" cy="283" r="1" />
<circle cx="205" cy="339" r="1" />
<circle cx="419" cy="327" r="1" />
<circle cx="305" cy="398" r="1" />
<circle cx="214" cy="295" r="1" />
<circle cx="335" cy="350" r="1" />
<circle cx="309" cy="372" r="1" />
<circle cx="348" cy="414" r="1" />
<circle cx="298" cy="217" r="1" />
<circle cx="287" cy="427" r="1" />
<circle cx="359" cy="386" r="1" />
<circle cx="320" cy="201" r="1" />
<circle cx="405" cy="263" r="1" />
<circle cx="385" cy="294" r="1" />
<circle cx="263" cy="336" r="1" />
<circle cx="237" cy="261" r="1" />
<circle cx="326" cy="224" r="1" />
<circle cx="279" cy="302" r="1" />
<circle cx="219" cy="265" r="1" />
<circle cx="405" cy="291" r="1" />
<circle cx="318" cy="307" r="1" />
<circle cx="210" cy="294" r="1" />
<circle cx="409" cy="319" r="1" />
<circle cx="276" cy="417" r="1" />
<circle cx="272" cy="368" r="1" />
<circle cx="322" cy="231" r="1" />
<circle cx="323" cy="319" r="1" />
<circle cx="318" cy="319" r="1" />
<circle cx="328" cy="327" r="1" />
<circle cx="276" cy="359" r="1" />
<circle cx="302" cy="408" r="1" />
<circle cx="287" cy="196" r="1" />
<circle cx="268" cy="330" r="1" />
<circle cx="388" cy="321" r="1" />
<circle cx="293" cy="286" r="1" />
<circle cx="225" cy="347" r="1" />
<circle cx="239" cy="342" r="1" />
<circle cx="354" cy="328" r="1" />
<circle cx="396" cy="306" r="1" />
<circle cx="311" cy="297" r="1" />
<circle cx="199" cy="290" r="1" />
<circle cx="272" cy="395" r="1" />
<circle cx="424" cy="285" r="1" />
<circle cx="314" cy="390" r="1" />
<circle cx="313" cy="362" r="1" />
<circle cx="379" cy="337" r="1" />
<circle cx="273" cy="398" r="1" />
<circle cx="248" cy="308" r="1" />
<circle cx="332" cy="213" r="1" />
<circle cx="369" cy="334" r="1" />
<circle cx="347" cy="233" r="1" />
<circle cx="329" cy="267" r="1" />
<circle cx="306" cy="387" r="1" />
<circle cx="348" cy="304" r="1" />
<circle cx="341" cy="198" r="1" />
<circle cx="343" cy="419" r="1" />
<circle cx="189" cy="310" r="1" />
<circle cx="233" cy="322" r="1" />
<circle cx="392" cy="367" r="1" />
<circle cx="349" cy="369" r="1" />
<circle cx="245" cy="309" r="1" />
<circle cx="232" cy="298" r="1" />
<circle cx="297" cy="208" r="1" />
<circle cx="188" cy="286" r="1" />
<circle cx="258" cy="271" r="1" />
<circle cx="370" cy="316" r="1" />
<circle cx="360" cy="422" r="1" />
<circle cx="355" cy="249" r="1" />
<circle cx="191" cy="331" r="1" />
<circle cx="420" cy="294" r="1" />
<circle cx="294" cy="211" r="1" />
<circle cx="411" cy="326" r="1" />
<circle cx="234" cy="311" r="1" />
<circle cx="212" cy="355" r="1" />
<circle cx="262" cy="391" r="1" />
<circle cx="347" cy="329" r="1" />
<circle cx="325" cy="344" r="1" />
<circle cx="326" cy="409" r="1" />
<circle cx="320" cy="267" r="1" />
<circle cx="410" cy="338" r="1" />
<circle cx="280" cy="424" r="1" />
<circle cx="355" cy="365" r="1" />
<circle cx="290" cy="298" r="1" />
<circle cx="322" cy="219" r="1" />
<circle cx="339" cy="226" r="1" />
<circle cx="292" cy="382" r="1" />
<circle cx="331" cy="246" r="1" />
<circle cx="304" cy="235" r="1" />
<circle cx="352" cy="365" r="1" />
<circle cx="323" cy="333" r="1" />
<circle cx="298" cy="361" r="1" />
<circle cx="327" cy="216" r="1" />
<circle cx="227" cy="252" r="1" />
<circle cx="193" cy="274" r="1" />
<circle cx="221" cy="253" r="1" />
<circle cx="427" cy="329" r="1" />
<circle cx="321" cy="345" r="1" />
<circle cx="412" cy="349" r="1" />
<circle cx="262" cy="285" r="1" />
<circle cx="352" cy="360" r="1" />
<circle cx="196" cy="346" r="1" />
<circle cx="360" cy="344" r="1" />
<circle cx="417" cy="271" r="1" />
<circle cx="421" cy="326" r="1" />
<circle cx="218" cy="268" r="1" />
<circle cx="334" cy="193" r="1" />
<circle cx="227" cy="347" r="1" />
<circle cx="245" cy="285" r="1" />
<circle cx="293" cy="348" r="1" />
<circle cx="265" cy="268" r="1" />
<circle cx="188" cy="310" r="1" />
<circle cx="254" cy="359" r="1" />
<circle cx="303" cy="399" r="1" />
<circle cx="383" cy="261" r="1" />
<circle cx="325" cy="295" r="1" />
<circle cx="306" cy="290" r="1" />
<circle cx="224" cy="266" r="1" />
<circle cx="403" cy="353" r="1" />
<circle cx="328" cy="253" r="1" />
<circle cx="268" cy="329" r="1" />
<circle cx="230" cy="325" r="1" />
<circle cx="289" cy="293" r="1" />
<circle cx="320" cy="214" r="1" />
<circle cx="292" cy="202" r="1" />
<circle cx="296" cy="256" r="1" />
<circle cx="296" cy="364" r="1" />
<circle cx="311" cy="353" r="1" />
<circle cx="418" cy="360" r="1" />
<circle cx="346" cy="267" r="1" />
<circle cx="330" cy="370" r="1" />
<circle cx="370" cy="239" r="1" />
<circle cx="273" cy="203" r="1" />
<circle cx="409" cy="362" r="1" />
<circle cx="370" cy="262" r="1" />
<circle cx="324" cy="277" r="1" />
<circle cx="351" cy="257" r="1" />
<circle cx="265" cy="294" r="1" />
<circle cx="407" cy="304" r="1" />
<circle cx="361" cy="322" r="1" />
<circle cx="338" cy="370" r="1" />
<circle cx="261" cy="233" r="1" />
<circle cx="320" cy="204" r="1" />
<circle cx="394" cy="258" r="1" />
<circle cx="407" cy="296" r="1" />
<circle cx="207" cy="267" r="1" />
<circle cx="308" cy="430" r="1" />
<circle cx="397" cy="269" r="1" />
<circle cx="315" cy="193" r="1" />
<circle cx="303" cy="367" r="1" />
<circle cx="219" cy="329" r="1" />
<circle cx="298" cy="253" r="1" />
<circle cx="287" cy="254" r="1" />
<circle cx="436" cy="297" r="1" />
<circle cx="366" cy="320" r="1" />
<circle cx="414" cy="317" r="1" />
<circle cx="301" cy="254" r="1" />
<circle cx="345" cy="360" r="1" />
<circle cx="364" cy="409" r="1" />
<circle cx="195" cy="294" r="1" />
<circle cx="295" cy="219" r="1" />
<circle cx="223" cy="309" r="1" />
<circle cx="356" cy="408" r="1" />
<circle cx="261" cy="339" r="1" />
<circle cx="319" cy="241" r="1" />
<circle cx="308" cy="364" r="1" />
<circle cx="235" cy="284" r="1" />
<circle cx="313" cy="292" r="1" />
<circle cx="353" cy="278" r="1" />
<circle cx="380" cy="287" r="1" />
<circle cx="257" cy="262" r="1" />
<circle cx="325" cy="337" r="1" />
<circle cx="309" cy="424" r="1" />
<circle cx="309" cy="227" r="1" />
<circle cx="264" cy="238" r="1" />
<circle cx="302" cy="277" r="1" />
<circle cx="362" cy="262" r="1" />
<circle cx="337" cy="334" r="1" />
<circle cx="311" cy="289" r="1" />
<circle cx="253" cy="280" r="1" />
<circle cx="231" cy="266" r="1" />
<circle cx="231" cy="316" r="1" />
<circle cx="277" cy="273" r="1" />
<circle cx="306" cy="234" r="1" />
<circle cx="284" cy="268" r="1" />
<circle cx="407" cy="272" r="1" />
<circle cx="318" cy="420" r="1" />
<circle cx="372" cy="308" r="1" />
<circle cx="239" cy="355" r="1" />
<circle cx="204" cy="272" r="1" />
<circle cx="318" cy="366" r="1" />
<circle cx="309" cy="227" r="1" />
<circle cx="370" cy="343" r="1" />
<circle cx="228" cy="288" r="1" />
<circle cx="348" cy="425" r="1" />
<circle cx="331" cy="199" r="1" />
<circle cx="316" cy="193" r="1" />
<circle cx="395" cy="269" r="1" />
<circle cx="186" cy="313" r="1" />
<circle cx="415" cy="366" r="1" />
<circle cx="256" cy="221" r="1" />
<circle cx="387" cy="337" r="1" />
<circle cx="416" cy="300" r="1" />
<circle cx="347" cy="215" r="1" />
<circle cx="257" cy="268" r="1" />
<circle cx="275" cy="346" r="1" />
<circle cx="208" cy="273" r="1" />
<circle cx="288" cy="306" r="1" />
<circle cx="281" cy="376" r="1" />
<circle cx="421" cy="344" r="1" />
<circle cx="237" cy="315" r="1" />
<circle cx="297" cy="213" r="1" />
<circle cx="334" cy="237" r="1" />
<circle cx="341" cy="239" r="1" />
<circle cx="305" cy="368" r="1" />
<circle cx="294" cy="229" r="1" />
<circle cx="400" cy="348" r="1" />
<circle cx="269" cy="380" r="1" />
<circle cx="402" cy="353" r="1" />
<circle cx="344" cy="222" r="1" />
<circle cx="298" cy="359" r="1" />
<circle cx="390" cy="350" r="1" />
<circle cx="292" cy="243" r="1" />
<circle cx="415" cy="267" r="1" />
<circle cx="313" cy="384" r="1" />
<circle cx="288" cy="276" r="1" />
<circle cx="319" cy="326" r="1" />
<circle cx="326" cy="319" r="1" />
<circle cx="347" cy="202" r="1" />
<circle cx="358" cy="408" r="1" />
<circle cx="237" cy="266" r="1" />
<circle cx="322" cy="276" r="1" />
<circle cx="340" cy="417" r="1" />
<circle cx="342" cy="350" r="1" />
<circle cx="327" cy="288" r="1" />
<circle cx="311" cy="434" r="1" />
<circle cx="397" cy="321" r="1" />
<circle cx="387" cy="334" r="1" />
<circle cx="414" cy="355" r="1" />
<circle cx="319" cy="360" r="1" />
<circle cx="297" cy="293" r="1" />
<circle cx="236" cy="293" r="1" />
<circle cx="251" cy="303" r="1" />
<circle cx="321" cy="203" r="1" />
<circle cx="202" cy="260" r="1" />
<circle cx="241" cy="270" r="1" />
<circle cx="316" cy="202" r="1" />
<circle cx="276" cy="201" r="1" />
<circle cx="303" cy="334" r="1" />
<circle cx="358" cy="269" r="1" />
<circle cx="387" cy="367" r="1" />
<circle cx="275" cy="304" r="1" />
<circle cx="304" cy="320" r="1" />
<circle cx="358" cy="332" r="1" />
<circle cx="306" cy="252" r="1" />
<circle cx="286" cy="337" r="1" />
<circle cx="348" cy="350" r="1" />
<circle cx="205" cy="350" r="1" />
<circle cx="229" cy="259" r="1" />
<circle cx="215" cy="354" r="1" />
<circle cx="241" cy="270" r="1" />
<circle cx="275" cy="276" r="1" />
<circle cx="276" cy="291" r="1" />
<circle cx="326" cy="331" r="1" />
<circle cx="202" cy="262" r="1" />
<circle cx="350" cy="276" r="1" />
<circle cx="363" cy="240" r="1" />
<circle cx="320" cy="265" r="1" />
<circle cx="384" cy="280" r="1" />
<circle cx="400" cy="313" r="1" />
<circle cx="245" cy="298" r="1" />
<circle cx="350" cy="271" r="1" />
<circle cx="238" cy="311" r="1" />
<circle cx="292" cy="325" r="1" />
<circle cx="404" cy="260" r="1" />
<circle cx="418" cy="293" r="1" />
<circle cx="346" cy="427" r="1" />
<circle cx="289" cy="377" r="1" />
<circle cx="437" cy="307" r="1" />
<circle cx="408" cy="352" r="1" />
<circle cx="257" cy="276" r="1" />
<circle cx="385" cy="261" r="1" />
<circle cx="278" cy="330" r="1" />
<circle cx="244" cy="335" r="1" />
<circle cx="409" cy="338" r="1" />
<circle cx="229" cy="309" r="1" />
<circle cx="316" cy="253" r="1" />
<circle cx="226" cy="290" r="1" />
<circle cx="352" cy="388" r="1" />
<circle cx="313" cy="380" r="1" />
<circle cx="192" cy="323" r="1" />
<circle cx="390" cy="297" r="1" />
<circle cx="357" cy="226" r="1" />
<circle cx="408" cy="293" r="1" />
<circle cx="283" cy="298" r="1" />
<circle cx="382" cy="327" r="1" />
<circle cx="394" cy="309" r="1" />
<circle cx="221" cy="345" r="1" />
<circle cx="417" cy="353" r="1" />
<circle cx="335" cy="351" r="1" />
<circle cx="422" cy="338" r="1" />
<circle cx="304" cy="201" r="1" />
<circle cx="290" cy="339" r="1" />
<circle cx="328" cy="343" r="1" />
<circle cx="312" cy="382" r="1" />
<circle cx="235" cy="326" r="1" />
<circle cx="253" cy="372" r="1" />
<circle cx="230" cy="351" r="1" />
<circle cx="264" cy="266" r="1" />
<circle cx="403" cy="366" r="1" />
<circle cx="225" cy="278" r="1" />
<circle cx="371" cy="234" r="1" />
<circle cx="292" cy="321" r="1" />
<circle cx="267" cy="207" r="1" />
<circle cx="406" cy="345" r="1" />
<circle cx="217" cy="294" r="1" />
<circle cx="430" cy="286" r="1" />
<circle cx="344" cy="209" r="1" />
<circle cx="239" cy="331" r="1" />
<circle cx="312" cy="262" r="1" />
<circle cx="261" cy="265" r="1" />
<circle cx="329" cy="202" r="1" />
<circle cx="392" cy="312" r="1" />
<circle cx="339" cy="195" r="1" />
<circle cx="355" cy="418" r="1" />
<circle cx="406" cy="312" r="1" />
<circle cx="260" cy="286" r="1" />
<circle cx="236" cy="301" r="1" />
<circle cx="346" cy="265" r="1" />
<circle cx="381" cy="369" r="1" />
<circle cx="293" cy="268" r="1" />
<circle cx="285" cy="203" r="1" />
<circle cx="335" cy="193" r="1" />
<circle cx="379" cy="356" r="1" />
<circle cx="228" cy="342" r="1" />
<circle cx="304" cy="197" r="1" />
<circle cx="408" cy="285" r="1" />
<circle cx="323" cy="385" r="1" />
<circle cx="277" cy="412" r="1" />
<circle cx="331" cy="429" r="1" />
<circle cx="216" cy="349" r="1" />
<circle cx="296" cy="350" r="1" />
<circle cx="303" cy="259" r="1" />
<circle cx="417" cy="366" r="1" />
<circle cx="335" cy="425" r="1" />
<circle cx="204" cy="297" r="1" />
<circle cx="317" cy="296" r="1" />
<circle cx="267" cy="380" r="1" />
<circle cx="283" cy="367" r="1" />
<circle cx="337" cy="224" r="1" />
<circle cx="295" cy="231" r="1" />
<circle cx="267" cy="200" r="1" />
<circle cx="201" cy="313" r="1" />
<circle cx="304" cy="414" r="1" />
<circle cx="197" cy="276" r="1" />
<circle cx="358" cy="348" r="1" />
<circle cx="350" cy="416" r="1" />
<circle cx="398" cy="303" r="1" />
<circle cx="244" cy="327" r="1" />
<circle cx="319" cy="330" r="1" />
<circle cx="272" cy="202" r="1" />
<circle cx="293" cy="325" r="1" />
<circle cx="209" cy="305" r="1" />
<circle cx="230" cy="269" r="1" />
<circle cx="339" cy="225" r="1" />
<circle cx="362" cy="351" r="1" />
<circle cx="340" cy="195" r="1" />
<circle cx="287" cy="303" r="1" />
<circle cx="205" cy="351" r="1" />
<circle cx="259" cy="302" r="1" />
<circle cx="317" cy="258" r="1" />
<circle cx="296" cy="265" r="1" />
<circle cx="316" cy="408" r="1" />
<circle cx="295" cy="329" r="1" />
<circle cx="420" cy="297" r="1" />
<circle cx="434" cy="308" r="1" />
<circle cx="309" cy="210" r="1" />
<circle cx="426" cy="359" r="1" />
<circle cx="326" cy="409" r="1" />
<circle cx="254" cy="274" r="1" />
<circle cx="303" cy="266" r="1" />
<circle cx="262" cy="371" r="1" />
<circle cx="244" cy="257" r="1" />
<circle cx="403" cy="273" r="1" />
<circle cx="294" cy="305" r="1" />
<circle cx="394" cy="343" r="1" />
<circle cx="297" cy="331" r="1" />
<circle cx="340" cy="363" r="1" />
<circle cx="316" cy="344" r="1" />
<circle cx="416" cy="348" r="1" />
<circle cx="244" cy="312" r="1" />
<circle cx="277" cy="291" r="1" />
<circle cx="269" cy="295" r="1" />
<circle cx="290" cy="371" r="1" />
<circle cx="261" cy="351" r="1" />
<circle cx="425" cy="320" r="1" />
<circle cx="310" cy="396" r="1" />
<circle cx="309" cy="297" r="1" />
<circle cx="356" cy="360" r="1" />
<circle cx="430" cy="336" r="1" />
<circle cx="271" cy="418" r="1" />
<circle cx="278" cy="291" r="1" />
<circle cx="307" cy="426" r="1" />
<circle cx="293" cy="354" r="1" />
<circle cx="252" cy="379" r="1" />
<circle cx="431" cy="316" r="1" />
<circle cx="356" cy="346" r="1" />
<circle cx="269" cy="234" r="1" />
<circle cx="241" cy="326" r="1" />
<circle cx="273" cy="238" r="1" />
<circle cx="354" cy="203" r="1" />
<circle cx="298" cy="378" r="1" />
<circle cx="258" cy="215" r="1" />
<circle cx="318" cy="351" r="1" />
<circle cx="215" cy="341" r="1" />
<circle cx="308" cy="204" r="1" />
<circle cx="410" cy="293" r="1" />
<circle cx="247" cy="311" r="1" />
<circle cx="359" cy="407" r="1" />
<circle cx="363" cy="399" r="1" />
<circle cx="262" cy="410" r="1" />
<circle cx="413" cy="287" r="1" />
<circle cx="315" cy="196" r="1" />
<circle cx="399" cy="271" r="1" />
<circle cx="431" cy="300" r="1" />
<circle cx="385" cy="287" r="1" />
<circle cx="355" cy="337" r="1" />
<circle cx="309" cy="406" r="1" />
<circle cx="285" cy="420" r="1" />
<circle cx="284" cy="373" r="1" />
<circle cx="430" cy="353" r="1" />
<circle cx="282" cy="268" r="1" />
<circle cx="354" cy="360" r="1" />
<circle cx="364" cy="293" r="1" />
<circle cx="291" cy="386" r="1" />
<circle cx="401" cy="333" r="1" />
<circle cx="348" cy="242" r="1" />
<circle cx="388" cy="314" r="1" />
<circle cx="340" cy="270" r="1" />
<circle cx="258" cy="226" r="1" />
<circle cx="260" cy="235" r="1" />
<circle cx="296" cy="304" r="1" />
<circle cx="415" cy="328" r="1" />
<circle cx="360" cy="337" r="1" />
<circle cx="304" cy="265" r="1" />
<circle cx="436" cy="347" r="1" />
<circle cx="395" cy="290" r="1" />
<circle cx="365" cy="258" r="1" />
<circle cx="368" cy="266" r="1" />
<circle cx="203" cy="292" r="1" />
<circle cx="432" cy="318" r="1" />
<circle cx="364" cy="398" r="1" />
<circle cx="310" cy="330" r="1" />
<circle cx="358" cy="267" r="1" />
<circle cx="257" cy="305" r="1" />
<circle cx="209" cy="295" r="1" />
<circle cx="286" cy="285" r="1" />
<circle cx="281" cy="375" r="1" />
<circle cx="239" cy="262" r="1" />
<circle cx="310" cy="238" r="1" />
<circle cx="414" cy="360" r="1" />
</g>
</svg>
