<svg xmlns="http://www.w3.org/2000/svg" version="1.1" width="640" height="480">
<g fill="black" stroke="black" stroke-width="1">
<circle cx="296" cy="498" r="1" />
<circle cx="506" cy="513" r="1" />
<circle cx="430" cy="525" r="1" />
<circle cx="372" cy="573" r="1" />
<circle cx="385" cy="304" r="1" />
<circle cx="366" cy="325" r="1" />
<circle cx="452" cy="514" r="1" />
<circle cx="233" cy="492" r="1" />
<circle cx="276" cy="422" r="1" />
<circle cx="372" cy="249" r="1" />
<circle cx="389" cy="541" r="1" />
<circle cx="496" cy="489" r="1" />
<circle cx="480" cy="515" r="1" />
<circle cx="284" cy="570" r="1" />
<circle cx="460" cy="474" r="1" />
<circle cx="545" cy="547" r="1" />
<circle cx="376" cy="574" r="1" />
<circle cx="250" cy="545" r="1" />
<circle cx="302" cy="571" r="1" />
<circle cx="300" cy="419" r="1" />
<circle cx="377" cy="596" r="1" />
<circle cx="460" cy="466" r="1" />
<circle cx="281" cy="559" r="1" />
<circle cx="506" cy="579" r="1" />
<circle cx="276" cy="425" r="1" />
<circle cx="492" cy="464" r="1" />
<circle cx="366" cy="522" r="1" />
<circle cx="337" cy="485" r="1" />
<circle cx="464" cy="559" r="1" />
<circle cx="573" cy="491" r="1" />
<circle cx="342" cy="518" r="1" />
<circle cx="533" cy="471" r="1" />
<circle cx="379" cy="540" r="1" />
<circle cx="362" cy="574" r="1" />
<circle cx="394" cy="338" r="1" />
<circle cx="206" cy="559" r="1" />
<circle cx="192" cy="532" r="1" />
<circle cx="419" cy="451" r="1" />
<circle cx="393" cy="307" r="1" />
<circle cx="501" cy="535" r="1" />
<circle cx="263" cy="584" r="1" />
<circle cx="488" cy="587" r="1" />
<circle cx="307" cy="454" r="1" />
<circle cx="310" cy="539" r="1" />
<circle cx="368" cy="383" r="1" />
<circle cx="401" cy="378" r="1" />
<circle cx="384" cy="340" r="1" />
<circle cx="420" cy="498" r="1" />
<circle cx="477" cy="498" r="1" />
<circle cx="362" cy="409" r="1" />
<circle cx="366" cy="335" r="1" />
<circle cx="399" cy="353" r="1" />
<circle cx="397" cy="346" r="1" />
<circle cx="270" cy="433" r="1" />
<circle cx="402" cy="400" r="1" />
<circle cx="373" cy="262" r="1" />
<circle cx="270" cy="554" r="1" />
<circle cx="374" cy="529" r="1" />
<circle cx="453" cy="413" r="1" />
<circle cx="373" cy="271" r="1" />
<circle cx="314" cy="443" r="1" />
<circle cx="414" cy="221" r="1" />
<circle cx="456" cy="592" r="1" />
<circle cx="456" cy="498" r="1" />
<circle cx="435" cy="496" r="1" />
<circle cx="452" cy="421" r="1" />
<circle cx="396" cy="325" r="1" />
<circle cx="261" cy="424" r="1" />
<circle cx="430" cy="405" r="1" />
<circle cx="317" cy="408" r="1" />
<circle cx="324" cy="195" r="1" />
<circle cx="340" cy="217" r="1" />
<circle cx="335" cy="545" r="1" />
<circle cx="200" cy="539" r="1" />
<circle cx="359" cy="598" r="1" />
<circle cx="409" cy="497" r="1" />
<circle cx="509" cy="467" r="1" />
<circle cx="416" cy="214" r="1" />
<circle cx="304" cy="455" r="1" />
<circle cx="268" cy="408" r="1" />
<circle cx="614" cy="512" r="1" />
<circle cx="405" cy="383" r="1" />
<circle cx="347" cy="406" r="1" />
<circle cx="383" cy="322" r="1" />
<circle cx="535" cy="495" r="1" />
<circle cx="400" cy="181" r="1" />
<circle cx="374" cy="526" r="1" />
<circle cx="254" cy="560" r="1" />
<circle cx="312" cy="458" r="1" />
<circle cx="334" cy="421" r="1" />
<circle cx="299" cy="419" r="1" />
<circle cx="347" cy="494" r="1" />
<circle cx="349" cy="519" r="1" />
<circle cx="557" cy="530" r="1" />
<circle cx="449" cy="399" r="1" />
<circle cx="356" cy="445" r="1" />
<circle cx="482" cy="485" r="1" />
<circle cx="498" cy="517" r="1" />
<circle cx="618" cy="505" r="1" />
<circle cx="393" cy="252" r="1" />
<circle cx="587" cy="498" r="1" />
<circle cx="439" cy="521" r="1" />
<circle cx="387" cy="403" r="1" />
<circle cx="509" cy="443" r="1" />
<circle cx="442" cy="408" r="1" />
<circle cx="456" cy="497" r="1" />
<circle cx="353" cy="463" r="1" />
<circle cx="453" cy="426" r="1" />
<circle cx="446" cy="389" r="1" />
<circle cx="396" cy="320" r="1" />
<circle cx="504" cy="538" r="1" />
<circle cx="513" cy="461" r="1" />
<circle cx="326" cy="509" r="1" />
<circle cx="457" cy="589" r="1" />
<circle cx="349" cy="206" r="1" />
<circle cx="496" cy="487" r="1" />
<circle cx="340" cy="213" r="1" />
<circle cx="298" cy="433" r="1" />
<circle cx="278" cy="530" r="1" />
<circle cx="331" cy="394" r="1" />
<circle cx="445" cy="514" r="1" />
<circle cx="420" cy="217" r="1" />
<circle cx="205" cy="560" r="1" />
<circle cx="261" cy="424" r="1" />
<circle cx="446" cy="497" r="1" />
<circle cx="483" cy="549" r="1" />
<circle cx="280" cy="504" r="1" />
<circle cx="366" cy="363" r="1" />
<circle cx="265" cy="528" r="1" />
<circle cx="306" cy="504" r="1" />
<circle cx="406" cy="195" r="1" />
<circle cx="350" cy="377" r="1" />
<circle cx="360" cy="394" r="1" />
<circle cx="515" cy="575" r="1" />
<circle cx="198" cy="542" r="1" />
<circle cx="444" cy="466" r="1" />
<circle cx="491" cy="492" r="1" />
<circle cx="323" cy="373" r="1" />
<circle cx="278" cy="402" r="1" />
<circle cx="472" cy="557" r="1" />
<circle cx="505" cy="578" r="1" />
<circle cx="342" cy="603" r="1" />
<circle cx="466" cy="420" r="1" />
<circle cx="305" cy="436" r="1" />
<circle cx="298" cy="429" r="1" />
<circle cx="533" cy="505" r="1" />
<circle cx="251" cy="579" r="1" />
<circle cx="414" cy="228" r="1" />
<circle cx="295" cy="428" r="1" />
<circle cx="525" cy="568" r="1" />
<circle cx="316" cy="377" r="1" />
<circle cx="373" cy="277" r="1" />
<circle cx="383" cy="298" r="1" />
<circle cx="414" cy="572" r="1" />
<circle cx="369" cy="397" r="1" />
<circle cx="279" cy="409" r="1" />
<circle cx="385" cy="593" r="1" />
<circle cx="394" cy="590" r="1" />
<circle cx="337" cy="458" r="1" />
<circle cx="452" cy="475" r="1" />
<circle cx="382" cy="446" r="1" />
<circle cx="296" cy="499" r="1" />
<circle cx="390" cy="573" r="1" />
<circle cx="265" cy="411" r="1" />
<circle cx="403" cy="500" r="1" />
<circle cx="292" cy="588" r="1" />
<circle cx="423" cy="535" r="1" />
<circle cx="372" cy="484" r="1" />
<circle cx="363" cy="398" r="1" />
<circle cx="437" cy="428" r="1" />
<circle cx="351" cy="455" r="1" />
<circle cx="310" cy="407" r="1" />
<circle cx="372" cy="477" r="1" />
<circle cx="433" cy="590" r="1" />
<circle cx="306" cy="503" r="1" />
<circle cx="592" cy="509" r="1" />
<circle cx="548" cy="546" r="1" />
<circle cx="356" cy="598" r="1" />
<circle cx="505" cy="475" r="1" />
<circle cx="228" cy="508" r="1" />
<circle cx="249" cy="425" r="1" />
<circle cx="539" cy="472" r="1" />
<circle cx="492" cy="572" r="1" />
<circle cx="419" cy="393" r="1" />
<circle cx="298" cy="535" r="1" />
<circle cx="498" cy="422" r="1" />
<circle cx="357" cy="444" r="1" />
<circle cx="488" cy="456" r="1" />
<circle cx="385" cy="535" r="1" />
<circle cx="245" cy="425" r="1" />
<circle cx="336" cy="373" r="1" />
<circle cx="306" cy="383" r="1" />
<circle cx="299" cy="420" r="1" />
<circle cx="279" cy="554" r="1" />
<circle cx="356" cy="510" r="1" />
<circle cx="495" cy="423" r="1" />
<circle cx="268" cy="499" r="1" />
<circle cx="353" cy="434" r="1" />
<circle cx="487" cy="550" r="1" />
<circle cx="384" cy="206" r="1" />
<circle cx="535" cy="559" r="1" />
<circle cx="397" cy="340" r="1" />
<circle cx="241" cy="513" r="1" />
<circle cx="342" cy="405" r="1" />
<circle cx="234" cy="487" r="1" />
<circle cx="366" cy="417" r="1" />
<circle cx="499" cy="426" r="1" />
<circle cx="345" cy="574" r="1" />
<circle cx="218" cy="429" r="1" />
<circle cx="493" cy="491" r="1" />
<circle cx="457" cy="498" r="1" />
<circle cx="496" cy="420" r="1" />
<circle cx="288" cy="515" r="1" />
<circle cx="375" cy="419" r="1" />
<circle cx="386" cy="573" r="1" />
<circle cx="422" cy="438" r="1" />
<circle cx="266" cy="554" r="1" />
<circle cx="437" cy="589" r="1" />
<circle cx="417" cy="415" r="1" />
<circle cx="337" cy="434" r="1" />
<circle cx="463" cy="407" r="1" />
<circle cx="279" cy="586" r="1" />
<circle cx="353" cy="236" r="1" />
<circle cx="394" cy="300" r="1" />
<circle cx="433" cy="466" r="1" />
<circle cx="310" cy="540" r="1" />
<circle cx="288" cy="417" r="1" />
<circle cx="221" cy="463" r="1" />
<circle cx="429" cy="527" r="1" />
<circle cx="275" cy="556" r="1" />
<circle cx="327" cy="423" r="1" />
<circle cx="531" cy="562" r="1" />
<circle cx="514" cy="530" r="1" />
<circle cx="239" cy="509" r="1" />
<circle cx="440" cy="590" r="1" />
<circle cx="292" cy="423" r="1" />
<circle cx="430" cy="589" r="1" />
<circle cx="617" cy="503" r="1" />
<circle cx="327" cy="510" r="1" />
<circle cx="369" cy="339" r="1" />
<circle cx="365" cy="197" r="1" />
<circle cx="359" cy="407" r="1" />
<circle cx="306" cy="527" r="1" />
<circle cx="255" cy="547" r="1" />
<circle cx="358" cy="466" r="1" />
<circle cx="384" cy="195" r="1" />
<circle cx="447" cy="395" r="1" />
<circle cx="419" cy="381" r="1" />
<circle cx="230" cy="432" r="1" />
<circle cx="396" cy="410" r="1" />
<circle cx="318" cy="446" r="1" />
<circle cx="412" cy="197" r="1" />
<circle cx="208" cy="505" r="1" />
<circle cx="361" cy="511" r="1" />
<circle cx="233" cy="502" r="1" />
<circle cx="451" cy="588" r="1" />
<circle cx="321" cy="508" r="1" />
<circle cx="296" cy="430" r="1" />
<circle cx="365" cy="341" r="1" />
<circle cx="390" cy="543" r="1" />
<circle cx="202" cy="557" r="1" />
<circle cx="471" cy="555" r="1" />
<circle cx="259" cy="580" r="1" />
<circle cx="432" cy="498" r="1" />
<circle cx="470" cy="498" r="1" />
<circle cx="369" cy="228" r="1" />
<circle cx="331" cy="454" r="1" />
<circle cx="364" cy="336" r="1" />
<circle cx="312" cy="377" r="1" />
<circle cx="263" cy="552" r="1" />
<circle cx="377" cy="228" r="1" />
<circle cx="381" cy="592" r="1" />
<circle cx="223" cy="513" r="1" />
<circle cx="378" cy="367" r="1" />
<circle cx="257" cy="522" r="1" />
<circle cx="367" cy="575" r="1" />
<circle cx="286" cy="559" r="1" />
<circle cx="472" cy="499" r="1" />
<circle cx="288" cy="515" r="1" />
<circle cx="388" cy="503" r="1" />
<circle cx="364" cy="196" r="1" />
<circle cx="243" cy="513" r="1" />
<circle cx="408" cy="467" r="1" />
<circle cx="322" cy="543" r="1" />
<circle cx="246" cy="540" r="1" />
<circle cx="482" cy="483" r="1" />
<circle cx="377" cy="596" r="1" />
<circle cx="383" cy="331" r="1" />
<circle cx="473" cy="466" r="1" />
<circle cx="337" cy="458" r="1" />
<circle cx="441" cy="565" r="1" />
<circle cx="369" cy="397" r="1" />
<circle cx="321" cy="416" r="1" />
<circle cx="366" cy="191" r="1" />
<circle cx="371" cy="184" r="1" />
<circle cx="401" cy="539" r="1" />
<circle cx="385" cy="343" r="1" />
<circle cx="217" cy="550" r="1" />
<circle cx="225" cy="448" r="1" />
<circle cx="599" cy="508" r="1" />
<circle cx="273" cy="584" r="1" />
<circle cx="319" cy="410" r="1" />
<circle cx="407" cy="572" r="1" />
<circle cx="216" cy="549" r="1" />
<circle cx="360" cy="477" r="1" />
<circle cx="521" cy="568" r="1" />
<circle cx="392" cy="294" r="1" />
<circle cx="568" cy="515" r="1" />
<circle cx="358" cy="573" r="1" />
<circle cx="421" cy="215" r="1" />
<circle cx="346" cy="517" r="1" />
<circle cx="354" cy="379" r="1" />
<circle cx="376" cy="417" r="1" />
<circle cx="387" cy="365" r="1" />
<circle cx="411" cy="230" r="1" />
<circle cx="445" cy="442" r="1" />
<circle cx="376" cy="483" r="1" />
<circle cx="528" cy="473" r="1" />
<circle cx="346" cy="441" r="1" />
<circle cx="412" cy="500" r="1" />
<circle cx="321" cy="415" r="1" />
<circle cx="558" cy="502" r="1" />
<circle cx="510" cy="464" r="1" />
<circle cx="344" cy="502" r="1" />
<circle cx="496" cy="582" r="1" />
<circle cx="451" cy="399" r="1" />
<circle cx="385" cy="503" r="1" />
<circle cx="506" cy="476" r="1" />
<circle cx="278" cy="477" r="1" />
<circle cx="458" cy="407" r="1" />
<circle cx="359" cy="392" r="1" />
<circle cx="396" cy="414" r="1" />
<circle cx="537" cy="507" r="1" />
<circle cx="460" cy="559" r="1" />
<circle cx="229" cy="551" r="1" />
<circle cx="415" cy="205" r="1" />
<circle cx="364" cy="420" r="1" />
<circle cx="459" cy="559" r="1" />
<circle cx="234" cy="487" r="1" />
<circle cx="245" cy="444" r="1" />
<circle cx="318" cy="518" r="1" />
<circle cx="445" cy="465" r="1" />
<circle cx="408" cy="573" r="1" />
<circle cx="495" cy="545" r="1" />
<circle cx="245" cy="483" r="1" />
<circle cx="231" cy="508" r="1" />
<circle cx="282" cy="586" r="1" />
<circle cx="600" cy="491" r="1" />
<circle cx="308" cy="592" r="1" />
<circle cx="263" cy="550" r="1" />
<circle cx="602" cy="493" r="1" />
<circle cx="338" cy="517" r="1" />
<circle cx="247" cy="485" r="1" />
<circle cx="270" cy="406" r="1" />
<circle cx="374" cy="446" r="1" />
<circle cx="361" cy="420" r="1" />
<circle cx="268" cy="474" r="1" />
<circle cx="427" cy="588" r="1" />
<circle cx="338" cy="457" r="1" />
<circle cx="417" cy="410" r="1" />
<circle cx="387" cy="375" r="1" />
<circle cx="556" cy="531" r="1" />
<circle cx="376" cy="418" r="1" />
<circle cx="300" cy="390" r="1" />
<circle cx="261" cy="551" r="1" />
<circle cx="392" cy="404" r="1" />
<circle cx="367" cy="509" r="1" />
<circle cx="457" cy="563" r="1" />
<circle cx="382" cy="367" r="1" />
<circle cx="490" cy="583" r="1" />
<circle cx="298" cy="563" r="1" />
<circle cx="328" cy="206" r="1" />
<circle cx="397" cy="345" r="1" />
<circle cx="384" cy="504" r="1" />
<circle cx="340" cy="458" r="1" />
<circle cx="446" cy="541" r="1" />
<circle cx="479" cy="589" r="1" />
<circle cx="490" cy="548" r="1" />
<circle cx="438" cy="567" r="1" />
<circle cx="370" cy="293" r="1" />
<circle cx="282" cy="492" r="1" />
<circle cx="406" cy="442" r="1" />
<circle cx="301" cy="390" r="1" />
<circle cx="430" cy="585" r="1" />
<circle cx="291" cy="422" r="1" />
<circle cx="357" cy="575" r="1" />
<circle cx="394" cy="413" r="1" />
<circle cx="282" cy="546" r="1" />
<circle cx="472" cy="420" r="1" />
<circle cx="370" cy="478" r="1" />
<circle cx="409" cy="222" r="1" />
<circle cx="537" cy="507" r="1" />
<circle cx="287" cy="400" r="1" />
<circle cx="223" cy="447" r="1" />
<circle cx="227" cy="472" r="1" />
<circle cx="266" cy="479" r="1" />
<circle cx="373" cy="546" r="1" />
<circle cx="277" cy="528" r="1" />
<circle cx="462" cy="509" r="1" />
<circle cx="373" cy="424" r="1" />
<circle cx="351" cy="518" r="1" />
<circle cx="284" cy="506" r="1" />
<circle cx="319" cy="446" r="1" />
<circle cx="280" cy="504" r="1" />
<circle cx="195" cy="524" r="1" />
<circle cx="205" cy="472" r="1" />
<circle cx="304" cy="530" r="1" />
<circle cx="220" cy="497" r="1" />
<circle cx="246" cy="580" r="1" />
<circle cx="343" cy="589" r="1" />
<circle cx="374" cy="528" r="1" />
<circle cx="396" cy="459" r="1" />
<circle cx="358" cy="419" r="1" />
<circle cx="565" cy="514" r="1" />
<circle cx="437" cy="566" r="1" />
<circle cx="383" cy="474" r="1" />
<circle cx="506" cy="446" r="1" />
<circle cx="476" cy="434" r="1" />
<circle cx="377" cy="593" r="1" />
<circle cx="345" cy="596" r="1" />
<circle cx="351" cy="573" r="1" />
<circle cx="506" cy="580" r="1" />
<circle cx="299" cy="420" r="1" />
<circle cx="246" cy="540" r="1" />
<circle cx="492" cy="577" r="1" />
<circle cx="311" cy="505" r="1" />
<circle cx="474" cy="433" r="1" />
<circle cx="370" cy="397" r="1" />
<circle cx="324" cy="541" r="1" />
<circle cx="434" cy="590" r="1" />
<circle cx="234" cy="531" r="1" />
<circle cx="388" cy="448" r="1" />
<circle cx="535" cy="560" r="1" />
<circle cx="320" cy="542" r="1" />
<circle cx="549" cy="480" r="1" />
<circle cx="516" cy="461" r="1" />
<circle cx="351" cy="476" r="1" />
<circle cx="359" cy="380" r="1" />
<circle cx="311" cy="565" r="1" />
<circle cx="318" cy="461" r="1" />
<circle cx="358" cy="597" r="1" />
<circle cx="374" cy="465" r="1" />
<circle cx="467" cy="588" r="1" />
<circle cx="382" cy="183" r="1" />
<circle cx="460" cy="432" r="1" />
<circle cx="269" cy="405" r="1" />
<circle cx="335" cy="499" r="1" />
<circle cx="198" cy="549" r="1" />
<circle cx="333" cy="234" r="1" />
<circle cx="399" cy="236" r="1" />
<circle cx="490" cy="585" r="1" />
<circle cx="268" cy="499" r="1" />
<circle cx="306" cy="572" r="1" />
<circle cx="218" cy="490" r="1" />
<circle cx="385" cy="355" r="1" />
<circle cx="300" cy="537" r="1" />
<circle cx="571" cy="502" r="1" />
<circle cx="315" cy="468" r="1" />
<circle cx="383" cy="330" r="1" />
<circle cx="372" cy="240" r="1" />
<circle cx="506" cy="538" r="1" />
<circle cx="495" cy="438" r="1" />
<circle cx="402" cy="393" r="1" />
<circle cx="316" cy="406" r="1" />
<circle cx="544" cy="547" r="1" />
<circle cx="411" cy="535" r="1" />
<circle cx="385" cy="351" r="1" />
<circle cx="338" cy="512" r="1" />
<circle cx="371" cy="282" r="1" />
<circle cx="485" cy="513" r="1" />
<circle cx="241" cy="578" r="1" />
<circle cx="220" cy="571" r="1" />
<circle cx="375" cy="595" r="1" />
<circle cx="600" cy="507" r="1" />
<circle cx="318" cy="462" r="1" />
<circle cx="420" cy="457" r="1" />
<circle cx="597" cy="508" r="1" />
<circle cx="604" cy="500" r="1" />
<circle cx="623" cy="507" r="1" />
<circle cx="465" cy="504" r="1" />
<circle cx="364" cy="596" r="1" />
<circle cx="287" cy="561" r="1" />
<circle cx="393" cy="392" r="1" />
<circle cx="248" cy="498" r="1" />
<circle cx="319" cy="518" r="1" />
<circle cx="226" cy="459" r="1" />
<circle cx="217" cy="427" r="1" />
<circle cx="326" cy="474" r="1" />
<circle cx="271" cy="436" r="1" />
<circle cx="305" cy="566" r="1" />
<circle cx="340" cy="220" r="1" />
<circle cx="277" cy="585" r="1" />
<circle cx="445" cy="544" r="1" />
<circle cx="401" cy="363" r="1" />
<circle cx="332" cy="453" r="1" />
<circle cx="401" cy="536" r="1" />
<circle cx="509" cy="470" r="1" />
<circle cx="417" cy="423" r="1" />
<circle cx="285" cy="587" r="1" />
<circle cx="472" cy="497" r="1" />
<circle cx="561" cy="521" r="1" />
<circle cx="236" cy="562" r="1" />
<circle cx="470" cy="558" r="1" />
<circle cx="277" cy="401" r="1" />
<circle cx="274" cy="527" r="1" />
<circle cx="366" cy="325" r="1" />
<circle cx="239" cy="536" r="1" />
<circle cx="454" cy="414" r="1" />
<circle cx="441" cy="416" r="1" />
<circle cx="335" cy="470" r="1" />
<circle cx="430" cy="409" r="1" />
<circle cx="440" cy="498" r="1" />
<circle cx="385" cy="505" r="1" />
<circle cx="315" cy="595" r="1" />
<circle cx="499" cy="453" r="1" />
<circle cx="391" cy="352" r="1" />
<circle cx="363" cy="510" r="1" />
<circle cx="342" cy="195" r="1" />
<circle cx="383" cy="482" r="1" />
<circle cx="318" cy="212" r="1" />
<circle cx="372" cy="286" r="1" />
<circle cx="428" cy="435" r="1" />
<circle cx="440" cy="589" r="1" />
<circle cx="350" cy="207" r="1" />
<circle cx="422" cy="572" r="1" />
<circle cx="340" cy="209" r="1" />
<circle cx="267" cy="505" r="1" />
<circle cx="387" cy="370" r="1" />
<circle cx="249" cy="463" r="1" />
<circle cx="432" cy="590" r="1" />
<circle cx="322" cy="193" r="1" />
<circle cx="330" cy="517" r="1" />
<circle cx="429" cy="408" r="1" />
<circle cx="460" cy="589" r="1" />
<circle cx="503" cy="571" r="1" />
<circle cx="445" cy="440" r="1" />
<circle cx="410" cy="467" r="1" />
<circle cx="497" cy="423" r="1" />
<circle cx="402" cy="378" r="1" />
<circle cx="205" cy="502" r="1" />
<circle cx="309" cy="503" r="1" />
<circle cx="519" cy="527" r="1" />
<circle cx="432" cy="568" r="1" />
<circle cx="354" cy="405" r="1" />
<circle cx="559" cy="529" r="1" />
<circle cx="592" cy="508" r="1" />
<circle cx="196" cy="513" r="1" />
<circle cx="413" cy="487" r="1" />
<circle cx="345" cy="196" r="1" />
<circle cx="326" cy="599" r="1" />
<circle cx="323" cy="544" r="1" />
<circle cx="326" cy="451" r="1" />
<circle cx="414" cy="574" r="1" />
<circle cx="364" cy="345" r="1" />
<circle cx="535" cy="504" r="1" />
<circle cx="324" cy="518" r="1" />
<circle cx="295" cy="536" r="1" />
<circle cx="371" cy="465" r="1" />
<circle cx="444" cy="551" r="1" />
<circle cx="353" cy="227" r="1" />
<circle cx="403" cy="588" r="1" />
<circle cx="436" cy="547" r="1" />
<circle cx="192" cy="526" r="1" />
<circle cx="375" cy="475" r="1" />
<circle cx="304" cy="384" r="1" />
<circle cx="446" cy="539" r="1" />
<circle cx="261" cy="526" r="1" />
<circle cx="415" cy="587" r="1" />
<circle cx="415" cy="498" r="1" />
<circle cx="466" cy="420" r="1" />
<circle cx="474" cy="500" r="1" />
<circle cx="468" cy="450" r="1" />
<circle cx="426" cy="456" r="1" />
<circle cx="233" cy="448" r="1" />
<circle cx="449" cy="395" r="1" />
<circle cx="372" cy="340" r="1" />
<circle cx="512" cy="461" r="1" />
<circle cx="245" cy="540" r="1" />
<circle cx="354" cy="488" r="1" />
<circle cx="441" cy="518" r="1" />
<circle cx="434" cy="523" r="1" />
<circle cx="255" cy="469" r="1" />
<circle cx="472" cy="477" r="1" />
<circle cx="481" cy="498" r="1" />
<circle cx="245" cy="463" r="1" />
<circle cx="370" cy="299" r="1" />
<circle cx="344" cy="431" r="1" />
<circle cx="396" cy="331" r="1" />
<circle cx="324" cy="543" r="1" />
<circle cx="450" cy="429" r="1" />
<circle cx="476" cy="554" r="1" />
<circle cx="312" cy="566" r="1" />
<circle cx="247" cy="440" r="1" />
<circle cx="444" cy="590" r="1" />
<circle cx="502" cy="539" r="1" />
<circle cx="288" cy="399" r="1" />
<circle cx="396" cy="589" r="1" />
<circle cx="484" cy="553" r="1" />
<circle cx="323" cy="449" r="1" />
<circle cx="405" cy="499" r="1" />
<circle cx="297" cy="395" r="1" />
<circle cx="319" cy="567" r="1" />
<circle cx="262" cy="581" r="1" />
<circle cx="266" cy="524" r="1" />
<circle cx="364" cy="509" r="1" />
<circle cx="489" cy="453" r="1" />
<circle cx="458" cy="509" r="1" />
<circle cx="382" cy="316" r="1" />
<circle cx="396" cy="345" r="1" />
<circle cx="344" cy="573" r="1" />
<circle cx="476" cy="434" r="1" />
<circle cx="366" cy="362" r="1" />
<circle cx="503" cy="481" r="1" />
<circle cx="239" cy="536" r="1" />
<circle cx="373" cy="469" r="1" />
<circle cx="369" cy="311" r="1" />
<circle cx="359" cy="235" r="1" />
<circle cx="233" cy="527" r="1" />
<circle cx="398" cy="341" r="1" />
<circle cx="357" cy="197" r="1" />
<circle cx="409" cy="533" r="1" />
<circle cx="344" cy="430" r="1" />
<circle cx="346" cy="597" r="1" />
<circle cx="259" cy="550" r="1" />
<circle cx="393" cy="482" r="1" />
<circle cx="212" cy="452" r="1" />
<circle cx="201" cy="504" r="1" />
<circle cx="353" cy="571" r="1" />
<circle cx="251" cy="429" r="1" />
<circle cx="386" cy="224" r="1" />
<circle cx="241" cy="515" r="1" />
<circle cx="389" cy="265" r="1" />
<circle cx="339" cy="472" r="1" />
<circle cx="425" cy="413" r="1" />
<circle cx="378" cy="226" r="1" />
<circle cx="555" cy="537" r="1" />
<circle cx="353" cy="434" r="1" />
<circle cx="194" cy="520" r="1" />
<circle cx="495" cy="553" r="1" />
<circle cx="319" cy="519" r="1" />
<circle cx="278" cy="557" r="1" />
<circle cx="451" cy="507" r="1" />
<circle cx="307" cy="384" r="1" />
<circle cx="328" cy="453" r="1" />
<circle cx="366" cy="334" r="1" />
<circle cx="327" cy="517" r="1" />
<circle cx="281" cy="546" r="1" />
<circle cx="278" cy="561" r="1" />
<circle cx="281" cy="470" r="1" />
<circle cx="335" cy="204" r="1" />
<circle cx="322" cy="567" r="1" />
<circle cx="484" cy="415" r="1" />
<circle cx="241" cy="513" r="1" />
<circle cx="489" cy="548" r="1" />
<circle cx="417" cy="442" r="1" />
<circle cx="319" cy="506" r="1" />
<circle cx="393" cy="393" r="1" />
<circle cx="250" cy="433" r="1" />
<circle cx="226" cy="458" r="1" />
<circle cx="244" cy="515" r="1" />
<circle cx="416" cy="587" r="1" />
<circle cx="487" cy="585" r="1" />
<circle cx="347" cy="441" r="1" />
<circle cx="274" cy="444" r="1" />
<circle cx="492" cy="572" r="1" />
<circle cx="194" cy="524" r="1" />
<circle cx="403" cy="501" r="1" />
<circle cx="478" cy="413" r="1" />
<circle cx="392" cy="459" r="1" />
<circle cx="470" cy="465" r="1" />
<circle cx="322" cy="598" r="1" />
<circle cx="607" cy="510" r="1" />
<circle cx="370" cy="296" r="1" />
<circle cx="281" cy="433" r="1" />
<circle cx="396" cy="318" r="1" />
<circle cx="371" cy="507" r="1" />
<circle cx="382" cy="225" r="1" />
<circle cx="425" cy="489" r="1" />
<circle cx="370" cy="306" r="1" />
<circle cx="194" cy="528" r="1" />
<circle cx="351" cy="211" r="1" />
<circle cx="298" cy="538" r="1" />
<circle cx="289" cy="442" r="1" />
<circle cx="399" cy="588" r="1" />
<circle cx="363" cy="572" r="1" />
<circle cx="538" cy="555" r="1" />
<circle cx="370" cy="508" r="1" />
<circle cx="501" cy="530" r="1" />
<circle cx="534" cy="559" r="1" />
<circle cx="471" cy="410" r="1" />
<circle cx="346" cy="386" r="1" />
<circle cx="543" cy="529" r="1" />
<circle cx="622" cy="507" r="1" />
<circle cx="384" cy="326" r="1" />
<circle cx="329" cy="579" r="1" />
<circle cx="257" cy="420" r="1" />
<circle cx="348" cy="196" r="1" />
<circle cx="402" cy="574" r="1" />
<circle cx="365" cy="508" r="1" />
<circle cx="375" cy="277" r="1" />
<circle cx="434" cy="478" r="1" />
<circle cx="506" cy="511" r="1" />
<circle cx="384" cy="437" r="1" />
<circle cx="297" cy="564" r="1" />
<circle cx="612" cy="513" r="1" />
<circle cx="418" cy="452" r="1" />
<circle cx="310" cy="407" r="1" />
<circle cx="436" cy="569" r="1" />
<circle cx="343" cy="572" r="1" />
<circle cx="332" cy="545" r="1" />
<circle cx="362" cy="478" r="1" />
<circle cx="227" cy="463" r="1" />
<circle cx="522" cy="569" r="1" />
<circle cx="218" cy="495" r="1" />
<circle cx="329" cy="568" r="1" />
<circle cx="251" cy="579" r="1" />
<circle cx="279" cy="555" r="1" />
<circle cx="206" cy="452" r="1" />
<circle cx="344" cy="500" r="1" />
<circle cx="356" cy="574" r="1" />
<circle cx="365" cy="341" r="1" />
<circle cx="395" cy="336" r="1" />
<circle cx="246" cy="581" r="1" />
<circle cx="400" cy="588" r="1" />
<circle cx="587" cy="508" r="1" />
<circle cx="235" cy="432" r="1" />
<circle cx="442" cy="520" r="1" />
<circle cx="372" cy="416" r="1" />
<circle cx="385" cy="292" r="1" />
<circle cx="366" cy="411" r="1" />
<circle cx="397" cy="539" r="1" />
<circle cx="324" cy="474" r="1" />
<circle cx="406" cy="196" r="1" />
<circle cx="394" cy="306" r="1" />
<circle cx="507" cy="536" r="1" />
<circle cx="326" cy="598" r="1" />
<circle cx="455" cy="590" r="1" />
<circle cx="351" cy="211" r="1" />
<circle cx="374" cy="245" r="1" />
<circle cx="434" cy="570" r="1" />
<circle cx="448" cy="399" r="1" />
<circle cx="494" cy="448" r="1" />
<circle cx="351" cy="443" r="1" />
<circle cx="370" cy="399" r="1" />
<circle cx="425" cy="490" r="1" />
<circle cx="476" cy="410" r="1" />
<circle cx="393" cy="285" r="1" />
<circle cx="423" cy="536" r="1" />
<circle cx="333" cy="570" r="1" />
<circle cx="387" cy="279" r="1" />
<circle cx="472" cy="590" r="1" />
<circle cx="489" cy="562" r="1" />
<circle cx="433" cy="384" r="1" />
<circle cx="427" cy="527" r="1" />
<circle cx="506" cy="574" r="1" />
<circle cx="396" cy="318" r="1" />
<circle cx="451" cy="532" r="1" />
<circle cx="273" cy="460" r="1" />
<circle cx="255" cy="421" r="1" />
<circle cx="348" cy="403" r="1" />
<circle cx="323" cy="599" r="1" />
<circle cx="290" cy="421" r="1" />
<circle cx="217" cy="571" r="1" />
<circle cx="350" cy="206" r="1" />
<circle cx="374" cy="431" r="1" />
<circle cx="203" cy="466" r="1" />
<circle cx="428" cy="467" r="1" />
<circle cx="371" cy="241" r="1" />
<circle cx="382" cy="445" r="1" />
<circle cx="381" cy="417" r="1" />
<circle cx="353" cy="236" r="1" />
<circle cx="372" cy="446" r="1" />
<circle cx="337" cy="571" r="1" />
<circle cx="231" cy="577" r="1" />
<circle cx="526" cy="467" r="1" />
<circle cx="372" cy="288" r="1" />
<circle cx="453" cy="465" r="1" />
<circle cx="386" cy="409" r="1" />
<circle cx="395" cy="247" r="1" />
<circle cx="435" cy="431" r="1" />
<circle cx="535" cy="472" r="1" />
<circle cx="372" cy="229" r="1" />
<circle cx="592" cy="506" r="1" />
<circle cx="287" cy="585" r="1" />
<circle cx="217" cy="549" r="1" />
<circle cx="378" cy="245" r="1" />
<circle cx="352" cy="546" r="1" />
<circle cx="234" cy="507" r="1" />
<circle cx="357" cy="408" r="1" />
<circle cx="475" cy="478" r="1" />
<circle cx="436" cy="564" r="1" />
<circle cx="482" cy="497" r="1" />
<circle cx="380" cy="205" r="1" />
<circle cx="505" cy="435" r="1" />
<circle cx="434" cy="589" r="1" />
<circle cx="220" cy="461" r="1" />
<circle cx="298" cy="463" r="1" />
<circle cx="264" cy="553" r="1" />
<circle cx="407" cy="410" r="1" />
<circle cx="587" cy="507" r="1" />
<circle cx="382" cy="463" r="1" />
<circle cx="370" cy="380" r="1" />
<circle cx="617" cy="505" r="1" />
<circle cx="418" cy="415" r="1" />
<circle cx="401" cy="235" r="1" />
<circle cx="477" cy="554" r="1" />
<circle cx="455" cy="511" r="1" />
<circle cx="399" cy="503" r="1" />
<circle cx="358" cy="465" r="1" />
<circle cx="377" cy="182" r="1" />
<circle cx="427" cy="536" r="1" />
<circle cx="395" cy="189" r="1" />
<circle cx="614" cy="501" r="1" />
<circle cx="307" cy="439" r="1" />
<circle cx="508" cy="470" r="1" />
<circle cx="277" cy="562" r="1" />
<circle cx="301" cy="500" r="1" />
<circle cx="497" cy="542" r="1" />
<circle cx="353" cy="230" r="1" />
<circle cx="389" cy="541" r="1" />
<circle cx="354" cy="235" r="1" />
<circle cx="566" cy="494" r="1" />
<circle cx="304" cy="571" r="1" />
<circle cx="387" cy="378" r="1" />
<circle cx="367" cy="414" r="1" />
<circle cx="571" cy="514" r="1" />
<circle cx="377" cy="536" r="1" />
<circle cx="598" cy="498" r="1" />
<circle cx="253" cy="545" r="1" />
<circle cx="360" cy="197" r="1" />
<circle cx="200" cy="552" r="1" />
<circle cx="378" cy="436" r="1" />
<circle cx="408" cy="442" r="1" />
<circle cx="409" cy="381" r="1" />
<circle cx="492" cy="448" r="1" />
<circle cx="388" cy="453" r="1" />
<circle cx="409" cy="498" r="1" />
<circle cx="315" cy="572" r="1" />
<circle cx="492" cy="463" r="1" />
<circle cx="266" cy="584" r="1" />
<circle cx="328" cy="195" r="1" />
<circle cx="498" cy="489" r="1" />
<circle cx="396" cy="482" r="1" />
<circle cx="236" cy="578" r="1" />
<circle cx="399" cy="372" r="1" />
<circle cx="243" cy="423" r="1" />
<circle cx="580" cy="509" r="1" />
<circle cx="312" cy="565" r="1" />
<circle cx="453" cy="474" r="1" />
<circle cx="209" cy="500" r="1" />
<circle cx="256" cy="520" r="1" />
<circle cx="341" cy="386" r="1" />
<circle cx="335" cy="454" r="1" />
<circle cx="239" cy="510" r="1" />
<circle cx="502" cy="579" r="1" />
<circle cx="276" cy="508" r="1" />
<circle cx="217" cy="549" r="1" />
<circle cx="413" cy="428" r="1" />
<circle cx="421" cy="203" r="1" />
<circle cx="327" cy="510" r="1" />
<circle cx="596" cy="498" r="1" />
<circle cx="247" cy="463" r="1" />
<circle cx="240" cy="534" r="1" />
<circle cx="300" cy="500" r="1" />
<circle cx="409" cy="413" r="1" />
<circle cx="348" cy="571" r="1" />
<circle cx="443" cy="509" r="1" />
<circle cx="309" cy="504" r="1" />
<circle cx="384" cy="340" r="1" />
<circle cx="334" cy="373" r="1" />
<circle cx="418" cy="454" r="1" />
<circle cx="343" cy="204" r="1" />
<circle cx="394" cy="311" r="1" />
<circle cx="440" cy="519" r="1" />
<circle cx="364" cy="430" r="1" />
<circle cx="486" cy="548" r="1" />
<circle cx="292" cy="587" r="1" />
<circle cx="374" cy="180" r="1" />
<circle cx="296" cy="447" r="1" />
<circle cx="424" cy="382" r="1" />
<circle cx="386" cy="195" r="1" />
<circle cx="261" cy="416" r="1" />
<circle cx="229" cy="463" r="1" />
<circle cx="303" cy="502" r="1" />
<circle cx="339" cy="570" r="1" />
<circle cx="346" cy="195" r="1" />
<circle cx="446" cy="441" r="1" />
<circle cx="501" cy="481" r="1" />
<circle cx="299" cy="563" r="1" />
<circle cx="348" cy="462" r="1" />
<circle cx="268" cy="504" r="1" />
<circle cx="367" cy="327" r="1" />
<circle cx="288" cy="559" r="1" />
<circle cx="274" cy="528" r="1" />
<circle cx="389" cy="183" r="1" />
<circle cx="423" cy="529" r="1" />
<circle cx="325" cy="598" r="1" />
<circle cx="371" cy="294" r="1" />
<circle cx="415" cy="420" r="1" />
<circle cx="505" cy="499" r="1" />
<circle cx="286" cy="559" r="1" />
<circle cx="301" cy="416" r="1" />
<circle cx="300" cy="416" r="1" />
<circle cx="466" cy="499" r="1" />
<circle cx="334" cy="413" r="1" />
<circle cx="317" cy="386" r="1" />
<circle cx="409" cy="412" r="1" />
<circle cx="299" cy="421" r="1" />
<circle cx="369" cy="312" r="1" />
<circle cx="392" cy="291" r="1" />
<circle cx="365" cy="219" r="1" />
<circle cx="331" cy="201" r="1" />
<circle cx="352" cy="404" r="1" />
<circle cx="345" cy="402" r="1" />
<circle cx="492" cy="491" r="1" />
<circle cx="299" cy="451" r="1" />
<circle cx="293" cy="402" r="1" />
<circle cx="282" cy="541" r="1" />
<circle cx="321" cy="575" r="1" />
<circle cx="379" cy="209" r="1" />
<circle cx="582" cy="491" r="1" />
<circle cx="253" cy="462" r="1" />
<circle cx="243" cy="559" r="1" />
<circle cx="328" cy="194" r="1" />
<circle cx="495" cy="457" r="1" />
<circle cx="412" cy="409" r="1" />
<circle cx="210" cy="440" r="1" />
<circle cx="415" cy="440" r="1" />
<circle cx="449" cy="425" r="1" />
<circle cx="329" cy="571" r="1" />
<circle cx="452" cy="563" r="1" />
<circle cx="247" cy="424" r="1" />
<circle cx="327" cy="231" r="1" />
<circle cx="345" cy="496" r="1" />
<circle cx="278" cy="584" r="1" />
<circle cx="192" cy="530" r="1" />
<circle cx="259" cy="522" r="1" />
<circle cx="298" cy="498" r="1" />
<circle cx="416" cy="491" r="1" />
<circle cx="262" cy="584" r="1" />
<circle cx="358" cy="486" r="1" />
<circle cx="307" cy="504" r="1" />
<circle cx="423" cy="210" r="1" />
<circle cx="402" cy="501" r="1" />
<circle cx="392" cy="589" r="1" />
<circle cx="332" cy="569" r="1" />
<circle cx="343" cy="574" r="1" />
<circle cx="225" cy="439" r="1" />
<circle cx="334" cy="591" r="1" />
<circle cx="497" cy="488" r="1" />
<circle cx="312" cy="459" r="1" />
<circle cx="272" cy="555" r="1" />
<circle cx="321" cy="221" r="1" />
<circle cx="366" cy="346" r="1" />
<circle cx="384" cy="505" r="1" />
<circle cx="318" cy="470" r="1" />
<circle cx="332" cy="468" r="1" />
<circle cx="369" cy="572" r="1" />
<circle cx="366" cy="550" r="1" />
<circle cx="299" cy="588" r="1" />
<circle cx="418" cy="499" r="1" />
<circle cx="324" cy="518" r="1" />
<circle cx="367" cy="189" r="1" />
<circle cx="253" cy="580" r="1" />
<circle cx="252" cy="544" r="1" />
<circle cx="415" cy="219" r="1" />
<circle cx="428" cy="455" r="1" />
<circle cx="333" cy="517" r="1" />
<circle cx="302" cy="435" r="1" />
<circle cx="530" cy="513" r="1" />
<circle cx="283" cy="437" r="1" />
<circle cx="414" cy="413" r="1" />
<circle cx="316" cy="202" r="1" />
<circle cx="394" cy="575" r="1" />
<circle cx="314" cy="541" r="1" />
<circle cx="391" cy="272" r="1" />
<circle cx="538" cy="555" r="1" />
<circle cx="402" cy="377" r="1" />
<circle cx="471" cy="519" r="1" />
<circle cx="307" cy="465" r="1" />
<circle cx="265" cy="527" r="1" />
<circle cx="395" cy="317" r="1" />
<circle cx="366" cy="557" r="1" />
<circle cx="474" cy="587" r="1" />
<circle cx="401" cy="500" r="1" />
<circle cx="293" cy="544" r="1" />
<circle cx="319" cy="540" r="1" />
<circle cx="378" cy="539" r="1" />
<circle cx="513" cy="488" r="1" />
<circle cx="395" cy="502" r="1" />
<circle cx="223" cy="545" r="1" />
<circle cx="402" cy="588" r="1" />
<circle cx="243" cy="463" r="1" />
<circle cx="383" cy="328" r="1" />
<circle cx="546" cy="547" r="1" />
<circle cx="384" cy="574" r="1" />
<circle cx="398" cy="219" r="1" />
<circle cx="387" cy="308" r="1" />
<circle cx="494" cy="421" r="1" />
<circle cx="454" cy="499" r="1" />
</g>
</svg>
