<?xml version="1.0" encoding="UTF-8" standalone="no"?>
<!DOCTYPE svg PUBLIC "-//W3C//DTD SVG 1.1//EN"
 "http://www.w3.org/Graphics/SVG/1.1/DTD/svg11.dtd">
<!-- Generated by graphviz version 2.43.0 (0)
 -->
<!-- Title: structs Pages: 1 -->
<svg width="814pt" height="1000pt"
 viewBox="0.00 0.00 814.00 1000.00" xmlns="http://www.w3.org/2000/svg" xmlns:xlink="http://www.w3.org/1999/xlink">
<g id="graph0" class="graph" transform="scale(1 1) rotate(0) translate(4 996)">
<title>structs</title>
<polygon fill="white" stroke="transparent" points="-4,4 -4,-996 810,-996 810,4 -4,4"/>
<!-- struct_listes -->
<g id="node1" class="node">
<title>struct_listes</title>
<polygon fill="chartreuse" stroke="transparent" points="309.5,-946 309.5,-988 354.5,-988 354.5,-946 309.5,-946"/>
<polygon fill="none" stroke="black" points="310,-967 310,-988 355,-988 355,-967 310,-967"/>
<text text-anchor="start" x="313" y="-973.8" font-family="Times,serif" font-size="14.00">listes</text>
<polygon fill="none" stroke="black" points="310,-946 310,-967 355,-967 355,-946 310,-946"/>
<text text-anchor="start" x="326" y="-952.8" font-family="Times,serif" font-size="14.00">⏺</text>
</g>
<!-- struct_139737281605888 -->
<g id="node2" class="node">
<title>struct_139737281605888</title>
<polygon fill="gray" stroke="transparent" points="295,-860 295,-902 371,-902 371,-860 295,-860"/>
<polygon fill="none" stroke="black" points="295,-881 295,-902 371,-902 371,-881 295,-881"/>
<text text-anchor="start" x="321.5" y="-888.8" font-family="Times,serif" text-decoration="underline" font-size="14.00">list</text>
<polygon fill="none" stroke="black" points="295,-860 295,-881 314,-881 314,-860 295,-860"/>
<text text-anchor="start" x="298" y="-866.8" font-family="Times,serif" font-size="14.00">⏺</text>
<polygon fill="none" stroke="black" points="314,-860 314,-881 333,-881 333,-860 314,-860"/>
<text text-anchor="start" x="317" y="-866.8" font-family="Times,serif" font-size="14.00">⏺</text>
<polygon fill="none" stroke="black" points="333,-860 333,-881 352,-881 352,-860 333,-860"/>
<text text-anchor="start" x="336" y="-866.8" font-family="Times,serif" font-size="14.00">⏺</text>
<polygon fill="none" stroke="black" points="352,-860 352,-881 371,-881 371,-860 352,-860"/>
<text text-anchor="start" x="355" y="-866.8" font-family="Times,serif" font-size="14.00">⏺</text>
</g>
<!-- struct_listes&#45;&gt;struct_139737281605888 -->
<g id="edge20" class="edge">
<title>struct_listes:port_listes&#45;&gt;struct_139737281605888</title>
<path fill="none" stroke="black" d="M333,-945C333,-935.7 333,-925.63 333,-916.33"/>
<polygon fill="black" stroke="black" points="336.5,-916.23 333,-906.23 329.5,-916.23 336.5,-916.23"/>
</g>
<!-- struct_139737282981744 -->
<g id="node3" class="node">
<title>struct_139737282981744</title>
<polygon fill="gray" stroke="transparent" points="8,-646 8,-709 194,-709 194,-646 8,-646"/>
<polygon fill="none" stroke="black" points="8,-687.5 8,-708.5 194,-708.5 194,-687.5 8,-687.5"/>
<text text-anchor="start" x="11" y="-695.3" font-family="Times,serif" text-decoration="underline" font-size="14.00">ListeSimplementChainee</text>
<polygon fill="none" stroke="black" points="8,-666.5 8,-687.5 105,-687.5 105,-666.5 8,-666.5"/>
<text text-anchor="start" x="38" y="-673.3" font-family="Times,serif" font-size="14.00">taille</text>
<polygon fill="none" stroke="black" points="105,-666.5 105,-687.5 194,-687.5 194,-666.5 105,-666.5"/>
<text text-anchor="start" x="135" y="-673.3" font-family="Times,serif" font-size="14.00">tete</text>
<polygon fill="none" stroke="black" points="8,-645.5 8,-666.5 105,-666.5 105,-645.5 8,-645.5"/>
<text text-anchor="start" x="51.5" y="-652.3" font-family="Times,serif" font-size="14.00">2</text>
<polygon fill="none" stroke="black" points="105,-645.5 105,-666.5 194,-666.5 194,-645.5 105,-645.5"/>
<text text-anchor="start" x="143" y="-652.3" font-family="Times,serif" font-size="14.00">⏺</text>
</g>
<!-- struct_139737281605888&#45;&gt;struct_139737282981744 -->
<g id="edge3" class="edge">
<title>struct_139737281605888:port_child0&#45;&gt;struct_139737282981744</title>
<path fill="none" stroke="black" d="M294,-870C210.61,-870 150.4,-778.8 121.09,-722.28"/>
<polygon fill="black" stroke="black" points="124.13,-720.52 116.49,-713.18 117.88,-723.68 124.13,-720.52"/>
</g>
<!-- struct_139737282494864 -->
<g id="node6" class="node">
<title>struct_139737282494864</title>
<polygon fill="gray" stroke="transparent" points="154,-539 154,-602 340,-602 340,-539 154,-539"/>
<polygon fill="none" stroke="black" points="154,-580.5 154,-601.5 340,-601.5 340,-580.5 154,-580.5"/>
<text text-anchor="start" x="157" y="-588.3" font-family="Times,serif" text-decoration="underline" font-size="14.00">ListeSimplementChainee</text>
<polygon fill="none" stroke="black" points="154,-559.5 154,-580.5 251,-580.5 251,-559.5 154,-559.5"/>
<text text-anchor="start" x="184" y="-566.3" font-family="Times,serif" font-size="14.00">taille</text>
<polygon fill="none" stroke="black" points="251,-559.5 251,-580.5 340,-580.5 340,-559.5 251,-559.5"/>
<text text-anchor="start" x="281" y="-566.3" font-family="Times,serif" font-size="14.00">tete</text>
<polygon fill="none" stroke="black" points="154,-538.5 154,-559.5 251,-559.5 251,-538.5 154,-538.5"/>
<text text-anchor="start" x="197.5" y="-545.3" font-family="Times,serif" font-size="14.00">5</text>
<polygon fill="none" stroke="black" points="251,-538.5 251,-559.5 340,-559.5 340,-538.5 251,-538.5"/>
<text text-anchor="start" x="289" y="-545.3" font-family="Times,serif" font-size="14.00">⏺</text>
</g>
<!-- struct_139737281605888&#45;&gt;struct_139737282494864 -->
<g id="edge8" class="edge">
<title>struct_139737281605888:port_child1&#45;&gt;struct_139737282494864</title>
<path fill="none" stroke="black" d="M323,-859C323,-839.31 308.86,-838.45 302,-820 276.36,-751.03 260.81,-666.64 253.06,-616.07"/>
<polygon fill="black" stroke="black" points="256.52,-615.49 251.57,-606.12 249.59,-616.53 256.52,-615.49"/>
</g>
<!-- struct_139737280444112 -->
<g id="node10" class="node">
<title>struct_139737280444112</title>
<polygon fill="gray" stroke="transparent" points="319,-753 319,-816 505,-816 505,-753 319,-753"/>
<polygon fill="none" stroke="black" points="319,-794.5 319,-815.5 505,-815.5 505,-794.5 319,-794.5"/>
<text text-anchor="start" x="322" y="-802.3" font-family="Times,serif" text-decoration="underline" font-size="14.00">ListeSimplementChainee</text>
<polygon fill="none" stroke="black" points="319,-773.5 319,-794.5 416,-794.5 416,-773.5 319,-773.5"/>
<text text-anchor="start" x="349" y="-780.3" font-family="Times,serif" font-size="14.00">taille</text>
<polygon fill="none" stroke="black" points="416,-773.5 416,-794.5 505,-794.5 505,-773.5 416,-773.5"/>
<text text-anchor="start" x="446" y="-780.3" font-family="Times,serif" font-size="14.00">tete</text>
<polygon fill="none" stroke="black" points="319,-752.5 319,-773.5 416,-773.5 416,-752.5 319,-752.5"/>
<text text-anchor="start" x="362.5" y="-759.3" font-family="Times,serif" font-size="14.00">7</text>
<polygon fill="none" stroke="black" points="416,-752.5 416,-773.5 505,-773.5 505,-752.5 416,-752.5"/>
<text text-anchor="start" x="454" y="-759.3" font-family="Times,serif" font-size="14.00">⏺</text>
</g>
<!-- struct_139737281605888&#45;&gt;struct_139737280444112 -->
<g id="edge12" class="edge">
<title>struct_139737281605888:port_child2&#45;&gt;struct_139737280444112</title>
<path fill="none" stroke="black" d="M343,-859C343,-847.49 347.55,-837.05 354.31,-827.88"/>
<polygon fill="black" stroke="black" points="357.04,-830.08 360.77,-820.16 351.67,-825.59 357.04,-830.08"/>
</g>
<!-- struct_139737280444496 -->
<g id="node13" class="node">
<title>struct_139737280444496</title>
<polygon fill="gray" stroke="transparent" points="541,-753 541,-816 727,-816 727,-753 541,-753"/>
<polygon fill="none" stroke="black" points="541,-794.5 541,-815.5 727,-815.5 727,-794.5 541,-794.5"/>
<text text-anchor="start" x="544" y="-802.3" font-family="Times,serif" text-decoration="underline" font-size="14.00">ListeSimplementChainee</text>
<polygon fill="none" stroke="black" points="541,-773.5 541,-794.5 638,-794.5 638,-773.5 541,-773.5"/>
<text text-anchor="start" x="571" y="-780.3" font-family="Times,serif" font-size="14.00">taille</text>
<polygon fill="none" stroke="black" points="638,-773.5 638,-794.5 727,-794.5 727,-773.5 638,-773.5"/>
<text text-anchor="start" x="668" y="-780.3" font-family="Times,serif" font-size="14.00">tete</text>
<polygon fill="none" stroke="black" points="541,-752.5 541,-773.5 638,-773.5 638,-752.5 541,-752.5"/>
<text text-anchor="start" x="584.5" y="-759.3" font-family="Times,serif" font-size="14.00">7</text>
<polygon fill="none" stroke="black" points="638,-752.5 638,-773.5 727,-773.5 727,-752.5 638,-752.5"/>
<text text-anchor="start" x="676" y="-759.3" font-family="Times,serif" font-size="14.00">⏺</text>
</g>
<!-- struct_139737281605888&#45;&gt;struct_139737280444496 -->
<g id="edge19" class="edge">
<title>struct_139737281605888:port_child3&#45;&gt;struct_139737280444496</title>
<path fill="none" stroke="black" d="M372,-870C436.56,-870 505.95,-846.47 557.08,-824.24"/>
<polygon fill="black" stroke="black" points="558.68,-827.36 566.41,-820.11 555.85,-820.96 558.68,-827.36"/>
</g>
<!-- struct_139737280443920 -->
<g id="node4" class="node">
<title>struct_139737280443920</title>
<polygon fill="gray" stroke="transparent" points="238,-111 238,-174 428,-174 428,-111 238,-111"/>
<polygon fill="none" stroke="black" points="238,-152.5 238,-173.5 428,-173.5 428,-152.5 238,-152.5"/>
<text text-anchor="start" x="308" y="-160.3" font-family="Times,serif" text-decoration="underline" font-size="14.00">Cellule</text>
<polygon fill="none" stroke="black" points="238,-131.5 238,-152.5 290,-152.5 290,-131.5 238,-131.5"/>
<text text-anchor="start" x="241" y="-138.3" font-family="Times,serif" font-size="14.00">valeur</text>
<polygon fill="none" stroke="black" points="290,-131.5 290,-152.5 349,-152.5 349,-131.5 290,-131.5"/>
<text text-anchor="start" x="293" y="-138.3" font-family="Times,serif" font-size="14.00">suivant</text>
<polygon fill="none" stroke="black" points="349,-131.5 349,-152.5 428,-152.5 428,-131.5 349,-131.5"/>
<text text-anchor="start" x="352" y="-138.3" font-family="Times,serif" font-size="14.00">utilisation</text>
<polygon fill="none" stroke="black" points="238,-110.5 238,-131.5 290,-131.5 290,-110.5 238,-110.5"/>
<text text-anchor="start" x="252" y="-117.3" font-family="Times,serif" font-size="14.00">&quot;S&quot;</text>
<polygon fill="none" stroke="black" points="290,-110.5 290,-131.5 349,-131.5 349,-110.5 290,-110.5"/>
<text text-anchor="start" x="313" y="-117.3" font-family="Times,serif" font-size="14.00">⏺</text>
<polygon fill="none" stroke="black" points="349,-110.5 349,-131.5 428,-131.5 428,-110.5 349,-110.5"/>
<text text-anchor="start" x="383.5" y="-117.3" font-family="Times,serif" font-size="14.00">3</text>
</g>
<!-- struct_139737282981744&#45;&gt;struct_139737280443920 -->
<g id="edge2" class="edge">
<title>struct_139737282981744:port_child0&#45;&gt;struct_139737280443920</title>
<path fill="none" stroke="black" d="M150,-644.5C150,-626.44 141.11,-623.59 137,-606 122.56,-544.21 118,-527.95 118,-464.5 118,-464.5 118,-464.5 118,-355.5 118,-277.68 190.3,-218.83 251.04,-183.11"/>
<polygon fill="black" stroke="black" points="252.99,-186.03 259.91,-178.01 249.5,-179.96 252.99,-186.03"/>
</g>
<!-- struct_139737282495008 -->
<g id="node5" class="node">
<title>struct_139737282495008</title>
<polygon fill="gray" stroke="transparent" points="224,-4 224,-67 414,-67 414,-4 224,-4"/>
<polygon fill="none" stroke="black" points="224,-45.5 224,-66.5 414,-66.5 414,-45.5 224,-45.5"/>
<text text-anchor="start" x="294" y="-53.3" font-family="Times,serif" text-decoration="underline" font-size="14.00">Cellule</text>
<polygon fill="none" stroke="black" points="224,-24.5 224,-45.5 276,-45.5 276,-24.5 224,-24.5"/>
<text text-anchor="start" x="227" y="-31.3" font-family="Times,serif" font-size="14.00">valeur</text>
<polygon fill="none" stroke="black" points="276,-24.5 276,-45.5 335,-45.5 335,-24.5 276,-24.5"/>
<text text-anchor="start" x="279" y="-31.3" font-family="Times,serif" font-size="14.00">suivant</text>
<polygon fill="none" stroke="black" points="335,-24.5 335,-45.5 414,-45.5 414,-24.5 335,-24.5"/>
<text text-anchor="start" x="338" y="-31.3" font-family="Times,serif" font-size="14.00">utilisation</text>
<polygon fill="none" stroke="black" points="224,-3.5 224,-24.5 276,-24.5 276,-3.5 224,-3.5"/>
<text text-anchor="start" x="237.5" y="-10.3" font-family="Times,serif" font-size="14.00">&quot;E&quot;</text>
<polygon fill="none" stroke="black" points="276,-3.5 276,-24.5 335,-24.5 335,-3.5 276,-3.5"/>
<text text-anchor="start" x="286.5" y="-10.3" font-family="Times,serif" font-size="14.00">None</text>
<polygon fill="none" stroke="black" points="335,-3.5 335,-24.5 414,-24.5 414,-3.5 335,-3.5"/>
<text text-anchor="start" x="369.5" y="-10.3" font-family="Times,serif" font-size="14.00">1</text>
</g>
<!-- struct_139737280443920&#45;&gt;struct_139737282495008 -->
<g id="edge1" class="edge">
<title>struct_139737280443920:port_child0&#45;&gt;struct_139737282495008</title>
<path fill="none" stroke="black" d="M319,-109.5C319,-100.38 319,-90.63 319,-81.31"/>
<polygon fill="black" stroke="black" points="322.5,-81.03 319,-71.03 315.5,-81.03 322.5,-81.03"/>
</g>
<!-- struct_139737280444352 -->
<g id="node7" class="node">
<title>struct_139737280444352</title>
<polygon fill="gray" stroke="transparent" points="280,-432 280,-495 470,-495 470,-432 280,-432"/>
<polygon fill="none" stroke="black" points="280,-473.5 280,-494.5 470,-494.5 470,-473.5 280,-473.5"/>
<text text-anchor="start" x="350" y="-481.3" font-family="Times,serif" text-decoration="underline" font-size="14.00">Cellule</text>
<polygon fill="none" stroke="black" points="280,-452.5 280,-473.5 332,-473.5 332,-452.5 280,-452.5"/>
<text text-anchor="start" x="283" y="-459.3" font-family="Times,serif" font-size="14.00">valeur</text>
<polygon fill="none" stroke="black" points="332,-452.5 332,-473.5 391,-473.5 391,-452.5 332,-452.5"/>
<text text-anchor="start" x="335" y="-459.3" font-family="Times,serif" font-size="14.00">suivant</text>
<polygon fill="none" stroke="black" points="391,-452.5 391,-473.5 470,-473.5 470,-452.5 391,-452.5"/>
<text text-anchor="start" x="394" y="-459.3" font-family="Times,serif" font-size="14.00">utilisation</text>
<polygon fill="none" stroke="black" points="280,-431.5 280,-452.5 332,-452.5 332,-431.5 280,-431.5"/>
<text text-anchor="start" x="294" y="-438.3" font-family="Times,serif" font-size="14.00">&quot;P&quot;</text>
<polygon fill="none" stroke="black" points="332,-431.5 332,-452.5 391,-452.5 391,-431.5 332,-431.5"/>
<text text-anchor="start" x="355" y="-438.3" font-family="Times,serif" font-size="14.00">⏺</text>
<polygon fill="none" stroke="black" points="391,-431.5 391,-452.5 470,-452.5 470,-431.5 391,-431.5"/>
<text text-anchor="start" x="425.5" y="-438.3" font-family="Times,serif" font-size="14.00">2</text>
</g>
<!-- struct_139737282494864&#45;&gt;struct_139737280444352 -->
<g id="edge7" class="edge">
<title>struct_139737282494864:port_child0&#45;&gt;struct_139737280444352</title>
<path fill="none" stroke="black" d="M341,-548.5C350.67,-548.5 358.89,-529.14 364.82,-509.01"/>
<polygon fill="black" stroke="black" points="368.26,-509.72 367.55,-499.15 361.51,-507.86 368.26,-509.72"/>
</g>
<!-- struct_139737280444256 -->
<g id="node8" class="node">
<title>struct_139737280444256</title>
<polygon fill="gray" stroke="transparent" points="266,-325 266,-388 456,-388 456,-325 266,-325"/>
<polygon fill="none" stroke="black" points="266,-366.5 266,-387.5 456,-387.5 456,-366.5 266,-366.5"/>
<text text-anchor="start" x="336" y="-374.3" font-family="Times,serif" text-decoration="underline" font-size="14.00">Cellule</text>
<polygon fill="none" stroke="black" points="266,-345.5 266,-366.5 318,-366.5 318,-345.5 266,-345.5"/>
<text text-anchor="start" x="269" y="-352.3" font-family="Times,serif" font-size="14.00">valeur</text>
<polygon fill="none" stroke="black" points="318,-345.5 318,-366.5 377,-366.5 377,-345.5 318,-345.5"/>
<text text-anchor="start" x="321" y="-352.3" font-family="Times,serif" font-size="14.00">suivant</text>
<polygon fill="none" stroke="black" points="377,-345.5 377,-366.5 456,-366.5 456,-345.5 377,-345.5"/>
<text text-anchor="start" x="380" y="-352.3" font-family="Times,serif" font-size="14.00">utilisation</text>
<polygon fill="none" stroke="black" points="266,-324.5 266,-345.5 318,-345.5 318,-324.5 266,-324.5"/>
<text text-anchor="start" x="280" y="-331.3" font-family="Times,serif" font-size="14.00">&quot;A&quot;</text>
<polygon fill="none" stroke="black" points="318,-324.5 318,-345.5 377,-345.5 377,-324.5 318,-324.5"/>
<text text-anchor="start" x="341" y="-331.3" font-family="Times,serif" font-size="14.00">⏺</text>
<polygon fill="none" stroke="black" points="377,-324.5 377,-345.5 456,-345.5 456,-324.5 377,-324.5"/>
<text text-anchor="start" x="411.5" y="-331.3" font-family="Times,serif" font-size="14.00">1</text>
</g>
<!-- struct_139737280444352&#45;&gt;struct_139737280444256 -->
<g id="edge6" class="edge">
<title>struct_139737280444352:port_child0&#45;&gt;struct_139737280444256</title>
<path fill="none" stroke="black" d="M361,-430.5C361,-421.38 361,-411.63 361,-402.31"/>
<polygon fill="black" stroke="black" points="364.5,-402.03 361,-392.03 357.5,-402.03 364.5,-402.03"/>
</g>
<!-- struct_139737280444160 -->
<g id="node9" class="node">
<title>struct_139737280444160</title>
<polygon fill="gray" stroke="transparent" points="252,-218 252,-281 442,-281 442,-218 252,-218"/>
<polygon fill="none" stroke="black" points="252,-259.5 252,-280.5 442,-280.5 442,-259.5 252,-259.5"/>
<text text-anchor="start" x="322" y="-267.3" font-family="Times,serif" text-decoration="underline" font-size="14.00">Cellule</text>
<polygon fill="none" stroke="black" points="252,-238.5 252,-259.5 304,-259.5 304,-238.5 252,-238.5"/>
<text text-anchor="start" x="255" y="-245.3" font-family="Times,serif" font-size="14.00">valeur</text>
<polygon fill="none" stroke="black" points="304,-238.5 304,-259.5 363,-259.5 363,-238.5 304,-238.5"/>
<text text-anchor="start" x="307" y="-245.3" font-family="Times,serif" font-size="14.00">suivant</text>
<polygon fill="none" stroke="black" points="363,-238.5 363,-259.5 442,-259.5 442,-238.5 363,-238.5"/>
<text text-anchor="start" x="366" y="-245.3" font-family="Times,serif" font-size="14.00">utilisation</text>
<polygon fill="none" stroke="black" points="252,-217.5 252,-238.5 304,-238.5 304,-217.5 252,-217.5"/>
<text text-anchor="start" x="266" y="-224.3" font-family="Times,serif" font-size="14.00">&quot;S&quot;</text>
<polygon fill="none" stroke="black" points="304,-217.5 304,-238.5 363,-238.5 363,-217.5 304,-217.5"/>
<text text-anchor="start" x="327" y="-224.3" font-family="Times,serif" font-size="14.00">⏺</text>
<polygon fill="none" stroke="black" points="363,-217.5 363,-238.5 442,-238.5 442,-217.5 363,-217.5"/>
<text text-anchor="start" x="397.5" y="-224.3" font-family="Times,serif" font-size="14.00">1</text>
</g>
<!-- struct_139737280444256&#45;&gt;struct_139737280444160 -->
<g id="edge5" class="edge">
<title>struct_139737280444256:port_child0&#45;&gt;struct_139737280444160</title>
<path fill="none" stroke="black" d="M347,-323.5C347,-314.38 347,-304.63 347,-295.31"/>
<polygon fill="black" stroke="black" points="350.5,-295.03 347,-285.03 343.5,-295.03 350.5,-295.03"/>
</g>
<!-- struct_139737280444160&#45;&gt;struct_139737280443920 -->
<g id="edge4" class="edge">
<title>struct_139737280444160:port_child0&#45;&gt;struct_139737280443920</title>
<path fill="none" stroke="black" d="M333,-216.5C333,-207.38 333,-197.63 333,-188.31"/>
<polygon fill="black" stroke="black" points="336.5,-188.03 333,-178.03 329.5,-188.03 336.5,-188.03"/>
</g>
<!-- struct_139737280444640 -->
<g id="node11" class="node">
<title>struct_139737280444640</title>
<polygon fill="gray" stroke="transparent" points="380,-646 380,-709 570,-709 570,-646 380,-646"/>
<polygon fill="none" stroke="black" points="380,-687.5 380,-708.5 570,-708.5 570,-687.5 380,-687.5"/>
<text text-anchor="start" x="450" y="-695.3" font-family="Times,serif" text-decoration="underline" font-size="14.00">Cellule</text>
<polygon fill="none" stroke="black" points="380,-666.5 380,-687.5 432,-687.5 432,-666.5 380,-666.5"/>
<text text-anchor="start" x="383" y="-673.3" font-family="Times,serif" font-size="14.00">valeur</text>
<polygon fill="none" stroke="black" points="432,-666.5 432,-687.5 491,-687.5 491,-666.5 432,-666.5"/>
<text text-anchor="start" x="435" y="-673.3" font-family="Times,serif" font-size="14.00">suivant</text>
<polygon fill="none" stroke="black" points="491,-666.5 491,-687.5 570,-687.5 570,-666.5 491,-666.5"/>
<text text-anchor="start" x="494" y="-673.3" font-family="Times,serif" font-size="14.00">utilisation</text>
<polygon fill="none" stroke="black" points="380,-645.5 380,-666.5 432,-666.5 432,-645.5 380,-645.5"/>
<text text-anchor="start" x="393.5" y="-652.3" font-family="Times,serif" font-size="14.00">&quot;D&quot;</text>
<polygon fill="none" stroke="black" points="432,-645.5 432,-666.5 491,-666.5 491,-645.5 432,-645.5"/>
<text text-anchor="start" x="455" y="-652.3" font-family="Times,serif" font-size="14.00">⏺</text>
<polygon fill="none" stroke="black" points="491,-645.5 491,-666.5 570,-666.5 570,-645.5 491,-645.5"/>
<text text-anchor="start" x="525.5" y="-652.3" font-family="Times,serif" font-size="14.00">1</text>
</g>
<!-- struct_139737280444112&#45;&gt;struct_139737280444640 -->
<g id="edge11" class="edge">
<title>struct_139737280444112:port_child0&#45;&gt;struct_139737280444640</title>
<path fill="none" stroke="black" d="M461,-751.5C461,-742.21 462.11,-732.38 463.7,-723.04"/>
<polygon fill="black" stroke="black" points="467.15,-723.62 465.58,-713.15 460.27,-722.31 467.15,-723.62"/>
</g>
<!-- struct_139737280444544 -->
<g id="node12" class="node">
<title>struct_139737280444544</title>
<polygon fill="gray" stroke="transparent" points="374,-539 374,-602 564,-602 564,-539 374,-539"/>
<polygon fill="none" stroke="black" points="374,-580.5 374,-601.5 564,-601.5 564,-580.5 374,-580.5"/>
<text text-anchor="start" x="444" y="-588.3" font-family="Times,serif" text-decoration="underline" font-size="14.00">Cellule</text>
<polygon fill="none" stroke="black" points="374,-559.5 374,-580.5 426,-580.5 426,-559.5 374,-559.5"/>
<text text-anchor="start" x="377" y="-566.3" font-family="Times,serif" font-size="14.00">valeur</text>
<polygon fill="none" stroke="black" points="426,-559.5 426,-580.5 485,-580.5 485,-559.5 426,-559.5"/>
<text text-anchor="start" x="429" y="-566.3" font-family="Times,serif" font-size="14.00">suivant</text>
<polygon fill="none" stroke="black" points="485,-559.5 485,-580.5 564,-580.5 564,-559.5 485,-559.5"/>
<text text-anchor="start" x="488" y="-566.3" font-family="Times,serif" font-size="14.00">utilisation</text>
<polygon fill="none" stroke="black" points="374,-538.5 374,-559.5 426,-559.5 426,-538.5 374,-538.5"/>
<text text-anchor="start" x="387.5" y="-545.3" font-family="Times,serif" font-size="14.00">&quot;E&quot;</text>
<polygon fill="none" stroke="black" points="426,-538.5 426,-559.5 485,-559.5 485,-538.5 426,-538.5"/>
<text text-anchor="start" x="449" y="-545.3" font-family="Times,serif" font-size="14.00">⏺</text>
<polygon fill="none" stroke="black" points="485,-538.5 485,-559.5 564,-559.5 564,-538.5 485,-538.5"/>
<text text-anchor="start" x="519.5" y="-545.3" font-family="Times,serif" font-size="14.00">1</text>
</g>
<!-- struct_139737280444640&#45;&gt;struct_139737280444544 -->
<g id="edge10" class="edge">
<title>struct_139737280444640:port_child0&#45;&gt;struct_139737280444544</title>
<path fill="none" stroke="black" d="M461,-644.5C461,-635.42 461.62,-625.75 462.51,-616.51"/>
<polygon fill="black" stroke="black" points="466.02,-616.64 463.62,-606.32 459.06,-615.88 466.02,-616.64"/>
</g>
<!-- struct_139737280444544&#45;&gt;struct_139737280444352 -->
<g id="edge9" class="edge">
<title>struct_139737280444544:port_child0&#45;&gt;struct_139737280444352</title>
<path fill="none" stroke="black" d="M455,-537.5C455,-525.87 450.33,-515.59 443.24,-506.7"/>
<polygon fill="black" stroke="black" points="445.77,-504.28 436.45,-499.24 440.59,-508.99 445.77,-504.28"/>
</g>
<!-- struct_139737280445264 -->
<g id="node14" class="node">
<title>struct_139737280445264</title>
<polygon fill="gray" stroke="transparent" points="608,-646 608,-709 798,-709 798,-646 608,-646"/>
<polygon fill="none" stroke="black" points="608,-687.5 608,-708.5 798,-708.5 798,-687.5 608,-687.5"/>
<text text-anchor="start" x="678" y="-695.3" font-family="Times,serif" text-decoration="underline" font-size="14.00">Cellule</text>
<polygon fill="none" stroke="black" points="608,-666.5 608,-687.5 660,-687.5 660,-666.5 608,-666.5"/>
<text text-anchor="start" x="611" y="-673.3" font-family="Times,serif" font-size="14.00">valeur</text>
<polygon fill="none" stroke="black" points="660,-666.5 660,-687.5 719,-687.5 719,-666.5 660,-666.5"/>
<text text-anchor="start" x="663" y="-673.3" font-family="Times,serif" font-size="14.00">suivant</text>
<polygon fill="none" stroke="black" points="719,-666.5 719,-687.5 798,-687.5 798,-666.5 719,-666.5"/>
<text text-anchor="start" x="722" y="-673.3" font-family="Times,serif" font-size="14.00">utilisation</text>
<polygon fill="none" stroke="black" points="608,-645.5 608,-666.5 660,-666.5 660,-645.5 608,-645.5"/>
<text text-anchor="start" x="621.5" y="-652.3" font-family="Times,serif" font-size="14.00">&quot;D&quot;</text>
<polygon fill="none" stroke="black" points="660,-645.5 660,-666.5 719,-666.5 719,-645.5 660,-645.5"/>
<text text-anchor="start" x="683" y="-652.3" font-family="Times,serif" font-size="14.00">⏺</text>
<polygon fill="none" stroke="black" points="719,-645.5 719,-666.5 798,-666.5 798,-645.5 719,-645.5"/>
<text text-anchor="start" x="753.5" y="-652.3" font-family="Times,serif" font-size="14.00">1</text>
</g>
<!-- struct_139737280444496&#45;&gt;struct_139737280445264 -->
<g id="edge18" class="edge">
<title>struct_139737280444496:port_child0&#45;&gt;struct_139737280445264</title>
<path fill="none" stroke="black" d="M683,-751.5C683,-742.14 684.55,-732.34 686.78,-723.06"/>
<polygon fill="black" stroke="black" points="690.21,-723.82 689.44,-713.25 683.45,-721.99 690.21,-723.82"/>
</g>
<!-- struct_139737280445168 -->
<g id="node15" class="node">
<title>struct_139737280445168</title>
<polygon fill="gray" stroke="transparent" points="598,-539 598,-602 788,-602 788,-539 598,-539"/>
<polygon fill="none" stroke="black" points="598,-580.5 598,-601.5 788,-601.5 788,-580.5 598,-580.5"/>
<text text-anchor="start" x="668" y="-588.3" font-family="Times,serif" text-decoration="underline" font-size="14.00">Cellule</text>
<polygon fill="none" stroke="black" points="598,-559.5 598,-580.5 650,-580.5 650,-559.5 598,-559.5"/>
<text text-anchor="start" x="601" y="-566.3" font-family="Times,serif" font-size="14.00">valeur</text>
<polygon fill="none" stroke="black" points="650,-559.5 650,-580.5 709,-580.5 709,-559.5 650,-559.5"/>
<text text-anchor="start" x="653" y="-566.3" font-family="Times,serif" font-size="14.00">suivant</text>
<polygon fill="none" stroke="black" points="709,-559.5 709,-580.5 788,-580.5 788,-559.5 709,-559.5"/>
<text text-anchor="start" x="712" y="-566.3" font-family="Times,serif" font-size="14.00">utilisation</text>
<polygon fill="none" stroke="black" points="598,-538.5 598,-559.5 650,-559.5 650,-538.5 598,-538.5"/>
<text text-anchor="start" x="611.5" y="-545.3" font-family="Times,serif" font-size="14.00">&quot;E&quot;</text>
<polygon fill="none" stroke="black" points="650,-538.5 650,-559.5 709,-559.5 709,-538.5 650,-538.5"/>
<text text-anchor="start" x="673" y="-545.3" font-family="Times,serif" font-size="14.00">⏺</text>
<polygon fill="none" stroke="black" points="709,-538.5 709,-559.5 788,-559.5 788,-538.5 709,-538.5"/>
<text text-anchor="start" x="743.5" y="-545.3" font-family="Times,serif" font-size="14.00">1</text>
</g>
<!-- struct_139737280445264&#45;&gt;struct_139737280445168 -->
<g id="edge17" class="edge">
<title>struct_139737280445264:port_child0&#45;&gt;struct_139737280445168</title>
<path fill="none" stroke="black" d="M689,-644.5C689,-635.37 689.32,-625.61 689.77,-616.29"/>
<polygon fill="black" stroke="black" points="693.28,-616.19 690.33,-606.01 686.29,-615.81 693.28,-616.19"/>
</g>
<!-- struct_139737280445024 -->
<g id="node16" class="node">
<title>struct_139737280445024</title>
<polygon fill="gray" stroke="transparent" points="544,-432 544,-495 734,-495 734,-432 544,-432"/>
<polygon fill="none" stroke="black" points="544,-473.5 544,-494.5 734,-494.5 734,-473.5 544,-473.5"/>
<text text-anchor="start" x="614" y="-481.3" font-family="Times,serif" text-decoration="underline" font-size="14.00">Cellule</text>
<polygon fill="none" stroke="black" points="544,-452.5 544,-473.5 596,-473.5 596,-452.5 544,-452.5"/>
<text text-anchor="start" x="547" y="-459.3" font-family="Times,serif" font-size="14.00">valeur</text>
<polygon fill="none" stroke="black" points="596,-452.5 596,-473.5 655,-473.5 655,-452.5 596,-452.5"/>
<text text-anchor="start" x="599" y="-459.3" font-family="Times,serif" font-size="14.00">suivant</text>
<polygon fill="none" stroke="black" points="655,-452.5 655,-473.5 734,-473.5 734,-452.5 655,-452.5"/>
<text text-anchor="start" x="658" y="-459.3" font-family="Times,serif" font-size="14.00">utilisation</text>
<polygon fill="none" stroke="black" points="544,-431.5 544,-452.5 596,-452.5 596,-431.5 544,-431.5"/>
<text text-anchor="start" x="558" y="-438.3" font-family="Times,serif" font-size="14.00">&quot;V&quot;</text>
<polygon fill="none" stroke="black" points="596,-431.5 596,-452.5 655,-452.5 655,-431.5 596,-431.5"/>
<text text-anchor="start" x="619" y="-438.3" font-family="Times,serif" font-size="14.00">⏺</text>
<polygon fill="none" stroke="black" points="655,-431.5 655,-452.5 734,-452.5 734,-431.5 655,-431.5"/>
<text text-anchor="start" x="689.5" y="-438.3" font-family="Times,serif" font-size="14.00">1</text>
</g>
<!-- struct_139737280445168&#45;&gt;struct_139737280445024 -->
<g id="edge16" class="edge">
<title>struct_139737280445168:port_child0&#45;&gt;struct_139737280445024</title>
<path fill="none" stroke="black" d="M679,-537.5C679,-527.42 676.03,-517.41 671.71,-508.19"/>
<polygon fill="black" stroke="black" points="674.76,-506.47 667,-499.25 668.57,-509.73 674.76,-506.47"/>
</g>
<!-- struct_139737280444928 -->
<g id="node17" class="node">
<title>struct_139737280444928</title>
<polygon fill="gray" stroke="transparent" points="510,-325 510,-388 700,-388 700,-325 510,-325"/>
<polygon fill="none" stroke="black" points="510,-366.5 510,-387.5 700,-387.5 700,-366.5 510,-366.5"/>
<text text-anchor="start" x="580" y="-374.3" font-family="Times,serif" text-decoration="underline" font-size="14.00">Cellule</text>
<polygon fill="none" stroke="black" points="510,-345.5 510,-366.5 562,-366.5 562,-345.5 510,-345.5"/>
<text text-anchor="start" x="513" y="-352.3" font-family="Times,serif" font-size="14.00">valeur</text>
<polygon fill="none" stroke="black" points="562,-345.5 562,-366.5 621,-366.5 621,-345.5 562,-345.5"/>
<text text-anchor="start" x="565" y="-352.3" font-family="Times,serif" font-size="14.00">suivant</text>
<polygon fill="none" stroke="black" points="621,-345.5 621,-366.5 700,-366.5 700,-345.5 621,-345.5"/>
<text text-anchor="start" x="624" y="-352.3" font-family="Times,serif" font-size="14.00">utilisation</text>
<polygon fill="none" stroke="black" points="510,-324.5 510,-345.5 562,-345.5 562,-324.5 510,-324.5"/>
<text text-anchor="start" x="526.5" y="-331.3" font-family="Times,serif" font-size="14.00">&quot;I&quot;</text>
<polygon fill="none" stroke="black" points="562,-324.5 562,-345.5 621,-345.5 621,-324.5 562,-324.5"/>
<text text-anchor="start" x="585" y="-331.3" font-family="Times,serif" font-size="14.00">⏺</text>
<polygon fill="none" stroke="black" points="621,-324.5 621,-345.5 700,-345.5 700,-324.5 621,-324.5"/>
<text text-anchor="start" x="655.5" y="-331.3" font-family="Times,serif" font-size="14.00">1</text>
</g>
<!-- struct_139737280445024&#45;&gt;struct_139737280444928 -->
<g id="edge15" class="edge">
<title>struct_139737280445024:port_child0&#45;&gt;struct_139737280444928</title>
<path fill="none" stroke="black" d="M625,-430.5C625,-421.14 623.45,-411.34 621.22,-402.06"/>
<polygon fill="black" stroke="black" points="624.55,-400.99 618.56,-392.25 617.79,-402.82 624.55,-400.99"/>
</g>
<!-- struct_139737280444832 -->
<g id="node18" class="node">
<title>struct_139737280444832</title>
<polygon fill="gray" stroke="transparent" points="496,-218 496,-281 686,-281 686,-218 496,-218"/>
<polygon fill="none" stroke="black" points="496,-259.5 496,-280.5 686,-280.5 686,-259.5 496,-259.5"/>
<text text-anchor="start" x="566" y="-267.3" font-family="Times,serif" text-decoration="underline" font-size="14.00">Cellule</text>
<polygon fill="none" stroke="black" points="496,-238.5 496,-259.5 548,-259.5 548,-238.5 496,-238.5"/>
<text text-anchor="start" x="499" y="-245.3" font-family="Times,serif" font-size="14.00">valeur</text>
<polygon fill="none" stroke="black" points="548,-238.5 548,-259.5 607,-259.5 607,-238.5 548,-238.5"/>
<text text-anchor="start" x="551" y="-245.3" font-family="Times,serif" font-size="14.00">suivant</text>
<polygon fill="none" stroke="black" points="607,-238.5 607,-259.5 686,-259.5 686,-238.5 607,-238.5"/>
<text text-anchor="start" x="610" y="-245.3" font-family="Times,serif" font-size="14.00">utilisation</text>
<polygon fill="none" stroke="black" points="496,-217.5 496,-238.5 548,-238.5 548,-217.5 496,-217.5"/>
<text text-anchor="start" x="510" y="-224.3" font-family="Times,serif" font-size="14.00">&quot;S&quot;</text>
<polygon fill="none" stroke="black" points="548,-217.5 548,-238.5 607,-238.5 607,-217.5 548,-217.5"/>
<text text-anchor="start" x="571" y="-224.3" font-family="Times,serif" font-size="14.00">⏺</text>
<polygon fill="none" stroke="black" points="607,-217.5 607,-238.5 686,-238.5 686,-217.5 607,-217.5"/>
<text text-anchor="start" x="641.5" y="-224.3" font-family="Times,serif" font-size="14.00">1</text>
</g>
<!-- struct_139737280444928&#45;&gt;struct_139737280444832 -->
<g id="edge14" class="edge">
<title>struct_139737280444928:port_child0&#45;&gt;struct_139737280444832</title>
<path fill="none" stroke="black" d="M591,-323.5C591,-314.38 591,-304.63 591,-295.31"/>
<polygon fill="black" stroke="black" points="594.5,-295.03 591,-285.03 587.5,-295.03 594.5,-295.03"/>
</g>
<!-- struct_139737280444832&#45;&gt;struct_139737280443920 -->
<g id="edge13" class="edge">
<title>struct_139737280444832:port_child0&#45;&gt;struct_139737280443920</title>
<path fill="none" stroke="black" d="M577,-216.5C577,-186.86 510.07,-168.24 446.32,-157.23"/>
<polygon fill="black" stroke="black" points="446.56,-153.72 436.12,-155.53 445.41,-160.63 446.56,-153.72"/>
</g>
</g>
</svg>
