<?xml version="1.0" encoding="UTF-8" standalone="no"?>
<!DOCTYPE svg PUBLIC "-//W3C//DTD SVG 1.1//EN"
 "http://www.w3.org/Graphics/SVG/1.1/DTD/svg11.dtd">
<!-- Generated by graphviz version 2.43.0 (0)
 -->
<!-- Title: structs Pages: 1 -->
<svg width="284pt" height="486pt"
 viewBox="0.00 0.00 284.00 486.00" xmlns="http://www.w3.org/2000/svg" xmlns:xlink="http://www.w3.org/1999/xlink">
<g id="graph0" class="graph" transform="scale(1 1) rotate(0) translate(4 482)">
<title>structs</title>
<polygon fill="white" stroke="transparent" points="-4,4 -4,-482 280,-482 280,4 -4,4"/>
<!-- struct_liste_321 -->
<g id="node1" class="node">
<title>struct_liste_321</title>
<polygon fill="chartreuse" stroke="transparent" points="66.5,-432 66.5,-474 137.5,-474 137.5,-432 66.5,-432"/>
<polygon fill="none" stroke="black" points="67,-453 67,-474 138,-474 138,-453 67,-453"/>
<text text-anchor="start" x="70" y="-459.8" font-family="Times,serif" font-size="14.00">liste_321</text>
<polygon fill="none" stroke="black" points="67,-432 67,-453 138,-453 138,-432 67,-432"/>
<text text-anchor="start" x="96" y="-438.8" font-family="Times,serif" font-size="14.00">⏺</text>
</g>
<!-- struct_140174287230096 -->
<g id="node2" class="node">
<title>struct_140174287230096</title>
<polygon fill="gray" stroke="transparent" points="9.5,-325 9.5,-388 196.5,-388 196.5,-325 9.5,-325"/>
<polygon fill="none" stroke="black" points="10,-366.5 10,-387.5 197,-387.5 197,-366.5 10,-366.5"/>
<text text-anchor="start" x="13" y="-374.3" font-family="Times,serif" text-decoration="underline" font-size="14.00">ListeDoublementChainee</text>
<polygon fill="none" stroke="black" points="10,-345.5 10,-366.5 96,-366.5 96,-345.5 10,-345.5"/>
<text text-anchor="start" x="38.5" y="-352.3" font-family="Times,serif" font-size="14.00">tete</text>
<polygon fill="none" stroke="black" points="96,-345.5 96,-366.5 197,-366.5 197,-345.5 96,-345.5"/>
<text text-anchor="start" x="124.5" y="-352.3" font-family="Times,serif" font-size="14.00">queue</text>
<polygon fill="none" stroke="black" points="10,-324.5 10,-345.5 96,-345.5 96,-324.5 10,-324.5"/>
<text text-anchor="start" x="46.5" y="-331.3" font-family="Times,serif" font-size="14.00">⏺</text>
<polygon fill="none" stroke="black" points="96,-324.5 96,-345.5 197,-345.5 197,-324.5 96,-324.5"/>
<text text-anchor="start" x="140" y="-331.3" font-family="Times,serif" font-size="14.00">⏺</text>
</g>
<!-- struct_liste_321&#45;&gt;struct_140174287230096 -->
<g id="edge7" class="edge">
<title>struct_liste_321:port_liste_321&#45;&gt;struct_140174287230096</title>
<path fill="none" stroke="black" d="M103,-431C103,-421.72 103,-411.79 103,-402.31"/>
<polygon fill="black" stroke="black" points="106.5,-402.27 103,-392.27 99.5,-402.27 106.5,-402.27"/>
</g>
<!-- struct_140174284692544 -->
<g id="node3" class="node">
<title>struct_140174284692544</title>
<polygon fill="gray" stroke="transparent" points="78,-218 78,-281 268,-281 268,-218 78,-218"/>
<polygon fill="none" stroke="black" points="78,-259.5 78,-280.5 268,-280.5 268,-259.5 78,-259.5"/>
<text text-anchor="start" x="148" y="-267.3" font-family="Times,serif" text-decoration="underline" font-size="14.00">Cellule</text>
<polygon fill="none" stroke="black" points="78,-238.5 78,-259.5 130,-259.5 130,-238.5 78,-238.5"/>
<text text-anchor="start" x="81" y="-245.3" font-family="Times,serif" font-size="14.00">valeur</text>
<polygon fill="none" stroke="black" points="130,-238.5 130,-259.5 189,-259.5 189,-238.5 130,-238.5"/>
<text text-anchor="start" x="133" y="-245.3" font-family="Times,serif" font-size="14.00">suivant</text>
<polygon fill="none" stroke="black" points="189,-238.5 189,-259.5 268,-259.5 268,-238.5 189,-238.5"/>
<text text-anchor="start" x="192" y="-245.3" font-family="Times,serif" font-size="14.00">precedent</text>
<polygon fill="none" stroke="black" points="78,-217.5 78,-238.5 130,-238.5 130,-217.5 78,-217.5"/>
<text text-anchor="start" x="99" y="-224.3" font-family="Times,serif" font-size="14.00">3</text>
<polygon fill="none" stroke="black" points="130,-217.5 130,-238.5 189,-238.5 189,-217.5 130,-217.5"/>
<text text-anchor="start" x="153" y="-224.3" font-family="Times,serif" font-size="14.00">⏺</text>
<polygon fill="none" stroke="black" points="189,-217.5 189,-238.5 268,-238.5 268,-217.5 189,-217.5"/>
<text text-anchor="start" x="209.5" y="-224.3" font-family="Times,serif" font-size="14.00">None</text>
</g>
<!-- struct_140174287230096&#45;&gt;struct_140174284692544 -->
<g id="edge5" class="edge">
<title>struct_140174287230096:port_child0&#45;&gt;struct_140174284692544</title>
<path fill="none" stroke="black" d="M53,-323.5C53,-311.15 57.7,-300.82 65.24,-292.21"/>
<polygon fill="black" stroke="black" points="67.84,-294.57 72.55,-285.07 62.95,-289.56 67.84,-294.57"/>
</g>
<!-- struct_140174287232832 -->
<g id="node5" class="node">
<title>struct_140174287232832</title>
<polygon fill="gray" stroke="transparent" points="8,-4 8,-67 198,-67 198,-4 8,-4"/>
<polygon fill="none" stroke="black" points="8,-45.5 8,-66.5 198,-66.5 198,-45.5 8,-45.5"/>
<text text-anchor="start" x="78" y="-53.3" font-family="Times,serif" text-decoration="underline" font-size="14.00">Cellule</text>
<polygon fill="none" stroke="black" points="8,-24.5 8,-45.5 60,-45.5 60,-24.5 8,-24.5"/>
<text text-anchor="start" x="11" y="-31.3" font-family="Times,serif" font-size="14.00">valeur</text>
<polygon fill="none" stroke="black" points="60,-24.5 60,-45.5 119,-45.5 119,-24.5 60,-24.5"/>
<text text-anchor="start" x="63" y="-31.3" font-family="Times,serif" font-size="14.00">suivant</text>
<polygon fill="none" stroke="black" points="119,-24.5 119,-45.5 198,-45.5 198,-24.5 119,-24.5"/>
<text text-anchor="start" x="122" y="-31.3" font-family="Times,serif" font-size="14.00">precedent</text>
<polygon fill="none" stroke="black" points="8,-3.5 8,-24.5 60,-24.5 60,-3.5 8,-3.5"/>
<text text-anchor="start" x="29" y="-10.3" font-family="Times,serif" font-size="14.00">1</text>
<polygon fill="none" stroke="black" points="60,-3.5 60,-24.5 119,-24.5 119,-3.5 60,-3.5"/>
<text text-anchor="start" x="70.5" y="-10.3" font-family="Times,serif" font-size="14.00">None</text>
<polygon fill="none" stroke="black" points="119,-3.5 119,-24.5 198,-24.5 198,-3.5 119,-3.5"/>
<text text-anchor="start" x="152" y="-10.3" font-family="Times,serif" font-size="14.00">⏺</text>
</g>
<!-- struct_140174287230096&#45;&gt;struct_140174287232832 -->
<g id="edge6" class="edge">
<title>struct_140174287230096:port_child1&#45;&gt;struct_140174287232832</title>
<path fill="none" stroke="black" d="M147,-323.5C147,-281.62 86.01,-318.59 61,-285 13.61,-221.35 20.86,-181.93 47,-107 50.36,-97.37 55.64,-88.07 61.65,-79.55"/>
<polygon fill="black" stroke="black" points="64.64,-81.41 67.86,-71.32 59.05,-77.2 64.64,-81.41"/>
</g>
<!-- struct_140174286525536 -->
<g id="node4" class="node">
<title>struct_140174286525536</title>
<polygon fill="gray" stroke="transparent" points="64,-111 64,-174 254,-174 254,-111 64,-111"/>
<polygon fill="none" stroke="black" points="64,-152.5 64,-173.5 254,-173.5 254,-152.5 64,-152.5"/>
<text text-anchor="start" x="134" y="-160.3" font-family="Times,serif" text-decoration="underline" font-size="14.00">Cellule</text>
<polygon fill="none" stroke="black" points="64,-131.5 64,-152.5 116,-152.5 116,-131.5 64,-131.5"/>
<text text-anchor="start" x="67" y="-138.3" font-family="Times,serif" font-size="14.00">valeur</text>
<polygon fill="none" stroke="black" points="116,-131.5 116,-152.5 175,-152.5 175,-131.5 116,-131.5"/>
<text text-anchor="start" x="119" y="-138.3" font-family="Times,serif" font-size="14.00">suivant</text>
<polygon fill="none" stroke="black" points="175,-131.5 175,-152.5 254,-152.5 254,-131.5 175,-131.5"/>
<text text-anchor="start" x="178" y="-138.3" font-family="Times,serif" font-size="14.00">precedent</text>
<polygon fill="none" stroke="black" points="64,-110.5 64,-131.5 116,-131.5 116,-110.5 64,-110.5"/>
<text text-anchor="start" x="85" y="-117.3" font-family="Times,serif" font-size="14.00">2</text>
<polygon fill="none" stroke="black" points="116,-110.5 116,-131.5 175,-131.5 175,-110.5 116,-110.5"/>
<text text-anchor="start" x="139" y="-117.3" font-family="Times,serif" font-size="14.00">⏺</text>
<polygon fill="none" stroke="black" points="175,-110.5 175,-131.5 254,-131.5 254,-110.5 175,-110.5"/>
<text text-anchor="start" x="208" y="-117.3" font-family="Times,serif" font-size="14.00">⏺</text>
</g>
<!-- struct_140174284692544&#45;&gt;struct_140174286525536 -->
<g id="edge4" class="edge">
<title>struct_140174284692544:port_child0&#45;&gt;struct_140174286525536</title>
<path fill="none" stroke="black" d="M159,-216.5C159,-207.38 159,-197.63 159,-188.31"/>
<polygon fill="black" stroke="black" points="162.5,-188.03 159,-178.03 155.5,-188.03 162.5,-188.03"/>
</g>
<!-- struct_140174286525536&#45;&gt;struct_140174284692544 -->
<g id="edge3" class="edge">
<title>struct_140174286525536:port_child1&#45;&gt;struct_140174284692544</title>
<path fill="none" stroke="black" d="M215,-109.5C215,-88.61 247.38,-95.57 262,-110.5 282.99,-131.94 275.06,-150.99 262,-178 256.77,-188.81 248.99,-198.47 240.16,-206.92"/>
<polygon fill="black" stroke="black" points="237.67,-204.45 232.54,-213.72 242.33,-209.67 237.67,-204.45"/>
</g>
<!-- struct_140174286525536&#45;&gt;struct_140174287232832 -->
<g id="edge2" class="edge">
<title>struct_140174286525536:port_child0&#45;&gt;struct_140174287232832</title>
<path fill="none" stroke="black" d="M145,-109.5C145,-99.3 141.88,-89.24 137.35,-80"/>
<polygon fill="black" stroke="black" points="140.3,-78.12 132.4,-71.06 134.18,-81.5 140.3,-78.12"/>
</g>
<!-- struct_140174287232832&#45;&gt;struct_140174286525536 -->
<g id="edge1" class="edge">
<title>struct_140174287232832:port_child0&#45;&gt;struct_140174286525536</title>
<path fill="none" stroke="black" d="M199,-13.5C235.32,-13.5 212.52,-61.03 189.17,-98.16"/>
<polygon fill="black" stroke="black" points="186.04,-96.56 183.57,-106.86 191.93,-100.34 186.04,-96.56"/>
</g>
</g>
</svg>
