<svg xmlns="http://www.w3.org/2000/svg" version="1.1" width="800" height="600">
<rect x="0" y ="0" width="800" height="600" stroke="none" fill="lightgray" />
<g stroke="black" fill="none" stroke-width="1">
<polygon points="0, 600 0, 560 40, 560 40, 600 " /> 

</g>
<g stroke="none" fill="red" stroke-width="0">
<text x="2" y="598" font-size="13.333333333333334">1</text>

</g>
<g stroke="black" fill="none" stroke-width="1">
<polygon points="40, 600 40, 560 80, 560 80, 600 " /> 

</g>
<g stroke="none" fill="red" stroke-width="0">
<text x="42" y="598" font-size="13.333333333333334">2</text>

</g>
<g stroke="black" fill="none" stroke-width="1">
<polygon points="80, 600 80, 560 120, 560 120, 600 " /> 

</g>
<g stroke="none" fill="red" stroke-width="0">
<text x="82" y="598" font-size="13.333333333333334">3</text>

</g>
<g stroke="black" fill="none" stroke-width="1">
<polygon points="120, 600 120, 560 160, 560 160, 600 " /> 

</g>
<g stroke="none" fill="red" stroke-width="0">
<text x="122" y="598" font-size="13.333333333333334">4</text>

</g>
<g stroke="black" fill="none" stroke-width="1">
<polygon points="160, 600 160, 560 200, 560 200, 600 " /> 

</g>
<g stroke="none" fill="red" stroke-width="0">
<text x="162" y="598" font-size="13.333333333333334">5</text>

</g>
<g stroke="black" fill="none" stroke-width="1">
<polygon points="200, 600 200, 560 240, 560 240, 600 " /> 

</g>
<g stroke="none" fill="red" stroke-width="0">
<text x="202" y="598" font-size="13.333333333333334">6</text>

</g>
<g stroke="black" fill="none" stroke-width="1">
<polygon points="240, 600 240, 560 280, 560 280, 600 " /> 

</g>
<g stroke="none" fill="red" stroke-width="0">
<text x="242" y="598" font-size="13.333333333333334">7</text>

</g>
<g stroke="black" fill="none" stroke-width="1">
<polygon points="280, 600 280, 560 320, 560 320, 600 " /> 

</g>
<g stroke="none" fill="red" stroke-width="0">
<text x="282" y="598" font-size="13.333333333333334">8</text>

</g>
<g stroke="black" fill="none" stroke-width="1">
<polygon points="320, 600 320, 560 360, 560 360, 600 " /> 

</g>
<g stroke="none" fill="red" stroke-width="0">
<text x="322" y="598" font-size="13.333333333333334">9</text>

</g>
<g stroke="black" fill="none" stroke-width="1">
<polygon points="360, 600 360, 560 400, 560 400, 600 " /> 

</g>
<g stroke="none" fill="red" stroke-width="0">
<text x="362" y="598" font-size="13.333333333333334">10</text>

</g>
<g stroke="black" fill="none" stroke-width="1">
<polygon points="400, 600 400, 560 440, 560 440, 600 " /> 

</g>
<g stroke="none" fill="red" stroke-width="0">
<text x="402" y="598" font-size="13.333333333333334">11</text>

</g>
<g stroke="black" fill="none" stroke-width="1">
<polygon points="440, 600 440, 560 480, 560 480, 600 " /> 

</g>
<g stroke="none" fill="red" stroke-width="0">
<text x="442" y="598" font-size="13.333333333333334">12</text>

</g>
<g stroke="black" fill="none" stroke-width="1">
<polygon points="480, 600 480, 560 520, 560 520, 600 " /> 

</g>
<g stroke="none" fill="red" stroke-width="0">
<text x="482" y="598" font-size="13.333333333333334">13</text>

</g>
<g stroke="black" fill="none" stroke-width="1">
<polygon points="520, 600 520, 560 560, 560 560, 600 " /> 

</g>
<g stroke="none" fill="red" stroke-width="0">
<text x="522" y="598" font-size="13.333333333333334">14</text>

</g>
<g stroke="black" fill="none" stroke-width="1">
<polygon points="560, 600 560, 560 600, 560 600, 600 " /> 

</g>
<g stroke="none" fill="red" stroke-width="0">
<text x="562" y="598" font-size="13.333333333333334">15</text>

</g>
<g stroke="black" fill="none" stroke-width="1">
<polygon points="600, 600 600, 560 640, 560 640, 600 " /> 

</g>
<g stroke="none" fill="red" stroke-width="0">
<text x="602" y="598" font-size="13.333333333333334">16</text>

</g>
<g stroke="black" fill="none" stroke-width="1">
<polygon points="640, 600 640, 560 680, 560 680, 600 " /> 

</g>
<g stroke="none" fill="red" stroke-width="0">
<text x="642" y="598" font-size="13.333333333333334">17</text>

</g>
<g stroke="black" fill="none" stroke-width="1">
<polygon points="680, 600 680, 560 720, 560 720, 600 " /> 

</g>
<g stroke="none" fill="red" stroke-width="0">
<text x="682" y="598" font-size="13.333333333333334">18</text>

</g>
<g stroke="black" fill="none" stroke-width="1">
<polygon points="720, 600 720, 560 760, 560 760, 600 " /> 

</g>
<g stroke="none" fill="red" stroke-width="0">
<text x="722" y="598" font-size="13.333333333333334">19</text>

</g>
<g stroke="black" fill="none" stroke-width="1">
<polygon points="760, 600 760, 560 800, 560 800, 600 " /> 

</g>
<g stroke="none" fill="red" stroke-width="0">
<text x="762" y="598" font-size="13.333333333333334">20</text>

</g>
<g stroke="black" fill="none" stroke-width="1">
<polygon points="760, 560 760, 520 800, 520 800, 560 " /> 

</g>
<g stroke="none" fill="red" stroke-width="0">
<text x="762" y="558" font-size="13.333333333333334">21</text>

</g>
<g stroke="black" fill="none" stroke-width="1">
<polygon points="760, 520 760, 480 800, 480 800, 520 " /> 

</g>
<g stroke="none" fill="red" stroke-width="0">
<text x="762" y="518" font-size="13.333333333333334">22</text>

</g>
<g stroke="black" fill="none" stroke-width="1">
<polygon points="720, 520 720, 480 760, 480 760, 520 " /> 

</g>
<g stroke="none" fill="red" stroke-width="0">
<text x="722" y="518" font-size="13.333333333333334">23</text>

</g>
<g stroke="black" fill="none" stroke-width="1">
<polygon points="680, 520 680, 480 720, 480 720, 520 " /> 

</g>
<g stroke="none" fill="red" stroke-width="0">
<text x="682" y="518" font-size="13.333333333333334">24</text>

</g>
<g stroke="black" fill="none" stroke-width="1">
<polygon points="640, 520 640, 480 680, 480 680, 520 " /> 

</g>
<g stroke="none" fill="red" stroke-width="0">
<text x="642" y="518" font-size="13.333333333333334">25</text>

</g>
<g stroke="black" fill="none" stroke-width="1">
<polygon points="600, 520 600, 480 640, 480 640, 520 " /> 

</g>
<g stroke="none" fill="red" stroke-width="0">
<text x="602" y="518" font-size="13.333333333333334">26</text>

</g>
<g stroke="black" fill="none" stroke-width="1">
<polygon points="560, 520 560, 480 600, 480 600, 520 " /> 

</g>
<g stroke="none" fill="red" stroke-width="0">
<text x="562" y="518" font-size="13.333333333333334">27</text>

</g>
<g stroke="black" fill="none" stroke-width="1">
<polygon points="520, 520 520, 480 560, 480 560, 520 " /> 

</g>
<g stroke="none" fill="red" stroke-width="0">
<text x="522" y="518" font-size="13.333333333333334">28</text>

</g>
<g stroke="black" fill="none" stroke-width="1">
<polygon points="480, 520 480, 480 520, 480 520, 520 " /> 

</g>
<g stroke="none" fill="red" stroke-width="0">
<text x="482" y="518" font-size="13.333333333333334">29</text>

</g>
<g stroke="black" fill="none" stroke-width="1">
<polygon points="440, 520 440, 480 480, 480 480, 520 " /> 

</g>
<g stroke="none" fill="red" stroke-width="0">
<text x="442" y="518" font-size="13.333333333333334">30</text>

</g>
<g stroke="black" fill="none" stroke-width="1">
<polygon points="400, 520 400, 480 440, 480 440, 520 " /> 

</g>
<g stroke="none" fill="red" stroke-width="0">
<text x="402" y="518" font-size="13.333333333333334">31</text>

</g>
<g stroke="black" fill="none" stroke-width="1">
<polygon points="360, 520 360, 480 400, 480 400, 520 " /> 

</g>
<g stroke="none" fill="red" stroke-width="0">
<text x="362" y="518" font-size="13.333333333333334">32</text>

</g>
<g stroke="black" fill="none" stroke-width="1">
<polygon points="320, 520 320, 480 360, 480 360, 520 " /> 

</g>
<g stroke="none" fill="red" stroke-width="0">
<text x="322" y="518" font-size="13.333333333333334">33</text>

</g>
<g stroke="black" fill="none" stroke-width="1">
<polygon points="280, 520 280, 480 320, 480 320, 520 " /> 

</g>
<g stroke="none" fill="red" stroke-width="0">
<text x="282" y="518" font-size="13.333333333333334">34</text>

</g>
<g stroke="black" fill="none" stroke-width="1">
<polygon points="240, 520 240, 480 280, 480 280, 520 " /> 

</g>
<g stroke="none" fill="red" stroke-width="0">
<text x="242" y="518" font-size="13.333333333333334">35</text>

</g>
<g stroke="black" fill="none" stroke-width="1">
<polygon points="200, 520 200, 480 240, 480 240, 520 " /> 

</g>
<g stroke="none" fill="red" stroke-width="0">
<text x="202" y="518" font-size="13.333333333333334">36</text>

</g>
<g stroke="black" fill="none" stroke-width="1">
<polygon points="160, 520 160, 480 200, 480 200, 520 " /> 

</g>
<g stroke="none" fill="red" stroke-width="0">
<text x="162" y="518" font-size="13.333333333333334">37</text>

</g>
<g stroke="black" fill="none" stroke-width="1">
<polygon points="120, 520 120, 480 160, 480 160, 520 " /> 

</g>
<g stroke="none" fill="red" stroke-width="0">
<text x="122" y="518" font-size="13.333333333333334">38</text>

</g>
<g stroke="black" fill="none" stroke-width="1">
<polygon points="80, 520 80, 480 120, 480 120, 520 " /> 

</g>
<g stroke="none" fill="red" stroke-width="0">
<text x="82" y="518" font-size="13.333333333333334">39</text>

</g>
<g stroke="black" fill="none" stroke-width="1">
<polygon points="40, 520 40, 480 80, 480 80, 520 " /> 

</g>
<g stroke="none" fill="red" stroke-width="0">
<text x="42" y="518" font-size="13.333333333333334">40</text>

</g>
<g stroke="black" fill="none" stroke-width="1">
<polygon points="0, 520 0, 480 40, 480 40, 520 " /> 

</g>
<g stroke="none" fill="red" stroke-width="0">
<text x="2" y="518" font-size="26.666666666666668">41</text>

</g>
<g stroke="black" fill="none" stroke-width="1">
<polygon points="0, 480 0, 440 40, 440 40, 480 " /> 

</g>
<g stroke="none" fill="red" stroke-width="0">
<text x="2" y="478" font-size="13.333333333333334">42</text>

</g>
<g stroke="black" fill="none" stroke-width="1">
<polygon points="0, 440 0, 400 40, 400 40, 440 " /> 

</g>
<g stroke="none" fill="red" stroke-width="0">
<text x="2" y="438" font-size="13.333333333333334">43</text>

</g>
<g stroke="black" fill="none" stroke-width="1">
<polygon points="40, 440 40, 400 80, 400 80, 440 " /> 

</g>
<g stroke="none" fill="red" stroke-width="0">
<text x="42" y="438" font-size="13.333333333333334">44</text>

</g>
<g stroke="black" fill="none" stroke-width="1">
<polygon points="80, 440 80, 400 120, 400 120, 440 " /> 

</g>
<g stroke="none" fill="red" stroke-width="0">
<text x="82" y="438" font-size="13.333333333333334">45</text>

</g>
<g stroke="black" fill="none" stroke-width="1">
<polygon points="120, 440 120, 400 160, 400 160, 440 " /> 

</g>
<g stroke="none" fill="red" stroke-width="0">
<text x="122" y="438" font-size="13.333333333333334">46</text>

</g>
<g stroke="black" fill="none" stroke-width="1">
<polygon points="160, 440 160, 400 200, 400 200, 440 " /> 

</g>
<g stroke="none" fill="red" stroke-width="0">
<text x="162" y="438" font-size="13.333333333333334">47</text>

</g>
<g stroke="black" fill="none" stroke-width="1">
<polygon points="200, 440 200, 400 240, 400 240, 440 " /> 

</g>
<g stroke="none" fill="red" stroke-width="0">
<text x="202" y="438" font-size="13.333333333333334">48</text>

</g>
<g stroke="black" fill="none" stroke-width="1">
<polygon points="240, 440 240, 400 280, 400 280, 440 " /> 

</g>
<g stroke="none" fill="red" stroke-width="0">
<text x="242" y="438" font-size="13.333333333333334">49</text>

</g>
<g stroke="black" fill="none" stroke-width="1">
<polygon points="280, 440 280, 400 320, 400 320, 440 " /> 

</g>
<g stroke="none" fill="red" stroke-width="0">
<text x="282" y="438" font-size="13.333333333333334">50</text>

</g>
<g stroke="black" fill="none" stroke-width="1">
<polygon points="320, 440 320, 400 360, 400 360, 440 " /> 

</g>
<g stroke="none" fill="red" stroke-width="0">
<text x="322" y="438" font-size="13.333333333333334">51</text>

</g>
<g stroke="black" fill="none" stroke-width="1">
<polygon points="360, 440 360, 400 400, 400 400, 440 " /> 

</g>
<g stroke="none" fill="red" stroke-width="0">
<text x="362" y="438" font-size="13.333333333333334">52</text>

</g>
<g stroke="black" fill="none" stroke-width="1">
<polygon points="400, 440 400, 400 440, 400 440, 440 " /> 

</g>
<g stroke="none" fill="red" stroke-width="0">
<text x="402" y="438" font-size="13.333333333333334">53</text>

</g>
<g stroke="black" fill="none" stroke-width="1">
<polygon points="440, 440 440, 400 480, 400 480, 440 " /> 

</g>
<g stroke="none" fill="red" stroke-width="0">
<text x="442" y="438" font-size="13.333333333333334">54</text>

</g>
<g stroke="black" fill="none" stroke-width="1">
<polygon points="480, 440 480, 400 520, 400 520, 440 " /> 

</g>
<g stroke="none" fill="red" stroke-width="0">
<text x="482" y="438" font-size="13.333333333333334">55</text>

</g>
<g stroke="black" fill="none" stroke-width="1">
<polygon points="520, 440 520, 400 560, 400 560, 440 " /> 

</g>
<g stroke="none" fill="red" stroke-width="0">
<text x="522" y="438" font-size="13.333333333333334">56</text>

</g>
<g stroke="black" fill="none" stroke-width="1">
<polygon points="560, 440 560, 400 600, 400 600, 440 " /> 

</g>
<g stroke="none" fill="red" stroke-width="0">
<text x="562" y="438" font-size="13.333333333333334">57</text>

</g>
<g stroke="black" fill="none" stroke-width="1">
<polygon points="600, 440 600, 400 640, 400 640, 440 " /> 

</g>
<g stroke="none" fill="red" stroke-width="0">
<text x="602" y="438" font-size="13.333333333333334">58</text>

</g>
<g stroke="black" fill="none" stroke-width="1">
<polygon points="640, 440 640, 400 680, 400 680, 440 " /> 

</g>
<g stroke="none" fill="red" stroke-width="0">
<text x="642" y="438" font-size="13.333333333333334">59</text>

</g>
<g stroke="black" fill="none" stroke-width="1">
<polygon points="680, 440 680, 400 720, 400 720, 440 " /> 

</g>
<g stroke="none" fill="red" stroke-width="0">
<text x="682" y="438" font-size="13.333333333333334">60</text>

</g>
<g stroke="black" fill="none" stroke-width="1">
<polygon points="720, 440 720, 400 760, 400 760, 440 " /> 

</g>
<g stroke="none" fill="red" stroke-width="0">
<text x="722" y="438" font-size="13.333333333333334">61</text>

</g>
<g stroke="black" fill="none" stroke-width="1">
<polygon points="760, 440 760, 400 800, 400 800, 440 " /> 

</g>
<g stroke="none" fill="red" stroke-width="0">
<text x="762" y="438" font-size="13.333333333333334">62</text>

</g>
<g stroke="black" fill="none" stroke-width="1">
<polygon points="760, 400 760, 360 800, 360 800, 400 " /> 

</g>
<g stroke="none" fill="red" stroke-width="0">
<text x="762" y="398" font-size="13.333333333333334">63</text>

</g>
<g stroke="black" fill="none" stroke-width="1">
<polygon points="760, 360 760, 320 800, 320 800, 360 " /> 

</g>
<g stroke="none" fill="red" stroke-width="0">
<text x="762" y="358" font-size="13.333333333333334">64</text>

</g>
<g stroke="black" fill="none" stroke-width="1">
<polygon points="720, 360 720, 320 760, 320 760, 360 " /> 

</g>
<g stroke="none" fill="red" stroke-width="0">
<text x="722" y="358" font-size="13.333333333333334">65</text>

</g>
<g stroke="black" fill="none" stroke-width="1">
<polygon points="680, 360 680, 320 720, 320 720, 360 " /> 

</g>
<g stroke="none" fill="red" stroke-width="0">
<text x="682" y="358" font-size="13.333333333333334">66</text>

</g>
<g stroke="black" fill="none" stroke-width="1">
<polygon points="640, 360 640, 320 680, 320 680, 360 " /> 

</g>
<g stroke="none" fill="red" stroke-width="0">
<text x="642" y="358" font-size="13.333333333333334">67</text>

</g>
<g stroke="black" fill="none" stroke-width="1">
<polygon points="600, 360 600, 320 640, 320 640, 360 " /> 

</g>
<g stroke="none" fill="red" stroke-width="0">
<text x="602" y="358" font-size="13.333333333333334">68</text>

</g>
<g stroke="black" fill="none" stroke-width="1">
<polygon points="560, 360 560, 320 600, 320 600, 360 " /> 

</g>
<g stroke="none" fill="red" stroke-width="0">
<text x="562" y="358" font-size="13.333333333333334">69</text>

</g>
<g stroke="black" fill="none" stroke-width="1">
<polygon points="520, 360 520, 320 560, 320 560, 360 " /> 

</g>
<g stroke="none" fill="red" stroke-width="0">
<text x="522" y="358" font-size="13.333333333333334">70</text>

</g>
<g stroke="black" fill="none" stroke-width="1">
<polygon points="480, 360 480, 320 520, 320 520, 360 " /> 

</g>
<g stroke="none" fill="red" stroke-width="0">
<text x="482" y="358" font-size="13.333333333333334">71</text>

</g>
<g stroke="black" fill="none" stroke-width="1">
<polygon points="440, 360 440, 320 480, 320 480, 360 " /> 

</g>
<g stroke="none" fill="red" stroke-width="0">
<text x="442" y="358" font-size="13.333333333333334">72</text>

</g>
<g stroke="black" fill="none" stroke-width="1">
<polygon points="400, 360 400, 320 440, 320 440, 360 " /> 

</g>
<g stroke="none" fill="red" stroke-width="0">
<text x="402" y="358" font-size="13.333333333333334">73</text>

</g>
<g stroke="black" fill="none" stroke-width="1">
<polygon points="360, 360 360, 320 400, 320 400, 360 " /> 

</g>
<g stroke="none" fill="red" stroke-width="0">
<text x="362" y="358" font-size="13.333333333333334">74</text>

</g>
<g stroke="black" fill="none" stroke-width="1">
<polygon points="320, 360 320, 320 360, 320 360, 360 " /> 

</g>
<g stroke="none" fill="red" stroke-width="0">
<text x="322" y="358" font-size="13.333333333333334">75</text>

</g>
<g stroke="black" fill="none" stroke-width="1">
<polygon points="280, 360 280, 320 320, 320 320, 360 " /> 

</g>
<g stroke="none" fill="red" stroke-width="0">
<text x="282" y="358" font-size="13.333333333333334">76</text>

</g>
<g stroke="black" fill="none" stroke-width="1">
<polygon points="240, 360 240, 320 280, 320 280, 360 " /> 

</g>
<g stroke="none" fill="red" stroke-width="0">
<text x="242" y="358" font-size="13.333333333333334">77</text>

</g>
<g stroke="black" fill="none" stroke-width="1">
<polygon points="200, 360 200, 320 240, 320 240, 360 " /> 

</g>
<g stroke="none" fill="red" stroke-width="0">
<text x="202" y="358" font-size="13.333333333333334">78</text>

</g>
<g stroke="black" fill="none" stroke-width="1">
<polygon points="160, 360 160, 320 200, 320 200, 360 " /> 

</g>
<g stroke="none" fill="red" stroke-width="0">
<text x="162" y="358" font-size="13.333333333333334">79</text>

</g>
<g stroke="black" fill="none" stroke-width="1">
<polygon points="120, 360 120, 320 160, 320 160, 360 " /> 

</g>
<g stroke="none" fill="red" stroke-width="0">
<text x="122" y="358" font-size="13.333333333333334">80</text>

</g>
<g stroke="black" fill="none" stroke-width="1">
<polygon points="80, 360 80, 320 120, 320 120, 360 " /> 

</g>
<g stroke="none" fill="red" stroke-width="0">
<text x="82" y="358" font-size="13.333333333333334">81</text>

</g>
<g stroke="black" fill="none" stroke-width="1">
<polygon points="40, 360 40, 320 80, 320 80, 360 " /> 

</g>
<g stroke="none" fill="red" stroke-width="0">
<text x="42" y="358" font-size="13.333333333333334">82</text>

</g>
<g stroke="black" fill="none" stroke-width="1">
<polygon points="0, 360 0, 320 40, 320 40, 360 " /> 

</g>
<g stroke="none" fill="red" stroke-width="0">
<text x="2" y="358" font-size="13.333333333333334">83</text>

</g>
<g stroke="black" fill="none" stroke-width="1">
<polygon points="0, 320 0, 280 40, 280 40, 320 " /> 

</g>
<g stroke="none" fill="red" stroke-width="0">
<text x="2" y="318" font-size="13.333333333333334">84</text>

</g>
<g stroke="black" fill="none" stroke-width="1">
<polygon points="0, 280 0, 240 40, 240 40, 280 " /> 

</g>
<g stroke="none" fill="red" stroke-width="0">
<text x="2" y="278" font-size="13.333333333333334">85</text>

</g>
<g stroke="black" fill="none" stroke-width="1">
<polygon points="40, 280 40, 240 80, 240 80, 280 " /> 

</g>
<g stroke="none" fill="red" stroke-width="0">
<text x="42" y="278" font-size="13.333333333333334">86</text>

</g>
<g stroke="black" fill="none" stroke-width="1">
<polygon points="80, 280 80, 240 120, 240 120, 280 " /> 

</g>
<g stroke="none" fill="red" stroke-width="0">
<text x="82" y="278" font-size="13.333333333333334">87</text>

</g>
<g stroke="black" fill="none" stroke-width="1">
<polygon points="120, 280 120, 240 160, 240 160, 280 " /> 

</g>
<g stroke="none" fill="red" stroke-width="0">
<text x="122" y="278" font-size="13.333333333333334">88</text>

</g>
<g stroke="black" fill="none" stroke-width="1">
<polygon points="160, 280 160, 240 200, 240 200, 280 " /> 

</g>
<g stroke="none" fill="red" stroke-width="0">
<text x="162" y="278" font-size="13.333333333333334">89</text>

</g>
<g stroke="black" fill="none" stroke-width="1">
<polygon points="200, 280 200, 240 240, 240 240, 280 " /> 

</g>
<g stroke="none" fill="red" stroke-width="0">
<text x="202" y="278" font-size="13.333333333333334">90</text>

</g>
<g stroke="black" fill="none" stroke-width="1">
<polygon points="240, 280 240, 240 280, 240 280, 280 " /> 

</g>
<g stroke="none" fill="red" stroke-width="0">
<text x="242" y="278" font-size="13.333333333333334">91</text>

</g>
<g stroke="black" fill="none" stroke-width="1">
<polygon points="280, 280 280, 240 320, 240 320, 280 " /> 

</g>
<g stroke="none" fill="red" stroke-width="0">
<text x="282" y="278" font-size="13.333333333333334">92</text>

</g>
<g stroke="black" fill="none" stroke-width="1">
<polygon points="320, 280 320, 240 360, 240 360, 280 " /> 

</g>
<g stroke="none" fill="red" stroke-width="0">
<text x="322" y="278" font-size="13.333333333333334">93</text>

</g>
<g stroke="black" fill="none" stroke-width="1">
<polygon points="360, 280 360, 240 400, 240 400, 280 " /> 

</g>
<g stroke="none" fill="red" stroke-width="0">
<text x="362" y="278" font-size="13.333333333333334">94</text>

</g>
<g stroke="black" fill="none" stroke-width="1">
<polygon points="400, 280 400, 240 440, 240 440, 280 " /> 

</g>
<g stroke="none" fill="red" stroke-width="0">
<text x="402" y="278" font-size="13.333333333333334">95</text>

</g>
<g stroke="black" fill="none" stroke-width="1">
<polygon points="440, 280 440, 240 480, 240 480, 280 " /> 

</g>
<g stroke="none" fill="red" stroke-width="0">
<text x="442" y="278" font-size="13.333333333333334">96</text>

</g>
<g stroke="black" fill="none" stroke-width="1">
<polygon points="480, 280 480, 240 520, 240 520, 280 " /> 

</g>
<g stroke="none" fill="red" stroke-width="0">
<text x="482" y="278" font-size="13.333333333333334">97</text>

</g>
<g stroke="black" fill="none" stroke-width="1">
<polygon points="520, 280 520, 240 560, 240 560, 280 " /> 

</g>
<g stroke="none" fill="red" stroke-width="0">
<text x="522" y="278" font-size="13.333333333333334">98</text>

</g>
<g stroke="black" fill="none" stroke-width="1">
<polygon points="560, 280 560, 240 600, 240 600, 280 " /> 

</g>
<g stroke="none" fill="red" stroke-width="0">
<text x="562" y="278" font-size="13.333333333333334">99</text>

</g>
<g stroke="black" fill="none" stroke-width="1">
<polygon points="600, 280 600, 240 640, 240 640, 280 " /> 

</g>
<g stroke="none" fill="red" stroke-width="0">
<text x="602" y="278" font-size="13.333333333333334">100</text>

</g>
<g stroke="black" fill="none" stroke-width="1">
<polygon points="640, 280 640, 240 680, 240 680, 280 " /> 

</g>
<g stroke="none" fill="red" stroke-width="0">
<text x="642" y="278" font-size="13.333333333333334">101</text>

</g>
<g stroke="black" fill="none" stroke-width="1">
<polygon points="680, 280 680, 240 720, 240 720, 280 " /> 

</g>
<g stroke="none" fill="red" stroke-width="0">
<text x="682" y="278" font-size="13.333333333333334">102</text>

</g>
<g stroke="black" fill="none" stroke-width="1">
<polygon points="720, 280 720, 240 760, 240 760, 280 " /> 

</g>
<g stroke="none" fill="red" stroke-width="0">
<text x="722" y="278" font-size="13.333333333333334">103</text>

</g>
<g stroke="black" fill="none" stroke-width="1">
<polygon points="760, 280 760, 240 800, 240 800, 280 " /> 

</g>
<g stroke="none" fill="red" stroke-width="0">
<text x="762" y="278" font-size="13.333333333333334">104</text>

</g>
<g stroke="black" fill="none" stroke-width="1">
<polygon points="760, 240 760, 200 800, 200 800, 240 " /> 

</g>
<g stroke="none" fill="red" stroke-width="0">
<text x="762" y="238" font-size="13.333333333333334">105</text>

</g>
<g stroke="black" fill="none" stroke-width="1">
<polygon points="760, 200 760, 160 800, 160 800, 200 " /> 

</g>
<g stroke="none" fill="red" stroke-width="0">
<text x="762" y="198" font-size="13.333333333333334">106</text>

</g>
<g stroke="black" fill="none" stroke-width="1">
<polygon points="720, 200 720, 160 760, 160 760, 200 " /> 

</g>
<g stroke="none" fill="red" stroke-width="0">
<text x="722" y="198" font-size="13.333333333333334">107</text>

</g>
<g stroke="black" fill="none" stroke-width="1">
<polygon points="680, 200 680, 160 720, 160 720, 200 " /> 

</g>
<g stroke="none" fill="red" stroke-width="0">
<text x="682" y="198" font-size="13.333333333333334">108</text>

</g>
<g stroke="black" fill="none" stroke-width="1">
<polygon points="640, 200 640, 160 680, 160 680, 200 " /> 

</g>
<g stroke="none" fill="red" stroke-width="0">
<text x="642" y="198" font-size="13.333333333333334">109</text>

</g>
<g stroke="black" fill="none" stroke-width="1">
<polygon points="600, 200 600, 160 640, 160 640, 200 " /> 

</g>
<g stroke="none" fill="red" stroke-width="0">
<text x="602" y="198" font-size="13.333333333333334">110</text>

</g>
<g stroke="black" fill="none" stroke-width="1">
<polygon points="560, 200 560, 160 600, 160 600, 200 " /> 

</g>
<g stroke="none" fill="red" stroke-width="0">
<text x="562" y="198" font-size="13.333333333333334">111</text>

</g>
<g stroke="black" fill="none" stroke-width="1">
<polygon points="520, 200 520, 160 560, 160 560, 200 " /> 

</g>
<g stroke="none" fill="red" stroke-width="0">
<text x="522" y="198" font-size="13.333333333333334">112</text>

</g>
<g stroke="black" fill="none" stroke-width="1">
<polygon points="480, 200 480, 160 520, 160 520, 200 " /> 

</g>
<g stroke="none" fill="red" stroke-width="0">
<text x="482" y="198" font-size="13.333333333333334">113</text>

</g>
<g stroke="black" fill="none" stroke-width="1">
<polygon points="440, 200 440, 160 480, 160 480, 200 " /> 

</g>
<g stroke="none" fill="red" stroke-width="0">
<text x="442" y="198" font-size="13.333333333333334">114</text>

</g>
<g stroke="black" fill="none" stroke-width="1">
<polygon points="400, 200 400, 160 440, 160 440, 200 " /> 

</g>
<g stroke="none" fill="red" stroke-width="0">
<text x="402" y="198" font-size="13.333333333333334">115</text>

</g>
<g stroke="black" fill="none" stroke-width="1">
<polygon points="360, 200 360, 160 400, 160 400, 200 " /> 

</g>
<g stroke="none" fill="red" stroke-width="0">
<text x="362" y="198" font-size="13.333333333333334">116</text>

</g>
<g stroke="black" fill="none" stroke-width="1">
<polygon points="320, 200 320, 160 360, 160 360, 200 " /> 

</g>
<g stroke="none" fill="red" stroke-width="0">
<text x="322" y="198" font-size="13.333333333333334">117</text>

</g>
<g stroke="black" fill="none" stroke-width="1">
<polygon points="280, 200 280, 160 320, 160 320, 200 " /> 

</g>
<g stroke="none" fill="red" stroke-width="0">
<text x="282" y="198" font-size="13.333333333333334">118</text>

</g>
<g stroke="black" fill="none" stroke-width="1">
<polygon points="240, 200 240, 160 280, 160 280, 200 " /> 

</g>
<g stroke="none" fill="red" stroke-width="0">
<text x="242" y="198" font-size="13.333333333333334">119</text>

</g>
<g stroke="black" fill="none" stroke-width="1">
<polygon points="200, 200 200, 160 240, 160 240, 200 " /> 

</g>
<g stroke="none" fill="red" stroke-width="0">
<text x="202" y="198" font-size="13.333333333333334">120</text>

</g>
<g stroke="black" fill="none" stroke-width="1">
<polygon points="160, 200 160, 160 200, 160 200, 200 " /> 

</g>
<g stroke="none" fill="red" stroke-width="0">
<text x="162" y="198" font-size="13.333333333333334">121</text>

</g>
<g stroke="black" fill="none" stroke-width="1">
<polygon points="120, 200 120, 160 160, 160 160, 200 " /> 

</g>
<g stroke="none" fill="red" stroke-width="0">
<text x="122" y="198" font-size="13.333333333333334">122</text>

</g>
<g stroke="black" fill="none" stroke-width="1">
<polygon points="80, 200 80, 160 120, 160 120, 200 " /> 

</g>
<g stroke="none" fill="red" stroke-width="0">
<text x="82" y="198" font-size="13.333333333333334">123</text>

</g>
<g stroke="black" fill="none" stroke-width="1">
<polygon points="40, 200 40, 160 80, 160 80, 200 " /> 

</g>
<g stroke="none" fill="red" stroke-width="0">
<text x="42" y="198" font-size="13.333333333333334">124</text>

</g>
<g stroke="black" fill="none" stroke-width="1">
<polygon points="0, 200 0, 160 40, 160 40, 200 " /> 

</g>
<g stroke="none" fill="red" stroke-width="0">
<text x="2" y="198" font-size="13.333333333333334">125</text>

</g>
<g stroke="black" fill="none" stroke-width="1">
<polygon points="0, 160 0, 120 40, 120 40, 160 " /> 

</g>
<g stroke="none" fill="red" stroke-width="0">
<text x="2" y="158" font-size="13.333333333333334">126</text>

</g>
<g stroke="black" fill="none" stroke-width="1">
<polygon points="0, 120 0, 80 40, 80 40, 120 " /> 

</g>
<g stroke="none" fill="red" stroke-width="0">
<text x="2" y="118" font-size="13.333333333333334">127</text>

</g>
<g stroke="black" fill="none" stroke-width="1">
<polygon points="40, 120 40, 80 80, 80 80, 120 " /> 

</g>
<g stroke="none" fill="red" stroke-width="0">
<text x="42" y="118" font-size="13.333333333333334">128</text>

</g>
<g stroke="black" fill="none" stroke-width="1">
<polygon points="80, 120 80, 80 120, 80 120, 120 " /> 

</g>
<g stroke="none" fill="red" stroke-width="0">
<text x="82" y="118" font-size="13.333333333333334">129</text>

</g>
<g stroke="black" fill="none" stroke-width="1">
<polygon points="120, 120 120, 80 160, 80 160, 120 " /> 

</g>
<g stroke="none" fill="red" stroke-width="0">
<text x="122" y="118" font-size="13.333333333333334">130</text>

</g>
<g stroke="black" fill="none" stroke-width="1">
<polygon points="160, 120 160, 80 200, 80 200, 120 " /> 

</g>
<g stroke="none" fill="red" stroke-width="0">
<text x="162" y="118" font-size="13.333333333333334">131</text>

</g>
<g stroke="black" fill="none" stroke-width="1">
<polygon points="200, 120 200, 80 240, 80 240, 120 " /> 

</g>
<g stroke="none" fill="red" stroke-width="0">
<text x="202" y="118" font-size="13.333333333333334">132</text>

</g>
<g stroke="black" fill="none" stroke-width="1">
<polygon points="240, 120 240, 80 280, 80 280, 120 " /> 

</g>
<g stroke="none" fill="red" stroke-width="0">
<text x="242" y="118" font-size="13.333333333333334">133</text>

</g>
<g stroke="black" fill="none" stroke-width="1">
<polygon points="280, 120 280, 80 320, 80 320, 120 " /> 

</g>
<g stroke="none" fill="red" stroke-width="0">
<text x="282" y="118" font-size="13.333333333333334">134</text>

</g>
<g stroke="black" fill="none" stroke-width="1">
<polygon points="320, 120 320, 80 360, 80 360, 120 " /> 

</g>
<g stroke="none" fill="red" stroke-width="0">
<text x="322" y="118" font-size="13.333333333333334">135</text>

</g>
<g stroke="black" fill="none" stroke-width="1">
<polygon points="360, 120 360, 80 400, 80 400, 120 " /> 

</g>
<g stroke="none" fill="red" stroke-width="0">
<text x="362" y="118" font-size="13.333333333333334">136</text>

</g>
<g stroke="black" fill="none" stroke-width="1">
<polygon points="400, 120 400, 80 440, 80 440, 120 " /> 

</g>
<g stroke="none" fill="red" stroke-width="0">
<text x="402" y="118" font-size="13.333333333333334">137</text>

</g>
<g stroke="black" fill="none" stroke-width="1">
<polygon points="440, 120 440, 80 480, 80 480, 120 " /> 

</g>
<g stroke="none" fill="red" stroke-width="0">
<text x="442" y="118" font-size="13.333333333333334">138</text>

</g>
<g stroke="black" fill="none" stroke-width="1">
<polygon points="480, 120 480, 80 520, 80 520, 120 " /> 

</g>
<g stroke="none" fill="red" stroke-width="0">
<text x="482" y="118" font-size="13.333333333333334">139</text>

</g>
<g stroke="black" fill="none" stroke-width="1">
<polygon points="520, 120 520, 80 560, 80 560, 120 " /> 

</g>
<g stroke="none" fill="red" stroke-width="0">
<text x="522" y="118" font-size="13.333333333333334">140</text>

</g>
<g stroke="black" fill="none" stroke-width="1">
<polygon points="560, 120 560, 80 600, 80 600, 120 " /> 

</g>
<g stroke="none" fill="red" stroke-width="0">
<text x="562" y="118" font-size="13.333333333333334">141</text>

</g>
<g stroke="black" fill="none" stroke-width="1">
<polygon points="600, 120 600, 80 640, 80 640, 120 " /> 

</g>
<g stroke="none" fill="red" stroke-width="0">
<text x="602" y="118" font-size="13.333333333333334">142</text>

</g>
<g stroke="black" fill="none" stroke-width="1">
<polygon points="640, 120 640, 80 680, 80 680, 120 " /> 

</g>
<g stroke="none" fill="red" stroke-width="0">
<text x="642" y="118" font-size="13.333333333333334">143</text>

</g>
<g stroke="black" fill="none" stroke-width="1">
<polygon points="680, 120 680, 80 720, 80 720, 120 " /> 

</g>
<g stroke="none" fill="red" stroke-width="0">
<text x="682" y="118" font-size="13.333333333333334">144</text>

</g>
<g stroke="black" fill="none" stroke-width="1">
<polygon points="720, 120 720, 80 760, 80 760, 120 " /> 

</g>
<g stroke="none" fill="red" stroke-width="0">
<text x="722" y="118" font-size="13.333333333333334">145</text>

</g>
<g stroke="black" fill="none" stroke-width="1">
<polygon points="760, 120 760, 80 800, 80 800, 120 " /> 

</g>
<g stroke="none" fill="red" stroke-width="0">
<text x="762" y="118" font-size="13.333333333333334">146</text>

</g>
<g stroke="black" fill="none" stroke-width="1">
<polygon points="760, 80 760, 40 800, 40 800, 80 " /> 

</g>
<g stroke="none" fill="red" stroke-width="0">
<text x="762" y="78" font-size="13.333333333333334">147</text>

</g>
<g stroke="black" fill="none" stroke-width="1">
<polygon points="760, 40 760, 0 800, 0 800, 40 " /> 

</g>
<g stroke="none" fill="red" stroke-width="0">
<text x="762" y="38" font-size="13.333333333333334">148</text>

</g>
<g stroke="black" fill="none" stroke-width="1">
<polygon points="720, 40 720, 0 760, 0 760, 40 " /> 

</g>
<g stroke="none" fill="red" stroke-width="0">
<text x="722" y="38" font-size="13.333333333333334">149</text>

</g>
<g stroke="black" fill="none" stroke-width="1">
<polygon points="680, 40 680, 0 720, 0 720, 40 " /> 

</g>
<g stroke="none" fill="red" stroke-width="0">
<text x="682" y="38" font-size="13.333333333333334">150</text>

</g>
<g stroke="black" fill="none" stroke-width="1">
<polygon points="640, 40 640, 0 680, 0 680, 40 " /> 

</g>
<g stroke="none" fill="red" stroke-width="0">
<text x="642" y="38" font-size="13.333333333333334">151</text>

</g>
<g stroke="black" fill="none" stroke-width="1">
<polygon points="600, 40 600, 0 640, 0 640, 40 " /> 

</g>
<g stroke="none" fill="red" stroke-width="0">
<text x="602" y="38" font-size="13.333333333333334">152</text>

</g>
<g stroke="black" fill="none" stroke-width="1">
<polygon points="560, 40 560, 0 600, 0 600, 40 " /> 

</g>
<g stroke="none" fill="red" stroke-width="0">
<text x="562" y="38" font-size="13.333333333333334">153</text>

</g>
<g stroke="black" fill="none" stroke-width="1">
<polygon points="520, 40 520, 0 560, 0 560, 40 " /> 

</g>
<g stroke="none" fill="red" stroke-width="0">
<text x="522" y="38" font-size="13.333333333333334">154</text>

</g>
<g stroke="black" fill="none" stroke-width="1">
<polygon points="480, 40 480, 0 520, 0 520, 40 " /> 

</g>
<g stroke="none" fill="red" stroke-width="0">
<text x="482" y="38" font-size="13.333333333333334">155</text>

</g>
<g stroke="black" fill="none" stroke-width="1">
<polygon points="440, 40 440, 0 480, 0 480, 40 " /> 

</g>
<g stroke="none" fill="red" stroke-width="0">
<text x="442" y="38" font-size="13.333333333333334">156</text>

</g>
<g stroke="black" fill="none" stroke-width="1">
<polygon points="400, 40 400, 0 440, 0 440, 40 " /> 

</g>
<g stroke="none" fill="red" stroke-width="0">
<text x="402" y="38" font-size="13.333333333333334">157</text>

</g>
<g stroke="black" fill="none" stroke-width="1">
<polygon points="360, 40 360, 0 400, 0 400, 40 " /> 

</g>
<g stroke="none" fill="red" stroke-width="0">
<text x="362" y="38" font-size="13.333333333333334">158</text>

</g>
<g stroke="black" fill="none" stroke-width="1">
<polygon points="320, 40 320, 0 360, 0 360, 40 " /> 

</g>
<g stroke="none" fill="red" stroke-width="0">
<text x="322" y="38" font-size="13.333333333333334">159</text>

</g>
<g stroke="black" fill="none" stroke-width="1">
<polygon points="280, 40 280, 0 320, 0 320, 40 " /> 

</g>
<g stroke="none" fill="red" stroke-width="0">
<text x="282" y="38" font-size="13.333333333333334">160</text>

</g>
<g stroke="black" fill="none" stroke-width="1">
<polygon points="240, 40 240, 0 280, 0 280, 40 " /> 

</g>
<g stroke="none" fill="red" stroke-width="0">
<text x="242" y="38" font-size="13.333333333333334">161</text>

</g>
<g stroke="black" fill="none" stroke-width="1">
<polygon points="200, 40 200, 0 240, 0 240, 40 " /> 

</g>
<g stroke="none" fill="red" stroke-width="0">
<text x="202" y="38" font-size="13.333333333333334">162</text>

</g>
<g stroke="black" fill="none" stroke-width="1">
<polygon points="160, 40 160, 0 200, 0 200, 40 " /> 

</g>
<g stroke="none" fill="red" stroke-width="0">
<text x="162" y="38" font-size="13.333333333333334">163</text>

</g>
<g stroke="black" fill="none" stroke-width="1">
<polygon points="120, 40 120, 0 160, 0 160, 40 " /> 

</g>
<g stroke="none" fill="red" stroke-width="0">
<text x="122" y="38" font-size="13.333333333333334">164</text>

</g>
<g stroke="black" fill="none" stroke-width="1">
<polygon points="80, 40 80, 0 120, 0 120, 40 " /> 

</g>
<g stroke="none" fill="red" stroke-width="0">
<text x="82" y="38" font-size="13.333333333333334">165</text>

</g>
<g stroke="black" fill="none" stroke-width="1">
<polygon points="40, 40 40, 0 80, 0 80, 40 " /> 

</g>
<g stroke="none" fill="red" stroke-width="0">
<text x="42" y="38" font-size="13.333333333333334">166</text>

</g>
<g stroke="black" fill="none" stroke-width="1">
<polygon points="0, 40 0, 0 40, 0 40, 40 " /> 

</g>
<g stroke="none" fill="red" stroke-width="0">
<text x="2" y="38" font-size="13.333333333333334">167</text>

</g>
</svg>
