<?xml version="1.0" encoding="UTF-8" standalone="no"?>
<!DOCTYPE svg PUBLIC "-//W3C//DTD SVG 1.1//EN"
 "http://www.w3.org/Graphics/SVG/1.1/DTD/svg11.dtd">
<!-- Generated by graphviz version 2.43.0 (0)
 -->
<!-- Title: structs Pages: 1 -->
<svg width="335pt" height="679pt"
 viewBox="0.00 0.00 335.00 679.00" xmlns="http://www.w3.org/2000/svg" xmlns:xlink="http://www.w3.org/1999/xlink">
<g id="graph0" class="graph" transform="scale(1 1) rotate(0) translate(4 675)">
<title>structs</title>
<polygon fill="white" stroke="transparent" points="-4,4 -4,-675 331,-675 331,4 -4,4"/>
<!-- struct_l -->
<g id="node1" class="node">
<title>struct_l</title>
<polygon fill="chartreuse" stroke="transparent" points="90.5,-625 90.5,-667 109.5,-667 109.5,-625 90.5,-625"/>
<polygon fill="none" stroke="black" points="91,-646 91,-667 110,-667 110,-646 91,-646"/>
<text text-anchor="start" x="98" y="-652.8" font-family="Times,serif" font-size="14.00">l</text>
<polygon fill="none" stroke="black" points="91,-625 91,-646 110,-646 110,-625 91,-625"/>
<text text-anchor="start" x="94" y="-631.8" font-family="Times,serif" font-size="14.00">⏺</text>
</g>
<!-- struct_140056767715264 -->
<g id="node2" class="node">
<title>struct_140056767715264</title>
<polygon fill="gray" stroke="transparent" points="8,-518 8,-581 194,-581 194,-518 8,-518"/>
<polygon fill="none" stroke="black" points="8,-559.5 8,-580.5 194,-580.5 194,-559.5 8,-559.5"/>
<text text-anchor="start" x="11" y="-567.3" font-family="Times,serif" text-decoration="underline" font-size="14.00">ListeSimplementChainee</text>
<polygon fill="none" stroke="black" points="8,-538.5 8,-559.5 194,-559.5 194,-538.5 8,-538.5"/>
<text text-anchor="start" x="86.5" y="-545.3" font-family="Times,serif" font-size="14.00">tete</text>
<polygon fill="none" stroke="black" points="8,-517.5 8,-538.5 194,-538.5 194,-517.5 8,-517.5"/>
<text text-anchor="start" x="94.5" y="-524.3" font-family="Times,serif" font-size="14.00">⏺</text>
</g>
<!-- struct_l&#45;&gt;struct_140056767715264 -->
<g id="edge10" class="edge">
<title>struct_l:port_l&#45;&gt;struct_140056767715264</title>
<path fill="none" stroke="black" d="M101,-624C101,-614.72 101,-604.79 101,-595.31"/>
<polygon fill="black" stroke="black" points="104.5,-595.27 101,-585.27 97.5,-595.27 104.5,-595.27"/>
</g>
<!-- struct_140056767715168 -->
<g id="node3" class="node">
<title>struct_140056767715168</title>
<polygon fill="gray" stroke="transparent" points="45.5,-411 45.5,-474 156.5,-474 156.5,-411 45.5,-411"/>
<polygon fill="none" stroke="black" points="46,-452.5 46,-473.5 157,-473.5 157,-452.5 46,-452.5"/>
<text text-anchor="start" x="76.5" y="-460.3" font-family="Times,serif" text-decoration="underline" font-size="14.00">Cellule</text>
<polygon fill="none" stroke="black" points="46,-431.5 46,-452.5 98,-452.5 98,-431.5 46,-431.5"/>
<text text-anchor="start" x="49" y="-438.3" font-family="Times,serif" font-size="14.00">valeur</text>
<polygon fill="none" stroke="black" points="98,-431.5 98,-452.5 157,-452.5 157,-431.5 98,-431.5"/>
<text text-anchor="start" x="101" y="-438.3" font-family="Times,serif" font-size="14.00">suivant</text>
<polygon fill="none" stroke="black" points="46,-410.5 46,-431.5 98,-431.5 98,-410.5 46,-410.5"/>
<text text-anchor="start" x="65.5" y="-417.3" font-family="Times,serif" font-size="14.00">⏺</text>
<polygon fill="none" stroke="black" points="98,-410.5 98,-431.5 157,-431.5 157,-410.5 98,-410.5"/>
<text text-anchor="start" x="121" y="-417.3" font-family="Times,serif" font-size="14.00">⏺</text>
</g>
<!-- struct_140056767715264&#45;&gt;struct_140056767715168 -->
<g id="edge9" class="edge">
<title>struct_140056767715264:port_child0&#45;&gt;struct_140056767715168</title>
<path fill="none" stroke="black" d="M101,-516.5C101,-507.38 101,-497.63 101,-488.31"/>
<polygon fill="black" stroke="black" points="104.5,-488.03 101,-478.03 97.5,-488.03 104.5,-488.03"/>
</g>
<!-- struct_9784864 -->
<g id="node4" class="node">
<title>struct_9784864</title>
<polygon fill="gray" stroke="transparent" points="33,-314.5 33,-356.5 59,-356.5 59,-314.5 33,-314.5"/>
<polygon fill="none" stroke="black" points="33,-335.5 33,-356.5 59,-356.5 59,-335.5 33,-335.5"/>
<text text-anchor="start" x="36" y="-343.3" font-family="Times,serif" text-decoration="underline" font-size="14.00">int</text>
<polygon fill="none" stroke="black" points="33,-314.5 33,-335.5 59,-335.5 59,-314.5 33,-314.5"/>
<text text-anchor="start" x="41" y="-321.3" font-family="Times,serif" font-size="14.00">1</text>
</g>
<!-- struct_140056767715168&#45;&gt;struct_9784864 -->
<g id="edge1" class="edge">
<title>struct_140056767715168:port_child0&#45;&gt;struct_9784864</title>
<path fill="none" stroke="black" d="M72,-409.5C72,-396.12 68.08,-382.13 63.28,-370.01"/>
<polygon fill="black" stroke="black" points="66.46,-368.55 59.3,-360.74 60.03,-371.31 66.46,-368.55"/>
</g>
<!-- struct_140056767715072 -->
<g id="node5" class="node">
<title>struct_140056767715072</title>
<polygon fill="gray" stroke="transparent" points="99.5,-304 99.5,-367 210.5,-367 210.5,-304 99.5,-304"/>
<polygon fill="none" stroke="black" points="100,-345.5 100,-366.5 211,-366.5 211,-345.5 100,-345.5"/>
<text text-anchor="start" x="130.5" y="-353.3" font-family="Times,serif" text-decoration="underline" font-size="14.00">Cellule</text>
<polygon fill="none" stroke="black" points="100,-324.5 100,-345.5 152,-345.5 152,-324.5 100,-324.5"/>
<text text-anchor="start" x="103" y="-331.3" font-family="Times,serif" font-size="14.00">valeur</text>
<polygon fill="none" stroke="black" points="152,-324.5 152,-345.5 211,-345.5 211,-324.5 152,-324.5"/>
<text text-anchor="start" x="155" y="-331.3" font-family="Times,serif" font-size="14.00">suivant</text>
<polygon fill="none" stroke="black" points="100,-303.5 100,-324.5 152,-324.5 152,-303.5 100,-303.5"/>
<text text-anchor="start" x="119.5" y="-310.3" font-family="Times,serif" font-size="14.00">⏺</text>
<polygon fill="none" stroke="black" points="152,-303.5 152,-324.5 211,-324.5 211,-303.5 152,-303.5"/>
<text text-anchor="start" x="175" y="-310.3" font-family="Times,serif" font-size="14.00">⏺</text>
</g>
<!-- struct_140056767715168&#45;&gt;struct_140056767715072 -->
<g id="edge8" class="edge">
<title>struct_140056767715168:port_child1&#45;&gt;struct_140056767715072</title>
<path fill="none" stroke="black" d="M128,-409.5C128,-399.87 130.09,-389.95 133.11,-380.64"/>
<polygon fill="black" stroke="black" points="136.41,-381.79 136.54,-371.2 129.84,-379.4 136.41,-381.79"/>
</g>
<!-- struct_9784896 -->
<g id="node6" class="node">
<title>struct_9784896</title>
<polygon fill="gray" stroke="transparent" points="86,-207.5 86,-249.5 112,-249.5 112,-207.5 86,-207.5"/>
<polygon fill="none" stroke="black" points="86,-228.5 86,-249.5 112,-249.5 112,-228.5 86,-228.5"/>
<text text-anchor="start" x="89" y="-236.3" font-family="Times,serif" text-decoration="underline" font-size="14.00">int</text>
<polygon fill="none" stroke="black" points="86,-207.5 86,-228.5 112,-228.5 112,-207.5 86,-207.5"/>
<text text-anchor="start" x="94" y="-214.3" font-family="Times,serif" font-size="14.00">2</text>
</g>
<!-- struct_140056767715072&#45;&gt;struct_9784896 -->
<g id="edge2" class="edge">
<title>struct_140056767715072:port_child0&#45;&gt;struct_9784896</title>
<path fill="none" stroke="black" d="M126,-302.5C126,-289.07 121.93,-275.06 116.95,-262.94"/>
<polygon fill="black" stroke="black" points="120.09,-261.39 112.82,-253.68 113.69,-264.24 120.09,-261.39"/>
</g>
<!-- struct_140056767714976 -->
<g id="node7" class="node">
<title>struct_140056767714976</title>
<polygon fill="gray" stroke="transparent" points="152.5,-197 152.5,-260 263.5,-260 263.5,-197 152.5,-197"/>
<polygon fill="none" stroke="black" points="153,-238.5 153,-259.5 264,-259.5 264,-238.5 153,-238.5"/>
<text text-anchor="start" x="183.5" y="-246.3" font-family="Times,serif" text-decoration="underline" font-size="14.00">Cellule</text>
<polygon fill="none" stroke="black" points="153,-217.5 153,-238.5 205,-238.5 205,-217.5 153,-217.5"/>
<text text-anchor="start" x="156" y="-224.3" font-family="Times,serif" font-size="14.00">valeur</text>
<polygon fill="none" stroke="black" points="205,-217.5 205,-238.5 264,-238.5 264,-217.5 205,-217.5"/>
<text text-anchor="start" x="208" y="-224.3" font-family="Times,serif" font-size="14.00">suivant</text>
<polygon fill="none" stroke="black" points="153,-196.5 153,-217.5 205,-217.5 205,-196.5 153,-196.5"/>
<text text-anchor="start" x="172.5" y="-203.3" font-family="Times,serif" font-size="14.00">⏺</text>
<polygon fill="none" stroke="black" points="205,-196.5 205,-217.5 264,-217.5 264,-196.5 205,-196.5"/>
<text text-anchor="start" x="228" y="-203.3" font-family="Times,serif" font-size="14.00">⏺</text>
</g>
<!-- struct_140056767715072&#45;&gt;struct_140056767714976 -->
<g id="edge7" class="edge">
<title>struct_140056767715072:port_child1&#45;&gt;struct_140056767714976</title>
<path fill="none" stroke="black" d="M182,-302.5C182,-292.91 184.01,-283.01 186.92,-273.71"/>
<polygon fill="black" stroke="black" points="190.22,-274.86 190.23,-264.27 183.62,-272.55 190.22,-274.86"/>
</g>
<!-- struct_9784928 -->
<g id="node8" class="node">
<title>struct_9784928</title>
<polygon fill="gray" stroke="transparent" points="139,-100.5 139,-142.5 165,-142.5 165,-100.5 139,-100.5"/>
<polygon fill="none" stroke="black" points="139,-121.5 139,-142.5 165,-142.5 165,-121.5 139,-121.5"/>
<text text-anchor="start" x="142" y="-129.3" font-family="Times,serif" text-decoration="underline" font-size="14.00">int</text>
<polygon fill="none" stroke="black" points="139,-100.5 139,-121.5 165,-121.5 165,-100.5 139,-100.5"/>
<text text-anchor="start" x="147" y="-107.3" font-family="Times,serif" font-size="14.00">3</text>
</g>
<!-- struct_140056767714976&#45;&gt;struct_9784928 -->
<g id="edge3" class="edge">
<title>struct_140056767714976:port_child0&#45;&gt;struct_9784928</title>
<path fill="none" stroke="black" d="M179,-195.5C179,-182.07 174.93,-168.06 169.95,-155.94"/>
<polygon fill="black" stroke="black" points="173.09,-154.39 165.82,-146.68 166.69,-157.24 173.09,-154.39"/>
</g>
<!-- struct_140056767714880 -->
<g id="node9" class="node">
<title>struct_140056767714880</title>
<polygon fill="gray" stroke="transparent" points="205.5,-90 205.5,-153 316.5,-153 316.5,-90 205.5,-90"/>
<polygon fill="none" stroke="black" points="206,-131.5 206,-152.5 317,-152.5 317,-131.5 206,-131.5"/>
<text text-anchor="start" x="236.5" y="-139.3" font-family="Times,serif" text-decoration="underline" font-size="14.00">Cellule</text>
<polygon fill="none" stroke="black" points="206,-110.5 206,-131.5 258,-131.5 258,-110.5 206,-110.5"/>
<text text-anchor="start" x="209" y="-117.3" font-family="Times,serif" font-size="14.00">valeur</text>
<polygon fill="none" stroke="black" points="258,-110.5 258,-131.5 317,-131.5 317,-110.5 258,-110.5"/>
<text text-anchor="start" x="261" y="-117.3" font-family="Times,serif" font-size="14.00">suivant</text>
<polygon fill="none" stroke="black" points="206,-89.5 206,-110.5 258,-110.5 258,-89.5 206,-89.5"/>
<text text-anchor="start" x="225.5" y="-96.3" font-family="Times,serif" font-size="14.00">⏺</text>
<polygon fill="none" stroke="black" points="258,-89.5 258,-110.5 317,-110.5 317,-89.5 258,-89.5"/>
<text text-anchor="start" x="281" y="-96.3" font-family="Times,serif" font-size="14.00">⏺</text>
</g>
<!-- struct_140056767714976&#45;&gt;struct_140056767714880 -->
<g id="edge6" class="edge">
<title>struct_140056767714976:port_child1&#45;&gt;struct_140056767714880</title>
<path fill="none" stroke="black" d="M235,-195.5C235,-185.91 237.01,-176.01 239.92,-166.71"/>
<polygon fill="black" stroke="black" points="243.22,-167.86 243.23,-157.27 236.62,-165.55 243.22,-167.86"/>
</g>
<!-- struct_9786176 -->
<g id="node10" class="node">
<title>struct_9786176</title>
<polygon fill="gray" stroke="transparent" points="209,-4 209,-46 235,-46 235,-4 209,-4"/>
<polygon fill="none" stroke="black" points="209,-25 209,-46 235,-46 235,-25 209,-25"/>
<text text-anchor="start" x="212" y="-32.8" font-family="Times,serif" text-decoration="underline" font-size="14.00">int</text>
<polygon fill="none" stroke="black" points="209,-4 209,-25 235,-25 235,-4 209,-4"/>
<text text-anchor="start" x="212.5" y="-10.8" font-family="Times,serif" font-size="14.00">42</text>
</g>
<!-- struct_140056767714880&#45;&gt;struct_9786176 -->
<g id="edge4" class="edge">
<title>struct_140056767714880:port_child0&#45;&gt;struct_9786176</title>
<path fill="none" stroke="black" d="M232,-88.5C232,-79.24 230.92,-69.3 229.46,-60.14"/>
<polygon fill="black" stroke="black" points="232.89,-59.43 227.7,-50.19 226,-60.65 232.89,-59.43"/>
</g>
<!-- struct_9480688 -->
<g id="node11" class="node">
<title>struct_9480688</title>
<polygon fill="deeppink" stroke="transparent" points="275,-14.5 275,-35.5 319,-35.5 319,-14.5 275,-14.5"/>
<polygon fill="none" stroke="black" points="275,-14 275,-35 319,-35 319,-14 275,-14"/>
<text text-anchor="start" x="278" y="-20.8" font-family="Times,serif" font-size="14.00">None</text>
</g>
<!-- struct_140056767714880&#45;&gt;struct_9480688 -->
<g id="edge5" class="edge">
<title>struct_140056767714880:port_child1&#45;&gt;struct_9480688</title>
<path fill="none" stroke="black" d="M288,-88.5C288,-76.79 289.57,-63.96 291.39,-53"/>
<polygon fill="black" stroke="black" points="294.84,-53.61 293.18,-43.15 287.95,-52.36 294.84,-53.61"/>
</g>
</g>
</svg>
