<?xml version="1.0" encoding="UTF-8" standalone="no"?>
<!DOCTYPE svg PUBLIC "-//W3C//DTD SVG 1.1//EN"
 "http://www.w3.org/Graphics/SVG/1.1/DTD/svg11.dtd">
<!-- Generated by graphviz version 2.40.1 (20161225.0304)
 -->
<!-- Title: structs Pages: 1 -->
<svg width="289pt" height="593pt"
 viewBox="0.00 0.00 288.50 593.00" xmlns="http://www.w3.org/2000/svg" xmlns:xlink="http://www.w3.org/1999/xlink">
<g id="graph0" class="graph" transform="scale(1 1) rotate(0) translate(4 589)">
<title>structs</title>
<polygon fill="#ffffff" stroke="transparent" points="-4,4 -4,-589 284.5,-589 284.5,4 -4,4"/>
<!-- struct_140423637286984 -->
<g id="node1" class="node">
<title>struct_140423637286984</title>
<polygon fill="#c0c0c0" stroke="transparent" points="127.5,-518 127.5,-581 272.5,-581 272.5,-518 127.5,-518"/>
<polygon fill="none" stroke="#000000" points="128,-559.5 128,-580.5 273,-580.5 273,-559.5 128,-559.5"/>
<text text-anchor="start" x="131" y="-567.3" font-family="Times,serif" text-decoration="underline" font-size="14.00" fill="#000000">ListeSimplementChainee</text>
<polygon fill="none" stroke="#000000" points="128,-538.5 128,-559.5 177,-559.5 177,-538.5 128,-538.5"/>
<text text-anchor="start" x="142.5" y="-545.3" font-family="Times,serif" font-size="14.00" fill="#000000">tete</text>
<polygon fill="none" stroke="#000000" points="177,-538.5 177,-559.5 227,-559.5 227,-538.5 177,-538.5"/>
<text text-anchor="start" x="185.5" y="-545.3" font-family="Times,serif" font-size="14.00" fill="#000000">queue</text>
<polygon fill="none" stroke="#000000" points="227,-538.5 227,-559.5 273,-559.5 273,-538.5 227,-538.5"/>
<text text-anchor="start" x="236" y="-545.3" font-family="Times,serif" font-size="14.00" fill="#000000">taille</text>
<polygon fill="none" stroke="#000000" points="128,-517.5 128,-538.5 177,-538.5 177,-517.5 128,-517.5"/>
<text text-anchor="start" x="146.5" y="-524.3" font-family="Times,serif" font-size="14.00" fill="#000000">⏺</text>
<polygon fill="none" stroke="#000000" points="177,-517.5 177,-538.5 227,-538.5 227,-517.5 177,-517.5"/>
<text text-anchor="start" x="196" y="-524.3" font-family="Times,serif" font-size="14.00" fill="#000000">⏺</text>
<polygon fill="none" stroke="#000000" points="227,-517.5 227,-538.5 273,-538.5 273,-517.5 227,-517.5"/>
<text text-anchor="start" x="244" y="-524.3" font-family="Times,serif" font-size="14.00" fill="#000000">⏺</text>
</g>
<!-- struct_140423613805120 -->
<g id="node2" class="node">
<title>struct_140423613805120</title>
<polygon fill="#c0c0c0" stroke="transparent" points="60,-411 60,-474 146,-474 146,-411 60,-411"/>
<polygon fill="none" stroke="#000000" points="60,-452.5 60,-473.5 146,-473.5 146,-452.5 60,-452.5"/>
<text text-anchor="start" x="83" y="-460.3" font-family="Times,serif" text-decoration="underline" font-size="14.00" fill="#000000">Cellule</text>
<polygon fill="none" stroke="#000000" points="60,-431.5 60,-452.5 100,-452.5 100,-431.5 60,-431.5"/>
<text text-anchor="start" x="63" y="-438.3" font-family="Times,serif" font-size="14.00" fill="#000000">valeur</text>
<polygon fill="none" stroke="#000000" points="100,-431.5 100,-452.5 146,-452.5 146,-431.5 100,-431.5"/>
<text text-anchor="start" x="103" y="-438.3" font-family="Times,serif" font-size="14.00" fill="#000000">suivant</text>
<polygon fill="none" stroke="#000000" points="60,-410.5 60,-431.5 100,-431.5 100,-410.5 60,-410.5"/>
<text text-anchor="start" x="74" y="-417.3" font-family="Times,serif" font-size="14.00" fill="#000000">⏺</text>
<polygon fill="none" stroke="#000000" points="100,-410.5 100,-431.5 146,-431.5 146,-410.5 100,-410.5"/>
<text text-anchor="start" x="117" y="-417.3" font-family="Times,serif" font-size="14.00" fill="#000000">⏺</text>
</g>
<!-- struct_140423637286984&#45;&gt;struct_140423613805120 -->
<g id="edge9" class="edge">
<title>struct_140423637286984:port_child0&#45;&gt;struct_140423613805120</title>
<path fill="none" stroke="#000000" d="M128,-527.5C109.3145,-527.5 102.733,-508.3608 100.9758,-488.2462"/>
<polygon fill="#000000" stroke="#000000" points="104.4612,-487.8666 100.4631,-478.0551 97.4701,-488.2184 104.4612,-487.8666"/>
</g>
<!-- struct_10914592 -->
<g id="node3" class="node">
<title>struct_10914592</title>
<polygon fill="#c0c0c0" stroke="transparent" points="16.5,-314.5 16.5,-356.5 37.5,-356.5 37.5,-314.5 16.5,-314.5"/>
<polygon fill="none" stroke="#000000" points="17,-335.5 17,-356.5 38,-356.5 38,-335.5 17,-335.5"/>
<text text-anchor="start" x="20" y="-343.3" font-family="Times,serif" text-decoration="underline" font-size="14.00" fill="#000000">int</text>
<polygon fill="none" stroke="#000000" points="17,-314.5 17,-335.5 38,-335.5 38,-314.5 17,-314.5"/>
<text text-anchor="start" x="24" y="-321.3" font-family="Times,serif" font-size="14.00" fill="#000000">4</text>
</g>
<!-- struct_140423637286984&#45;&gt;struct_10914592 -->
<g id="edge11" class="edge">
<title>struct_140423637286984:port_child2&#45;&gt;struct_10914592</title>
<path fill="none" stroke="#000000" d="M250,-517.5C250,-454.9939 213.7014,-443.5565 163,-407 124.6842,-379.3737 102.9718,-396.1707 63,-371 61.1292,-369.8219 59.278,-368.532 57.4607,-367.1636"/>
<polygon fill="#000000" stroke="#000000" points="59.6839,-364.4604 49.7541,-360.7658 55.2126,-369.8463 59.6839,-364.4604"/>
</g>
<!-- struct_140423613766960 -->
<g id="node8" class="node">
<title>struct_140423613766960</title>
<polygon fill="#c0c0c0" stroke="transparent" points="166,-90 166,-153 252,-153 252,-90 166,-90"/>
<polygon fill="none" stroke="#000000" points="166,-131.5 166,-152.5 252,-152.5 252,-131.5 166,-131.5"/>
<text text-anchor="start" x="189" y="-139.3" font-family="Times,serif" text-decoration="underline" font-size="14.00" fill="#000000">Cellule</text>
<polygon fill="none" stroke="#000000" points="166,-110.5 166,-131.5 206,-131.5 206,-110.5 166,-110.5"/>
<text text-anchor="start" x="169" y="-117.3" font-family="Times,serif" font-size="14.00" fill="#000000">valeur</text>
<polygon fill="none" stroke="#000000" points="206,-110.5 206,-131.5 252,-131.5 252,-110.5 206,-110.5"/>
<text text-anchor="start" x="209" y="-117.3" font-family="Times,serif" font-size="14.00" fill="#000000">suivant</text>
<polygon fill="none" stroke="#000000" points="166,-89.5 166,-110.5 206,-110.5 206,-89.5 166,-89.5"/>
<text text-anchor="start" x="180" y="-96.3" font-family="Times,serif" font-size="14.00" fill="#000000">⏺</text>
<polygon fill="none" stroke="#000000" points="206,-89.5 206,-110.5 252,-110.5 252,-89.5 206,-89.5"/>
<text text-anchor="start" x="223" y="-96.3" font-family="Times,serif" font-size="14.00" fill="#000000">⏺</text>
</g>
<!-- struct_140423637286984&#45;&gt;struct_140423613766960 -->
<g id="edge10" class="edge">
<title>struct_140423637286984:port_child1&#45;&gt;struct_140423613766960</title>
<path fill="none" stroke="#000000" d="M202,-517.5C202,-390.8486 205.6237,-241.4479 207.6567,-167.5986"/>
<polygon fill="#000000" stroke="#000000" points="211.1647,-167.3562 207.9445,-157.2627 204.1674,-167.1614 211.1647,-167.3562"/>
</g>
<!-- struct_140423613805120&#45;&gt;struct_10914592 -->
<g id="edge1" class="edge">
<title>struct_140423613805120:port_child0&#45;&gt;struct_10914592</title>
<path fill="none" stroke="#000000" d="M80,-410.5C80,-400.9281 68.3408,-383.8363 55.9594,-368.3843"/>
<polygon fill="#000000" stroke="#000000" points="58.532,-366.0022 49.4768,-360.5019 53.1255,-370.4486 58.532,-366.0022"/>
</g>
<!-- struct_140423613805064 -->
<g id="node4" class="node">
<title>struct_140423613805064</title>
<polygon fill="#c0c0c0" stroke="transparent" points="80,-304 80,-367 166,-367 166,-304 80,-304"/>
<polygon fill="none" stroke="#000000" points="80,-345.5 80,-366.5 166,-366.5 166,-345.5 80,-345.5"/>
<text text-anchor="start" x="103" y="-353.3" font-family="Times,serif" text-decoration="underline" font-size="14.00" fill="#000000">Cellule</text>
<polygon fill="none" stroke="#000000" points="80,-324.5 80,-345.5 120,-345.5 120,-324.5 80,-324.5"/>
<text text-anchor="start" x="83" y="-331.3" font-family="Times,serif" font-size="14.00" fill="#000000">valeur</text>
<polygon fill="none" stroke="#000000" points="120,-324.5 120,-345.5 166,-345.5 166,-324.5 120,-324.5"/>
<text text-anchor="start" x="123" y="-331.3" font-family="Times,serif" font-size="14.00" fill="#000000">suivant</text>
<polygon fill="none" stroke="#000000" points="80,-303.5 80,-324.5 120,-324.5 120,-303.5 80,-303.5"/>
<text text-anchor="start" x="94" y="-310.3" font-family="Times,serif" font-size="14.00" fill="#000000">⏺</text>
<polygon fill="none" stroke="#000000" points="120,-303.5 120,-324.5 166,-324.5 166,-303.5 120,-303.5"/>
<text text-anchor="start" x="137" y="-310.3" font-family="Times,serif" font-size="14.00" fill="#000000">⏺</text>
</g>
<!-- struct_140423613805120&#45;&gt;struct_140423613805064 -->
<g id="edge8" class="edge">
<title>struct_140423613805120:port_child1&#45;&gt;struct_140423613805064</title>
<path fill="none" stroke="#000000" d="M123,-410.5C123,-401.1291 123,-391.0995 123,-381.5223"/>
<polygon fill="#000000" stroke="#000000" points="126.5001,-381.3601 123,-371.3601 119.5001,-381.3601 126.5001,-381.3601"/>
</g>
<!-- struct_10914528 -->
<g id="node5" class="node">
<title>struct_10914528</title>
<polygon fill="#c0c0c0" stroke="transparent" points="26.5,-207.5 26.5,-249.5 47.5,-249.5 47.5,-207.5 26.5,-207.5"/>
<polygon fill="none" stroke="#000000" points="27,-228.5 27,-249.5 48,-249.5 48,-228.5 27,-228.5"/>
<text text-anchor="start" x="30" y="-236.3" font-family="Times,serif" text-decoration="underline" font-size="14.00" fill="#000000">int</text>
<polygon fill="none" stroke="#000000" points="27,-207.5 27,-228.5 48,-228.5 48,-207.5 27,-207.5"/>
<text text-anchor="start" x="34" y="-214.3" font-family="Times,serif" font-size="14.00" fill="#000000">2</text>
</g>
<!-- struct_140423613805064&#45;&gt;struct_10914528 -->
<g id="edge2" class="edge">
<title>struct_140423613805064:port_child0&#45;&gt;struct_10914528</title>
<path fill="none" stroke="#000000" d="M80,-313.5C68.1342,-313.5 56.0599,-286.7919 47.7393,-263.318"/>
<polygon fill="#000000" stroke="#000000" points="50.9483,-261.8834 44.4146,-253.5431 44.3211,-264.1375 50.9483,-261.8834"/>
</g>
<!-- struct_140423613767464 -->
<g id="node6" class="node">
<title>struct_140423613767464</title>
<polygon fill="#c0c0c0" stroke="transparent" points="90,-197 90,-260 176,-260 176,-197 90,-197"/>
<polygon fill="none" stroke="#000000" points="90,-238.5 90,-259.5 176,-259.5 176,-238.5 90,-238.5"/>
<text text-anchor="start" x="113" y="-246.3" font-family="Times,serif" text-decoration="underline" font-size="14.00" fill="#000000">Cellule</text>
<polygon fill="none" stroke="#000000" points="90,-217.5 90,-238.5 130,-238.5 130,-217.5 90,-217.5"/>
<text text-anchor="start" x="93" y="-224.3" font-family="Times,serif" font-size="14.00" fill="#000000">valeur</text>
<polygon fill="none" stroke="#000000" points="130,-217.5 130,-238.5 176,-238.5 176,-217.5 130,-217.5"/>
<text text-anchor="start" x="133" y="-224.3" font-family="Times,serif" font-size="14.00" fill="#000000">suivant</text>
<polygon fill="none" stroke="#000000" points="90,-196.5 90,-217.5 130,-217.5 130,-196.5 90,-196.5"/>
<text text-anchor="start" x="104" y="-203.3" font-family="Times,serif" font-size="14.00" fill="#000000">⏺</text>
<polygon fill="none" stroke="#000000" points="130,-196.5 130,-217.5 176,-217.5 176,-196.5 130,-196.5"/>
<text text-anchor="start" x="147" y="-203.3" font-family="Times,serif" font-size="14.00" fill="#000000">⏺</text>
</g>
<!-- struct_140423613805064&#45;&gt;struct_140423613767464 -->
<g id="edge7" class="edge">
<title>struct_140423613805064:port_child1&#45;&gt;struct_140423613767464</title>
<path fill="none" stroke="#000000" d="M143,-303.5C143,-294.0461 142.2097,-283.9803 141.0734,-274.3937"/>
<polygon fill="#000000" stroke="#000000" points="144.51,-273.6841 139.7256,-264.231 137.5708,-274.6044 144.51,-273.6841"/>
</g>
<!-- struct_10914624 -->
<g id="node7" class="node">
<title>struct_10914624</title>
<polygon fill="#c0c0c0" stroke="transparent" points="99.5,-100.5 99.5,-142.5 120.5,-142.5 120.5,-100.5 99.5,-100.5"/>
<polygon fill="none" stroke="#000000" points="100,-121.5 100,-142.5 121,-142.5 121,-121.5 100,-121.5"/>
<text text-anchor="start" x="103" y="-129.3" font-family="Times,serif" text-decoration="underline" font-size="14.00" fill="#000000">int</text>
<polygon fill="none" stroke="#000000" points="100,-100.5 100,-121.5 121,-121.5 121,-100.5 100,-100.5"/>
<text text-anchor="start" x="107" y="-107.3" font-family="Times,serif" font-size="14.00" fill="#000000">5</text>
</g>
<!-- struct_140423613767464&#45;&gt;struct_10914624 -->
<g id="edge3" class="edge">
<title>struct_140423613767464:port_child0&#45;&gt;struct_10914624</title>
<path fill="none" stroke="#000000" d="M110,-196.5C110,-183.4792 110,-169.1868 110,-156.603"/>
<polygon fill="#000000" stroke="#000000" points="113.5001,-156.5 110,-146.5 106.5001,-156.5 113.5001,-156.5"/>
</g>
<!-- struct_140423613767464&#45;&gt;struct_140423613766960 -->
<g id="edge6" class="edge">
<title>struct_140423613767464:port_child1&#45;&gt;struct_140423613766960</title>
<path fill="none" stroke="#000000" d="M176,-206.5C185.6588,-206.5 193.6077,-187.1856 199.2822,-166.9706"/>
<polygon fill="#000000" stroke="#000000" points="202.7312,-167.6159 201.8826,-157.0551 195.9602,-165.8401 202.7312,-167.6159"/>
</g>
<!-- struct_10914560 -->
<g id="node9" class="node">
<title>struct_10914560</title>
<polygon fill="#c0c0c0" stroke="transparent" points="160.5,-4 160.5,-46 181.5,-46 181.5,-4 160.5,-4"/>
<polygon fill="none" stroke="#000000" points="161,-25 161,-46 182,-46 182,-25 161,-25"/>
<text text-anchor="start" x="164" y="-32.8" font-family="Times,serif" text-decoration="underline" font-size="14.00" fill="#000000">int</text>
<polygon fill="none" stroke="#000000" points="161,-4 161,-25 182,-25 182,-4 161,-4"/>
<text text-anchor="start" x="168" y="-10.8" font-family="Times,serif" font-size="14.00" fill="#000000">3</text>
</g>
<!-- struct_140423613766960&#45;&gt;struct_10914560 -->
<g id="edge4" class="edge">
<title>struct_140423613766960:port_child0&#45;&gt;struct_10914560</title>
<path fill="none" stroke="#000000" d="M186,-89.5C186,-79.7906 184.3675,-69.4678 182.1797,-59.993"/>
<polygon fill="#000000" stroke="#000000" points="185.5194,-58.9267 179.6386,-50.1138 178.7401,-60.6705 185.5194,-58.9267"/>
</g>
<!-- struct_10306432 -->
<g id="node10" class="node">
<title>struct_10306432</title>
<polygon fill="#ff1493" stroke="transparent" points="225,-14.5 225,-35.5 261,-35.5 261,-14.5 225,-14.5"/>
<polygon fill="none" stroke="#000000" points="225,-14 225,-35 261,-35 261,-14 225,-14"/>
<text text-anchor="start" x="228" y="-20.8" font-family="Times,serif" font-size="14.00" fill="#000000">None</text>
</g>
<!-- struct_140423613766960&#45;&gt;struct_10306432 -->
<g id="edge5" class="edge">
<title>struct_140423613766960:port_child1&#45;&gt;struct_10306432</title>
<path fill="none" stroke="#000000" d="M229,-89.5C229,-77.3055 231.4194,-64.1032 234.2467,-52.8383"/>
<polygon fill="#000000" stroke="#000000" points="237.6419,-53.6911 236.9001,-43.1223 230.8892,-51.8469 237.6419,-53.6911"/>
</g>
</g>
</svg>
