<?xml version="1.0" encoding="UTF-8" standalone="no"?>
<!DOCTYPE svg PUBLIC "-//W3C//DTD SVG 1.1//EN"
 "http://www.w3.org/Graphics/SVG/1.1/DTD/svg11.dtd">
<!-- Generated by graphviz version 2.43.0 (0)
 -->
<!-- Title: structs Pages: 1 -->
<svg width="289pt" height="486pt"
 viewBox="0.00 0.00 288.50 486.00" xmlns="http://www.w3.org/2000/svg" xmlns:xlink="http://www.w3.org/1999/xlink">
<g id="graph0" class="graph" transform="scale(1 1) rotate(0) translate(4 482)">
<title>structs</title>
<polygon fill="white" stroke="transparent" points="-4,4 -4,-482 284.5,-482 284.5,4 -4,4"/>
<!-- struct_140019621412816 -->
<g id="node1" class="node">
<title>struct_140019621412816</title>
<polygon fill="gray" stroke="transparent" points="127.5,-411 127.5,-474 272.5,-474 272.5,-411 127.5,-411"/>
<polygon fill="none" stroke="black" points="128,-452.5 128,-473.5 273,-473.5 273,-452.5 128,-452.5"/>
<text text-anchor="start" x="131" y="-460.3" font-family="Times,serif" text-decoration="underline" font-size="14.00">ListeSimplementChainee</text>
<polygon fill="none" stroke="black" points="128,-431.5 128,-452.5 177,-452.5 177,-431.5 128,-431.5"/>
<text text-anchor="start" x="142.5" y="-438.3" font-family="Times,serif" font-size="14.00">tete</text>
<polygon fill="none" stroke="black" points="177,-431.5 177,-452.5 227,-452.5 227,-431.5 177,-431.5"/>
<text text-anchor="start" x="185.5" y="-438.3" font-family="Times,serif" font-size="14.00">queue</text>
<polygon fill="none" stroke="black" points="227,-431.5 227,-452.5 273,-452.5 273,-431.5 227,-431.5"/>
<text text-anchor="start" x="236" y="-438.3" font-family="Times,serif" font-size="14.00">taille</text>
<polygon fill="none" stroke="black" points="128,-410.5 128,-431.5 177,-431.5 177,-410.5 128,-410.5"/>
<text text-anchor="start" x="148" y="-417.3" font-family="Times,serif" font-size="14.00">●</text>
<polygon fill="none" stroke="black" points="177,-410.5 177,-431.5 227,-431.5 227,-410.5 177,-410.5"/>
<text text-anchor="start" x="197.5" y="-417.3" font-family="Times,serif" font-size="14.00">●</text>
<polygon fill="none" stroke="black" points="227,-410.5 227,-431.5 273,-431.5 273,-410.5 227,-410.5"/>
<text text-anchor="start" x="245.5" y="-417.3" font-family="Times,serif" font-size="14.00">●</text>
</g>
<!-- struct_140019619772496 -->
<g id="node2" class="node">
<title>struct_140019619772496</title>
<polygon fill="gray" stroke="transparent" points="60,-304 60,-367 146,-367 146,-304 60,-304"/>
<polygon fill="none" stroke="black" points="60,-345.5 60,-366.5 146,-366.5 146,-345.5 60,-345.5"/>
<text text-anchor="start" x="83" y="-353.3" font-family="Times,serif" text-decoration="underline" font-size="14.00">Cellule</text>
<polygon fill="none" stroke="black" points="60,-324.5 60,-345.5 100,-345.5 100,-324.5 60,-324.5"/>
<text text-anchor="start" x="63" y="-331.3" font-family="Times,serif" font-size="14.00">valeur</text>
<polygon fill="none" stroke="black" points="100,-324.5 100,-345.5 146,-345.5 146,-324.5 100,-324.5"/>
<text text-anchor="start" x="103" y="-331.3" font-family="Times,serif" font-size="14.00">suivant</text>
<polygon fill="none" stroke="black" points="60,-303.5 60,-324.5 100,-324.5 100,-303.5 60,-303.5"/>
<text text-anchor="start" x="75.5" y="-310.3" font-family="Times,serif" font-size="14.00">●</text>
<polygon fill="none" stroke="black" points="100,-303.5 100,-324.5 146,-324.5 146,-303.5 100,-303.5"/>
<text text-anchor="start" x="118.5" y="-310.3" font-family="Times,serif" font-size="14.00">●</text>
</g>
<!-- struct_140019621412816&#45;&gt;struct_140019619772496 -->
<g id="edge7" class="edge">
<title>struct_140019621412816:port_child0&#45;&gt;struct_140019619772496</title>
<path fill="none" stroke="black" d="M127,-420.5C108.45,-420.5 102.14,-401.32 100.62,-381.29"/>
<polygon fill="black" stroke="black" points="104.11,-381.01 100.22,-371.15 97.12,-381.28 104.11,-381.01"/>
</g>
<!-- struct_140019620723344 -->
<g id="node6" class="node">
<title>struct_140019620723344</title>
<polygon fill="gray" stroke="transparent" points="140,-90 140,-153 226,-153 226,-90 140,-90"/>
<polygon fill="none" stroke="black" points="140,-131.5 140,-152.5 226,-152.5 226,-131.5 140,-131.5"/>
<text text-anchor="start" x="163" y="-139.3" font-family="Times,serif" text-decoration="underline" font-size="14.00">Cellule</text>
<polygon fill="none" stroke="black" points="140,-110.5 140,-131.5 180,-131.5 180,-110.5 140,-110.5"/>
<text text-anchor="start" x="143" y="-117.3" font-family="Times,serif" font-size="14.00">valeur</text>
<polygon fill="none" stroke="black" points="180,-110.5 180,-131.5 226,-131.5 226,-110.5 180,-110.5"/>
<text text-anchor="start" x="183" y="-117.3" font-family="Times,serif" font-size="14.00">suivant</text>
<polygon fill="none" stroke="black" points="140,-89.5 140,-110.5 180,-110.5 180,-89.5 140,-89.5"/>
<text text-anchor="start" x="155.5" y="-96.3" font-family="Times,serif" font-size="14.00">●</text>
<polygon fill="none" stroke="black" points="180,-89.5 180,-110.5 226,-110.5 226,-89.5 180,-89.5"/>
<text text-anchor="start" x="198.5" y="-96.3" font-family="Times,serif" font-size="14.00">●</text>
</g>
<!-- struct_140019621412816&#45;&gt;struct_140019620723344 -->
<g id="edge8" class="edge">
<title>struct_140019621412816:port_child1&#45;&gt;struct_140019620723344</title>
<path fill="none" stroke="black" d="M202,-409.5C202,-323.71 193.44,-223.8 187.81,-167.37"/>
<polygon fill="black" stroke="black" points="191.29,-166.95 186.8,-157.35 184.32,-167.65 191.29,-166.95"/>
</g>
<!-- struct_140019623770480 -->
<g id="node7" class="node">
<title>struct_140019623770480</title>
<polygon fill="lightgray" stroke="transparent" points="149.5,-4 149.5,-46 170.5,-46 170.5,-4 149.5,-4"/>
<polygon fill="none" stroke="black" points="150,-25 150,-46 171,-46 171,-25 150,-25"/>
<text text-anchor="start" x="153" y="-32.8" font-family="Times,serif" text-decoration="underline" font-size="14.00">int</text>
<polygon fill="none" stroke="black" points="150,-4 150,-25 171,-25 171,-4 150,-4"/>
<text text-anchor="start" x="157" y="-10.8" font-family="Times,serif" font-size="14.00">3</text>
</g>
<!-- struct_140019621412816&#45;&gt;struct_140019623770480 -->
<g id="edge9" class="edge">
<title>struct_140019621412816:port_child2&#45;&gt;struct_140019623770480</title>
<path fill="none" stroke="black" d="M250,-409.5C250,-265.69 309.82,-213.34 243,-86 241.57,-83.28 217.45,-65.98 195.58,-50.65"/>
<polygon fill="black" stroke="black" points="197.56,-47.77 187.36,-44.91 193.56,-53.5 197.56,-47.77"/>
</g>
<!-- struct_140019623770512 -->
<g id="node3" class="node">
<title>struct_140019623770512</title>
<polygon fill="lightgray" stroke="transparent" points="16.5,-207.5 16.5,-249.5 37.5,-249.5 37.5,-207.5 16.5,-207.5"/>
<polygon fill="none" stroke="black" points="17,-228.5 17,-249.5 38,-249.5 38,-228.5 17,-228.5"/>
<text text-anchor="start" x="20" y="-236.3" font-family="Times,serif" text-decoration="underline" font-size="14.00">int</text>
<polygon fill="none" stroke="black" points="17,-207.5 17,-228.5 38,-228.5 38,-207.5 17,-207.5"/>
<text text-anchor="start" x="24" y="-214.3" font-family="Times,serif" font-size="14.00">4</text>
</g>
<!-- struct_140019619772496&#45;&gt;struct_140019623770512 -->
<g id="edge1" class="edge">
<title>struct_140019619772496:port_child0&#45;&gt;struct_140019623770512</title>
<path fill="none" stroke="black" d="M80,-302.5C80,-293.1 68.34,-276.46 55.96,-261.43"/>
<polygon fill="black" stroke="black" points="58.61,-259.15 49.48,-253.77 53.26,-263.67 58.61,-259.15"/>
</g>
<!-- struct_140019619772880 -->
<g id="node4" class="node">
<title>struct_140019619772880</title>
<polygon fill="gray" stroke="transparent" points="80,-197 80,-260 166,-260 166,-197 80,-197"/>
<polygon fill="none" stroke="black" points="80,-238.5 80,-259.5 166,-259.5 166,-238.5 80,-238.5"/>
<text text-anchor="start" x="103" y="-246.3" font-family="Times,serif" text-decoration="underline" font-size="14.00">Cellule</text>
<polygon fill="none" stroke="black" points="80,-217.5 80,-238.5 120,-238.5 120,-217.5 80,-217.5"/>
<text text-anchor="start" x="83" y="-224.3" font-family="Times,serif" font-size="14.00">valeur</text>
<polygon fill="none" stroke="black" points="120,-217.5 120,-238.5 166,-238.5 166,-217.5 120,-217.5"/>
<text text-anchor="start" x="123" y="-224.3" font-family="Times,serif" font-size="14.00">suivant</text>
<polygon fill="none" stroke="black" points="80,-196.5 80,-217.5 120,-217.5 120,-196.5 80,-196.5"/>
<text text-anchor="start" x="95.5" y="-203.3" font-family="Times,serif" font-size="14.00">●</text>
<polygon fill="none" stroke="black" points="120,-196.5 120,-217.5 166,-217.5 166,-196.5 120,-196.5"/>
<text text-anchor="start" x="138.5" y="-203.3" font-family="Times,serif" font-size="14.00">●</text>
</g>
<!-- struct_140019619772496&#45;&gt;struct_140019619772880 -->
<g id="edge6" class="edge">
<title>struct_140019619772496:port_child1&#45;&gt;struct_140019619772880</title>
<path fill="none" stroke="black" d="M123,-302.5C123,-293.38 123,-283.63 123,-274.31"/>
<polygon fill="black" stroke="black" points="126.5,-274.03 123,-264.03 119.5,-274.03 126.5,-274.03"/>
</g>
<!-- struct_140019623770448 -->
<g id="node5" class="node">
<title>struct_140019623770448</title>
<polygon fill="lightgray" stroke="transparent" points="76.5,-100.5 76.5,-142.5 97.5,-142.5 97.5,-100.5 76.5,-100.5"/>
<polygon fill="none" stroke="black" points="77,-121.5 77,-142.5 98,-142.5 98,-121.5 77,-121.5"/>
<text text-anchor="start" x="80" y="-129.3" font-family="Times,serif" text-decoration="underline" font-size="14.00">int</text>
<polygon fill="none" stroke="black" points="77,-100.5 77,-121.5 98,-121.5 98,-100.5 77,-100.5"/>
<text text-anchor="start" x="84" y="-107.3" font-family="Times,serif" font-size="14.00">2</text>
</g>
<!-- struct_140019619772880&#45;&gt;struct_140019623770448 -->
<g id="edge2" class="edge">
<title>struct_140019619772880:port_child0&#45;&gt;struct_140019623770448</title>
<path fill="none" stroke="black" d="M100,-195.5C100,-182.63 98.02,-168.67 95.6,-156.44"/>
<polygon fill="black" stroke="black" points="99.02,-155.69 93.5,-146.64 92.17,-157.15 99.02,-155.69"/>
</g>
<!-- struct_140019619772880&#45;&gt;struct_140019620723344 -->
<g id="edge5" class="edge">
<title>struct_140019619772880:port_child1&#45;&gt;struct_140019620723344</title>
<path fill="none" stroke="black" d="M143,-195.5C143,-185.42 145.97,-175.41 150.29,-166.19"/>
<polygon fill="black" stroke="black" points="153.43,-167.73 155,-157.25 147.24,-164.47 153.43,-167.73"/>
</g>
<!-- struct_140019620723344&#45;&gt;struct_140019623770480 -->
<g id="edge3" class="edge">
<title>struct_140019620723344:port_child0&#45;&gt;struct_140019623770480</title>
<path fill="none" stroke="black" d="M160,-88.5C160,-79.28 160,-69.29 160,-60.06"/>
<polygon fill="black" stroke="black" points="163.5,-60.04 160,-50.04 156.5,-60.04 163.5,-60.04"/>
</g>
<!-- struct_94156421960192 -->
<g id="node8" class="node">
<title>struct_94156421960192</title>
<polygon fill="deeppink" stroke="transparent" points="214,-14.5 214,-35.5 250,-35.5 250,-14.5 214,-14.5"/>
<polygon fill="none" stroke="black" points="214,-14 214,-35 250,-35 250,-14 214,-14"/>
<text text-anchor="start" x="217" y="-20.8" font-family="Times,serif" font-size="14.00">None</text>
</g>
<!-- struct_140019620723344&#45;&gt;struct_94156421960192 -->
<g id="edge4" class="edge">
<title>struct_140019620723344:port_child1&#45;&gt;struct_94156421960192</title>
<path fill="none" stroke="black" d="M203,-88.5C203,-75.73 208.04,-62.75 213.92,-51.94"/>
<polygon fill="black" stroke="black" points="217.09,-53.46 219.2,-43.07 211.08,-49.88 217.09,-53.46"/>
</g>
</g>
</svg>
