<?xml version="1.0" encoding="UTF-8" standalone="no"?>
<!DOCTYPE svg PUBLIC "-//W3C//DTD SVG 1.1//EN"
 "http://www.w3.org/Graphics/SVG/1.1/DTD/svg11.dtd">
<!-- Generated by graphviz version 2.40.1 (20161225.0304)
 -->
<!-- Title: structs Pages: 1 -->
<svg width="674pt" height="144pt"
 viewBox="0.00 0.00 674.00 144.00" xmlns="http://www.w3.org/2000/svg" xmlns:xlink="http://www.w3.org/1999/xlink">
<g id="graph0" class="graph" transform="scale(1 1) rotate(0) translate(4 140)">
<title>structs</title>
<polygon fill="#ffffff" stroke="transparent" points="-4,4 -4,-140 670,-140 670,4 -4,4"/>
<!-- struct_i -->
<g id="node1" class="node">
<title>struct_i</title>
<polygon fill="#7fff00" stroke="transparent" points="18,-90 18,-132 36,-132 36,-90 18,-90"/>
<polygon fill="none" stroke="#000000" points="18,-111 18,-132 36,-132 36,-111 18,-111"/>
<text text-anchor="start" x="25" y="-117.8" font-family="Times,serif" font-size="14.00" fill="#000000">i</text>
<polygon fill="none" stroke="#000000" points="18,-90 18,-111 36,-111 36,-90 18,-90"/>
<text text-anchor="start" x="21" y="-96.8" font-family="Times,serif" font-size="14.00" fill="#000000">⏺</text>
</g>
<!-- struct_10915776 -->
<g id="node2" class="node">
<title>struct_10915776</title>
<polygon fill="#c0c0c0" stroke="transparent" points="16.5,-4 16.5,-46 37.5,-46 37.5,-4 16.5,-4"/>
<polygon fill="none" stroke="#000000" points="17,-25 17,-46 38,-46 38,-25 17,-25"/>
<text text-anchor="start" x="20" y="-32.8" font-family="Times,serif" text-decoration="underline" font-size="14.00" fill="#000000">int</text>
<polygon fill="none" stroke="#000000" points="17,-4 17,-25 38,-25 38,-4 17,-4"/>
<text text-anchor="start" x="20.5" y="-10.8" font-family="Times,serif" font-size="14.00" fill="#000000">41</text>
</g>
<!-- struct_i&#45;&gt;struct_10915776 -->
<g id="edge1" class="edge">
<title>struct_i:port_i&#45;&gt;struct_10915776</title>
<path fill="none" stroke="#000000" d="M27,-90C27,-80.304 27,-69.7943 27,-60.1095"/>
<polygon fill="#000000" stroke="#000000" points="30.5001,-60.0017 27,-50.0017 23.5001,-60.0017 30.5001,-60.0017"/>
</g>
<!-- struct_j -->
<g id="node3" class="node">
<title>struct_j</title>
<polygon fill="#7fff00" stroke="transparent" points="106,-90 106,-132 124,-132 124,-90 106,-90"/>
<polygon fill="none" stroke="#000000" points="106,-111 106,-132 124,-132 124,-111 106,-111"/>
<text text-anchor="start" x="113" y="-117.8" font-family="Times,serif" font-size="14.00" fill="#000000">j</text>
<polygon fill="none" stroke="#000000" points="106,-90 106,-111 124,-111 124,-90 106,-90"/>
<text text-anchor="start" x="109" y="-96.8" font-family="Times,serif" font-size="14.00" fill="#000000">⏺</text>
</g>
<!-- struct_10915808 -->
<g id="node4" class="node">
<title>struct_10915808</title>
<polygon fill="#c0c0c0" stroke="transparent" points="120.5,-4 120.5,-46 141.5,-46 141.5,-4 120.5,-4"/>
<polygon fill="none" stroke="#000000" points="121,-25 121,-46 142,-46 142,-25 121,-25"/>
<text text-anchor="start" x="124" y="-32.8" font-family="Times,serif" text-decoration="underline" font-size="14.00" fill="#000000">int</text>
<polygon fill="none" stroke="#000000" points="121,-4 121,-25 142,-25 142,-4 121,-4"/>
<text text-anchor="start" x="124.5" y="-10.8" font-family="Times,serif" font-size="14.00" fill="#000000">42</text>
</g>
<!-- struct_j&#45;&gt;struct_10915808 -->
<g id="edge2" class="edge">
<title>struct_j:port_j&#45;&gt;struct_10915808</title>
<path fill="none" stroke="#000000" d="M115,-90C115,-80.0808 116.7785,-69.5505 119.1497,-59.9192"/>
<polygon fill="#000000" stroke="#000000" points="122.5263,-60.84 121.7854,-50.2711 115.7738,-58.9952 122.5263,-60.84"/>
</g>
<!-- struct_k -->
<g id="node5" class="node">
<title>struct_k</title>
<polygon fill="#7fff00" stroke="transparent" points="178,-90 178,-132 196,-132 196,-90 178,-90"/>
<polygon fill="none" stroke="#000000" points="178,-111 178,-132 196,-132 196,-111 178,-111"/>
<text text-anchor="start" x="183.5" y="-117.8" font-family="Times,serif" font-size="14.00" fill="#000000">k</text>
<polygon fill="none" stroke="#000000" points="178,-90 178,-111 196,-111 196,-90 178,-90"/>
<text text-anchor="start" x="181" y="-96.8" font-family="Times,serif" font-size="14.00" fill="#000000">⏺</text>
</g>
<!-- struct_k&#45;&gt;struct_10915808 -->
<g id="edge3" class="edge">
<title>struct_k:port_k&#45;&gt;struct_10915808</title>
<path fill="none" stroke="#000000" d="M187,-90C187,-73.9935 177.1324,-59.9717 165.6815,-49.0887"/>
<polygon fill="#000000" stroke="#000000" points="167.8522,-46.3377 158.0158,-42.4011 163.2503,-51.6125 167.8522,-46.3377"/>
</g>
<!-- struct_a -->
<g id="node6" class="node">
<title>struct_a</title>
<polygon fill="#7fff00" stroke="transparent" points="250,-90 250,-132 268,-132 268,-90 250,-90"/>
<polygon fill="none" stroke="#000000" points="250,-111 250,-132 268,-132 268,-111 250,-111"/>
<text text-anchor="start" x="255.5" y="-117.8" font-family="Times,serif" font-size="14.00" fill="#000000">a</text>
<polygon fill="none" stroke="#000000" points="250,-90 250,-111 268,-111 268,-90 250,-90"/>
<text text-anchor="start" x="253" y="-96.8" font-family="Times,serif" font-size="14.00" fill="#000000">⏺</text>
</g>
<!-- struct_139991711074000 -->
<g id="node7" class="node">
<title>struct_139991711074000</title>
<polygon fill="#c0c0c0" stroke="transparent" points="232,-4 232,-46 286,-46 286,-4 232,-4"/>
<polygon fill="none" stroke="#000000" points="232,-25 232,-46 286,-46 286,-25 232,-25"/>
<text text-anchor="start" x="251.5" y="-32.8" font-family="Times,serif" text-decoration="underline" font-size="14.00" fill="#000000">int</text>
<polygon fill="none" stroke="#000000" points="232,-4 232,-25 286,-25 286,-4 232,-4"/>
<text text-anchor="start" x="235" y="-10.8" font-family="Times,serif" font-size="14.00" fill="#000000">7006652</text>
</g>
<!-- struct_a&#45;&gt;struct_139991711074000 -->
<g id="edge4" class="edge">
<title>struct_a:port_a&#45;&gt;struct_139991711074000</title>
<path fill="none" stroke="#000000" d="M259,-90C259,-80.304 259,-69.7943 259,-60.1095"/>
<polygon fill="#000000" stroke="#000000" points="262.5001,-60.0017 259,-50.0017 255.5001,-60.0017 262.5001,-60.0017"/>
</g>
<!-- struct_b -->
<g id="node8" class="node">
<title>struct_b</title>
<polygon fill="#7fff00" stroke="transparent" points="342,-90 342,-132 360,-132 360,-90 342,-90"/>
<polygon fill="none" stroke="#000000" points="342,-111 342,-132 360,-132 360,-111 342,-111"/>
<text text-anchor="start" x="347.5" y="-117.8" font-family="Times,serif" font-size="14.00" fill="#000000">b</text>
<polygon fill="none" stroke="#000000" points="342,-90 342,-111 360,-111 360,-90 342,-90"/>
<text text-anchor="start" x="345" y="-96.8" font-family="Times,serif" font-size="14.00" fill="#000000">⏺</text>
</g>
<!-- struct_139991711073968 -->
<g id="node9" class="node">
<title>struct_139991711073968</title>
<polygon fill="#c0c0c0" stroke="transparent" points="344,-4 344,-46 398,-46 398,-4 344,-4"/>
<polygon fill="none" stroke="#000000" points="344,-25 344,-46 398,-46 398,-25 344,-25"/>
<text text-anchor="start" x="363.5" y="-32.8" font-family="Times,serif" text-decoration="underline" font-size="14.00" fill="#000000">int</text>
<polygon fill="none" stroke="#000000" points="344,-4 344,-25 398,-25 398,-4 344,-4"/>
<text text-anchor="start" x="347" y="-10.8" font-family="Times,serif" font-size="14.00" fill="#000000">7006652</text>
</g>
<!-- struct_b&#45;&gt;struct_139991711073968 -->
<g id="edge5" class="edge">
<title>struct_b:port_b&#45;&gt;struct_139991711073968</title>
<path fill="none" stroke="#000000" d="M351,-90C351,-79.9227 353.2232,-69.3397 356.1871,-59.7084"/>
<polygon fill="#000000" stroke="#000000" points="359.5566,-60.6718 359.4818,-50.0772 352.9334,-58.406 359.5566,-60.6718"/>
</g>
<!-- struct_c -->
<g id="node10" class="node">
<title>struct_c</title>
<polygon fill="#7fff00" stroke="transparent" points="414,-90 414,-132 432,-132 432,-90 414,-90"/>
<polygon fill="none" stroke="#000000" points="414,-111 414,-132 432,-132 432,-111 414,-111"/>
<text text-anchor="start" x="419.5" y="-117.8" font-family="Times,serif" font-size="14.00" fill="#000000">c</text>
<polygon fill="none" stroke="#000000" points="414,-90 414,-111 432,-111 432,-90 414,-90"/>
<text text-anchor="start" x="417" y="-96.8" font-family="Times,serif" font-size="14.00" fill="#000000">⏺</text>
</g>
<!-- struct_c&#45;&gt;struct_139991711073968 -->
<g id="edge6" class="edge">
<title>struct_c:port_c&#45;&gt;struct_139991711073968</title>
<path fill="none" stroke="#000000" d="M423,-90C423,-78.152 417.6668,-67.2263 410.4164,-57.8471"/>
<polygon fill="#000000" stroke="#000000" points="412.8293,-55.287 403.6371,-50.0187 407.5377,-59.8694 412.8293,-55.287"/>
</g>
<!-- struct_r -->
<g id="node11" class="node">
<title>struct_r</title>
<polygon fill="#7fff00" stroke="transparent" points="486,-90 486,-132 504,-132 504,-90 486,-90"/>
<polygon fill="none" stroke="#000000" points="486,-111 486,-132 504,-132 504,-111 486,-111"/>
<text text-anchor="start" x="492.5" y="-117.8" font-family="Times,serif" font-size="14.00" fill="#000000">r</text>
<polygon fill="none" stroke="#000000" points="486,-90 486,-111 504,-111 504,-90 486,-90"/>
<text text-anchor="start" x="489" y="-96.8" font-family="Times,serif" font-size="14.00" fill="#000000">⏺</text>
</g>
<!-- struct_139991733790680 -->
<g id="node12" class="node">
<title>struct_139991733790680</title>
<polygon fill="#c0c0c0" stroke="transparent" points="479,-4 479,-46 511,-46 511,-4 479,-4"/>
<polygon fill="none" stroke="#000000" points="479,-25 479,-46 511,-46 511,-25 479,-25"/>
<text text-anchor="start" x="488" y="-32.8" font-family="Times,serif" text-decoration="underline" font-size="14.00" fill="#000000">str</text>
<polygon fill="none" stroke="#000000" points="479,-4 479,-25 511,-25 511,-4 479,-4"/>
<text text-anchor="start" x="482" y="-10.8" font-family="Times,serif" font-size="14.00" fill="#000000">&quot;41&quot;</text>
</g>
<!-- struct_r&#45;&gt;struct_139991733790680 -->
<g id="edge7" class="edge">
<title>struct_r:port_r&#45;&gt;struct_139991733790680</title>
<path fill="none" stroke="#000000" d="M495,-90C495,-80.304 495,-69.7943 495,-60.1095"/>
<polygon fill="#000000" stroke="#000000" points="498.5001,-60.0017 495,-50.0017 491.5001,-60.0017 498.5001,-60.0017"/>
</g>
<!-- struct_s -->
<g id="node13" class="node">
<title>struct_s</title>
<polygon fill="#7fff00" stroke="transparent" points="558,-90 558,-132 576,-132 576,-90 558,-90"/>
<polygon fill="none" stroke="#000000" points="558,-111 558,-132 576,-132 576,-111 558,-111"/>
<text text-anchor="start" x="564" y="-117.8" font-family="Times,serif" font-size="14.00" fill="#000000">s</text>
<polygon fill="none" stroke="#000000" points="558,-90 558,-111 576,-111 576,-90 558,-90"/>
<text text-anchor="start" x="561" y="-96.8" font-family="Times,serif" font-size="14.00" fill="#000000">⏺</text>
</g>
<!-- struct_139991733791296 -->
<g id="node14" class="node">
<title>struct_139991733791296</title>
<polygon fill="#c0c0c0" stroke="transparent" points="551,-4 551,-46 583,-46 583,-4 551,-4"/>
<polygon fill="none" stroke="#000000" points="551,-25 551,-46 583,-46 583,-25 551,-25"/>
<text text-anchor="start" x="560" y="-32.8" font-family="Times,serif" text-decoration="underline" font-size="14.00" fill="#000000">str</text>
<polygon fill="none" stroke="#000000" points="551,-4 551,-25 583,-25 583,-4 551,-4"/>
<text text-anchor="start" x="554" y="-10.8" font-family="Times,serif" font-size="14.00" fill="#000000">&quot;42&quot;</text>
</g>
<!-- struct_s&#45;&gt;struct_139991733791296 -->
<g id="edge8" class="edge">
<title>struct_s:port_s&#45;&gt;struct_139991733791296</title>
<path fill="none" stroke="#000000" d="M567,-90C567,-80.304 567,-69.7943 567,-60.1095"/>
<polygon fill="#000000" stroke="#000000" points="570.5001,-60.0017 567,-50.0017 563.5001,-60.0017 570.5001,-60.0017"/>
</g>
<!-- struct_t -->
<g id="node15" class="node">
<title>struct_t</title>
<polygon fill="#7fff00" stroke="transparent" points="630,-90 630,-132 648,-132 648,-90 630,-90"/>
<polygon fill="none" stroke="#000000" points="630,-111 630,-132 648,-132 648,-111 630,-111"/>
<text text-anchor="start" x="637" y="-117.8" font-family="Times,serif" font-size="14.00" fill="#000000">t</text>
<polygon fill="none" stroke="#000000" points="630,-90 630,-111 648,-111 648,-90 630,-90"/>
<text text-anchor="start" x="633" y="-96.8" font-family="Times,serif" font-size="14.00" fill="#000000">⏺</text>
</g>
<!-- struct_139991710785128 -->
<g id="node16" class="node">
<title>struct_139991710785128</title>
<polygon fill="#c0c0c0" stroke="transparent" points="623,-4 623,-46 655,-46 655,-4 623,-4"/>
<polygon fill="none" stroke="#000000" points="623,-25 623,-46 655,-46 655,-25 623,-25"/>
<text text-anchor="start" x="632" y="-32.8" font-family="Times,serif" text-decoration="underline" font-size="14.00" fill="#000000">str</text>
<polygon fill="none" stroke="#000000" points="623,-4 623,-25 655,-25 655,-4 623,-4"/>
<text text-anchor="start" x="626" y="-10.8" font-family="Times,serif" font-size="14.00" fill="#000000">&quot;42&quot;</text>
</g>
<!-- struct_t&#45;&gt;struct_139991710785128 -->
<g id="edge9" class="edge">
<title>struct_t:port_t&#45;&gt;struct_139991710785128</title>
<path fill="none" stroke="#000000" d="M639,-90C639,-80.304 639,-69.7943 639,-60.1095"/>
<polygon fill="#000000" stroke="#000000" points="642.5001,-60.0017 639,-50.0017 635.5001,-60.0017 642.5001,-60.0017"/>
</g>
</g>
</svg>
