<?xml version="1.0" encoding="UTF-8" standalone="no"?>
<!DOCTYPE svg PUBLIC "-//W3C//DTD SVG 1.1//EN"
 "http://www.w3.org/Graphics/SVG/1.1/DTD/svg11.dtd">
<!-- Generated by graphviz version 2.40.1 (20161225.0304)
 -->
<!-- Title: structs Pages: 1 -->
<svg width="298pt" height="251pt"
 viewBox="0.00 0.00 298.00 251.00" xmlns="http://www.w3.org/2000/svg" xmlns:xlink="http://www.w3.org/1999/xlink">
<g id="graph0" class="graph" transform="scale(1 1) rotate(0) translate(4 247)">
<title>structs</title>
<polygon fill="#ffffff" stroke="transparent" points="-4,4 -4,-247 294,-247 294,4 -4,4"/>
<!-- struct_p1 -->
<g id="node1" class="node">
<title>struct_p1</title>
<polygon fill="#7fff00" stroke="transparent" points="41,-197 41,-239 61,-239 61,-197 41,-197"/>
<polygon fill="none" stroke="#000000" points="41,-218 41,-239 61,-239 61,-218 41,-218"/>
<text text-anchor="start" x="44" y="-224.8" font-family="Times,serif" font-size="14.00" fill="#000000">p1</text>
<polygon fill="none" stroke="#000000" points="41,-197 41,-218 61,-218 61,-197 41,-197"/>
<text text-anchor="start" x="45" y="-203.8" font-family="Times,serif" font-size="14.00" fill="#000000">⏺</text>
</g>
<!-- struct_140689963474336 -->
<g id="node2" class="node">
<title>struct_140689963474336</title>
<polygon fill="#c0c0c0" stroke="transparent" points="33,-90 33,-153 69,-153 69,-90 33,-90"/>
<polygon fill="none" stroke="#000000" points="33,-131.5 33,-152.5 69,-152.5 69,-131.5 33,-131.5"/>
<text text-anchor="start" x="36.5" y="-139.3" font-family="Times,serif" text-decoration="underline" font-size="14.00" fill="#000000">Point</text>
<polygon fill="none" stroke="#000000" points="33,-110.5 33,-131.5 51,-131.5 51,-110.5 33,-110.5"/>
<text text-anchor="start" x="38.5" y="-117.3" font-family="Times,serif" font-size="14.00" fill="#000000">x</text>
<polygon fill="none" stroke="#000000" points="51,-110.5 51,-131.5 69,-131.5 69,-110.5 51,-110.5"/>
<text text-anchor="start" x="56.5" y="-117.3" font-family="Times,serif" font-size="14.00" fill="#000000">y</text>
<polygon fill="none" stroke="#000000" points="33,-89.5 33,-110.5 51,-110.5 51,-89.5 33,-89.5"/>
<text text-anchor="start" x="36" y="-96.3" font-family="Times,serif" font-size="14.00" fill="#000000">⏺</text>
<polygon fill="none" stroke="#000000" points="51,-89.5 51,-110.5 69,-110.5 69,-89.5 51,-89.5"/>
<text text-anchor="start" x="54" y="-96.3" font-family="Times,serif" font-size="14.00" fill="#000000">⏺</text>
</g>
<!-- struct_p1&#45;&gt;struct_140689963474336 -->
<g id="edge3" class="edge">
<title>struct_p1:port_p1&#45;&gt;struct_140689963474336</title>
<path fill="none" stroke="#000000" d="M51,-197C51,-187.369 51,-177.0468 51,-167.2238"/>
<polygon fill="#000000" stroke="#000000" points="54.5001,-167.2176 51,-157.2176 47.5001,-167.2176 54.5001,-167.2176"/>
</g>
<!-- struct_10914560 -->
<g id="node3" class="node">
<title>struct_10914560</title>
<polygon fill="#c0c0c0" stroke="transparent" points="16.5,-4 16.5,-46 37.5,-46 37.5,-4 16.5,-4"/>
<polygon fill="none" stroke="#000000" points="17,-25 17,-46 38,-46 38,-25 17,-25"/>
<text text-anchor="start" x="20" y="-32.8" font-family="Times,serif" text-decoration="underline" font-size="14.00" fill="#000000">int</text>
<polygon fill="none" stroke="#000000" points="17,-4 17,-25 38,-25 38,-4 17,-4"/>
<text text-anchor="start" x="24" y="-10.8" font-family="Times,serif" font-size="14.00" fill="#000000">3</text>
</g>
<!-- struct_140689963474336&#45;&gt;struct_10914560 -->
<g id="edge1" class="edge">
<title>struct_140689963474336:port_child0&#45;&gt;struct_10914560</title>
<path fill="none" stroke="#000000" d="M42,-89.5C42,-79.7906 40.3675,-69.4678 38.1797,-59.993"/>
<polygon fill="#000000" stroke="#000000" points="41.5194,-58.9267 35.6386,-50.1138 34.7401,-60.6705 41.5194,-58.9267"/>
</g>
<!-- struct_10914624 -->
<g id="node4" class="node">
<title>struct_10914624</title>
<polygon fill="#c0c0c0" stroke="transparent" points="88.5,-4 88.5,-46 109.5,-46 109.5,-4 88.5,-4"/>
<polygon fill="none" stroke="#000000" points="89,-25 89,-46 110,-46 110,-25 89,-25"/>
<text text-anchor="start" x="92" y="-32.8" font-family="Times,serif" text-decoration="underline" font-size="14.00" fill="#000000">int</text>
<polygon fill="none" stroke="#000000" points="89,-4 89,-25 110,-25 110,-4 89,-4"/>
<text text-anchor="start" x="96" y="-10.8" font-family="Times,serif" font-size="14.00" fill="#000000">5</text>
</g>
<!-- struct_140689963474336&#45;&gt;struct_10914624 -->
<g id="edge2" class="edge">
<title>struct_140689963474336:port_child1&#45;&gt;struct_10914624</title>
<path fill="none" stroke="#000000" d="M60,-89.5C60,-78.6909 64.0603,-68.1421 69.5608,-58.8108"/>
<polygon fill="#000000" stroke="#000000" points="72.6098,-60.5446 75.1901,-50.2687 66.7649,-56.6927 72.6098,-60.5446"/>
</g>
<!-- struct_p2 -->
<g id="node5" class="node">
<title>struct_p2</title>
<polygon fill="#7fff00" stroke="transparent" points="253,-197 253,-239 273,-239 273,-197 253,-197"/>
<polygon fill="none" stroke="#000000" points="253,-218 253,-239 273,-239 273,-218 253,-218"/>
<text text-anchor="start" x="256" y="-224.8" font-family="Times,serif" font-size="14.00" fill="#000000">p2</text>
<polygon fill="none" stroke="#000000" points="253,-197 253,-218 273,-218 273,-197 253,-197"/>
<text text-anchor="start" x="257" y="-203.8" font-family="Times,serif" font-size="14.00" fill="#000000">⏺</text>
</g>
<!-- struct_140689963474392 -->
<g id="node6" class="node">
<title>struct_140689963474392</title>
<polygon fill="#c0c0c0" stroke="transparent" points="245,-90 245,-153 281,-153 281,-90 245,-90"/>
<polygon fill="none" stroke="#000000" points="245,-131.5 245,-152.5 281,-152.5 281,-131.5 245,-131.5"/>
<text text-anchor="start" x="248.5" y="-139.3" font-family="Times,serif" text-decoration="underline" font-size="14.00" fill="#000000">Point</text>
<polygon fill="none" stroke="#000000" points="245,-110.5 245,-131.5 263,-131.5 263,-110.5 245,-110.5"/>
<text text-anchor="start" x="250.5" y="-117.3" font-family="Times,serif" font-size="14.00" fill="#000000">x</text>
<polygon fill="none" stroke="#000000" points="263,-110.5 263,-131.5 281,-131.5 281,-110.5 263,-110.5"/>
<text text-anchor="start" x="268.5" y="-117.3" font-family="Times,serif" font-size="14.00" fill="#000000">y</text>
<polygon fill="none" stroke="#000000" points="245,-89.5 245,-110.5 263,-110.5 263,-89.5 245,-89.5"/>
<text text-anchor="start" x="248" y="-96.3" font-family="Times,serif" font-size="14.00" fill="#000000">⏺</text>
<polygon fill="none" stroke="#000000" points="263,-89.5 263,-110.5 281,-110.5 281,-89.5 263,-89.5"/>
<text text-anchor="start" x="266" y="-96.3" font-family="Times,serif" font-size="14.00" fill="#000000">⏺</text>
</g>
<!-- struct_p2&#45;&gt;struct_140689963474392 -->
<g id="edge6" class="edge">
<title>struct_p2:port_p2&#45;&gt;struct_140689963474392</title>
<path fill="none" stroke="#000000" d="M263,-197C263,-187.369 263,-177.0468 263,-167.2238"/>
<polygon fill="#000000" stroke="#000000" points="266.5001,-167.2176 263,-157.2176 259.5001,-167.2176 266.5001,-167.2176"/>
</g>
<!-- struct_10914592 -->
<g id="node7" class="node">
<title>struct_10914592</title>
<polygon fill="#c0c0c0" stroke="transparent" points="252.5,-4 252.5,-46 273.5,-46 273.5,-4 252.5,-4"/>
<polygon fill="none" stroke="#000000" points="253,-25 253,-46 274,-46 274,-25 253,-25"/>
<text text-anchor="start" x="256" y="-32.8" font-family="Times,serif" text-decoration="underline" font-size="14.00" fill="#000000">int</text>
<polygon fill="none" stroke="#000000" points="253,-4 253,-25 274,-25 274,-4 253,-4"/>
<text text-anchor="start" x="260" y="-10.8" font-family="Times,serif" font-size="14.00" fill="#000000">4</text>
</g>
<!-- struct_140689963474392&#45;&gt;struct_10914592 -->
<g id="edge4" class="edge">
<title>struct_140689963474392:port_child0&#45;&gt;struct_10914592</title>
<path fill="none" stroke="#000000" d="M254,-89.5C254,-79.8684 254.9966,-69.5046 256.3265,-59.9626"/>
<polygon fill="#000000" stroke="#000000" points="259.7969,-60.4224 257.869,-50.0045 252.8794,-59.3508 259.7969,-60.4224"/>
</g>
<!-- struct_140689963474392&#45;&gt;struct_10914592 -->
<g id="edge5" class="edge">
<title>struct_140689963474392:port_child1&#45;&gt;struct_10914592</title>
<path fill="none" stroke="#000000" d="M272,-89.5C272,-79.8684 271.0034,-69.5046 269.6735,-59.9626"/>
<polygon fill="#000000" stroke="#000000" points="273.1206,-59.3508 268.131,-50.0045 266.2031,-60.4224 273.1206,-59.3508"/>
</g>
<!-- struct_milieu -->
<g id="node8" class="node">
<title>struct_milieu</title>
<polygon fill="#7fff00" stroke="transparent" points="139,-197 139,-239 181,-239 181,-197 139,-197"/>
<polygon fill="none" stroke="#000000" points="139,-218 139,-239 181,-239 181,-218 139,-218"/>
<text text-anchor="start" x="142" y="-224.8" font-family="Times,serif" font-size="14.00" fill="#000000">milieu</text>
<polygon fill="none" stroke="#000000" points="139,-197 139,-218 181,-218 181,-197 139,-197"/>
<text text-anchor="start" x="154" y="-203.8" font-family="Times,serif" font-size="14.00" fill="#000000">⏺</text>
</g>
<!-- struct_140689963474504 -->
<g id="node9" class="node">
<title>struct_140689963474504</title>
<polygon fill="#c0c0c0" stroke="transparent" points="142,-90 142,-153 178,-153 178,-90 142,-90"/>
<polygon fill="none" stroke="#000000" points="142,-131.5 142,-152.5 178,-152.5 178,-131.5 142,-131.5"/>
<text text-anchor="start" x="145.5" y="-139.3" font-family="Times,serif" text-decoration="underline" font-size="14.00" fill="#000000">Point</text>
<polygon fill="none" stroke="#000000" points="142,-110.5 142,-131.5 160,-131.5 160,-110.5 142,-110.5"/>
<text text-anchor="start" x="147.5" y="-117.3" font-family="Times,serif" font-size="14.00" fill="#000000">x</text>
<polygon fill="none" stroke="#000000" points="160,-110.5 160,-131.5 178,-131.5 178,-110.5 160,-110.5"/>
<text text-anchor="start" x="165.5" y="-117.3" font-family="Times,serif" font-size="14.00" fill="#000000">y</text>
<polygon fill="none" stroke="#000000" points="142,-89.5 142,-110.5 160,-110.5 160,-89.5 142,-89.5"/>
<text text-anchor="start" x="145" y="-96.3" font-family="Times,serif" font-size="14.00" fill="#000000">⏺</text>
<polygon fill="none" stroke="#000000" points="160,-89.5 160,-110.5 178,-110.5 178,-89.5 160,-89.5"/>
<text text-anchor="start" x="163" y="-96.3" font-family="Times,serif" font-size="14.00" fill="#000000">⏺</text>
</g>
<!-- struct_milieu&#45;&gt;struct_140689963474504 -->
<g id="edge9" class="edge">
<title>struct_milieu:port_milieu&#45;&gt;struct_140689963474504</title>
<path fill="none" stroke="#000000" d="M160,-197C160,-187.369 160,-177.0468 160,-167.2238"/>
<polygon fill="#000000" stroke="#000000" points="163.5001,-167.2176 160,-157.2176 156.5001,-167.2176 163.5001,-167.2176"/>
</g>
<!-- struct_140689963474504&#45;&gt;struct_10914624 -->
<g id="edge8" class="edge">
<title>struct_140689963474504:port_child1&#45;&gt;struct_10914624</title>
<path fill="none" stroke="#000000" d="M169,-89.5C169,-79.062 151.9542,-63.2191 134.6857,-49.8475"/>
<polygon fill="#000000" stroke="#000000" points="136.3606,-46.7279 126.2643,-43.5162 132.1541,-52.3231 136.3606,-46.7279"/>
</g>
<!-- struct_140689987334768 -->
<g id="node10" class="node">
<title>struct_140689987334768</title>
<polygon fill="#c0c0c0" stroke="transparent" points="155.5,-4 155.5,-46 186.5,-46 186.5,-4 155.5,-4"/>
<polygon fill="none" stroke="#000000" points="156,-25 156,-46 187,-46 187,-25 156,-25"/>
<text text-anchor="start" x="159" y="-32.8" font-family="Times,serif" text-decoration="underline" font-size="14.00" fill="#000000">float</text>
<polygon fill="none" stroke="#000000" points="156,-4 156,-25 187,-25 187,-4 156,-4"/>
<text text-anchor="start" x="162.5" y="-10.8" font-family="Times,serif" font-size="14.00" fill="#000000">3.5</text>
</g>
<!-- struct_140689963474504&#45;&gt;struct_140689987334768 -->
<g id="edge7" class="edge">
<title>struct_140689963474504:port_child0&#45;&gt;struct_140689987334768</title>
<path fill="none" stroke="#000000" d="M151,-89.5C151,-79.5805 153.1847,-69.1723 156.1099,-59.682"/>
<polygon fill="#000000" stroke="#000000" points="159.4341,-60.778 159.3659,-50.1833 152.8123,-58.5081 159.4341,-60.778"/>
</g>
</g>
</svg>
