<?xml version="1.0" encoding="UTF-8" standalone="no"?>
<!DOCTYPE svg PUBLIC "-//W3C//DTD SVG 1.1//EN"
 "http://www.w3.org/Graphics/SVG/1.1/DTD/svg11.dtd">
<!-- Generated by graphviz version 2.43.0 (0)
 -->
<!-- Title: structs Pages: 1 -->
<svg width="289pt" height="593pt"
 viewBox="0.00 0.00 288.50 593.00" xmlns="http://www.w3.org/2000/svg" xmlns:xlink="http://www.w3.org/1999/xlink">
<g id="graph0" class="graph" transform="scale(1 1) rotate(0) translate(4 589)">
<title>structs</title>
<polygon fill="white" stroke="transparent" points="-4,4 -4,-589 284.5,-589 284.5,4 -4,4"/>
<!-- struct_140019621412816 -->
<g id="node1" class="node">
<title>struct_140019621412816</title>
<polygon fill="gray" stroke="transparent" points="127.5,-518 127.5,-581 272.5,-581 272.5,-518 127.5,-518"/>
<polygon fill="none" stroke="black" points="128,-559.5 128,-580.5 273,-580.5 273,-559.5 128,-559.5"/>
<text text-anchor="start" x="131" y="-567.3" font-family="Times,serif" text-decoration="underline" font-size="14.00">ListeSimplementChainee</text>
<polygon fill="none" stroke="black" points="128,-538.5 128,-559.5 177,-559.5 177,-538.5 128,-538.5"/>
<text text-anchor="start" x="142.5" y="-545.3" font-family="Times,serif" font-size="14.00">tete</text>
<polygon fill="none" stroke="black" points="177,-538.5 177,-559.5 227,-559.5 227,-538.5 177,-538.5"/>
<text text-anchor="start" x="185.5" y="-545.3" font-family="Times,serif" font-size="14.00">queue</text>
<polygon fill="none" stroke="black" points="227,-538.5 227,-559.5 273,-559.5 273,-538.5 227,-538.5"/>
<text text-anchor="start" x="236" y="-545.3" font-family="Times,serif" font-size="14.00">taille</text>
<polygon fill="none" stroke="black" points="128,-517.5 128,-538.5 177,-538.5 177,-517.5 128,-517.5"/>
<text text-anchor="start" x="148" y="-524.3" font-family="Times,serif" font-size="14.00">●</text>
<polygon fill="none" stroke="black" points="177,-517.5 177,-538.5 227,-538.5 227,-517.5 177,-517.5"/>
<text text-anchor="start" x="197.5" y="-524.3" font-family="Times,serif" font-size="14.00">●</text>
<polygon fill="none" stroke="black" points="227,-517.5 227,-538.5 273,-538.5 273,-517.5 227,-517.5"/>
<text text-anchor="start" x="245.5" y="-524.3" font-family="Times,serif" font-size="14.00">●</text>
</g>
<!-- struct_140019619772496 -->
<g id="node2" class="node">
<title>struct_140019619772496</title>
<polygon fill="gray" stroke="transparent" points="60,-411 60,-474 146,-474 146,-411 60,-411"/>
<polygon fill="none" stroke="black" points="60,-452.5 60,-473.5 146,-473.5 146,-452.5 60,-452.5"/>
<text text-anchor="start" x="83" y="-460.3" font-family="Times,serif" text-decoration="underline" font-size="14.00">Cellule</text>
<polygon fill="none" stroke="black" points="60,-431.5 60,-452.5 100,-452.5 100,-431.5 60,-431.5"/>
<text text-anchor="start" x="63" y="-438.3" font-family="Times,serif" font-size="14.00">valeur</text>
<polygon fill="none" stroke="black" points="100,-431.5 100,-452.5 146,-452.5 146,-431.5 100,-431.5"/>
<text text-anchor="start" x="103" y="-438.3" font-family="Times,serif" font-size="14.00">suivant</text>
<polygon fill="none" stroke="black" points="60,-410.5 60,-431.5 100,-431.5 100,-410.5 60,-410.5"/>
<text text-anchor="start" x="75.5" y="-417.3" font-family="Times,serif" font-size="14.00">●</text>
<polygon fill="none" stroke="black" points="100,-410.5 100,-431.5 146,-431.5 146,-410.5 100,-410.5"/>
<text text-anchor="start" x="118.5" y="-417.3" font-family="Times,serif" font-size="14.00">●</text>
</g>
<!-- struct_140019621412816&#45;&gt;struct_140019619772496 -->
<g id="edge9" class="edge">
<title>struct_140019621412816:port_child0&#45;&gt;struct_140019619772496</title>
<path fill="none" stroke="black" d="M127,-527.5C108.45,-527.5 102.14,-508.32 100.62,-488.29"/>
<polygon fill="black" stroke="black" points="104.11,-488.01 100.22,-478.15 97.12,-488.28 104.11,-488.01"/>
</g>
<!-- struct_140019623770512 -->
<g id="node3" class="node">
<title>struct_140019623770512</title>
<polygon fill="lightgray" stroke="transparent" points="16.5,-314.5 16.5,-356.5 37.5,-356.5 37.5,-314.5 16.5,-314.5"/>
<polygon fill="none" stroke="black" points="17,-335.5 17,-356.5 38,-356.5 38,-335.5 17,-335.5"/>
<text text-anchor="start" x="20" y="-343.3" font-family="Times,serif" text-decoration="underline" font-size="14.00">int</text>
<polygon fill="none" stroke="black" points="17,-314.5 17,-335.5 38,-335.5 38,-314.5 17,-314.5"/>
<text text-anchor="start" x="24" y="-321.3" font-family="Times,serif" font-size="14.00">4</text>
</g>
<!-- struct_140019621412816&#45;&gt;struct_140019623770512 -->
<g id="edge11" class="edge">
<title>struct_140019621412816:port_child2&#45;&gt;struct_140019623770512</title>
<path fill="none" stroke="black" d="M250,-516.5C250,-454.34 213.5,-443.24 163,-407 124.62,-379.46 103.15,-395.88 63,-371 61.09,-369.81 59.19,-368.51 57.33,-367.13"/>
<polygon fill="black" stroke="black" points="59.39,-364.3 49.43,-360.68 54.96,-369.72 59.39,-364.3"/>
</g>
<!-- struct_140019620723344 -->
<g id="node8" class="node">
<title>struct_140019620723344</title>
<polygon fill="gray" stroke="transparent" points="166,-90 166,-153 252,-153 252,-90 166,-90"/>
<polygon fill="none" stroke="black" points="166,-131.5 166,-152.5 252,-152.5 252,-131.5 166,-131.5"/>
<text text-anchor="start" x="189" y="-139.3" font-family="Times,serif" text-decoration="underline" font-size="14.00">Cellule</text>
<polygon fill="none" stroke="black" points="166,-110.5 166,-131.5 206,-131.5 206,-110.5 166,-110.5"/>
<text text-anchor="start" x="169" y="-117.3" font-family="Times,serif" font-size="14.00">valeur</text>
<polygon fill="none" stroke="black" points="206,-110.5 206,-131.5 252,-131.5 252,-110.5 206,-110.5"/>
<text text-anchor="start" x="209" y="-117.3" font-family="Times,serif" font-size="14.00">suivant</text>
<polygon fill="none" stroke="black" points="166,-89.5 166,-110.5 206,-110.5 206,-89.5 166,-89.5"/>
<text text-anchor="start" x="181.5" y="-96.3" font-family="Times,serif" font-size="14.00">●</text>
<polygon fill="none" stroke="black" points="206,-89.5 206,-110.5 252,-110.5 252,-89.5 206,-89.5"/>
<text text-anchor="start" x="224.5" y="-96.3" font-family="Times,serif" font-size="14.00">●</text>
</g>
<!-- struct_140019621412816&#45;&gt;struct_140019620723344 -->
<g id="edge10" class="edge">
<title>struct_140019621412816:port_child1&#45;&gt;struct_140019620723344</title>
<path fill="none" stroke="black" d="M202,-516.5C202,-389.84 205.66,-240.3 207.69,-167.23"/>
<polygon fill="black" stroke="black" points="211.19,-167.11 207.97,-157.02 204.2,-166.91 211.19,-167.11"/>
</g>
<!-- struct_140019619772496&#45;&gt;struct_140019623770512 -->
<g id="edge1" class="edge">
<title>struct_140019619772496:port_child0&#45;&gt;struct_140019623770512</title>
<path fill="none" stroke="black" d="M80,-409.5C80,-400.1 68.34,-383.46 55.96,-368.43"/>
<polygon fill="black" stroke="black" points="58.61,-366.15 49.48,-360.77 53.26,-370.67 58.61,-366.15"/>
</g>
<!-- struct_140019619772880 -->
<g id="node4" class="node">
<title>struct_140019619772880</title>
<polygon fill="gray" stroke="transparent" points="80,-304 80,-367 166,-367 166,-304 80,-304"/>
<polygon fill="none" stroke="black" points="80,-345.5 80,-366.5 166,-366.5 166,-345.5 80,-345.5"/>
<text text-anchor="start" x="103" y="-353.3" font-family="Times,serif" text-decoration="underline" font-size="14.00">Cellule</text>
<polygon fill="none" stroke="black" points="80,-324.5 80,-345.5 120,-345.5 120,-324.5 80,-324.5"/>
<text text-anchor="start" x="83" y="-331.3" font-family="Times,serif" font-size="14.00">valeur</text>
<polygon fill="none" stroke="black" points="120,-324.5 120,-345.5 166,-345.5 166,-324.5 120,-324.5"/>
<text text-anchor="start" x="123" y="-331.3" font-family="Times,serif" font-size="14.00">suivant</text>
<polygon fill="none" stroke="black" points="80,-303.5 80,-324.5 120,-324.5 120,-303.5 80,-303.5"/>
<text text-anchor="start" x="95.5" y="-310.3" font-family="Times,serif" font-size="14.00">●</text>
<polygon fill="none" stroke="black" points="120,-303.5 120,-324.5 166,-324.5 166,-303.5 120,-303.5"/>
<text text-anchor="start" x="138.5" y="-310.3" font-family="Times,serif" font-size="14.00">●</text>
</g>
<!-- struct_140019619772496&#45;&gt;struct_140019619772880 -->
<g id="edge8" class="edge">
<title>struct_140019619772496:port_child1&#45;&gt;struct_140019619772880</title>
<path fill="none" stroke="black" d="M123,-409.5C123,-400.38 123,-390.63 123,-381.31"/>
<polygon fill="black" stroke="black" points="126.5,-381.03 123,-371.03 119.5,-381.03 126.5,-381.03"/>
</g>
<!-- struct_140019623770448 -->
<g id="node5" class="node">
<title>struct_140019623770448</title>
<polygon fill="lightgray" stroke="transparent" points="26.5,-207.5 26.5,-249.5 47.5,-249.5 47.5,-207.5 26.5,-207.5"/>
<polygon fill="none" stroke="black" points="27,-228.5 27,-249.5 48,-249.5 48,-228.5 27,-228.5"/>
<text text-anchor="start" x="30" y="-236.3" font-family="Times,serif" text-decoration="underline" font-size="14.00">int</text>
<polygon fill="none" stroke="black" points="27,-207.5 27,-228.5 48,-228.5 48,-207.5 27,-207.5"/>
<text text-anchor="start" x="34" y="-214.3" font-family="Times,serif" font-size="14.00">2</text>
</g>
<!-- struct_140019619772880&#45;&gt;struct_140019623770448 -->
<g id="edge2" class="edge">
<title>struct_140019619772880:port_child0&#45;&gt;struct_140019623770448</title>
<path fill="none" stroke="black" d="M79,-313.5C67.23,-313.5 55.38,-286.78 47.28,-263.48"/>
<polygon fill="black" stroke="black" points="50.53,-262.18 44.05,-253.8 43.89,-264.39 50.53,-262.18"/>
</g>
<!-- struct_140019621412720 -->
<g id="node6" class="node">
<title>struct_140019621412720</title>
<polygon fill="gray" stroke="transparent" points="90,-197 90,-260 176,-260 176,-197 90,-197"/>
<polygon fill="none" stroke="black" points="90,-238.5 90,-259.5 176,-259.5 176,-238.5 90,-238.5"/>
<text text-anchor="start" x="113" y="-246.3" font-family="Times,serif" text-decoration="underline" font-size="14.00">Cellule</text>
<polygon fill="none" stroke="black" points="90,-217.5 90,-238.5 130,-238.5 130,-217.5 90,-217.5"/>
<text text-anchor="start" x="93" y="-224.3" font-family="Times,serif" font-size="14.00">valeur</text>
<polygon fill="none" stroke="black" points="130,-217.5 130,-238.5 176,-238.5 176,-217.5 130,-217.5"/>
<text text-anchor="start" x="133" y="-224.3" font-family="Times,serif" font-size="14.00">suivant</text>
<polygon fill="none" stroke="black" points="90,-196.5 90,-217.5 130,-217.5 130,-196.5 90,-196.5"/>
<text text-anchor="start" x="105.5" y="-203.3" font-family="Times,serif" font-size="14.00">●</text>
<polygon fill="none" stroke="black" points="130,-196.5 130,-217.5 176,-217.5 176,-196.5 130,-196.5"/>
<text text-anchor="start" x="148.5" y="-203.3" font-family="Times,serif" font-size="14.00">●</text>
</g>
<!-- struct_140019619772880&#45;&gt;struct_140019621412720 -->
<g id="edge7" class="edge">
<title>struct_140019619772880:port_child1&#45;&gt;struct_140019621412720</title>
<path fill="none" stroke="black" d="M143,-302.5C143,-293.39 142.23,-283.7 141.11,-274.46"/>
<polygon fill="black" stroke="black" points="144.54,-273.71 139.73,-264.27 137.6,-274.65 144.54,-273.71"/>
</g>
<!-- struct_140019623770544 -->
<g id="node7" class="node">
<title>struct_140019623770544</title>
<polygon fill="lightgray" stroke="transparent" points="99.5,-100.5 99.5,-142.5 120.5,-142.5 120.5,-100.5 99.5,-100.5"/>
<polygon fill="none" stroke="black" points="100,-121.5 100,-142.5 121,-142.5 121,-121.5 100,-121.5"/>
<text text-anchor="start" x="103" y="-129.3" font-family="Times,serif" text-decoration="underline" font-size="14.00">int</text>
<polygon fill="none" stroke="black" points="100,-100.5 100,-121.5 121,-121.5 121,-100.5 100,-100.5"/>
<text text-anchor="start" x="107" y="-107.3" font-family="Times,serif" font-size="14.00">5</text>
</g>
<!-- struct_140019621412720&#45;&gt;struct_140019623770544 -->
<g id="edge3" class="edge">
<title>struct_140019621412720:port_child0&#45;&gt;struct_140019623770544</title>
<path fill="none" stroke="black" d="M110,-195.5C110,-182.86 110,-168.98 110,-156.75"/>
<polygon fill="black" stroke="black" points="113.5,-156.5 110,-146.5 106.5,-156.5 113.5,-156.5"/>
</g>
<!-- struct_140019621412720&#45;&gt;struct_140019620723344 -->
<g id="edge6" class="edge">
<title>struct_140019621412720:port_child1&#45;&gt;struct_140019620723344</title>
<path fill="none" stroke="black" d="M177,-206.5C186.59,-206.5 194.35,-187.14 199.82,-167.01"/>
<polygon fill="black" stroke="black" points="203.26,-167.7 202.32,-157.15 196.47,-165.98 203.26,-167.7"/>
</g>
<!-- struct_140019623770480 -->
<g id="node9" class="node">
<title>struct_140019623770480</title>
<polygon fill="lightgray" stroke="transparent" points="160.5,-4 160.5,-46 181.5,-46 181.5,-4 160.5,-4"/>
<polygon fill="none" stroke="black" points="161,-25 161,-46 182,-46 182,-25 161,-25"/>
<text text-anchor="start" x="164" y="-32.8" font-family="Times,serif" text-decoration="underline" font-size="14.00">int</text>
<polygon fill="none" stroke="black" points="161,-4 161,-25 182,-25 182,-4 161,-4"/>
<text text-anchor="start" x="168" y="-10.8" font-family="Times,serif" font-size="14.00">3</text>
</g>
<!-- struct_140019620723344&#45;&gt;struct_140019623770480 -->
<g id="edge4" class="edge">
<title>struct_140019620723344:port_child0&#45;&gt;struct_140019623770480</title>
<path fill="none" stroke="black" d="M186,-88.5C186,-79.1 184.37,-69.11 182.19,-59.94"/>
<polygon fill="black" stroke="black" points="185.51,-58.78 179.55,-50.02 178.74,-60.58 185.51,-58.78"/>
</g>
<!-- struct_94156421960192 -->
<g id="node10" class="node">
<title>struct_94156421960192</title>
<polygon fill="deeppink" stroke="transparent" points="225,-14.5 225,-35.5 261,-35.5 261,-14.5 225,-14.5"/>
<polygon fill="none" stroke="black" points="225,-14 225,-35 261,-35 261,-14 225,-14"/>
<text text-anchor="start" x="228" y="-20.8" font-family="Times,serif" font-size="14.00">None</text>
</g>
<!-- struct_140019620723344&#45;&gt;struct_94156421960192 -->
<g id="edge5" class="edge">
<title>struct_140019620723344:port_child1&#45;&gt;struct_94156421960192</title>
<path fill="none" stroke="black" d="M229,-88.5C229,-76.62 231.44,-63.77 234.28,-52.83"/>
<polygon fill="black" stroke="black" points="237.7,-53.59 237.06,-43.01 230.97,-51.68 237.7,-53.59"/>
</g>
</g>
</svg>
