<?xml version="1.0" encoding="UTF-8" standalone="no"?>
<!DOCTYPE svg PUBLIC "-//W3C//DTD SVG 1.1//EN"
 "http://www.w3.org/Graphics/SVG/1.1/DTD/svg11.dtd">
<!-- Generated by graphviz version 2.43.0 (0)
 -->
<!-- Title: structs Pages: 1 -->
<svg width="286pt" height="423pt"
 viewBox="0.00 0.00 286.00 423.00" xmlns="http://www.w3.org/2000/svg" xmlns:xlink="http://www.w3.org/1999/xlink">
<g id="graph0" class="graph" transform="scale(1 1) rotate(0) translate(4 419)">
<title>structs</title>
<polygon fill="white" stroke="transparent" points="-4,4 -4,-419 282,-419 282,4 -4,4"/>
<!-- struct_pile_tableau_dynamique -->
<g id="node1" class="node">
<title>struct_pile_tableau_dynamique</title>
<polygon fill="chartreuse" stroke="transparent" points="92,-369 92,-411 270,-411 270,-369 92,-369"/>
<polygon fill="none" stroke="black" points="92,-390 92,-411 270,-411 270,-390 92,-390"/>
<text text-anchor="start" x="95" y="-396.8" font-family="Times,serif" font-size="14.00">pile_tableau_dynamique</text>
<polygon fill="none" stroke="black" points="92,-369 92,-390 270,-390 270,-369 92,-369"/>
<text text-anchor="start" x="174.5" y="-375.8" font-family="Times,serif" font-size="14.00">⏺</text>
</g>
<!-- struct_140138489803920 -->
<g id="node2" class="node">
<title>struct_140138489803920</title>
<polygon fill="gray" stroke="transparent" points="96,-262 96,-325 266,-325 266,-262 96,-262"/>
<polygon fill="none" stroke="black" points="96,-303.5 96,-324.5 266,-324.5 266,-303.5 96,-303.5"/>
<text text-anchor="start" x="99" y="-311.3" font-family="Times,serif" text-decoration="underline" font-size="14.00">PileTableauDynamique</text>
<polygon fill="none" stroke="black" points="96,-282.5 96,-303.5 178,-303.5 178,-282.5 96,-282.5"/>
<text text-anchor="start" x="121" y="-289.3" font-family="Times,serif" font-size="14.00">data</text>
<polygon fill="none" stroke="black" points="178,-282.5 178,-303.5 266,-303.5 266,-282.5 178,-282.5"/>
<text text-anchor="start" x="203.5" y="-289.3" font-family="Times,serif" font-size="14.00">taille</text>
<polygon fill="none" stroke="black" points="96,-261.5 96,-282.5 178,-282.5 178,-261.5 96,-261.5"/>
<text text-anchor="start" x="130.5" y="-268.3" font-family="Times,serif" font-size="14.00">⏺</text>
<polygon fill="none" stroke="black" points="178,-261.5 178,-282.5 266,-282.5 266,-261.5 178,-261.5"/>
<text text-anchor="start" x="215.5" y="-268.3" font-family="Times,serif" font-size="14.00">⏺</text>
</g>
<!-- struct_pile_tableau_dynamique&#45;&gt;struct_140138489803920 -->
<g id="edge8" class="edge">
<title>struct_pile_tableau_dynamique:port_pile_tableau_dynamique&#45;&gt;struct_140138489803920</title>
<path fill="none" stroke="black" d="M181,-368C181,-358.72 181,-348.79 181,-339.31"/>
<polygon fill="black" stroke="black" points="184.5,-339.27 181,-329.27 177.5,-339.27 184.5,-339.27"/>
</g>
<!-- struct_140138488073216 -->
<g id="node3" class="node">
<title>struct_140138488073216</title>
<polygon fill="gray" stroke="transparent" points="108.5,-176 108.5,-218 165.5,-218 165.5,-176 108.5,-176"/>
<polygon fill="none" stroke="black" points="109,-197 109,-218 166,-218 166,-197 109,-197"/>
<text text-anchor="start" x="126" y="-204.8" font-family="Times,serif" text-decoration="underline" font-size="14.00">list</text>
<polygon fill="none" stroke="black" points="109,-176 109,-197 128,-197 128,-176 109,-176"/>
<text text-anchor="start" x="112" y="-182.8" font-family="Times,serif" font-size="14.00">⏺</text>
<polygon fill="none" stroke="black" points="128,-176 128,-197 147,-197 147,-176 128,-176"/>
<text text-anchor="start" x="131" y="-182.8" font-family="Times,serif" font-size="14.00">⏺</text>
<polygon fill="none" stroke="black" points="147,-176 147,-197 166,-197 166,-176 147,-176"/>
<text text-anchor="start" x="150" y="-182.8" font-family="Times,serif" font-size="14.00">⏺</text>
</g>
<!-- struct_140138489803920&#45;&gt;struct_140138488073216 -->
<g id="edge6" class="edge">
<title>struct_140138489803920:port_child0&#45;&gt;struct_140138488073216</title>
<path fill="none" stroke="black" d="M137,-260.5C137,-251.28 137,-241.29 137,-232.06"/>
<polygon fill="black" stroke="black" points="140.5,-232.04 137,-222.04 133.5,-232.04 140.5,-232.04"/>
</g>
<!-- struct_9784928 -->
<g id="node9" class="node">
<title>struct_9784928</title>
<polygon fill="gray" stroke="transparent" points="209,-176 209,-218 235,-218 235,-176 209,-176"/>
<polygon fill="none" stroke="black" points="209,-197 209,-218 235,-218 235,-197 209,-197"/>
<text text-anchor="start" x="212" y="-204.8" font-family="Times,serif" text-decoration="underline" font-size="14.00">int</text>
<polygon fill="none" stroke="black" points="209,-176 209,-197 235,-197 235,-176 209,-176"/>
<text text-anchor="start" x="217" y="-182.8" font-family="Times,serif" font-size="14.00">3</text>
</g>
<!-- struct_140138489803920&#45;&gt;struct_9784928 -->
<g id="edge7" class="edge">
<title>struct_140138489803920:port_child1&#45;&gt;struct_9784928</title>
<path fill="none" stroke="black" d="M222,-260.5C222,-251.28 222,-241.29 222,-232.06"/>
<polygon fill="black" stroke="black" points="225.5,-232.04 222,-222.04 218.5,-232.04 225.5,-232.04"/>
</g>
<!-- struct_140138490488640 -->
<g id="node4" class="node">
<title>struct_140138490488640</title>
<polygon fill="gray" stroke="transparent" points="41.5,-90 41.5,-132 84.5,-132 84.5,-90 41.5,-90"/>
<polygon fill="none" stroke="black" points="42,-111 42,-132 85,-132 85,-111 42,-111"/>
<text text-anchor="start" x="45" y="-118.8" font-family="Times,serif" text-decoration="underline" font-size="14.00">tuple</text>
<polygon fill="none" stroke="black" points="42,-90 42,-111 63,-111 63,-90 42,-90"/>
<text text-anchor="start" x="46" y="-96.8" font-family="Times,serif" font-size="14.00">⏺</text>
<polygon fill="none" stroke="black" points="63,-90 63,-111 85,-111 85,-90 63,-90"/>
<text text-anchor="start" x="67.5" y="-96.8" font-family="Times,serif" font-size="14.00">⏺</text>
</g>
<!-- struct_140138488073216&#45;&gt;struct_140138490488640 -->
<g id="edge3" class="edge">
<title>struct_140138488073216:port_child0&#45;&gt;struct_140138490488640</title>
<path fill="none" stroke="black" d="M118,-175C118,-160.86 110.04,-148.37 100.18,-138.31"/>
<polygon fill="black" stroke="black" points="102.47,-135.65 92.75,-131.42 97.71,-140.79 102.47,-135.65"/>
</g>
<!-- struct_140138489176144 -->
<g id="node7" class="node">
<title>struct_140138489176144</title>
<polygon fill="gray" stroke="transparent" points="118.5,-90 118.5,-132 157.5,-132 157.5,-90 118.5,-90"/>
<polygon fill="none" stroke="black" points="119,-111 119,-132 158,-132 158,-111 119,-111"/>
<text text-anchor="start" x="122" y="-118.8" font-family="Times,serif" text-decoration="underline" font-size="14.00">float</text>
<polygon fill="none" stroke="black" points="119,-90 119,-111 158,-111 158,-90 119,-90"/>
<text text-anchor="start" x="127" y="-96.8" font-family="Times,serif" font-size="14.00">3.0</text>
</g>
<!-- struct_140138488073216&#45;&gt;struct_140138489176144 -->
<g id="edge4" class="edge">
<title>struct_140138488073216:port_child1&#45;&gt;struct_140138489176144</title>
<path fill="none" stroke="black" d="M138,-175C138,-165.7 138,-155.63 138,-146.33"/>
<polygon fill="black" stroke="black" points="141.5,-146.23 138,-136.23 134.5,-146.23 141.5,-146.23"/>
</g>
<!-- struct_140138488836592 -->
<g id="node8" class="node">
<title>struct_140138488836592</title>
<polygon fill="gray" stroke="transparent" points="192,-90 192,-132 258,-132 258,-90 192,-90"/>
<polygon fill="none" stroke="black" points="192,-111 192,-132 258,-132 258,-111 192,-111"/>
<text text-anchor="start" x="214.5" y="-118.8" font-family="Times,serif" text-decoration="underline" font-size="14.00">str</text>
<polygon fill="none" stroke="black" points="192,-90 192,-111 258,-111 258,-90 192,-90"/>
<text text-anchor="start" x="195" y="-96.8" font-family="Times,serif" font-size="14.00">&quot;partez&quot;</text>
</g>
<!-- struct_140138488073216&#45;&gt;struct_140138488836592 -->
<g id="edge5" class="edge">
<title>struct_140138488073216:port_child2&#45;&gt;struct_140138488836592</title>
<path fill="none" stroke="black" d="M157,-175C157,-160.75 165.13,-148.83 175.77,-139.32"/>
<polygon fill="black" stroke="black" points="178.26,-141.81 183.88,-132.83 173.88,-136.35 178.26,-141.81"/>
</g>
<!-- struct_9784864 -->
<g id="node5" class="node">
<title>struct_9784864</title>
<polygon fill="gray" stroke="transparent" points="14,-4 14,-46 40,-46 40,-4 14,-4"/>
<polygon fill="none" stroke="black" points="14,-25 14,-46 40,-46 40,-25 14,-25"/>
<text text-anchor="start" x="17" y="-32.8" font-family="Times,serif" text-decoration="underline" font-size="14.00">int</text>
<polygon fill="none" stroke="black" points="14,-4 14,-25 40,-25 40,-4 14,-4"/>
<text text-anchor="start" x="22" y="-10.8" font-family="Times,serif" font-size="14.00">1</text>
</g>
<!-- struct_140138490488640&#45;&gt;struct_9784864 -->
<g id="edge1" class="edge">
<title>struct_140138490488640:port_child0&#45;&gt;struct_9784864</title>
<path fill="none" stroke="black" d="M52,-89C52,-79.04 49.27,-68.79 45.61,-59.52"/>
<polygon fill="black" stroke="black" points="48.77,-58.01 41.54,-50.27 42.37,-60.83 48.77,-58.01"/>
</g>
<!-- struct_9784896 -->
<g id="node6" class="node">
<title>struct_9784896</title>
<polygon fill="gray" stroke="transparent" points="86,-4 86,-46 112,-46 112,-4 86,-4"/>
<polygon fill="none" stroke="black" points="86,-25 86,-46 112,-46 112,-25 86,-25"/>
<text text-anchor="start" x="89" y="-32.8" font-family="Times,serif" text-decoration="underline" font-size="14.00">int</text>
<polygon fill="none" stroke="black" points="86,-4 86,-25 112,-25 112,-4 86,-4"/>
<text text-anchor="start" x="94" y="-10.8" font-family="Times,serif" font-size="14.00">2</text>
</g>
<!-- struct_140138490488640&#45;&gt;struct_9784896 -->
<g id="edge2" class="edge">
<title>struct_140138490488640:port_child1&#45;&gt;struct_9784896</title>
<path fill="none" stroke="black" d="M74,-89C74,-79.04 76.73,-68.79 80.39,-59.52"/>
<polygon fill="black" stroke="black" points="83.63,-60.83 84.46,-50.27 77.23,-58.01 83.63,-60.83"/>
</g>
</g>
</svg>
