<?xml version="1.0" encoding="UTF-8" standalone="no"?>
<!DOCTYPE svg PUBLIC "-//W3C//DTD SVG 1.1//EN"
 "http://www.w3.org/Graphics/SVG/1.1/DTD/svg11.dtd">
<!-- Generated by graphviz version 2.43.0 (0)
 -->
<!-- Title: structs Pages: 1 -->
<svg width="293pt" height="658pt"
 viewBox="0.00 0.00 293.00 658.00" xmlns="http://www.w3.org/2000/svg" xmlns:xlink="http://www.w3.org/1999/xlink">
<g id="graph0" class="graph" transform="scale(1 1) rotate(0) translate(4 654)">
<title>structs</title>
<polygon fill="white" stroke="transparent" points="-4,4 -4,-654 289,-654 289,4 -4,4"/>
<!-- struct_pile_linked -->
<g id="node1" class="node">
<title>struct_pile_linked</title>
<polygon fill="chartreuse" stroke="transparent" points="108.5,-604 108.5,-646 191.5,-646 191.5,-604 108.5,-604"/>
<polygon fill="none" stroke="black" points="109,-625 109,-646 192,-646 192,-625 109,-625"/>
<text text-anchor="start" x="112" y="-631.8" font-family="Times,serif" font-size="14.00">pile_linked</text>
<polygon fill="none" stroke="black" points="109,-604 109,-625 192,-625 192,-604 109,-604"/>
<text text-anchor="start" x="144" y="-610.8" font-family="Times,serif" font-size="14.00">⏺</text>
</g>
<!-- struct_140138489806656 -->
<g id="node2" class="node">
<title>struct_140138489806656</title>
<polygon fill="gray" stroke="transparent" points="97.5,-497 97.5,-560 204.5,-560 204.5,-497 97.5,-497"/>
<polygon fill="none" stroke="black" points="98,-538.5 98,-559.5 205,-559.5 205,-538.5 98,-538.5"/>
<text text-anchor="start" x="137.5" y="-546.3" font-family="Times,serif" text-decoration="underline" font-size="14.00">Pile</text>
<polygon fill="none" stroke="black" points="98,-517.5 98,-538.5 162,-538.5 162,-517.5 98,-517.5"/>
<text text-anchor="start" x="101" y="-524.3" font-family="Times,serif" font-size="14.00">sommet</text>
<polygon fill="none" stroke="black" points="162,-517.5 162,-538.5 205,-538.5 205,-517.5 162,-517.5"/>
<text text-anchor="start" x="165" y="-524.3" font-family="Times,serif" font-size="14.00">taille</text>
<polygon fill="none" stroke="black" points="98,-496.5 98,-517.5 162,-517.5 162,-496.5 98,-496.5"/>
<text text-anchor="start" x="123.5" y="-503.3" font-family="Times,serif" font-size="14.00">⏺</text>
<polygon fill="none" stroke="black" points="162,-496.5 162,-517.5 205,-517.5 205,-496.5 162,-496.5"/>
<text text-anchor="start" x="177" y="-503.3" font-family="Times,serif" font-size="14.00">⏺</text>
</g>
<!-- struct_pile_linked&#45;&gt;struct_140138489806656 -->
<g id="edge11" class="edge">
<title>struct_pile_linked:port_pile_linked&#45;&gt;struct_140138489806656</title>
<path fill="none" stroke="black" d="M151,-603C151,-593.72 151,-583.79 151,-574.31"/>
<polygon fill="black" stroke="black" points="154.5,-574.27 151,-564.27 147.5,-574.27 154.5,-574.27"/>
</g>
<!-- struct_140138487277072 -->
<g id="node3" class="node">
<title>struct_140138487277072</title>
<polygon fill="gray" stroke="transparent" points="47.5,-390 47.5,-453 158.5,-453 158.5,-390 47.5,-390"/>
<polygon fill="none" stroke="black" points="48,-431.5 48,-452.5 159,-452.5 159,-431.5 48,-431.5"/>
<text text-anchor="start" x="78.5" y="-439.3" font-family="Times,serif" text-decoration="underline" font-size="14.00">Cellule</text>
<polygon fill="none" stroke="black" points="48,-410.5 48,-431.5 100,-431.5 100,-410.5 48,-410.5"/>
<text text-anchor="start" x="51" y="-417.3" font-family="Times,serif" font-size="14.00">valeur</text>
<polygon fill="none" stroke="black" points="100,-410.5 100,-431.5 159,-431.5 159,-410.5 100,-410.5"/>
<text text-anchor="start" x="103" y="-417.3" font-family="Times,serif" font-size="14.00">suivant</text>
<polygon fill="none" stroke="black" points="48,-389.5 48,-410.5 100,-410.5 100,-389.5 48,-389.5"/>
<text text-anchor="start" x="67.5" y="-396.3" font-family="Times,serif" font-size="14.00">⏺</text>
<polygon fill="none" stroke="black" points="100,-389.5 100,-410.5 159,-410.5 159,-389.5 100,-389.5"/>
<text text-anchor="start" x="123" y="-396.3" font-family="Times,serif" font-size="14.00">⏺</text>
</g>
<!-- struct_140138489806656&#45;&gt;struct_140138487277072 -->
<g id="edge9" class="edge">
<title>struct_140138489806656:port_child0&#45;&gt;struct_140138487277072</title>
<path fill="none" stroke="black" d="M130,-495.5C130,-485.87 127.91,-475.95 124.89,-466.64"/>
<polygon fill="black" stroke="black" points="128.16,-465.4 121.46,-457.2 121.59,-467.79 128.16,-465.4"/>
</g>
<!-- struct_9784928 -->
<g id="node12" class="node">
<title>struct_9784928</title>
<polygon fill="gray" stroke="transparent" points="199,-400.5 199,-442.5 225,-442.5 225,-400.5 199,-400.5"/>
<polygon fill="none" stroke="black" points="199,-421.5 199,-442.5 225,-442.5 225,-421.5 199,-421.5"/>
<text text-anchor="start" x="202" y="-429.3" font-family="Times,serif" text-decoration="underline" font-size="14.00">int</text>
<polygon fill="none" stroke="black" points="199,-400.5 199,-421.5 225,-421.5 225,-400.5 199,-400.5"/>
<text text-anchor="start" x="207" y="-407.3" font-family="Times,serif" font-size="14.00">3</text>
</g>
<!-- struct_140138489806656&#45;&gt;struct_9784928 -->
<g id="edge10" class="edge">
<title>struct_140138489806656:port_child1&#45;&gt;struct_9784928</title>
<path fill="none" stroke="black" d="M184,-495.5C184,-482 188.22,-467.98 193.39,-455.88"/>
<polygon fill="black" stroke="black" points="196.65,-457.17 197.67,-446.62 190.29,-454.23 196.65,-457.17"/>
</g>
<!-- struct_140138488836592 -->
<g id="node4" class="node">
<title>struct_140138488836592</title>
<polygon fill="gray" stroke="transparent" points="8,-293.5 8,-335.5 74,-335.5 74,-293.5 8,-293.5"/>
<polygon fill="none" stroke="black" points="8,-314.5 8,-335.5 74,-335.5 74,-314.5 8,-314.5"/>
<text text-anchor="start" x="30.5" y="-322.3" font-family="Times,serif" text-decoration="underline" font-size="14.00">str</text>
<polygon fill="none" stroke="black" points="8,-293.5 8,-314.5 74,-314.5 74,-293.5 8,-293.5"/>
<text text-anchor="start" x="11" y="-300.3" font-family="Times,serif" font-size="14.00">&quot;partez&quot;</text>
</g>
<!-- struct_140138487277072&#45;&gt;struct_140138488836592 -->
<g id="edge1" class="edge">
<title>struct_140138487277072:port_child0&#45;&gt;struct_140138488836592</title>
<path fill="none" stroke="black" d="M74,-388.5C74,-374.65 69,-360.52 62.9,-348.43"/>
<polygon fill="black" stroke="black" points="65.95,-346.72 58.08,-339.63 59.81,-350.08 65.95,-346.72"/>
</g>
<!-- struct_140138487276928 -->
<g id="node5" class="node">
<title>struct_140138487276928</title>
<polygon fill="gray" stroke="transparent" points="108.5,-283 108.5,-346 219.5,-346 219.5,-283 108.5,-283"/>
<polygon fill="none" stroke="black" points="109,-324.5 109,-345.5 220,-345.5 220,-324.5 109,-324.5"/>
<text text-anchor="start" x="139.5" y="-332.3" font-family="Times,serif" text-decoration="underline" font-size="14.00">Cellule</text>
<polygon fill="none" stroke="black" points="109,-303.5 109,-324.5 161,-324.5 161,-303.5 109,-303.5"/>
<text text-anchor="start" x="112" y="-310.3" font-family="Times,serif" font-size="14.00">valeur</text>
<polygon fill="none" stroke="black" points="161,-303.5 161,-324.5 220,-324.5 220,-303.5 161,-303.5"/>
<text text-anchor="start" x="164" y="-310.3" font-family="Times,serif" font-size="14.00">suivant</text>
<polygon fill="none" stroke="black" points="109,-282.5 109,-303.5 161,-303.5 161,-282.5 109,-282.5"/>
<text text-anchor="start" x="128.5" y="-289.3" font-family="Times,serif" font-size="14.00">⏺</text>
<polygon fill="none" stroke="black" points="161,-282.5 161,-303.5 220,-303.5 220,-282.5 161,-282.5"/>
<text text-anchor="start" x="184" y="-289.3" font-family="Times,serif" font-size="14.00">⏺</text>
</g>
<!-- struct_140138487277072&#45;&gt;struct_140138487276928 -->
<g id="edge8" class="edge">
<title>struct_140138487277072:port_child1&#45;&gt;struct_140138487276928</title>
<path fill="none" stroke="black" d="M130,-388.5C130,-378.64 132.58,-368.68 136.32,-359.41"/>
<polygon fill="black" stroke="black" points="139.62,-360.6 140.57,-350.04 133.25,-357.7 139.62,-360.6"/>
</g>
<!-- struct_140138489176144 -->
<g id="node6" class="node">
<title>struct_140138489176144</title>
<polygon fill="gray" stroke="transparent" points="88.5,-186.5 88.5,-228.5 127.5,-228.5 127.5,-186.5 88.5,-186.5"/>
<polygon fill="none" stroke="black" points="89,-207.5 89,-228.5 128,-228.5 128,-207.5 89,-207.5"/>
<text text-anchor="start" x="92" y="-215.3" font-family="Times,serif" text-decoration="underline" font-size="14.00">float</text>
<polygon fill="none" stroke="black" points="89,-186.5 89,-207.5 128,-207.5 128,-186.5 89,-186.5"/>
<text text-anchor="start" x="97" y="-193.3" font-family="Times,serif" font-size="14.00">3.0</text>
</g>
<!-- struct_140138487276928&#45;&gt;struct_140138489176144 -->
<g id="edge2" class="edge">
<title>struct_140138487276928:port_child0&#45;&gt;struct_140138489176144</title>
<path fill="none" stroke="black" d="M135,-281.5C135,-268.07 130.93,-254.06 125.95,-241.94"/>
<polygon fill="black" stroke="black" points="129.09,-240.39 121.82,-232.68 122.69,-243.24 129.09,-240.39"/>
</g>
<!-- struct_140138490365504 -->
<g id="node7" class="node">
<title>struct_140138490365504</title>
<polygon fill="gray" stroke="transparent" points="161.5,-176 161.5,-239 272.5,-239 272.5,-176 161.5,-176"/>
<polygon fill="none" stroke="black" points="162,-217.5 162,-238.5 273,-238.5 273,-217.5 162,-217.5"/>
<text text-anchor="start" x="192.5" y="-225.3" font-family="Times,serif" text-decoration="underline" font-size="14.00">Cellule</text>
<polygon fill="none" stroke="black" points="162,-196.5 162,-217.5 214,-217.5 214,-196.5 162,-196.5"/>
<text text-anchor="start" x="165" y="-203.3" font-family="Times,serif" font-size="14.00">valeur</text>
<polygon fill="none" stroke="black" points="214,-196.5 214,-217.5 273,-217.5 273,-196.5 214,-196.5"/>
<text text-anchor="start" x="217" y="-203.3" font-family="Times,serif" font-size="14.00">suivant</text>
<polygon fill="none" stroke="black" points="162,-175.5 162,-196.5 214,-196.5 214,-175.5 162,-175.5"/>
<text text-anchor="start" x="181.5" y="-182.3" font-family="Times,serif" font-size="14.00">⏺</text>
<polygon fill="none" stroke="black" points="214,-175.5 214,-196.5 273,-196.5 273,-175.5 214,-175.5"/>
<text text-anchor="start" x="237" y="-182.3" font-family="Times,serif" font-size="14.00">⏺</text>
</g>
<!-- struct_140138487276928&#45;&gt;struct_140138490365504 -->
<g id="edge7" class="edge">
<title>struct_140138487276928:port_child1&#45;&gt;struct_140138490365504</title>
<path fill="none" stroke="black" d="M191,-281.5C191,-271.91 193.01,-262.01 195.92,-252.71"/>
<polygon fill="black" stroke="black" points="199.22,-253.86 199.23,-243.27 192.62,-251.55 199.22,-253.86"/>
</g>
<!-- struct_140138490488640 -->
<g id="node8" class="node">
<title>struct_140138490488640</title>
<polygon fill="gray" stroke="transparent" points="155.5,-90 155.5,-132 198.5,-132 198.5,-90 155.5,-90"/>
<polygon fill="none" stroke="black" points="156,-111 156,-132 199,-132 199,-111 156,-111"/>
<text text-anchor="start" x="159" y="-118.8" font-family="Times,serif" text-decoration="underline" font-size="14.00">tuple</text>
<polygon fill="none" stroke="black" points="156,-90 156,-111 177,-111 177,-90 156,-90"/>
<text text-anchor="start" x="160" y="-96.8" font-family="Times,serif" font-size="14.00">⏺</text>
<polygon fill="none" stroke="black" points="177,-90 177,-111 199,-111 199,-90 177,-90"/>
<text text-anchor="start" x="181.5" y="-96.8" font-family="Times,serif" font-size="14.00">⏺</text>
</g>
<!-- struct_140138490365504&#45;&gt;struct_140138490488640 -->
<g id="edge5" class="edge">
<title>struct_140138490365504:port_child0&#45;&gt;struct_140138490488640</title>
<path fill="none" stroke="black" d="M188,-174.5C188,-165.21 186.81,-155.27 185.21,-146.1"/>
<polygon fill="black" stroke="black" points="188.62,-145.31 183.27,-136.16 181.75,-146.65 188.62,-145.31"/>
</g>
<!-- struct_9480688 -->
<g id="node11" class="node">
<title>struct_9480688</title>
<polygon fill="deeppink" stroke="transparent" points="233,-100.5 233,-121.5 277,-121.5 277,-100.5 233,-100.5"/>
<polygon fill="none" stroke="black" points="233,-100 233,-121 277,-121 277,-100 233,-100"/>
<text text-anchor="start" x="236" y="-106.8" font-family="Times,serif" font-size="14.00">None</text>
</g>
<!-- struct_140138490365504&#45;&gt;struct_9480688 -->
<g id="edge6" class="edge">
<title>struct_140138490365504:port_child1&#45;&gt;struct_9480688</title>
<path fill="none" stroke="black" d="M244,-174.5C244,-162.73 245.92,-149.89 248.15,-138.94"/>
<polygon fill="black" stroke="black" points="251.58,-139.62 250.34,-129.1 244.75,-138.1 251.58,-139.62"/>
</g>
<!-- struct_9784864 -->
<g id="node9" class="node">
<title>struct_9784864</title>
<polygon fill="gray" stroke="transparent" points="128,-4 128,-46 154,-46 154,-4 128,-4"/>
<polygon fill="none" stroke="black" points="128,-25 128,-46 154,-46 154,-25 128,-25"/>
<text text-anchor="start" x="131" y="-32.8" font-family="Times,serif" text-decoration="underline" font-size="14.00">int</text>
<polygon fill="none" stroke="black" points="128,-4 128,-25 154,-25 154,-4 128,-4"/>
<text text-anchor="start" x="136" y="-10.8" font-family="Times,serif" font-size="14.00">1</text>
</g>
<!-- struct_140138490488640&#45;&gt;struct_9784864 -->
<g id="edge3" class="edge">
<title>struct_140138490488640:port_child0&#45;&gt;struct_9784864</title>
<path fill="none" stroke="black" d="M166,-89C166,-79.04 163.27,-68.79 159.61,-59.52"/>
<polygon fill="black" stroke="black" points="162.77,-58.01 155.54,-50.27 156.37,-60.83 162.77,-58.01"/>
</g>
<!-- struct_9784896 -->
<g id="node10" class="node">
<title>struct_9784896</title>
<polygon fill="gray" stroke="transparent" points="200,-4 200,-46 226,-46 226,-4 200,-4"/>
<polygon fill="none" stroke="black" points="200,-25 200,-46 226,-46 226,-25 200,-25"/>
<text text-anchor="start" x="203" y="-32.8" font-family="Times,serif" text-decoration="underline" font-size="14.00">int</text>
<polygon fill="none" stroke="black" points="200,-4 200,-25 226,-25 226,-4 200,-4"/>
<text text-anchor="start" x="208" y="-10.8" font-family="Times,serif" font-size="14.00">2</text>
</g>
<!-- struct_140138490488640&#45;&gt;struct_9784896 -->
<g id="edge4" class="edge">
<title>struct_140138490488640:port_child1&#45;&gt;struct_9784896</title>
<path fill="none" stroke="black" d="M188,-89C188,-79.04 190.73,-68.79 194.39,-59.52"/>
<polygon fill="black" stroke="black" points="197.63,-60.83 198.46,-50.27 191.23,-58.01 197.63,-60.83"/>
</g>
</g>
</svg>
