<?xml version="1.0" encoding="UTF-8" standalone="no"?>
<!DOCTYPE svg PUBLIC "-//W3C//DTD SVG 1.1//EN"
 "http://www.w3.org/Graphics/SVG/1.1/DTD/svg11.dtd">
<!-- Generated by graphviz version 2.43.0 (0)
 -->
<!-- Title: structs Pages: 1 -->
<svg width="207pt" height="379pt"
 viewBox="0.00 0.00 206.50 379.00" xmlns="http://www.w3.org/2000/svg" xmlns:xlink="http://www.w3.org/1999/xlink">
<g id="graph0" class="graph" transform="scale(1 1) rotate(0) translate(4 375)">
<title>structs</title>
<polygon fill="white" stroke="transparent" points="-4,4 -4,-375 202.5,-375 202.5,4 -4,4"/>
<!-- struct_140019621412816 -->
<g id="node1" class="node">
<title>struct_140019621412816</title>
<polygon fill="gray" stroke="transparent" points="45.5,-304 45.5,-367 190.5,-367 190.5,-304 45.5,-304"/>
<polygon fill="none" stroke="black" points="46,-345.5 46,-366.5 191,-366.5 191,-345.5 46,-345.5"/>
<text text-anchor="start" x="49" y="-353.3" font-family="Times,serif" text-decoration="underline" font-size="14.00">ListeSimplementChainee</text>
<polygon fill="none" stroke="black" points="46,-324.5 46,-345.5 95,-345.5 95,-324.5 46,-324.5"/>
<text text-anchor="start" x="60.5" y="-331.3" font-family="Times,serif" font-size="14.00">tete</text>
<polygon fill="none" stroke="black" points="95,-324.5 95,-345.5 145,-345.5 145,-324.5 95,-324.5"/>
<text text-anchor="start" x="103.5" y="-331.3" font-family="Times,serif" font-size="14.00">queue</text>
<polygon fill="none" stroke="black" points="145,-324.5 145,-345.5 191,-345.5 191,-324.5 145,-324.5"/>
<text text-anchor="start" x="154" y="-331.3" font-family="Times,serif" font-size="14.00">taille</text>
<polygon fill="none" stroke="black" points="46,-303.5 46,-324.5 95,-324.5 95,-303.5 46,-303.5"/>
<text text-anchor="start" x="66" y="-310.3" font-family="Times,serif" font-size="14.00">●</text>
<polygon fill="none" stroke="black" points="95,-303.5 95,-324.5 145,-324.5 145,-303.5 95,-303.5"/>
<text text-anchor="start" x="115.5" y="-310.3" font-family="Times,serif" font-size="14.00">●</text>
<polygon fill="none" stroke="black" points="145,-303.5 145,-324.5 191,-324.5 191,-303.5 145,-303.5"/>
<text text-anchor="start" x="163.5" y="-310.3" font-family="Times,serif" font-size="14.00">●</text>
</g>
<!-- struct_140019619772880 -->
<g id="node2" class="node">
<title>struct_140019619772880</title>
<polygon fill="gray" stroke="transparent" points="8,-197 8,-260 94,-260 94,-197 8,-197"/>
<polygon fill="none" stroke="black" points="8,-238.5 8,-259.5 94,-259.5 94,-238.5 8,-238.5"/>
<text text-anchor="start" x="31" y="-246.3" font-family="Times,serif" text-decoration="underline" font-size="14.00">Cellule</text>
<polygon fill="none" stroke="black" points="8,-217.5 8,-238.5 48,-238.5 48,-217.5 8,-217.5"/>
<text text-anchor="start" x="11" y="-224.3" font-family="Times,serif" font-size="14.00">valeur</text>
<polygon fill="none" stroke="black" points="48,-217.5 48,-238.5 94,-238.5 94,-217.5 48,-217.5"/>
<text text-anchor="start" x="51" y="-224.3" font-family="Times,serif" font-size="14.00">suivant</text>
<polygon fill="none" stroke="black" points="8,-196.5 8,-217.5 48,-217.5 48,-196.5 8,-196.5"/>
<text text-anchor="start" x="23.5" y="-203.3" font-family="Times,serif" font-size="14.00">●</text>
<polygon fill="none" stroke="black" points="48,-196.5 48,-217.5 94,-217.5 94,-196.5 48,-196.5"/>
<text text-anchor="start" x="66.5" y="-203.3" font-family="Times,serif" font-size="14.00">●</text>
</g>
<!-- struct_140019621412816&#45;&gt;struct_140019619772880 -->
<g id="edge5" class="edge">
<title>struct_140019621412816:port_child0&#45;&gt;struct_140019619772880</title>
<path fill="none" stroke="black" d="M70,-302.5C70,-293.17 68.53,-283.38 66.41,-274.11"/>
<polygon fill="black" stroke="black" points="69.76,-273.11 63.88,-264.3 62.98,-274.86 69.76,-273.11"/>
</g>
<!-- struct_140019623770448 -->
<g id="node3" class="node">
<title>struct_140019623770448</title>
<polygon fill="lightgray" stroke="transparent" points="19.5,-100.5 19.5,-142.5 40.5,-142.5 40.5,-100.5 19.5,-100.5"/>
<polygon fill="none" stroke="black" points="20,-121.5 20,-142.5 41,-142.5 41,-121.5 20,-121.5"/>
<text text-anchor="start" x="23" y="-129.3" font-family="Times,serif" text-decoration="underline" font-size="14.00">int</text>
<polygon fill="none" stroke="black" points="20,-100.5 20,-121.5 41,-121.5 41,-100.5 20,-100.5"/>
<text text-anchor="start" x="27" y="-107.3" font-family="Times,serif" font-size="14.00">2</text>
</g>
<!-- struct_140019621412816&#45;&gt;struct_140019623770448 -->
<g id="edge7" class="edge">
<title>struct_140019621412816:port_child2&#45;&gt;struct_140019623770448</title>
<path fill="none" stroke="black" d="M168,-302.5C168,-247.63 145.61,-235.58 111,-193 95.06,-173.39 86.03,-173.62 67,-157 65.73,-155.89 64.44,-154.75 63.14,-153.59"/>
<polygon fill="black" stroke="black" points="65.44,-150.96 55.68,-146.84 60.75,-156.15 65.44,-150.96"/>
</g>
<!-- struct_140019620723344 -->
<g id="node4" class="node">
<title>struct_140019620723344</title>
<polygon fill="gray" stroke="transparent" points="84,-90 84,-153 170,-153 170,-90 84,-90"/>
<polygon fill="none" stroke="black" points="84,-131.5 84,-152.5 170,-152.5 170,-131.5 84,-131.5"/>
<text text-anchor="start" x="107" y="-139.3" font-family="Times,serif" text-decoration="underline" font-size="14.00">Cellule</text>
<polygon fill="none" stroke="black" points="84,-110.5 84,-131.5 124,-131.5 124,-110.5 84,-110.5"/>
<text text-anchor="start" x="87" y="-117.3" font-family="Times,serif" font-size="14.00">valeur</text>
<polygon fill="none" stroke="black" points="124,-110.5 124,-131.5 170,-131.5 170,-110.5 124,-110.5"/>
<text text-anchor="start" x="127" y="-117.3" font-family="Times,serif" font-size="14.00">suivant</text>
<polygon fill="none" stroke="black" points="84,-89.5 84,-110.5 124,-110.5 124,-89.5 84,-89.5"/>
<text text-anchor="start" x="99.5" y="-96.3" font-family="Times,serif" font-size="14.00">●</text>
<polygon fill="none" stroke="black" points="124,-89.5 124,-110.5 170,-110.5 170,-89.5 124,-89.5"/>
<text text-anchor="start" x="142.5" y="-96.3" font-family="Times,serif" font-size="14.00">●</text>
</g>
<!-- struct_140019621412816&#45;&gt;struct_140019620723344 -->
<g id="edge6" class="edge">
<title>struct_140019621412816:port_child1&#45;&gt;struct_140019620723344</title>
<path fill="none" stroke="black" d="M120,-302.5C120,-256.53 122.31,-204.01 124.27,-167.61"/>
<polygon fill="black" stroke="black" points="127.78,-167.51 124.84,-157.33 120.8,-167.12 127.78,-167.51"/>
</g>
<!-- struct_140019619772880&#45;&gt;struct_140019623770448 -->
<g id="edge1" class="edge">
<title>struct_140019619772880:port_child0&#45;&gt;struct_140019623770448</title>
<path fill="none" stroke="black" d="M28,-195.5C28,-182.95 28.3,-169.19 28.67,-157.03"/>
<polygon fill="black" stroke="black" points="32.17,-156.94 29,-146.83 25.17,-156.71 32.17,-156.94"/>
</g>
<!-- struct_140019619772880&#45;&gt;struct_140019620723344 -->
<g id="edge4" class="edge">
<title>struct_140019619772880:port_child1&#45;&gt;struct_140019620723344</title>
<path fill="none" stroke="black" d="M95,-206.5C104.59,-206.5 112.35,-187.14 117.82,-167.01"/>
<polygon fill="black" stroke="black" points="121.26,-167.7 120.32,-157.15 114.47,-165.98 121.26,-167.7"/>
</g>
<!-- struct_140019623770480 -->
<g id="node5" class="node">
<title>struct_140019623770480</title>
<polygon fill="lightgray" stroke="transparent" points="78.5,-4 78.5,-46 99.5,-46 99.5,-4 78.5,-4"/>
<polygon fill="none" stroke="black" points="79,-25 79,-46 100,-46 100,-25 79,-25"/>
<text text-anchor="start" x="82" y="-32.8" font-family="Times,serif" text-decoration="underline" font-size="14.00">int</text>
<polygon fill="none" stroke="black" points="79,-4 79,-25 100,-25 100,-4 79,-4"/>
<text text-anchor="start" x="86" y="-10.8" font-family="Times,serif" font-size="14.00">3</text>
</g>
<!-- struct_140019620723344&#45;&gt;struct_140019623770480 -->
<g id="edge2" class="edge">
<title>struct_140019620723344:port_child0&#45;&gt;struct_140019623770480</title>
<path fill="none" stroke="black" d="M104,-88.5C104,-79.1 102.37,-69.11 100.19,-59.94"/>
<polygon fill="black" stroke="black" points="103.51,-58.78 97.55,-50.02 96.74,-60.58 103.51,-58.78"/>
</g>
<!-- struct_94156421960192 -->
<g id="node6" class="node">
<title>struct_94156421960192</title>
<polygon fill="deeppink" stroke="transparent" points="143,-14.5 143,-35.5 179,-35.5 179,-14.5 143,-14.5"/>
<polygon fill="none" stroke="black" points="143,-14 143,-35 179,-35 179,-14 143,-14"/>
<text text-anchor="start" x="146" y="-20.8" font-family="Times,serif" font-size="14.00">None</text>
</g>
<!-- struct_140019620723344&#45;&gt;struct_94156421960192 -->
<g id="edge3" class="edge">
<title>struct_140019620723344:port_child1&#45;&gt;struct_94156421960192</title>
<path fill="none" stroke="black" d="M147,-88.5C147,-76.62 149.44,-63.77 152.28,-52.83"/>
<polygon fill="black" stroke="black" points="155.7,-53.59 155.06,-43.01 148.97,-51.68 155.7,-53.59"/>
</g>
</g>
</svg>
