<?xml version="1.0" encoding="UTF-8" standalone="no"?>
<!DOCTYPE svg PUBLIC "-//W3C//DTD SVG 1.1//EN"
 "http://www.w3.org/Graphics/SVG/1.1/DTD/svg11.dtd">
<!-- Generated by graphviz version 2.40.1 (20161225.0304)
 -->
<!-- Title: structs Pages: 1 -->
<svg width="600pt" height="144pt"
 viewBox="0.00 0.00 599.50 144.00" xmlns="http://www.w3.org/2000/svg" xmlns:xlink="http://www.w3.org/1999/xlink">
<g id="graph0" class="graph" transform="scale(1 1) rotate(0) translate(4 140)">
<title>structs</title>
<polygon fill="#ffffff" stroke="transparent" points="-4,4 -4,-140 595.5,-140 595.5,4 -4,4"/>
<!-- struct_entier -->
<g id="node1" class="node">
<title>struct_entier</title>
<polygon fill="#7fff00" stroke="transparent" points="8.5,-90 8.5,-132 45.5,-132 45.5,-90 8.5,-90"/>
<polygon fill="none" stroke="#000000" points="9,-111 9,-132 46,-132 46,-111 9,-111"/>
<text text-anchor="start" x="12" y="-117.8" font-family="Times,serif" font-size="14.00" fill="#000000">entier</text>
<polygon fill="none" stroke="#000000" points="9,-90 9,-111 46,-111 46,-90 9,-90"/>
<text text-anchor="start" x="21.5" y="-96.8" font-family="Times,serif" font-size="14.00" fill="#000000">⏺</text>
</g>
<!-- struct_10915008 -->
<g id="node2" class="node">
<title>struct_10915008</title>
<polygon fill="#c0c0c0" stroke="transparent" points="17.5,-4 17.5,-46 38.5,-46 38.5,-4 17.5,-4"/>
<polygon fill="none" stroke="#000000" points="18,-25 18,-46 39,-46 39,-25 18,-25"/>
<text text-anchor="start" x="21" y="-32.8" font-family="Times,serif" text-decoration="underline" font-size="14.00" fill="#000000">int</text>
<polygon fill="none" stroke="#000000" points="18,-4 18,-25 39,-25 39,-4 18,-4"/>
<text text-anchor="start" x="21.5" y="-10.8" font-family="Times,serif" font-size="14.00" fill="#000000">17</text>
</g>
<!-- struct_entier&#45;&gt;struct_10915008 -->
<g id="edge1" class="edge">
<title>struct_entier:port_entier&#45;&gt;struct_10915008</title>
<path fill="none" stroke="#000000" d="M28,-90C28,-80.304 28,-69.7943 28,-60.1095"/>
<polygon fill="#000000" stroke="#000000" points="31.5001,-60.0017 28,-50.0017 24.5001,-60.0017 31.5001,-60.0017"/>
</g>
<!-- struct_fonc1 -->
<g id="node3" class="node">
<title>struct_fonc1</title>
<polygon fill="#7fff00" stroke="transparent" points="80.5,-90 80.5,-132 117.5,-132 117.5,-90 80.5,-90"/>
<polygon fill="none" stroke="#000000" points="81,-111 81,-132 118,-132 118,-111 81,-111"/>
<text text-anchor="start" x="84" y="-117.8" font-family="Times,serif" font-size="14.00" fill="#000000">fonc1</text>
<polygon fill="none" stroke="#000000" points="81,-90 81,-111 118,-111 118,-90 81,-90"/>
<text text-anchor="start" x="93.5" y="-96.8" font-family="Times,serif" font-size="14.00" fill="#000000">⏺</text>
</g>
<!-- struct_139679997775384 -->
<g id="node4" class="node">
<title>struct_139679997775384</title>
<polygon fill="#c0c0c0" stroke="transparent" points="133.5,-4 133.5,-46 246.5,-46 246.5,-4 133.5,-4"/>
<polygon fill="none" stroke="#000000" points="134,-25 134,-46 247,-46 247,-25 134,-25"/>
<text text-anchor="start" x="167.5" y="-32.8" font-family="Times,serif" text-decoration="underline" font-size="14.00" fill="#000000">function</text>
<polygon fill="none" stroke="#000000" points="134,-4 134,-25 247,-25 247,-4 134,-4"/>
<text text-anchor="start" x="137" y="-10.8" font-family="Times,serif" font-size="14.00" fill="#000000">multiplie_par_deux</text>
</g>
<!-- struct_fonc1&#45;&gt;struct_139679997775384 -->
<g id="edge2" class="edge">
<title>struct_fonc1:port_fonc1&#45;&gt;struct_139679997775384</title>
<path fill="none" stroke="#000000" d="M118,-100C121.121,-100 141.8911,-78.1021 160.326,-57.9711"/>
<polygon fill="#000000" stroke="#000000" points="163.0851,-60.1397 167.2353,-50.3916 157.9119,-55.424 163.0851,-60.1397"/>
</g>
<!-- struct_fonc2 -->
<g id="node5" class="node">
<title>struct_fonc2</title>
<polygon fill="#7fff00" stroke="transparent" points="305.5,-90 305.5,-132 342.5,-132 342.5,-90 305.5,-90"/>
<polygon fill="none" stroke="#000000" points="306,-111 306,-132 343,-132 343,-111 306,-111"/>
<text text-anchor="start" x="309" y="-117.8" font-family="Times,serif" font-size="14.00" fill="#000000">fonc2</text>
<polygon fill="none" stroke="#000000" points="306,-90 306,-111 343,-111 343,-90 306,-90"/>
<text text-anchor="start" x="318.5" y="-96.8" font-family="Times,serif" font-size="14.00" fill="#000000">⏺</text>
</g>
<!-- struct_139679956245632 -->
<g id="node6" class="node">
<title>struct_139679956245632</title>
<polygon fill="#c0c0c0" stroke="transparent" points="314,-4 314,-46 374,-46 374,-4 314,-4"/>
<polygon fill="none" stroke="#000000" points="314,-25 314,-46 374,-46 374,-25 314,-25"/>
<text text-anchor="start" x="321" y="-32.8" font-family="Times,serif" text-decoration="underline" font-size="14.00" fill="#000000">function</text>
<polygon fill="none" stroke="#000000" points="314,-4 314,-25 374,-25 374,-4 314,-4"/>
<text text-anchor="start" x="317" y="-10.8" font-family="Times,serif" font-size="14.00" fill="#000000">ajoute_42</text>
</g>
<!-- struct_fonc2&#45;&gt;struct_139679956245632 -->
<g id="edge3" class="edge">
<title>struct_fonc2:port_fonc2&#45;&gt;struct_139679956245632</title>
<path fill="none" stroke="#000000" d="M325,-90C325,-79.9653 327.112,-69.3965 329.9277,-59.7652"/>
<polygon fill="#000000" stroke="#000000" points="333.297,-60.7216 333.0577,-50.1294 326.6395,-58.5589 333.297,-60.7216"/>
</g>
<!-- struct_multiplie_par_deux -->
<g id="node7" class="node">
<title>struct_multiplie_par_deux</title>
<polygon fill="#7fff00" stroke="transparent" points="152.5,-90 152.5,-132 265.5,-132 265.5,-90 152.5,-90"/>
<polygon fill="none" stroke="#000000" points="153,-111 153,-132 266,-132 266,-111 153,-111"/>
<text text-anchor="start" x="156" y="-117.8" font-family="Times,serif" font-size="14.00" fill="#000000">multiplie_par_deux</text>
<polygon fill="none" stroke="#000000" points="153,-90 153,-111 266,-111 266,-90 153,-90"/>
<text text-anchor="start" x="203.5" y="-96.8" font-family="Times,serif" font-size="14.00" fill="#000000">⏺</text>
</g>
<!-- struct_multiplie_par_deux&#45;&gt;struct_139679997775384 -->
<g id="edge4" class="edge">
<title>struct_multiplie_par_deux:port_multiplie_par_deux&#45;&gt;struct_139679997775384</title>
<path fill="none" stroke="#000000" d="M210,-90C210,-79.9227 207.7768,-69.3397 204.8129,-59.7084"/>
<polygon fill="#000000" stroke="#000000" points="208.0666,-58.406 201.5182,-50.0772 201.4434,-60.6718 208.0666,-58.406"/>
</g>
<!-- struct_ajoute_42 -->
<g id="node8" class="node">
<title>struct_ajoute_42</title>
<polygon fill="#7fff00" stroke="transparent" points="377,-90 377,-132 437,-132 437,-90 377,-90"/>
<polygon fill="none" stroke="#000000" points="377,-111 377,-132 437,-132 437,-111 377,-111"/>
<text text-anchor="start" x="380" y="-117.8" font-family="Times,serif" font-size="14.00" fill="#000000">ajoute_42</text>
<polygon fill="none" stroke="#000000" points="377,-90 377,-111 437,-111 437,-90 377,-90"/>
<text text-anchor="start" x="401" y="-96.8" font-family="Times,serif" font-size="14.00" fill="#000000">⏺</text>
</g>
<!-- struct_ajoute_42&#45;&gt;struct_139679956245632 -->
<g id="edge5" class="edge">
<title>struct_ajoute_42:port_ajoute_42&#45;&gt;struct_139679956245632</title>
<path fill="none" stroke="#000000" d="M377,-100C367.5078,-100 358.9443,-79.6184 352.9207,-60.1051"/>
<polygon fill="#000000" stroke="#000000" points="356.2487,-59.0147 350.093,-50.3916 349.5277,-60.9713 356.2487,-59.0147"/>
</g>
<!-- struct_applique_operation -->
<g id="node9" class="node">
<title>struct_applique_operation</title>
<polygon fill="#7fff00" stroke="transparent" points="471.5,-90 471.5,-132 582.5,-132 582.5,-90 471.5,-90"/>
<polygon fill="none" stroke="#000000" points="472,-111 472,-132 583,-132 583,-111 472,-111"/>
<text text-anchor="start" x="475" y="-117.8" font-family="Times,serif" font-size="14.00" fill="#000000">applique_operation</text>
<polygon fill="none" stroke="#000000" points="472,-90 472,-111 583,-111 583,-90 472,-90"/>
<text text-anchor="start" x="521.5" y="-96.8" font-family="Times,serif" font-size="14.00" fill="#000000">⏺</text>
</g>
<!-- struct_139679956245768 -->
<g id="node10" class="node">
<title>struct_139679956245768</title>
<polygon fill="#c0c0c0" stroke="transparent" points="472.5,-4 472.5,-46 583.5,-46 583.5,-4 472.5,-4"/>
<polygon fill="none" stroke="#000000" points="473,-25 473,-46 584,-46 584,-25 473,-25"/>
<text text-anchor="start" x="505.5" y="-32.8" font-family="Times,serif" text-decoration="underline" font-size="14.00" fill="#000000">function</text>
<polygon fill="none" stroke="#000000" points="473,-4 473,-25 584,-25 584,-4 473,-4"/>
<text text-anchor="start" x="476" y="-10.8" font-family="Times,serif" font-size="14.00" fill="#000000">applique_operation</text>
</g>
<!-- struct_applique_operation&#45;&gt;struct_139679956245768 -->
<g id="edge6" class="edge">
<title>struct_applique_operation:port_applique_operation&#45;&gt;struct_139679956245768</title>
<path fill="none" stroke="#000000" d="M528,-90C528,-80.304 528,-69.7943 528,-60.1095"/>
<polygon fill="#000000" stroke="#000000" points="531.5001,-60.0017 528,-50.0017 524.5001,-60.0017 531.5001,-60.0017"/>
</g>
</g>
</svg>
