<?xml version="1.0" encoding="UTF-8" standalone="no"?>
<!DOCTYPE svg PUBLIC "-//W3C//DTD SVG 1.1//EN"
 "http://www.w3.org/Graphics/SVG/1.1/DTD/svg11.dtd">
<!-- Generated by graphviz version 2.43.0 (0)
 -->
<!-- Title: structs Pages: 1 -->
<svg width="169pt" height="165pt"
 viewBox="0.00 0.00 169.00 165.00" xmlns="http://www.w3.org/2000/svg" xmlns:xlink="http://www.w3.org/1999/xlink">
<g id="graph0" class="graph" transform="scale(1 1) rotate(0) translate(4 161)">
<title>structs</title>
<polygon fill="white" stroke="transparent" points="-4,4 -4,-161 165,-161 165,4 -4,4"/>
<!-- struct_140019621412816 -->
<g id="node1" class="node">
<title>struct_140019621412816</title>
<polygon fill="gray" stroke="transparent" points="8,-90 8,-153 153,-153 153,-90 8,-90"/>
<polygon fill="none" stroke="black" points="8.5,-131.5 8.5,-152.5 153.5,-152.5 153.5,-131.5 8.5,-131.5"/>
<text text-anchor="start" x="11.5" y="-139.3" font-family="Times,serif" text-decoration="underline" font-size="14.00">ListeSimplementChainee</text>
<polygon fill="none" stroke="black" points="8.5,-110.5 8.5,-131.5 57.5,-131.5 57.5,-110.5 8.5,-110.5"/>
<text text-anchor="start" x="23" y="-117.3" font-family="Times,serif" font-size="14.00">tete</text>
<polygon fill="none" stroke="black" points="57.5,-110.5 57.5,-131.5 107.5,-131.5 107.5,-110.5 57.5,-110.5"/>
<text text-anchor="start" x="66" y="-117.3" font-family="Times,serif" font-size="14.00">queue</text>
<polygon fill="none" stroke="black" points="107.5,-110.5 107.5,-131.5 153.5,-131.5 153.5,-110.5 107.5,-110.5"/>
<text text-anchor="start" x="116.5" y="-117.3" font-family="Times,serif" font-size="14.00">taille</text>
<polygon fill="none" stroke="black" points="8.5,-89.5 8.5,-110.5 57.5,-110.5 57.5,-89.5 8.5,-89.5"/>
<text text-anchor="start" x="28.5" y="-96.3" font-family="Times,serif" font-size="14.00">●</text>
<polygon fill="none" stroke="black" points="57.5,-89.5 57.5,-110.5 107.5,-110.5 107.5,-89.5 57.5,-89.5"/>
<text text-anchor="start" x="78" y="-96.3" font-family="Times,serif" font-size="14.00">●</text>
<polygon fill="none" stroke="black" points="107.5,-89.5 107.5,-110.5 153.5,-110.5 153.5,-89.5 107.5,-89.5"/>
<text text-anchor="start" x="126" y="-96.3" font-family="Times,serif" font-size="14.00">●</text>
</g>
<!-- struct_94156421960192 -->
<g id="node2" class="node">
<title>struct_94156421960192</title>
<polygon fill="deeppink" stroke="transparent" points="27.5,-14.5 27.5,-35.5 63.5,-35.5 63.5,-14.5 27.5,-14.5"/>
<polygon fill="none" stroke="black" points="27.5,-14 27.5,-35 63.5,-35 63.5,-14 27.5,-14"/>
<text text-anchor="start" x="30.5" y="-20.8" font-family="Times,serif" font-size="14.00">None</text>
</g>
<!-- struct_140019621412816&#45;&gt;struct_94156421960192 -->
<g id="edge1" class="edge">
<title>struct_140019621412816:port_child0&#45;&gt;struct_94156421960192</title>
<path fill="none" stroke="black" d="M32.5,-88.5C32.5,-76.66 34.76,-63.81 37.4,-52.87"/>
<polygon fill="black" stroke="black" points="40.83,-53.61 39.99,-43.05 34.06,-51.83 40.83,-53.61"/>
</g>
<!-- struct_140019621412816&#45;&gt;struct_94156421960192 -->
<g id="edge2" class="edge">
<title>struct_140019621412816:port_child1&#45;&gt;struct_94156421960192</title>
<path fill="none" stroke="black" d="M82.5,-88.5C82.5,-74.97 76,-61.8 68.45,-51.07"/>
<polygon fill="black" stroke="black" points="71.13,-48.82 62.27,-43.02 65.58,-53.08 71.13,-48.82"/>
</g>
<!-- struct_140019623770384 -->
<g id="node3" class="node">
<title>struct_140019623770384</title>
<polygon fill="lightgray" stroke="transparent" points="120,-4 120,-46 141,-46 141,-4 120,-4"/>
<polygon fill="none" stroke="black" points="120.5,-25 120.5,-46 141.5,-46 141.5,-25 120.5,-25"/>
<text text-anchor="start" x="123.5" y="-32.8" font-family="Times,serif" text-decoration="underline" font-size="14.00">int</text>
<polygon fill="none" stroke="black" points="120.5,-4 120.5,-25 141.5,-25 141.5,-4 120.5,-4"/>
<text text-anchor="start" x="127.5" y="-10.8" font-family="Times,serif" font-size="14.00">0</text>
</g>
<!-- struct_140019621412816&#45;&gt;struct_140019623770384 -->
<g id="edge3" class="edge">
<title>struct_140019621412816:port_child2&#45;&gt;struct_140019623770384</title>
<path fill="none" stroke="black" d="M130.5,-88.5C130.5,-79.28 130.5,-69.29 130.5,-60.06"/>
<polygon fill="black" stroke="black" points="134,-60.04 130.5,-50.04 127,-60.04 134,-60.04"/>
</g>
</g>
</svg>
