<svg xmlns="http://www.w3.org/2000/svg" version="1.1" width="800.0" height="600.0">
<g opacity="0.45652400477282395" > <polygon points="431.0,331.0 445.0,595.0 604.0,505.0 "  fille="grren"/> </g>
<g opacity="0.12499231780173259" > <polygon points="400.0,343.84062043356596 223.2233047033631,540.4163056034262 399.29289321881345,589.2066735052979 "  fille="grren"/> </g>
<g opacity="0.3635072078545102" > <polygon points="369.0,331.0 105.0,345.0 195.0,504.0 "  fille="grren"/> </g>
<g opacity="0.2414043498724604" > <polygon points="356.15937956643404,300.0 159.58369439657383,123.22330470336314 110.79332649470206,299.29289321881345 "  fille="grren"/> </g>
<g opacity="0.5010292965257085" > <polygon points="369.0,269.0 354.99999999999994,5.0 195.99999999999997,95.00000000000003 "  fille="grren"/> </g>
<g opacity="0.5871668881788357" > <polygon points="400.0,256.15937956643404 576.7766952966368,59.583694396573804 400.7071067811865,10.793326494702 "  fille="grren"/> </g>
<g opacity="0.9545109744651399" > <polygon points="431.0,269.0 695.0,254.99999999999994 605.0,95.99999999999997 "  fille="grren"/> </g>
<g opacity="0.6845489338841257" > <polygon points="443.84062043356596,300.0 640.4163056034262,476.77669529663683 689.2066735052979,300.7071067811865 "  fille="grren"/> </g>
<g opacity="0.7370539605110582" > <polygon points="552.0,498.0 557.0,397.0 768.0,307.0 "  fille="red"/> </g>
<g opacity="0.7104202243601745" > <polygon points="367.4730880654188,547.4873734152916 442.42640687119285,479.60512242138304 655.2655480083437,565.1650429449553 "  fille="red"/> </g>
<g opacity="0.9620097171117113" > <polygon points="202.0,452.0 303.0,457.0 393.0,668.0 "  fille="red"/> </g>
<g opacity="0.2694532291590025" > <polygon points="152.51262658470836,267.47308806541884 220.39487757861696,342.42640687119285 134.8349570550447,555.2655480083437 "  fille="red"/> </g>
<g opacity="0.783196110526016" > <polygon points="247.99999999999997,102.00000000000003 243.0,203.0 32.0,293.00000000000006 "  fille="red"/> </g>
<g opacity="0.2198707831943152" > <polygon points="432.52691193458116,52.51262658470836 357.57359312880715,120.39487757861693 144.7344519916563,34.8349570550447 "  fille="red"/> </g>
<g opacity="0.15899561423211372" > <polygon points="598.0,147.99999999999997 497.0,142.99999999999997 406.99999999999994,-68.0 "  fille="red"/> </g>
<g opacity="0.8772541219481172" > <polygon points="647.4873734152916,332.5269119345811 579.605122421383,257.5735931288071 665.1650429449553,44.7344519916563 "  fille="red"/> </g>
<g opacity="0.7497809081302099" > <polygon points="481.0,599.0 496.0,341.0 603.0,363.0 "  fille="red"/> </g>
<g opacity="0.26737082402293333" > <polygon points="245.85072170133265,568.7005768508881 438.8908729652601,396.873629022557 498.99494936611666,488.0904037956217 "  fille="red"/> </g>
<g opacity="0.22477485253392882" > <polygon points="101.0,381.0 359.0,396.0 337.0,503.0 "  fille="red"/> </g>
<g opacity="0.866936400442997" > <polygon points="131.29942314911193,145.85072170133267 303.126370977443,338.89087296526014 211.90959620437837,398.99494936611666 "  fille="red"/> </g>
<g opacity="0.6220861052326795" > <polygon points="318.99999999999994,1.0 304.0,259.0 197.0,237.00000000000003 "  fille="red"/> </g>
<g opacity="0.7710844752737017" > <polygon points="554.1492782986674,31.299423149111874 361.10912703473986,203.126370977443 301.00505063388334,111.90959620437835 "  fille="red"/> </g>
<g opacity="0.5144893870478158" > <polygon points="699.0,218.99999999999994 441.0,204.0 462.99999999999994,97.0 "  fille="red"/> </g>
<g opacity="0.8556411850954645" > <polygon points="668.7005768508882,454.1492782986673 496.873629022557,261.10912703473986 588.0904037956216,201.00505063388331 "  fille="red"/> </g>
<g opacity="0.6178268604292144" > <polygon points="526.0,492.0 513.0,430.0 527.0,370.0 "  fille="grren"/> </g>
<g opacity="0.31029861354079624" > <polygon points="353.3309524416878,524.8599564173221 387.9791847198287,471.8269478283311 440.3050865276332,439.30003589374985 "  fille="grren"/> </g>
<g opacity="0.19838761553268747" > <polygon points="208.0,426.0 270.0,413.0 330.0,427.0 "  fille="grren"/> </g>
<g opacity="0.11957046218877798" > <polygon points="175.1400435826779,253.33095244168788 228.17305217166896,287.9791847198287 260.69996410625015,340.3050865276332 "  fille="grren"/> </g>
<g opacity="0.6846253048392793" > <polygon points="274.0,108.00000000000003 287.0,170.0 273.0,230.0 "  fille="grren"/> </g>
<g opacity="0.2382937953145765" > <polygon points="446.6690475583121,75.14004358267789 412.0208152801713,128.17305217166893 359.69491347236675,160.69996410625015 "  fille="grren"/> </g>
<g opacity="0.966947911314591" > <polygon points="592.0,173.99999999999997 530.0,186.99999999999997 470.0,173.0 "  fille="grren"/> </g>
<g opacity="0.5964191264214384" > <polygon points="624.8599564173221,346.66904755831206 571.8269478283311,312.0208152801713 539.3000358937499,259.69491347236675 "  fille="grren"/> </g>
<g opacity="0.526211362736848" > <polygon points="505.0,410.0 520.0,594.0 509.0,402.0 "  fille="red"/> </g>
<g opacity="0.8221173058754416" > <polygon points="396.46446609406723,452.0279579551077 276.96342007354076,592.7422074112307 404.9497474683059,449.19953083036154 "  fille="red"/> </g>
<g opacity="0.30116755803268525" > <polygon points="290.0,405.0 106.0,420.0 298.0,409.0 "  fille="red"/> </g>
<g opacity="0.5072211576065316" > <polygon points="247.9720420448923,296.4644660940673 107.25779258876935,176.96342007354076 250.80046916963846,304.9497474683059 "  fille="red"/> </g>
<g opacity="0.8518090270882885" > <polygon points="295.0,190.0 279.99999999999994,6.0 291.0,198.0 "  fille="red"/> </g>
<g opacity="0.7164053832516908" > <polygon points="403.5355339059327,147.97204204489228 523.0365799264592,7.257792588769291 395.0502525316941,150.80046916963846 "  fille="red"/> </g>
<g opacity="0.9302523966047876" > <polygon points="510.0,195.0 694.0,179.99999999999994 502.0,191.0 "  fille="red"/> </g>
<g opacity="0.20478185944648664" > <polygon points="552.0279579551077,303.5355339059327 692.7422074112308,423.0365799264592 549.1995308303615,295.0502525316941 "  fille="red"/> </g>
<g opacity="0.3083261850297567" > <polygon points="490.0,364.0 733.0,591.0 565.0,437.0 "  fille="blue"/> </g>
<g opacity="0.3864183696775798" > <polygon points="418.3847763108502,408.8944443027283 429.698484809835,741.2346314604057 419.7989898732233,513.5462479183374 "  fille="blue"/> </g>
<g opacity="0.0903626140706435" > <polygon points="336.0,390.0 109.0,633.0 263.0,465.0 "  fille="blue"/> </g>
<g opacity="0.4485943131228758" > <polygon points="291.1055556972717,318.38477631085027 -41.23463146040564,329.698484809835 186.45375208166266,319.7989898732234 "  fille="blue"/> </g>
<g opacity="0.03421366748091337" > <polygon points="310.0,236.0 66.99999999999994,9.000000000000057 234.99999999999997,163.00000000000003 "  fille="blue"/> </g>
<g opacity="0.7803955670863828" > <polygon points="381.61522368914973,191.10555569727168 370.30151519016493,-141.2346314604057 380.2010101267766,86.45375208166263 "  fille="blue"/> </g>
<g opacity="0.6574525080009739" > <polygon points="464.0,210.0 691.0,-33.00000000000006 537.0,134.99999999999997 "  fille="blue"/> </g>
<g opacity="0.5336076387585809" > <polygon points="508.8944443027283,281.61522368914973 841.2346314604056,270.3015151901649 613.5462479183374,280.2010101267766 "  fille="blue"/> </g>
<g opacity="0.2130626649263323" > <polygon points="496.0,576.0 729.0,512.0 617.0,379.0 "  fille="lime"/> </g>
<g opacity="0.6860830020969491" > <polygon points="272.72077938642144,563.0437226013958 482.73149339882605,682.5447686219222 497.58073580374355,509.30360723121805 "  fille="lime"/> </g>
<g opacity="0.4268684881027437" > <polygon points="124.0,396.0 188.00000000000003,629.0 321.0,517.0 "  fille="lime"/> </g>
<g opacity="0.11940954681219895" > <polygon points="136.9562773986043,172.72077938642147 17.45523137807777,382.73149339882605 190.69639276878195,397.58073580374355 "  fille="lime"/> </g>
<g opacity="0.7873344104778742" > <polygon points="304.0,24.0 71.0,88.00000000000003 183.0,221.00000000000003 "  fille="lime"/> </g>
<g opacity="0.3030549205752756" > <polygon points="527.2792206135786,36.9562773986043 317.26850660117384,-82.54476862192223 302.4192641962564,90.69639276878195 "  fille="lime"/> </g>
<g opacity="0.4980099841603234" > <polygon points="676.0,203.99999999999994 612.0,-29.000000000000057 478.99999999999994,82.99999999999997 "  fille="lime"/> </g>
<g opacity="0.17777655354658994" > <polygon points="663.0437226013958,427.2792206135785 782.5447686219222,217.26850660117384 609.303607231218,202.4192641962564 "  fille="lime"/> </g>
<g opacity="0.28519900614377147" > <polygon points="404.0,535.0 663.0,361.0 583.0,551.0 "  fille="lime"/> </g>
<g opacity="0.9107086859934947" > <polygon points="236.6583335459075,468.99852070358486 542.8355697996826,529.1025971044414 351.9167388793148,606.8843430349616 "  fille="lime"/> </g>
<g opacity="0.20233025825715334" > <polygon points="165.0,304.0 339.0,563.0 149.0,483.0 "  fille="lime"/> </g>
<g opacity="0.2928211834455545" > <polygon points="231.00147929641514,136.65833354590754 170.8974028955586,442.8355697996826 93.1156569650384,251.9167388793148 "  fille="lime"/> </g>
<g opacity="0.6767140118588381" > <polygon points="396.0,65.0 137.0,239.00000000000003 216.99999999999997,49.00000000000003 "  fille="lime"/> </g>
<g opacity="0.11998107410531511" > <polygon points="563.3416664540924,131.0014792964151 257.1644302003173,70.8974028955586 448.08326112068517,-6.88434303496166 "  fille="lime"/> </g>
<g opacity="0.7017654714684682" > <polygon points="635.0,295.99999999999994 460.99999999999994,37.0 651.0,116.99999999999994 "  fille="lime"/> </g>
<g opacity="0.1664946377219303" > <polygon points="568.9985207035849,463.34166645409243 629.1025971044414,157.16443020031733 706.8843430349616,348.08326112068517 "  fille="lime"/> </g>
<g opacity="0.9476643248868875" > <polygon points="428.0,549.0 510.0,453.0 746.0,534.0 "  fille="purple"/> </g>
<g opacity="0.25299550278252503" > <polygon points="243.72940135777299,495.86857838867365 369.59440840897844,485.969083452062 479.19595949289334,710.1219330881976 "  fille="purple"/> </g>
<g opacity="0.3507523640549929" > <polygon points="151.0,328.0 247.0,410.0 166.00000000000003,646.0 "  fille="purple"/> </g>
<g opacity="0.8881980004285093" > <polygon points="204.13142161132635,143.729401357773 214.030916547938,269.59440840897844 -10.12193308819758,379.1959594928934 "  fille="purple"/> </g>
<g opacity="0.767619286967534" > <polygon points="371.99999999999994,51.0 290.0,147.0 53.99999999999994,66.00000000000003 "  fille="purple"/> </g>
<g opacity="0.03823523774134163" > <polygon points="556.270598642227,104.13142161132632 430.4055915910215,114.03091654793798 320.8040405071066,-110.12193308819758 "  fille="purple"/> </g>
<g opacity="0.1594589980615606" > <polygon points="649.0,271.99999999999994 553.0,189.99999999999997 634.0,-46.00000000000006 "  fille="purple"/> </g>
<g opacity="0.007898712983212985" > <polygon points="595.8685783886737,456.27059864222696 585.969083452062,330.4055915910215 810.1219330881975,220.8040405071066 "  fille="purple"/> </g>
<g opacity="0.9398077540345933" > <polygon points="577.0,412.0 647.0,448.0 643.0,489.0 "  fille="blue"/> </g>
<g opacity="0.909490549828029" > <polygon points="445.9619407771256,504.35385976291224 470.0035713374682,579.3071785686864 438.1837661840736,605.4701294725885 "  fille="blue"/> </g>
<g opacity="0.9927677642279942" > <polygon points="288.0,477.0 252.00000000000003,547.0 211.00000000000003,543.0 "  fille="blue"/> </g>
<g opacity="0.26837084543794043" > <polygon points="195.64614023708776,345.9619407771256 120.69282143131375,370.0035713374682 94.5298705274115,338.1837661840736 "  fille="blue"/> </g>
<g opacity="0.46633426198074834" > <polygon points="223.0,188.00000000000003 152.99999999999997,152.00000000000003 156.99999999999997,111.00000000000003 "  fille="blue"/> </g>
<g opacity="0.32269008424090995" > <polygon points="354.0380592228744,95.64614023708776 329.99642866253174,20.692821431313746 361.81623381592635,-5.470129472588553 "  fille="blue"/> </g>
<g opacity="0.08803627701276373" > <polygon points="512.0,122.99999999999997 548.0,52.99999999999997 589.0,56.99999999999997 "  fille="blue"/> </g>
<g opacity="0.24891000508248218" > <polygon points="604.3538597629122,254.03805922287438 679.3071785686863,229.99642866253174 705.4701294725885,261.81623381592635 "  fille="blue"/> </g>
</svg>
