<svg xmlns="http://www.w3.org/2000/svg" version="1.1" width="800.0" height="600.0">
<g opacity="0.34802457718476953" > <polygon points="526.0,547.0 743.0,515.0 471.0,436.0 "  fille="orange"/> </g>
<g opacity="0.4986085972864024" > <polygon points="314.44007947642774,563.7508293825822 490.50966799187813,694.5655839020935 354.0380592228744,446.3711037056154 "  fille="orange"/> </g>
<g opacity="0.4024120401182948" > <polygon points="153.0,426.0 185.00000000000003,643.0 264.0,371.0 "  fille="orange"/> </g>
<g opacity="0.8212026834224835" > <polygon points="136.24917061741775,214.44007947642777 5.434416097906478,390.50966799187813 253.62889629438467,254.0380592228744 "  fille="orange"/> </g>
<g opacity="0.03991836910049562" > <polygon points="274.0,53.00000000000003 57.0,85.00000000000003 329.0,164.0 "  fille="orange"/> </g>
<g opacity="0.9306696413132676" > <polygon points="485.5599205235722,36.24917061741775 309.49033200812187,-94.56558390209352 445.96194077712556,153.62889629438465 "  fille="orange"/> </g>
<g opacity="0.37355335970762604" > <polygon points="647.0,173.99999999999994 615.0,-43.00000000000006 536.0,228.99999999999997 "  fille="orange"/> </g>
<g opacity="0.8207098772253074" > <polygon points="663.7508293825822,385.5599205235722 794.5655839020935,209.4903320081218 546.3711037056154,345.96194077712556 "  fille="orange"/> </g>
<g opacity="0.5073630344191931" > <polygon points="581.0,513.0 683.0,366.0 491.0,536.0 "  fille="red"/> </g>
<g opacity="0.5982310795320669" > <polygon points="377.37258300203047,578.6000717874997 553.4421715174808,546.7802666341051 297.4695167279506,531.2239174480011 "  fille="red"/> </g>
<g opacity="0.639407239654019" > <polygon points="187.0,481.0 334.0,583.0 164.0,391.0 "  fille="red"/> </g>
<g opacity="0.006050351820573341" > <polygon points="121.3999282125003,277.3725830020305 153.2197333658949,453.44217151748086 168.77608255199897,197.46951672795063 "  fille="red"/> </g>
<g opacity="0.19479991273367236" > <polygon points="218.99999999999997,87.00000000000003 117.0,234.00000000000003 309.0,64.0 "  fille="red"/> </g>
<g opacity="0.07533926568832094" > <polygon points="422.6274169979695,21.3999282125003 246.55782848251914,53.21973336589491 502.53048327204937,68.77608255199891 "  fille="red"/> </g>
<g opacity="0.7824084224774982" > <polygon points="613.0,118.99999999999997 465.99999999999994,17.0 636.0,208.99999999999994 "  fille="red"/> </g>
<g opacity="0.5787924549418456" > <polygon points="678.6000717874997,322.6274169979695 646.780266634105,146.5578284825191 631.2239174480011,402.5304832720493 "  fille="red"/> </g>
<g opacity="0.7447421104393285" > <polygon points="632.0,464.0 401.0,499.0 429.0,423.0 "  fille="grren"/> </g>
<g opacity="0.11292118989823441" > <polygon points="448.0832611206852,580.0142853498728 259.9928573250636,441.4213562373095 333.53196256846456,407.48023074035524 "  fille="grren"/> </g>
<g opacity="0.3801203862335991" > <polygon points="236.0,532.0 201.0,301.0 277.0,329.0 "  fille="grren"/> </g>
<g opacity="0.41851700765064137" > <polygon points="119.98571465012719,348.0832611206853 258.5786437626905,159.9928573250636 292.51976925964476,233.53196256846454 "  fille="grren"/> </g>
<g opacity="0.5684562043902497" > <polygon points="167.99999999999997,136.00000000000003 399.0,101.0 371.0,177.0 "  fille="grren"/> </g>
<g opacity="0.43899237126416357" > <polygon points="351.9167388793147,19.985714650127193 540.0071426749364,158.57864376269046 466.46803743153544,192.51976925964476 "  fille="grren"/> </g>
<g opacity="0.7646235123410402" > <polygon points="564.0,67.99999999999997 599.0,298.99999999999994 523.0,271.0 "  fille="grren"/> </g>
<g opacity="0.818635385784041" > <polygon points="680.0142853498728,251.9167388793147 541.4213562373095,440.0071426749364 507.48023074035524,366.46803743153544 "  fille="grren"/> </g>
<g opacity="0.6354481462213856" > <polygon points="473.0,514.0 800.0,380.0 782.0,506.0 "  fille="orange"/> </g>
<g opacity="0.9916328678604903" > <polygon points="300.2979438526968,502.93964620053913 626.2741699796952,639.4112549695428 524.4507934888323,715.77878733769 "  fille="orange"/> </g>
<g opacity="0.5728270368038704" > <polygon points="186.0,373.0 320.0,700.0 194.00000000000003,682.0 "  fille="orange"/> </g>
<g opacity="0.6147719598370723" > <polygon points="197.06035379946087,200.2979438526968 60.58874503045723,526.2741699796952 -15.778787337689892,424.4507934888324 "  fille="orange"/> </g>
<g opacity="0.6360854356603777" > <polygon points="327.0,86.0 0.0,220.00000000000006 18.0,94.00000000000006 "  fille="orange"/> </g>
<g opacity="0.5696220134664319" > <polygon points="499.7020561473032,97.06035379946084 173.72583002030473,-39.41125496954277 275.54920651116754,-115.77878733768995 "  fille="orange"/> </g>
<g opacity="0.8174654735406045" > <polygon points="614.0,226.99999999999994 479.99999999999994,-100.0 606.0,-82.00000000000006 "  fille="orange"/> </g>
<g opacity="0.16502261678022934" > <polygon points="602.9396462005392,399.70205614730315 739.4112549695428,73.72583002030473 815.7787873376899,175.5492065111675 "  fille="orange"/> </g>
<g opacity="0.27950405566063663" > <polygon points="600.0,517.0 591.0,425.0 404.0,559.0 "  fille="brown"/> </g>
<g opacity="0.6729121951389271" > <polygon points="387.9791847198287,594.8635277547903 446.6690475583122,523.445742854949 219.68777079743037,485.969083452062 "  fille="brown"/> </g>
<g opacity="0.9205050974874818" > <polygon points="183.0,500.0 275.0,491.0 141.0,304.0 "  fille="brown"/> </g>
<g opacity="0.056735296350262976" > <polygon points="105.13647224520969,287.9791847198287 176.554257145051,346.6690475583122 214.030916547938,119.6877707974304 "  fille="brown"/> </g>
<g opacity="0.5489303826935983" > <polygon points="199.99999999999997,83.00000000000003 208.99999999999997,175.00000000000003 395.99999999999994,41.0 "  fille="brown"/> </g>
<g opacity="0.47532765739419347" > <polygon points="412.0208152801713,5.1364722452096885 353.3309524416878,76.554257145051 580.3122292025696,114.03091654793798 "  fille="brown"/> </g>
<g opacity="0.7184093432806461" > <polygon points="617.0,99.99999999999997 525.0,108.99999999999997 659.0,295.99999999999994 "  fille="brown"/> </g>
<g opacity="0.43361579449588794" > <polygon points="694.8635277547903,312.02081528017123 623.445742854949,253.3309524416878 585.969083452062,480.3122292025696 "  fille="brown"/> </g>
<g opacity="0.30442489800271544" > <polygon points="783.0,332.0 740.0,521.0 582.0,425.0 "  fille="lime"/> </g>
<g opacity="0.5391572618204024" > <polygon points="648.1944801964783,593.4493141924172 484.14570696119915,696.6869042456532 440.3050865276332,517.0817818242701 "  fille="lime"/> </g>
<g opacity="0.9309982114574873" > <polygon points="368.0,683.0 179.00000000000003,640.0 275.0,482.0 "  fille="lime"/> </g>
<g opacity="0.017261091140859497" > <polygon points="106.5506858075828,548.1944801964783 3.3130957543468185,384.14570696119915 182.91821817572992,340.30508652763325 "  fille="lime"/> </g>
<g opacity="0.19996178544065546" > <polygon points="17.0,268.00000000000006 60.0,79.00000000000003 217.99999999999997,175.00000000000003 "  fille="lime"/> </g>
<g opacity="0.31086513618411205" > <polygon points="151.80551980352175,6.550685807582795 315.85429303880073,-96.68690424565318 359.69491347236675,82.91821817572992 "  fille="lime"/> </g>
<g opacity="0.3918025399405263" > <polygon points="431.99999999999994,-83.0 621.0,-40.00000000000006 525.0,117.99999999999997 "  fille="lime"/> </g>
<g opacity="0.4742842325558956" > <polygon points="693.4493141924172,51.80551980352172 796.6869042456532,215.85429303880073 617.0817818242701,259.69491347236675 "  fille="lime"/> </g>
<g opacity="0.22451649902539872" > <polygon points="536.0,594.0 502.0,396.0 453.0,452.0 "  fille="lime"/> </g>
<g opacity="0.9178288335108568" > <polygon points="288.2771285725255,604.0559159102154 404.24264068711926,440.0071426749364 329.9964286625318,444.9568901432423 "  fille="lime"/> </g>
<g opacity="0.6551583102595744" > <polygon points="106.0,436.0 304.0,402.0 248.0,353.0 "  fille="lime"/> </g>
<g opacity="0.7685942689291787" > <polygon points="95.94408408978455,188.27712857252553 259.9928573250636,304.2426406871193 255.04310985675775,229.9964286625318 "  fille="lime"/> </g>
<g opacity="0.42080628510471296" > <polygon points="264.0,6.0 298.0,204.0 347.0,148.0 "  fille="lime"/> </g>
<g opacity="0.18877120587729368" > <polygon points="511.72287142747444,-4.055915910215504 395.7573593128807,159.9928573250636 470.0035713374682,155.04310985675772 "  fille="lime"/> </g>
<g opacity="0.3412628717826609" > <polygon points="694.0,163.99999999999994 496.0,198.0 552.0,246.99999999999997 "  fille="lime"/> </g>
<g opacity="0.7478981027978878" > <polygon points="704.0559159102155,411.72287142747444 540.0071426749364,295.7573593128807 544.9568901432423,370.0035713374682 "  fille="lime"/> </g>
<g opacity="0.025921534466527896" > <polygon points="480.0,494.0 581.0,557.0 598.0,429.0 "  fille="brown"/> </g>
<g opacity="0.7091322152366653" > <polygon points="319.3898269447336,493.747258045114 346.2598846298224,609.7127701597078 448.7903679018718,531.2239174480011 "  fille="brown"/> </g>
<g opacity="0.06000257808803389" > <polygon points="206.0,380.0 143.0,481.0 271.0,498.0 "  fille="brown"/> </g>
<g opacity="0.5927745195803898" > <polygon points="206.25274195488598,219.38982694473358 90.28722984029218,246.2598846298224 168.77608255199897,348.79036790187183 "  fille="brown"/> </g>
<g opacity="0.3948363403534365" > <polygon points="320.0,106.0 218.99999999999997,43.0 201.99999999999997,171.00000000000003 "  fille="brown"/> </g>
<g opacity="0.658136327359849" > <polygon points="480.6101730552664,106.25274195488595 453.7401153701776,-9.712770159707816 351.20963209812817,68.77608255199894 "  fille="brown"/> </g>
<g opacity="0.19590885073894715" > <polygon points="594.0,219.99999999999994 657.0,118.99999999999994 529.0,101.99999999999997 "  fille="brown"/> </g>
<g opacity="0.6437323802510622" > <polygon points="593.747258045114,380.6101730552664 709.7127701597078,353.74011537017753 631.223917448001,251.20963209812817 "  fille="brown"/> </g>
<g opacity="0.3244793042386198" > <polygon points="713.0,406.0 638.0,460.0 622.0,405.0 "  fille="lime"/> </g>
<g opacity="0.5132248043309697" > <polygon points="546.3711037056154,596.2777413171634 455.1543289325507,581.4284989122459 482.73149339882605,531.2239174480011 "  fille="lime"/> </g>
<g opacity="0.9793036487347584" > <polygon points="294.0,613.0 240.00000000000003,538.0 295.0,522.0 "  fille="lime"/> </g>
<g opacity="0.9841503412069846" > <polygon points="103.72225868283658,446.3711037056154 118.57150108775409,355.15432893255075 168.77608255199897,382.7314933988261 "  fille="lime"/> </g>
<g opacity="0.45411462042466444" > <polygon points="87.0,194.00000000000006 161.99999999999997,140.00000000000003 178.0,195.00000000000003 "  fille="lime"/> </g>
<g opacity="0.3173479553683427" > <polygon points="253.62889629438462,3.722258682836582 344.84567106744925,18.571501087754086 317.2685066011739,68.77608255199897 "  fille="lime"/> </g>
<g opacity="0.9717899543158124" > <polygon points="505.99999999999994,-13.0 560.0,61.99999999999997 504.99999999999994,77.99999999999997 "  fille="lime"/> </g>
<g opacity="0.7403384303050203" > <polygon points="696.2777413171634,153.6288962943846 681.4284989122459,244.84567106744922 631.223917448001,217.2685066011739 "  fille="lime"/> </g>
<g opacity="0.2134961351759188" > <polygon points="489.0,540.0 729.0,432.0 516.0,589.0 "  fille="yellow"/> </g>
<g opacity="0.648373983728478" > <polygon points="293.2268760408313,532.6381310103741 539.3000358937499,625.9762261269984 277.6705268547273,586.3782463805518 "  fille="yellow"/> </g>
<g opacity="0.7038625909302294" > <polygon points="160.0,389.0 268.0,629.0 111.0,416.0 "  fille="yellow"/> </g>
<g opacity="0.9615891936031205" > <polygon points="167.36186898962586,193.22687604083134 74.02377387300163,439.30003589374985 113.62175361944827,177.6705268547273 "  fille="yellow"/> </g>
<g opacity="0.8987156521568195" > <polygon points="311.0,60.0 71.0,168.00000000000003 284.0,11.0 "  fille="yellow"/> </g>
<g opacity="0.170768737968354" > <polygon points="506.77312395916863,67.36186898962583 260.69996410625004,-25.976226126998426 522.3294731452727,13.621753619448214 "  fille="yellow"/> </g>
<g opacity="0.4473501737236715" > <polygon points="640.0,210.99999999999994 532.0,-29.0 689.0,183.99999999999994 "  fille="yellow"/> </g>
<g opacity="0.5974414473883256" > <polygon points="632.6381310103741,406.77312395916863 725.9762261269984,160.69996410625004 686.3782463805518,422.32947314527263 "  fille="yellow"/> </g>
</svg>
