<?xml version="1.0" encoding="UTF-8" standalone="no"?>
<!DOCTYPE svg PUBLIC "-//W3C//DTD SVG 1.1//EN"
 "http://www.w3.org/Graphics/SVG/1.1/DTD/svg11.dtd">
<!-- Generated by graphviz version 2.40.1 (20161225.0304)
 -->
<!-- Title: structs Pages: 1 -->
<svg width="422pt" height="444pt"
 viewBox="0.00 0.00 422.00 444.00" xmlns="http://www.w3.org/2000/svg" xmlns:xlink="http://www.w3.org/1999/xlink">
<g id="graph0" class="graph" transform="scale(1 1) rotate(0) translate(4 440)">
<title>structs</title>
<polygon fill="#ffffff" stroke="transparent" points="-4,4 -4,-440 418,-440 418,4 -4,4"/>
<!-- struct_p1 -->
<g id="node1" class="node">
<title>struct_p1</title>
<polygon fill="#7fff00" stroke="transparent" points="80,-197 80,-239 100,-239 100,-197 80,-197"/>
<polygon fill="none" stroke="#000000" points="80,-218 80,-239 100,-239 100,-218 80,-218"/>
<text text-anchor="start" x="83" y="-224.8" font-family="Times,serif" font-size="14.00" fill="#000000">p1</text>
<polygon fill="none" stroke="#000000" points="80,-197 80,-218 100,-218 100,-197 80,-197"/>
<text text-anchor="start" x="84" y="-203.8" font-family="Times,serif" font-size="14.00" fill="#000000">⏺</text>
</g>
<!-- struct_140265207541320 -->
<g id="node2" class="node">
<title>struct_140265207541320</title>
<polygon fill="#c0c0c0" stroke="transparent" points="72,-90 72,-153 108,-153 108,-90 72,-90"/>
<polygon fill="none" stroke="#000000" points="72,-131.5 72,-152.5 108,-152.5 108,-131.5 72,-131.5"/>
<text text-anchor="start" x="75.5" y="-139.3" font-family="Times,serif" text-decoration="underline" font-size="14.00" fill="#000000">Point</text>
<polygon fill="none" stroke="#000000" points="72,-110.5 72,-131.5 90,-131.5 90,-110.5 72,-110.5"/>
<text text-anchor="start" x="77.5" y="-117.3" font-family="Times,serif" font-size="14.00" fill="#000000">x</text>
<polygon fill="none" stroke="#000000" points="90,-110.5 90,-131.5 108,-131.5 108,-110.5 90,-110.5"/>
<text text-anchor="start" x="95.5" y="-117.3" font-family="Times,serif" font-size="14.00" fill="#000000">y</text>
<polygon fill="none" stroke="#000000" points="72,-89.5 72,-110.5 90,-110.5 90,-89.5 72,-89.5"/>
<text text-anchor="start" x="75" y="-96.3" font-family="Times,serif" font-size="14.00" fill="#000000">⏺</text>
<polygon fill="none" stroke="#000000" points="90,-89.5 90,-110.5 108,-110.5 108,-89.5 90,-89.5"/>
<text text-anchor="start" x="93" y="-96.3" font-family="Times,serif" font-size="14.00" fill="#000000">⏺</text>
</g>
<!-- struct_p1&#45;&gt;struct_140265207541320 -->
<g id="edge3" class="edge">
<title>struct_p1:port_p1&#45;&gt;struct_140265207541320</title>
<path fill="none" stroke="#000000" d="M90,-197C90,-187.369 90,-177.0468 90,-167.2238"/>
<polygon fill="#000000" stroke="#000000" points="93.5001,-167.2176 90,-157.2176 86.5001,-167.2176 93.5001,-167.2176"/>
</g>
<!-- struct_10914496 -->
<g id="node3" class="node">
<title>struct_10914496</title>
<polygon fill="#c0c0c0" stroke="transparent" points="16.5,-4 16.5,-46 37.5,-46 37.5,-4 16.5,-4"/>
<polygon fill="none" stroke="#000000" points="17,-25 17,-46 38,-46 38,-25 17,-25"/>
<text text-anchor="start" x="20" y="-32.8" font-family="Times,serif" text-decoration="underline" font-size="14.00" fill="#000000">int</text>
<polygon fill="none" stroke="#000000" points="17,-4 17,-25 38,-25 38,-4 17,-4"/>
<text text-anchor="start" x="24" y="-10.8" font-family="Times,serif" font-size="14.00" fill="#000000">1</text>
</g>
<!-- struct_140265207541320&#45;&gt;struct_10914496 -->
<g id="edge1" class="edge">
<title>struct_140265207541320:port_child0&#45;&gt;struct_10914496</title>
<path fill="none" stroke="#000000" d="M81,-89.5C81,-74.4302 72.2266,-61.0297 61.7525,-50.401"/>
<polygon fill="#000000" stroke="#000000" points="64.0269,-47.7368 54.3164,-43.4992 59.2649,-52.8674 64.0269,-47.7368"/>
</g>
<!-- struct_10914528 -->
<g id="node4" class="node">
<title>struct_10914528</title>
<polygon fill="#c0c0c0" stroke="transparent" points="88.5,-4 88.5,-46 109.5,-46 109.5,-4 88.5,-4"/>
<polygon fill="none" stroke="#000000" points="89,-25 89,-46 110,-46 110,-25 89,-25"/>
<text text-anchor="start" x="92" y="-32.8" font-family="Times,serif" text-decoration="underline" font-size="14.00" fill="#000000">int</text>
<polygon fill="none" stroke="#000000" points="89,-4 89,-25 110,-25 110,-4 89,-4"/>
<text text-anchor="start" x="96" y="-10.8" font-family="Times,serif" font-size="14.00" fill="#000000">2</text>
</g>
<!-- struct_140265207541320&#45;&gt;struct_10914528 -->
<g id="edge2" class="edge">
<title>struct_140265207541320:port_child1&#45;&gt;struct_10914528</title>
<path fill="none" stroke="#000000" d="M99,-89.5C99,-80.0623 99,-69.8477 99,-60.3908"/>
<polygon fill="#000000" stroke="#000000" points="102.5001,-60.1174 99,-50.1174 95.5001,-60.1174 102.5001,-60.1174"/>
</g>
<!-- struct_p2 -->
<g id="node5" class="node">
<title>struct_p2</title>
<polygon fill="#7fff00" stroke="transparent" points="241,-197 241,-239 261,-239 261,-197 241,-197"/>
<polygon fill="none" stroke="#000000" points="241,-218 241,-239 261,-239 261,-218 241,-218"/>
<text text-anchor="start" x="244" y="-224.8" font-family="Times,serif" font-size="14.00" fill="#000000">p2</text>
<polygon fill="none" stroke="#000000" points="241,-197 241,-218 261,-218 261,-197 241,-197"/>
<text text-anchor="start" x="245" y="-203.8" font-family="Times,serif" font-size="14.00" fill="#000000">⏺</text>
</g>
<!-- struct_140265207541376 -->
<g id="node6" class="node">
<title>struct_140265207541376</title>
<polygon fill="#c0c0c0" stroke="transparent" points="189,-90 189,-153 225,-153 225,-90 189,-90"/>
<polygon fill="none" stroke="#000000" points="189,-131.5 189,-152.5 225,-152.5 225,-131.5 189,-131.5"/>
<text text-anchor="start" x="192.5" y="-139.3" font-family="Times,serif" text-decoration="underline" font-size="14.00" fill="#000000">Point</text>
<polygon fill="none" stroke="#000000" points="189,-110.5 189,-131.5 207,-131.5 207,-110.5 189,-110.5"/>
<text text-anchor="start" x="194.5" y="-117.3" font-family="Times,serif" font-size="14.00" fill="#000000">x</text>
<polygon fill="none" stroke="#000000" points="207,-110.5 207,-131.5 225,-131.5 225,-110.5 207,-110.5"/>
<text text-anchor="start" x="212.5" y="-117.3" font-family="Times,serif" font-size="14.00" fill="#000000">y</text>
<polygon fill="none" stroke="#000000" points="189,-89.5 189,-110.5 207,-110.5 207,-89.5 189,-89.5"/>
<text text-anchor="start" x="192" y="-96.3" font-family="Times,serif" font-size="14.00" fill="#000000">⏺</text>
<polygon fill="none" stroke="#000000" points="207,-89.5 207,-110.5 225,-110.5 225,-89.5 207,-89.5"/>
<text text-anchor="start" x="210" y="-96.3" font-family="Times,serif" font-size="14.00" fill="#000000">⏺</text>
</g>
<!-- struct_p2&#45;&gt;struct_140265207541376 -->
<g id="edge6" class="edge">
<title>struct_p2:port_p2&#45;&gt;struct_140265207541376</title>
<path fill="none" stroke="#000000" d="M251,-197C251,-184.0714 246.1242,-171.3839 239.6188,-160.2096"/>
<polygon fill="#000000" stroke="#000000" points="242.4487,-158.1381 234.1143,-151.5968 236.5504,-161.9078 242.4487,-158.1381"/>
</g>
<!-- struct_10914560 -->
<g id="node7" class="node">
<title>struct_10914560</title>
<polygon fill="#c0c0c0" stroke="transparent" points="160.5,-4 160.5,-46 181.5,-46 181.5,-4 160.5,-4"/>
<polygon fill="none" stroke="#000000" points="161,-25 161,-46 182,-46 182,-25 161,-25"/>
<text text-anchor="start" x="164" y="-32.8" font-family="Times,serif" text-decoration="underline" font-size="14.00" fill="#000000">int</text>
<polygon fill="none" stroke="#000000" points="161,-4 161,-25 182,-25 182,-4 161,-4"/>
<text text-anchor="start" x="168" y="-10.8" font-family="Times,serif" font-size="14.00" fill="#000000">3</text>
</g>
<!-- struct_140265207541376&#45;&gt;struct_10914560 -->
<g id="edge4" class="edge">
<title>struct_140265207541376:port_child0&#45;&gt;struct_10914560</title>
<path fill="none" stroke="#000000" d="M198,-89.5C198,-79.2118 195.0409,-68.6665 191.0819,-59.1619"/>
<polygon fill="#000000" stroke="#000000" points="194.2412,-57.655 186.8622,-50.0522 187.8895,-60.5972 194.2412,-57.655"/>
</g>
<!-- struct_10914592 -->
<g id="node8" class="node">
<title>struct_10914592</title>
<polygon fill="#c0c0c0" stroke="transparent" points="232.5,-4 232.5,-46 253.5,-46 253.5,-4 232.5,-4"/>
<polygon fill="none" stroke="#000000" points="233,-25 233,-46 254,-46 254,-25 233,-25"/>
<text text-anchor="start" x="236" y="-32.8" font-family="Times,serif" text-decoration="underline" font-size="14.00" fill="#000000">int</text>
<polygon fill="none" stroke="#000000" points="233,-4 233,-25 254,-25 254,-4 233,-4"/>
<text text-anchor="start" x="240" y="-10.8" font-family="Times,serif" font-size="14.00" fill="#000000">4</text>
</g>
<!-- struct_140265207541376&#45;&gt;struct_10914592 -->
<g id="edge5" class="edge">
<title>struct_140265207541376:port_child1&#45;&gt;struct_10914592</title>
<path fill="none" stroke="#000000" d="M216,-89.5C216,-79.2118 218.9591,-68.6665 222.9181,-59.1619"/>
<polygon fill="#000000" stroke="#000000" points="226.1105,-60.5972 227.1378,-50.0522 219.7588,-57.655 226.1105,-60.5972"/>
</g>
<!-- struct_p3 -->
<g id="node9" class="node">
<title>struct_p3</title>
<polygon fill="#7fff00" stroke="transparent" points="314,-197 314,-239 334,-239 334,-197 314,-197"/>
<polygon fill="none" stroke="#000000" points="314,-218 314,-239 334,-239 334,-218 314,-218"/>
<text text-anchor="start" x="317" y="-224.8" font-family="Times,serif" font-size="14.00" fill="#000000">p3</text>
<polygon fill="none" stroke="#000000" points="314,-197 314,-218 334,-218 334,-197 314,-197"/>
<text text-anchor="start" x="318" y="-203.8" font-family="Times,serif" font-size="14.00" fill="#000000">⏺</text>
</g>
<!-- struct_140265207541432 -->
<g id="node10" class="node">
<title>struct_140265207541432</title>
<polygon fill="#c0c0c0" stroke="transparent" points="306,-90 306,-153 342,-153 342,-90 306,-90"/>
<polygon fill="none" stroke="#000000" points="306,-131.5 306,-152.5 342,-152.5 342,-131.5 306,-131.5"/>
<text text-anchor="start" x="309.5" y="-139.3" font-family="Times,serif" text-decoration="underline" font-size="14.00" fill="#000000">Point</text>
<polygon fill="none" stroke="#000000" points="306,-110.5 306,-131.5 324,-131.5 324,-110.5 306,-110.5"/>
<text text-anchor="start" x="311.5" y="-117.3" font-family="Times,serif" font-size="14.00" fill="#000000">x</text>
<polygon fill="none" stroke="#000000" points="324,-110.5 324,-131.5 342,-131.5 342,-110.5 324,-110.5"/>
<text text-anchor="start" x="329.5" y="-117.3" font-family="Times,serif" font-size="14.00" fill="#000000">y</text>
<polygon fill="none" stroke="#000000" points="306,-89.5 306,-110.5 324,-110.5 324,-89.5 306,-89.5"/>
<text text-anchor="start" x="309" y="-96.3" font-family="Times,serif" font-size="14.00" fill="#000000">⏺</text>
<polygon fill="none" stroke="#000000" points="324,-89.5 324,-110.5 342,-110.5 342,-89.5 324,-89.5"/>
<text text-anchor="start" x="327" y="-96.3" font-family="Times,serif" font-size="14.00" fill="#000000">⏺</text>
</g>
<!-- struct_p3&#45;&gt;struct_140265207541432 -->
<g id="edge9" class="edge">
<title>struct_p3:port_p3&#45;&gt;struct_140265207541432</title>
<path fill="none" stroke="#000000" d="M324,-197C324,-187.369 324,-177.0468 324,-167.2238"/>
<polygon fill="#000000" stroke="#000000" points="327.5001,-167.2176 324,-157.2176 320.5001,-167.2176 327.5001,-167.2176"/>
</g>
<!-- struct_10914624 -->
<g id="node11" class="node">
<title>struct_10914624</title>
<polygon fill="#c0c0c0" stroke="transparent" points="304.5,-4 304.5,-46 325.5,-46 325.5,-4 304.5,-4"/>
<polygon fill="none" stroke="#000000" points="305,-25 305,-46 326,-46 326,-25 305,-25"/>
<text text-anchor="start" x="308" y="-32.8" font-family="Times,serif" text-decoration="underline" font-size="14.00" fill="#000000">int</text>
<polygon fill="none" stroke="#000000" points="305,-4 305,-25 326,-25 326,-4 305,-4"/>
<text text-anchor="start" x="312" y="-10.8" font-family="Times,serif" font-size="14.00" fill="#000000">5</text>
</g>
<!-- struct_140265207541432&#45;&gt;struct_10914624 -->
<g id="edge7" class="edge">
<title>struct_140265207541432:port_child0&#45;&gt;struct_10914624</title>
<path fill="none" stroke="#000000" d="M315,-89.5C315,-80.0623 315,-69.8477 315,-60.3908"/>
<polygon fill="#000000" stroke="#000000" points="318.5001,-60.1174 315,-50.1174 311.5001,-60.1174 318.5001,-60.1174"/>
</g>
<!-- struct_10914656 -->
<g id="node12" class="node">
<title>struct_10914656</title>
<polygon fill="#c0c0c0" stroke="transparent" points="376.5,-4 376.5,-46 397.5,-46 397.5,-4 376.5,-4"/>
<polygon fill="none" stroke="#000000" points="377,-25 377,-46 398,-46 398,-25 377,-25"/>
<text text-anchor="start" x="380" y="-32.8" font-family="Times,serif" text-decoration="underline" font-size="14.00" fill="#000000">int</text>
<polygon fill="none" stroke="#000000" points="377,-4 377,-25 398,-25 398,-4 377,-4"/>
<text text-anchor="start" x="384" y="-10.8" font-family="Times,serif" font-size="14.00" fill="#000000">6</text>
</g>
<!-- struct_140265207541432&#45;&gt;struct_10914656 -->
<g id="edge8" class="edge">
<title>struct_140265207541432:port_child1&#45;&gt;struct_10914656</title>
<path fill="none" stroke="#000000" d="M333,-89.5C333,-74.4302 341.7734,-61.0297 352.2475,-50.401"/>
<polygon fill="#000000" stroke="#000000" points="354.7351,-52.8674 359.6836,-43.4992 349.9731,-47.7368 354.7351,-52.8674"/>
</g>
<!-- struct_t1 -->
<g id="node13" class="node">
<title>struct_t1</title>
<polygon fill="#7fff00" stroke="transparent" points="162,-390 162,-432 180,-432 180,-390 162,-390"/>
<polygon fill="none" stroke="#000000" points="162,-411 162,-432 180,-432 180,-411 162,-411"/>
<text text-anchor="start" x="165.5" y="-417.8" font-family="Times,serif" font-size="14.00" fill="#000000">t1</text>
<polygon fill="none" stroke="#000000" points="162,-390 162,-411 180,-411 180,-390 162,-390"/>
<text text-anchor="start" x="165" y="-396.8" font-family="Times,serif" font-size="14.00" fill="#000000">⏺</text>
</g>
<!-- struct_140265207654272 -->
<g id="node14" class="node">
<title>struct_140265207654272</title>
<polygon fill="#c0c0c0" stroke="transparent" points="145,-283 145,-346 197,-346 197,-283 145,-283"/>
<polygon fill="none" stroke="#000000" points="145,-324.5 145,-345.5 197,-345.5 197,-324.5 145,-324.5"/>
<text text-anchor="start" x="148" y="-332.3" font-family="Times,serif" text-decoration="underline" font-size="14.00" fill="#000000">Triangle</text>
<polygon fill="none" stroke="#000000" points="145,-303.5 145,-324.5 197,-324.5 197,-303.5 145,-303.5"/>
<text text-anchor="start" x="154" y="-310.3" font-family="Times,serif" font-size="14.00" fill="#000000">points</text>
<polygon fill="none" stroke="#000000" points="145,-282.5 145,-303.5 197,-303.5 197,-282.5 145,-282.5"/>
<text text-anchor="start" x="165" y="-289.3" font-family="Times,serif" font-size="14.00" fill="#000000">⏺</text>
</g>
<!-- struct_t1&#45;&gt;struct_140265207654272 -->
<g id="edge14" class="edge">
<title>struct_t1:port_t1&#45;&gt;struct_140265207654272</title>
<path fill="none" stroke="#000000" d="M171,-390C171,-380.369 171,-370.0468 171,-360.2238"/>
<polygon fill="#000000" stroke="#000000" points="174.5001,-360.2176 171,-350.2176 167.5001,-360.2176 174.5001,-360.2176"/>
</g>
<!-- struct_140265189757384 -->
<g id="node15" class="node">
<title>struct_140265189757384</title>
<polygon fill="#c0c0c0" stroke="transparent" points="144,-197 144,-239 198,-239 198,-197 144,-197"/>
<polygon fill="none" stroke="#000000" points="144,-218 144,-239 198,-239 198,-218 144,-218"/>
<text text-anchor="start" x="162.5" y="-225.8" font-family="Times,serif" text-decoration="underline" font-size="14.00" fill="#000000">list</text>
<polygon fill="none" stroke="#000000" points="144,-197 144,-218 162,-218 162,-197 144,-197"/>
<text text-anchor="start" x="147" y="-203.8" font-family="Times,serif" font-size="14.00" fill="#000000">⏺</text>
<polygon fill="none" stroke="#000000" points="162,-197 162,-218 180,-218 180,-197 162,-197"/>
<text text-anchor="start" x="165" y="-203.8" font-family="Times,serif" font-size="14.00" fill="#000000">⏺</text>
<polygon fill="none" stroke="#000000" points="180,-197 180,-218 198,-218 198,-197 180,-197"/>
<text text-anchor="start" x="183" y="-203.8" font-family="Times,serif" font-size="14.00" fill="#000000">⏺</text>
</g>
<!-- struct_140265207654272&#45;&gt;struct_140265189757384 -->
<g id="edge13" class="edge">
<title>struct_140265207654272:port_child0&#45;&gt;struct_140265189757384</title>
<path fill="none" stroke="#000000" d="M171,-282.5C171,-273.0623 171,-262.8477 171,-253.3908"/>
<polygon fill="#000000" stroke="#000000" points="174.5001,-253.1174 171,-243.1174 167.5001,-253.1174 174.5001,-253.1174"/>
</g>
<!-- struct_140265189757384&#45;&gt;struct_140265207541320 -->
<g id="edge10" class="edge">
<title>struct_140265189757384:port_child0&#45;&gt;struct_140265207541320</title>
<path fill="none" stroke="#000000" d="M153,-197C153,-176.6475 139.3369,-158.8772 124.7364,-145.698"/>
<polygon fill="#000000" stroke="#000000" points="126.9817,-143.013 117.0833,-139.2352 122.4654,-148.3612 126.9817,-143.013"/>
</g>
<!-- struct_140265189757384&#45;&gt;struct_140265207541376 -->
<g id="edge11" class="edge">
<title>struct_140265189757384:port_child1&#45;&gt;struct_140265207541376</title>
<path fill="none" stroke="#000000" d="M171,-197C171,-186.5457 173.847,-176.0004 177.9398,-166.2421"/>
<polygon fill="#000000" stroke="#000000" points="181.1234,-167.6967 182.1933,-157.156 174.7836,-164.7289 181.1234,-167.6967"/>
</g>
<!-- struct_140265189757384&#45;&gt;struct_140265207541432 -->
<g id="edge12" class="edge">
<title>struct_140265189757384:port_child2&#45;&gt;struct_140265207541432</title>
<path fill="none" stroke="#000000" d="M198,-207C207.7879,-207 207.1186,-198.8039 215,-193 238.7049,-175.5437 266.462,-157.367 288.0332,-143.7089"/>
<polygon fill="#000000" stroke="#000000" points="289.9721,-146.6241 296.5702,-138.3346 286.2428,-140.7002 289.9721,-146.6241"/>
</g>
</g>
</svg>
