<?xml version="1.0" encoding="UTF-8" standalone="no"?>
<!DOCTYPE svg PUBLIC "-//W3C//DTD SVG 1.1//EN"
 "http://www.w3.org/Graphics/SVG/1.1/DTD/svg11.dtd">
<!-- Generated by graphviz version 2.40.1 (20161225.0304)
 -->
<!-- Title: structs Pages: 1 -->
<svg width="598pt" height="444pt"
 viewBox="0.00 0.00 598.00 444.00" xmlns="http://www.w3.org/2000/svg" xmlns:xlink="http://www.w3.org/1999/xlink">
<g id="graph0" class="graph" transform="scale(1 1) rotate(0) translate(4 440)">
<title>structs</title>
<polygon fill="#ffffff" stroke="transparent" points="-4,4 -4,-440 594,-440 594,4 -4,4"/>
<!-- struct_p1 -->
<g id="node1" class="node">
<title>struct_p1</title>
<polygon fill="#7fff00" stroke="transparent" points="17,-197 17,-239 37,-239 37,-197 17,-197"/>
<polygon fill="none" stroke="#000000" points="17,-218 17,-239 37,-239 37,-218 17,-218"/>
<text text-anchor="start" x="20" y="-224.8" font-family="Times,serif" font-size="14.00" fill="#000000">p1</text>
<polygon fill="none" stroke="#000000" points="17,-197 17,-218 37,-218 37,-197 17,-197"/>
<text text-anchor="start" x="21" y="-203.8" font-family="Times,serif" font-size="14.00" fill="#000000">⏺</text>
</g>
<!-- struct_139713512251288 -->
<g id="node2" class="node">
<title>struct_139713512251288</title>
<polygon fill="#c0c0c0" stroke="transparent" points="79,-90 79,-153 115,-153 115,-90 79,-90"/>
<polygon fill="none" stroke="#000000" points="79,-131.5 79,-152.5 115,-152.5 115,-131.5 79,-131.5"/>
<text text-anchor="start" x="82.5" y="-139.3" font-family="Times,serif" text-decoration="underline" font-size="14.00" fill="#000000">Point</text>
<polygon fill="none" stroke="#000000" points="79,-110.5 79,-131.5 97,-131.5 97,-110.5 79,-110.5"/>
<text text-anchor="start" x="84.5" y="-117.3" font-family="Times,serif" font-size="14.00" fill="#000000">x</text>
<polygon fill="none" stroke="#000000" points="97,-110.5 97,-131.5 115,-131.5 115,-110.5 97,-110.5"/>
<text text-anchor="start" x="102.5" y="-117.3" font-family="Times,serif" font-size="14.00" fill="#000000">y</text>
<polygon fill="none" stroke="#000000" points="79,-89.5 79,-110.5 97,-110.5 97,-89.5 79,-89.5"/>
<text text-anchor="start" x="82" y="-96.3" font-family="Times,serif" font-size="14.00" fill="#000000">⏺</text>
<polygon fill="none" stroke="#000000" points="97,-89.5 97,-110.5 115,-110.5 115,-89.5 97,-89.5"/>
<text text-anchor="start" x="100" y="-96.3" font-family="Times,serif" font-size="14.00" fill="#000000">⏺</text>
</g>
<!-- struct_p1&#45;&gt;struct_139713512251288 -->
<g id="edge3" class="edge">
<title>struct_p1:port_p1&#45;&gt;struct_139713512251288</title>
<path fill="none" stroke="#000000" d="M27,-197C27,-174.4194 44.0458,-155.7393 61.3143,-142.6088"/>
<polygon fill="#000000" stroke="#000000" points="63.6174,-145.2657 69.7357,-136.616 59.5588,-139.5623 63.6174,-145.2657"/>
</g>
<!-- struct_10914624 -->
<g id="node3" class="node">
<title>struct_10914624</title>
<polygon fill="#c0c0c0" stroke="transparent" points="113.5,-4 113.5,-46 134.5,-46 134.5,-4 113.5,-4"/>
<polygon fill="none" stroke="#000000" points="114,-25 114,-46 135,-46 135,-25 114,-25"/>
<text text-anchor="start" x="117" y="-32.8" font-family="Times,serif" text-decoration="underline" font-size="14.00" fill="#000000">int</text>
<polygon fill="none" stroke="#000000" points="114,-4 114,-25 135,-25 135,-4 114,-4"/>
<text text-anchor="start" x="121" y="-10.8" font-family="Times,serif" font-size="14.00" fill="#000000">5</text>
</g>
<!-- struct_139713512251288&#45;&gt;struct_10914624 -->
<g id="edge1" class="edge">
<title>struct_139713512251288:port_child0&#45;&gt;struct_10914624</title>
<path fill="none" stroke="#000000" d="M88,-89.5C88,-78.81 91.8171,-68.2428 96.9654,-58.852"/>
<polygon fill="#000000" stroke="#000000" points="99.9985,-60.6008 102.2282,-50.2433 94.0261,-56.9497 99.9985,-60.6008"/>
</g>
<!-- struct_10914464 -->
<g id="node4" class="node">
<title>struct_10914464</title>
<polygon fill="#c0c0c0" stroke="transparent" points="243.5,-4 243.5,-46 264.5,-46 264.5,-4 243.5,-4"/>
<polygon fill="none" stroke="#000000" points="244,-25 244,-46 265,-46 265,-25 244,-25"/>
<text text-anchor="start" x="247" y="-32.8" font-family="Times,serif" text-decoration="underline" font-size="14.00" fill="#000000">int</text>
<polygon fill="none" stroke="#000000" points="244,-4 244,-25 265,-25 265,-4 244,-4"/>
<text text-anchor="start" x="251" y="-10.8" font-family="Times,serif" font-size="14.00" fill="#000000">0</text>
</g>
<!-- struct_139713512251288&#45;&gt;struct_10914464 -->
<g id="edge2" class="edge">
<title>struct_139713512251288:port_child1&#45;&gt;struct_10914464</title>
<path fill="none" stroke="#000000" d="M115,-99.5C125,-99.5 124.5022,-91.2713 133,-86 160.3555,-69.0309 193.0377,-52.7742 217.5365,-41.3165"/>
<polygon fill="#000000" stroke="#000000" points="219.2227,-44.3928 226.8284,-37.0169 216.2831,-38.0399 219.2227,-44.3928"/>
</g>
<!-- struct_p2 -->
<g id="node5" class="node">
<title>struct_p2</title>
<polygon fill="#7fff00" stroke="transparent" points="249,-197 249,-239 269,-239 269,-197 249,-197"/>
<polygon fill="none" stroke="#000000" points="249,-218 249,-239 269,-239 269,-218 249,-218"/>
<text text-anchor="start" x="252" y="-224.8" font-family="Times,serif" font-size="14.00" fill="#000000">p2</text>
<polygon fill="none" stroke="#000000" points="249,-197 249,-218 269,-218 269,-197 249,-197"/>
<text text-anchor="start" x="253" y="-203.8" font-family="Times,serif" font-size="14.00" fill="#000000">⏺</text>
</g>
<!-- struct_139713512251344 -->
<g id="node6" class="node">
<title>struct_139713512251344</title>
<polygon fill="#c0c0c0" stroke="transparent" points="227,-90 227,-153 263,-153 263,-90 227,-90"/>
<polygon fill="none" stroke="#000000" points="227,-131.5 227,-152.5 263,-152.5 263,-131.5 227,-131.5"/>
<text text-anchor="start" x="230.5" y="-139.3" font-family="Times,serif" text-decoration="underline" font-size="14.00" fill="#000000">Point</text>
<polygon fill="none" stroke="#000000" points="227,-110.5 227,-131.5 245,-131.5 245,-110.5 227,-110.5"/>
<text text-anchor="start" x="232.5" y="-117.3" font-family="Times,serif" font-size="14.00" fill="#000000">x</text>
<polygon fill="none" stroke="#000000" points="245,-110.5 245,-131.5 263,-131.5 263,-110.5 245,-110.5"/>
<text text-anchor="start" x="250.5" y="-117.3" font-family="Times,serif" font-size="14.00" fill="#000000">y</text>
<polygon fill="none" stroke="#000000" points="227,-89.5 227,-110.5 245,-110.5 245,-89.5 227,-89.5"/>
<text text-anchor="start" x="230" y="-96.3" font-family="Times,serif" font-size="14.00" fill="#000000">⏺</text>
<polygon fill="none" stroke="#000000" points="245,-89.5 245,-110.5 263,-110.5 263,-89.5 245,-89.5"/>
<text text-anchor="start" x="248" y="-96.3" font-family="Times,serif" font-size="14.00" fill="#000000">⏺</text>
</g>
<!-- struct_p2&#45;&gt;struct_139713512251344 -->
<g id="edge6" class="edge">
<title>struct_p2:port_p2&#45;&gt;struct_139713512251344</title>
<path fill="none" stroke="#000000" d="M259,-197C259,-187.3037 257.8699,-177.0226 256.2518,-167.2717"/>
<polygon fill="#000000" stroke="#000000" points="259.6769,-166.5452 254.4159,-157.3489 252.7937,-167.8188 259.6769,-166.5452"/>
</g>
<!-- struct_139713512251344&#45;&gt;struct_10914464 -->
<g id="edge5" class="edge">
<title>struct_139713512251344:port_child1&#45;&gt;struct_10914464</title>
<path fill="none" stroke="#000000" d="M254,-89.5C254,-80.0623 254,-69.8477 254,-60.3908"/>
<polygon fill="#000000" stroke="#000000" points="257.5001,-60.1174 254,-50.1174 250.5001,-60.1174 257.5001,-60.1174"/>
</g>
<!-- struct_10914560 -->
<g id="node7" class="node">
<title>struct_10914560</title>
<polygon fill="#c0c0c0" stroke="transparent" points="315.5,-4 315.5,-46 336.5,-46 336.5,-4 315.5,-4"/>
<polygon fill="none" stroke="#000000" points="316,-25 316,-46 337,-46 337,-25 316,-25"/>
<text text-anchor="start" x="319" y="-32.8" font-family="Times,serif" text-decoration="underline" font-size="14.00" fill="#000000">int</text>
<polygon fill="none" stroke="#000000" points="316,-4 316,-25 337,-25 337,-4 316,-4"/>
<text text-anchor="start" x="323" y="-10.8" font-family="Times,serif" font-size="14.00" fill="#000000">3</text>
</g>
<!-- struct_139713512251344&#45;&gt;struct_10914560 -->
<g id="edge4" class="edge">
<title>struct_139713512251344:port_child0&#45;&gt;struct_10914560</title>
<path fill="none" stroke="#000000" d="M236,-89.5C236,-88.6203 265.4519,-67.6398 290.6597,-49.8439"/>
<polygon fill="#000000" stroke="#000000" points="292.8418,-52.5879 298.997,-43.9644 288.8076,-46.8672 292.8418,-52.5879"/>
</g>
<!-- struct_p3 -->
<g id="node8" class="node">
<title>struct_p3</title>
<polygon fill="#7fff00" stroke="transparent" points="321,-197 321,-239 341,-239 341,-197 321,-197"/>
<polygon fill="none" stroke="#000000" points="321,-218 321,-239 341,-239 341,-218 321,-218"/>
<text text-anchor="start" x="324" y="-224.8" font-family="Times,serif" font-size="14.00" fill="#000000">p3</text>
<polygon fill="none" stroke="#000000" points="321,-197 321,-218 341,-218 341,-197 321,-197"/>
<text text-anchor="start" x="325" y="-203.8" font-family="Times,serif" font-size="14.00" fill="#000000">⏺</text>
</g>
<!-- struct_139713512235080 -->
<g id="node9" class="node">
<title>struct_139713512235080</title>
<polygon fill="#c0c0c0" stroke="transparent" points="299,-90 299,-153 335,-153 335,-90 299,-90"/>
<polygon fill="none" stroke="#000000" points="299,-131.5 299,-152.5 335,-152.5 335,-131.5 299,-131.5"/>
<text text-anchor="start" x="302.5" y="-139.3" font-family="Times,serif" text-decoration="underline" font-size="14.00" fill="#000000">Point</text>
<polygon fill="none" stroke="#000000" points="299,-110.5 299,-131.5 317,-131.5 317,-110.5 299,-110.5"/>
<text text-anchor="start" x="304.5" y="-117.3" font-family="Times,serif" font-size="14.00" fill="#000000">x</text>
<polygon fill="none" stroke="#000000" points="317,-110.5 317,-131.5 335,-131.5 335,-110.5 317,-110.5"/>
<text text-anchor="start" x="322.5" y="-117.3" font-family="Times,serif" font-size="14.00" fill="#000000">y</text>
<polygon fill="none" stroke="#000000" points="299,-89.5 299,-110.5 317,-110.5 317,-89.5 299,-89.5"/>
<text text-anchor="start" x="302" y="-96.3" font-family="Times,serif" font-size="14.00" fill="#000000">⏺</text>
<polygon fill="none" stroke="#000000" points="317,-89.5 317,-110.5 335,-110.5 335,-89.5 317,-89.5"/>
<text text-anchor="start" x="320" y="-96.3" font-family="Times,serif" font-size="14.00" fill="#000000">⏺</text>
</g>
<!-- struct_p3&#45;&gt;struct_139713512235080 -->
<g id="edge9" class="edge">
<title>struct_p3:port_p3&#45;&gt;struct_139713512235080</title>
<path fill="none" stroke="#000000" d="M331,-197C331,-187.3037 329.8699,-177.0226 328.2518,-167.2717"/>
<polygon fill="#000000" stroke="#000000" points="331.6769,-166.5452 326.4159,-157.3489 324.7937,-167.8188 331.6769,-166.5452"/>
</g>
<!-- struct_139713512235080&#45;&gt;struct_10914464 -->
<g id="edge7" class="edge">
<title>struct_139713512235080:port_child0&#45;&gt;struct_10914464</title>
<path fill="none" stroke="#000000" d="M308,-89.5C308,-74.4302 299.2266,-61.0297 288.7525,-50.401"/>
<polygon fill="#000000" stroke="#000000" points="291.0269,-47.7368 281.3164,-43.4992 286.2649,-52.8674 291.0269,-47.7368"/>
</g>
<!-- struct_139713512235080&#45;&gt;struct_10914560 -->
<g id="edge8" class="edge">
<title>struct_139713512235080:port_child1&#45;&gt;struct_10914560</title>
<path fill="none" stroke="#000000" d="M326,-89.5C326,-80.0623 326,-69.8477 326,-60.3908"/>
<polygon fill="#000000" stroke="#000000" points="329.5001,-60.1174 326,-50.1174 322.5001,-60.1174 329.5001,-60.1174"/>
</g>
<!-- struct_p4 -->
<g id="node10" class="node">
<title>struct_p4</title>
<polygon fill="#7fff00" stroke="transparent" points="89,-197 89,-239 109,-239 109,-197 89,-197"/>
<polygon fill="none" stroke="#000000" points="89,-218 89,-239 109,-239 109,-218 89,-218"/>
<text text-anchor="start" x="92" y="-224.8" font-family="Times,serif" font-size="14.00" fill="#000000">p4</text>
<polygon fill="none" stroke="#000000" points="89,-197 89,-218 109,-218 109,-197 89,-197"/>
<text text-anchor="start" x="93" y="-203.8" font-family="Times,serif" font-size="14.00" fill="#000000">⏺</text>
</g>
<!-- struct_139713512235752 -->
<g id="node11" class="node">
<title>struct_139713512235752</title>
<polygon fill="#c0c0c0" stroke="transparent" points="151,-90 151,-153 187,-153 187,-90 151,-90"/>
<polygon fill="none" stroke="#000000" points="151,-131.5 151,-152.5 187,-152.5 187,-131.5 151,-131.5"/>
<text text-anchor="start" x="154.5" y="-139.3" font-family="Times,serif" text-decoration="underline" font-size="14.00" fill="#000000">Point</text>
<polygon fill="none" stroke="#000000" points="151,-110.5 151,-131.5 169,-131.5 169,-110.5 151,-110.5"/>
<text text-anchor="start" x="156.5" y="-117.3" font-family="Times,serif" font-size="14.00" fill="#000000">x</text>
<polygon fill="none" stroke="#000000" points="169,-110.5 169,-131.5 187,-131.5 187,-110.5 169,-110.5"/>
<text text-anchor="start" x="174.5" y="-117.3" font-family="Times,serif" font-size="14.00" fill="#000000">y</text>
<polygon fill="none" stroke="#000000" points="151,-89.5 151,-110.5 169,-110.5 169,-89.5 151,-89.5"/>
<text text-anchor="start" x="154" y="-96.3" font-family="Times,serif" font-size="14.00" fill="#000000">⏺</text>
<polygon fill="none" stroke="#000000" points="169,-89.5 169,-110.5 187,-110.5 187,-89.5 169,-89.5"/>
<text text-anchor="start" x="172" y="-96.3" font-family="Times,serif" font-size="14.00" fill="#000000">⏺</text>
</g>
<!-- struct_p4&#45;&gt;struct_139713512235752 -->
<g id="edge12" class="edge">
<title>struct_p4:port_p4&#45;&gt;struct_139713512235752</title>
<path fill="none" stroke="#000000" d="M99,-197C99,-194.1004 116.9883,-174.739 134.7273,-156.3507"/>
<polygon fill="#000000" stroke="#000000" points="137.289,-158.7367 141.7357,-149.1201 132.2626,-153.8647 137.289,-158.7367"/>
</g>
<!-- struct_139713512235752&#45;&gt;struct_10914624 -->
<g id="edge10" class="edge">
<title>struct_139713512235752:port_child0&#45;&gt;struct_10914624</title>
<path fill="none" stroke="#000000" d="M160,-89.5C160,-78.81 156.1829,-68.2428 151.0346,-58.852"/>
<polygon fill="#000000" stroke="#000000" points="153.9739,-56.9497 145.7718,-50.2433 148.0015,-60.6008 153.9739,-56.9497"/>
</g>
<!-- struct_139713512235752&#45;&gt;struct_10914464 -->
<g id="edge11" class="edge">
<title>struct_139713512235752:port_child1&#45;&gt;struct_10914464</title>
<path fill="none" stroke="#000000" d="M178,-89.5C178,-66.6423 198.2312,-50.2014 217.8172,-39.6405"/>
<polygon fill="#000000" stroke="#000000" points="219.6058,-42.6596 226.9913,-35.0632 216.4806,-36.396 219.6058,-42.6596"/>
</g>
<!-- struct_p5 -->
<g id="node12" class="node">
<title>struct_p5</title>
<polygon fill="#7fff00" stroke="transparent" points="481,-197 481,-239 501,-239 501,-197 481,-197"/>
<polygon fill="none" stroke="#000000" points="481,-218 481,-239 501,-239 501,-218 481,-218"/>
<text text-anchor="start" x="484" y="-224.8" font-family="Times,serif" font-size="14.00" fill="#000000">p5</text>
<polygon fill="none" stroke="#000000" points="481,-197 481,-218 501,-218 501,-197 481,-197"/>
<text text-anchor="start" x="485" y="-203.8" font-family="Times,serif" font-size="14.00" fill="#000000">⏺</text>
</g>
<!-- struct_139713494627328 -->
<g id="node13" class="node">
<title>struct_139713494627328</title>
<polygon fill="#c0c0c0" stroke="transparent" points="381,-90 381,-153 417,-153 417,-90 381,-90"/>
<polygon fill="none" stroke="#000000" points="381,-131.5 381,-152.5 417,-152.5 417,-131.5 381,-131.5"/>
<text text-anchor="start" x="384.5" y="-139.3" font-family="Times,serif" text-decoration="underline" font-size="14.00" fill="#000000">Point</text>
<polygon fill="none" stroke="#000000" points="381,-110.5 381,-131.5 399,-131.5 399,-110.5 381,-110.5"/>
<text text-anchor="start" x="386.5" y="-117.3" font-family="Times,serif" font-size="14.00" fill="#000000">x</text>
<polygon fill="none" stroke="#000000" points="399,-110.5 399,-131.5 417,-131.5 417,-110.5 399,-110.5"/>
<text text-anchor="start" x="404.5" y="-117.3" font-family="Times,serif" font-size="14.00" fill="#000000">y</text>
<polygon fill="none" stroke="#000000" points="381,-89.5 381,-110.5 399,-110.5 399,-89.5 381,-89.5"/>
<text text-anchor="start" x="384" y="-96.3" font-family="Times,serif" font-size="14.00" fill="#000000">⏺</text>
<polygon fill="none" stroke="#000000" points="399,-89.5 399,-110.5 417,-110.5 417,-89.5 399,-89.5"/>
<text text-anchor="start" x="402" y="-96.3" font-family="Times,serif" font-size="14.00" fill="#000000">⏺</text>
</g>
<!-- struct_p5&#45;&gt;struct_139713494627328 -->
<g id="edge15" class="edge">
<title>struct_p5:port_p5&#45;&gt;struct_139713494627328</title>
<path fill="none" stroke="#000000" d="M491,-197C491,-166.414 458.4067,-176.6883 435,-157 434.5382,-156.6115 434.0752,-156.2184 433.6115,-155.821"/>
<polygon fill="#000000" stroke="#000000" points="435.8819,-153.156 426.0943,-149.0996 431.216,-158.3742 435.8819,-153.156"/>
</g>
<!-- struct_139713494627328&#45;&gt;struct_10914464 -->
<g id="edge14" class="edge">
<title>struct_139713494627328:port_child1&#45;&gt;struct_10914464</title>
<path fill="none" stroke="#000000" d="M408,-89.5C408,-34.1952 339.4325,-74.8001 290,-50 289.9065,-49.9531 289.8129,-49.9059 289.7193,-49.8586"/>
<polygon fill="#000000" stroke="#000000" points="291.4476,-46.8151 281.0183,-44.9494 288.0079,-52.9117 291.4476,-46.8151"/>
</g>
<!-- struct_10914592 -->
<g id="node14" class="node">
<title>struct_10914592</title>
<polygon fill="#c0c0c0" stroke="transparent" points="389.5,-4 389.5,-46 410.5,-46 410.5,-4 389.5,-4"/>
<polygon fill="none" stroke="#000000" points="390,-25 390,-46 411,-46 411,-25 390,-25"/>
<text text-anchor="start" x="393" y="-32.8" font-family="Times,serif" text-decoration="underline" font-size="14.00" fill="#000000">int</text>
<polygon fill="none" stroke="#000000" points="390,-4 390,-25 411,-25 411,-4 390,-4"/>
<text text-anchor="start" x="397" y="-10.8" font-family="Times,serif" font-size="14.00" fill="#000000">4</text>
</g>
<!-- struct_139713494627328&#45;&gt;struct_10914592 -->
<g id="edge13" class="edge">
<title>struct_139713494627328:port_child0&#45;&gt;struct_10914592</title>
<path fill="none" stroke="#000000" d="M390,-89.5C390,-79.93 391.0883,-69.6546 392.5469,-60.1808"/>
<polygon fill="#000000" stroke="#000000" points="396.003,-60.7338 394.2409,-50.2865 389.1034,-59.5524 396.003,-60.7338"/>
</g>
<!-- struct_p6 -->
<g id="node15" class="node">
<title>struct_p6</title>
<polygon fill="#7fff00" stroke="transparent" points="553,-197 553,-239 573,-239 573,-197 553,-197"/>
<polygon fill="none" stroke="#000000" points="553,-218 553,-239 573,-239 573,-218 553,-218"/>
<text text-anchor="start" x="556" y="-224.8" font-family="Times,serif" font-size="14.00" fill="#000000">p6</text>
<polygon fill="none" stroke="#000000" points="553,-197 553,-218 573,-218 573,-197 553,-197"/>
<text text-anchor="start" x="557" y="-203.8" font-family="Times,serif" font-size="14.00" fill="#000000">⏺</text>
</g>
<!-- struct_139713494629400 -->
<g id="node16" class="node">
<title>struct_139713494629400</title>
<polygon fill="#c0c0c0" stroke="transparent" points="453,-90 453,-153 489,-153 489,-90 453,-90"/>
<polygon fill="none" stroke="#000000" points="453,-131.5 453,-152.5 489,-152.5 489,-131.5 453,-131.5"/>
<text text-anchor="start" x="456.5" y="-139.3" font-family="Times,serif" text-decoration="underline" font-size="14.00" fill="#000000">Point</text>
<polygon fill="none" stroke="#000000" points="453,-110.5 453,-131.5 471,-131.5 471,-110.5 453,-110.5"/>
<text text-anchor="start" x="458.5" y="-117.3" font-family="Times,serif" font-size="14.00" fill="#000000">x</text>
<polygon fill="none" stroke="#000000" points="471,-110.5 471,-131.5 489,-131.5 489,-110.5 471,-110.5"/>
<text text-anchor="start" x="476.5" y="-117.3" font-family="Times,serif" font-size="14.00" fill="#000000">y</text>
<polygon fill="none" stroke="#000000" points="453,-89.5 453,-110.5 471,-110.5 471,-89.5 453,-89.5"/>
<text text-anchor="start" x="456" y="-96.3" font-family="Times,serif" font-size="14.00" fill="#000000">⏺</text>
<polygon fill="none" stroke="#000000" points="471,-89.5 471,-110.5 489,-110.5 489,-89.5 471,-89.5"/>
<text text-anchor="start" x="474" y="-96.3" font-family="Times,serif" font-size="14.00" fill="#000000">⏺</text>
</g>
<!-- struct_p6&#45;&gt;struct_139713494629400 -->
<g id="edge18" class="edge">
<title>struct_p6:port_p6&#45;&gt;struct_139713494629400</title>
<path fill="none" stroke="#000000" d="M563,-197C563,-166.8204 533.0508,-146.5013 507.3278,-134.6152"/>
<polygon fill="#000000" stroke="#000000" points="508.6724,-131.3834 498.1054,-130.615 505.8869,-137.8053 508.6724,-131.3834"/>
</g>
<!-- struct_139713494629400&#45;&gt;struct_10914464 -->
<g id="edge16" class="edge">
<title>struct_139713494629400:port_child0&#45;&gt;struct_10914464</title>
<path fill="none" stroke="#000000" d="M453,-99.5C443,-99.5 444.0329,-90.2904 435,-86 377.8325,-58.8468 352.8669,-75.6316 290.7503,-49.6003"/>
<polygon fill="#000000" stroke="#000000" points="291.87,-46.2689 281.3077,-45.4386 289.0468,-52.6744 291.87,-46.2689"/>
</g>
<!-- struct_139713494629400&#45;&gt;struct_10914592 -->
<g id="edge17" class="edge">
<title>struct_139713494629400:port_child1&#45;&gt;struct_10914592</title>
<path fill="none" stroke="#000000" d="M480,-89.5C480,-65.256 457.4582,-48.5762 436.306,-38.2614"/>
<polygon fill="#000000" stroke="#000000" points="437.6386,-35.0229 427.0844,-34.0964 434.7573,-41.4024 437.6386,-35.0229"/>
</g>
<!-- struct_t1 -->
<g id="node17" class="node">
<title>struct_t1</title>
<polygon fill="#7fff00" stroke="transparent" points="170,-390 170,-432 188,-432 188,-390 170,-390"/>
<polygon fill="none" stroke="#000000" points="170,-411 170,-432 188,-432 188,-411 170,-411"/>
<text text-anchor="start" x="173.5" y="-417.8" font-family="Times,serif" font-size="14.00" fill="#000000">t1</text>
<polygon fill="none" stroke="#000000" points="170,-390 170,-411 188,-411 188,-390 170,-390"/>
<text text-anchor="start" x="173" y="-396.8" font-family="Times,serif" font-size="14.00" fill="#000000">⏺</text>
</g>
<!-- struct_139713494472184 -->
<g id="node18" class="node">
<title>struct_139713494472184</title>
<polygon fill="#c0c0c0" stroke="transparent" points="153,-283 153,-346 205,-346 205,-283 153,-283"/>
<polygon fill="none" stroke="#000000" points="153,-324.5 153,-345.5 205,-345.5 205,-324.5 153,-324.5"/>
<text text-anchor="start" x="156" y="-332.3" font-family="Times,serif" text-decoration="underline" font-size="14.00" fill="#000000">Triangle</text>
<polygon fill="none" stroke="#000000" points="153,-303.5 153,-324.5 205,-324.5 205,-303.5 153,-303.5"/>
<text text-anchor="start" x="162" y="-310.3" font-family="Times,serif" font-size="14.00" fill="#000000">points</text>
<polygon fill="none" stroke="#000000" points="153,-282.5 153,-303.5 205,-303.5 205,-282.5 153,-282.5"/>
<text text-anchor="start" x="173" y="-289.3" font-family="Times,serif" font-size="14.00" fill="#000000">⏺</text>
</g>
<!-- struct_t1&#45;&gt;struct_139713494472184 -->
<g id="edge23" class="edge">
<title>struct_t1:port_t1&#45;&gt;struct_139713494472184</title>
<path fill="none" stroke="#000000" d="M179,-390C179,-380.369 179,-370.0468 179,-360.2238"/>
<polygon fill="#000000" stroke="#000000" points="182.5001,-360.2176 179,-350.2176 175.5001,-360.2176 182.5001,-360.2176"/>
</g>
<!-- struct_139713494466760 -->
<g id="node19" class="node">
<title>struct_139713494466760</title>
<polygon fill="#c0c0c0" stroke="transparent" points="152,-197 152,-239 206,-239 206,-197 152,-197"/>
<polygon fill="none" stroke="#000000" points="152,-218 152,-239 206,-239 206,-218 152,-218"/>
<text text-anchor="start" x="170.5" y="-225.8" font-family="Times,serif" text-decoration="underline" font-size="14.00" fill="#000000">list</text>
<polygon fill="none" stroke="#000000" points="152,-197 152,-218 170,-218 170,-197 152,-197"/>
<text text-anchor="start" x="155" y="-203.8" font-family="Times,serif" font-size="14.00" fill="#000000">⏺</text>
<polygon fill="none" stroke="#000000" points="170,-197 170,-218 188,-218 188,-197 170,-197"/>
<text text-anchor="start" x="173" y="-203.8" font-family="Times,serif" font-size="14.00" fill="#000000">⏺</text>
<polygon fill="none" stroke="#000000" points="188,-197 188,-218 206,-218 206,-197 188,-197"/>
<text text-anchor="start" x="191" y="-203.8" font-family="Times,serif" font-size="14.00" fill="#000000">⏺</text>
</g>
<!-- struct_139713494472184&#45;&gt;struct_139713494466760 -->
<g id="edge22" class="edge">
<title>struct_139713494472184:port_child0&#45;&gt;struct_139713494466760</title>
<path fill="none" stroke="#000000" d="M179,-282.5C179,-273.0623 179,-262.8477 179,-253.3908"/>
<polygon fill="#000000" stroke="#000000" points="182.5001,-253.1174 179,-243.1174 175.5001,-253.1174 182.5001,-253.1174"/>
</g>
<!-- struct_139713494466760&#45;&gt;struct_139713512251344 -->
<g id="edge20" class="edge">
<title>struct_139713494466760:port_child1&#45;&gt;struct_139713512251344</title>
<path fill="none" stroke="#000000" d="M179,-197C179,-186.2052 194.4868,-168.1525 210.4566,-152.4065"/>
<polygon fill="#000000" stroke="#000000" points="212.993,-154.8232 217.7742,-145.3685 208.1406,-149.778 212.993,-154.8232"/>
</g>
<!-- struct_139713494466760&#45;&gt;struct_139713512235080 -->
<g id="edge21" class="edge">
<title>struct_139713494466760:port_child2&#45;&gt;struct_139713512235080</title>
<path fill="none" stroke="#000000" d="M206,-207C215.7879,-207 215.0464,-198.7047 223,-193 247.6538,-175.3171 257.1618,-175.7679 281,-157 281.2716,-156.7862 281.5433,-156.5706 281.8151,-156.3532"/>
<polygon fill="#000000" stroke="#000000" points="284.3208,-158.8164 289.6614,-149.6661 279.7802,-153.4888 284.3208,-158.8164"/>
</g>
<!-- struct_139713494466760&#45;&gt;struct_139713512235752 -->
<g id="edge19" class="edge">
<title>struct_139713494466760:port_child0&#45;&gt;struct_139713512235752</title>
<path fill="none" stroke="#000000" d="M161,-197C161,-187.315 161.659,-176.97 162.5988,-167.1415"/>
<polygon fill="#000000" stroke="#000000" points="166.0857,-167.45 163.6639,-157.1356 159.125,-166.709 166.0857,-167.45"/>
</g>
<!-- struct_t2 -->
<g id="node20" class="node">
<title>struct_t2</title>
<polygon fill="#7fff00" stroke="transparent" points="402,-390 402,-432 420,-432 420,-390 402,-390"/>
<polygon fill="none" stroke="#000000" points="402,-411 402,-432 420,-432 420,-411 402,-411"/>
<text text-anchor="start" x="405.5" y="-417.8" font-family="Times,serif" font-size="14.00" fill="#000000">t2</text>
<polygon fill="none" stroke="#000000" points="402,-390 402,-411 420,-411 420,-390 402,-390"/>
<text text-anchor="start" x="405" y="-396.8" font-family="Times,serif" font-size="14.00" fill="#000000">⏺</text>
</g>
<!-- struct_139713494472240 -->
<g id="node21" class="node">
<title>struct_139713494472240</title>
<polygon fill="#c0c0c0" stroke="transparent" points="385,-283 385,-346 437,-346 437,-283 385,-283"/>
<polygon fill="none" stroke="#000000" points="385,-324.5 385,-345.5 437,-345.5 437,-324.5 385,-324.5"/>
<text text-anchor="start" x="388" y="-332.3" font-family="Times,serif" text-decoration="underline" font-size="14.00" fill="#000000">Triangle</text>
<polygon fill="none" stroke="#000000" points="385,-303.5 385,-324.5 437,-324.5 437,-303.5 385,-303.5"/>
<text text-anchor="start" x="394" y="-310.3" font-family="Times,serif" font-size="14.00" fill="#000000">points</text>
<polygon fill="none" stroke="#000000" points="385,-282.5 385,-303.5 437,-303.5 437,-282.5 385,-282.5"/>
<text text-anchor="start" x="405" y="-289.3" font-family="Times,serif" font-size="14.00" fill="#000000">⏺</text>
</g>
<!-- struct_t2&#45;&gt;struct_139713494472240 -->
<g id="edge28" class="edge">
<title>struct_t2:port_t2&#45;&gt;struct_139713494472240</title>
<path fill="none" stroke="#000000" d="M411,-390C411,-380.369 411,-370.0468 411,-360.2238"/>
<polygon fill="#000000" stroke="#000000" points="414.5001,-360.2176 411,-350.2176 407.5001,-360.2176 414.5001,-360.2176"/>
</g>
<!-- struct_139713494394632 -->
<g id="node22" class="node">
<title>struct_139713494394632</title>
<polygon fill="#c0c0c0" stroke="transparent" points="384,-197 384,-239 438,-239 438,-197 384,-197"/>
<polygon fill="none" stroke="#000000" points="384,-218 384,-239 438,-239 438,-218 384,-218"/>
<text text-anchor="start" x="402.5" y="-225.8" font-family="Times,serif" text-decoration="underline" font-size="14.00" fill="#000000">list</text>
<polygon fill="none" stroke="#000000" points="384,-197 384,-218 402,-218 402,-197 384,-197"/>
<text text-anchor="start" x="387" y="-203.8" font-family="Times,serif" font-size="14.00" fill="#000000">⏺</text>
<polygon fill="none" stroke="#000000" points="402,-197 402,-218 420,-218 420,-197 402,-197"/>
<text text-anchor="start" x="405" y="-203.8" font-family="Times,serif" font-size="14.00" fill="#000000">⏺</text>
<polygon fill="none" stroke="#000000" points="420,-197 420,-218 438,-218 438,-197 420,-197"/>
<text text-anchor="start" x="423" y="-203.8" font-family="Times,serif" font-size="14.00" fill="#000000">⏺</text>
</g>
<!-- struct_139713494472240&#45;&gt;struct_139713494394632 -->
<g id="edge27" class="edge">
<title>struct_139713494472240:port_child0&#45;&gt;struct_139713494394632</title>
<path fill="none" stroke="#000000" d="M411,-282.5C411,-273.0623 411,-262.8477 411,-253.3908"/>
<polygon fill="#000000" stroke="#000000" points="414.5001,-253.1174 411,-243.1174 407.5001,-253.1174 414.5001,-253.1174"/>
</g>
<!-- struct_139713494394632&#45;&gt;struct_139713512235752 -->
<g id="edge24" class="edge">
<title>struct_139713494394632:port_child0&#45;&gt;struct_139713512235752</title>
<path fill="none" stroke="#000000" d="M384,-207C374.2121,-207 375.7857,-197.3144 367,-193 302.3522,-161.2537 273.0504,-189.9349 209,-157 207.4672,-156.2119 205.9465,-155.3514 204.444,-154.4331"/>
<polygon fill="#000000" stroke="#000000" points="206.2971,-151.4592 196.0828,-148.6451 202.3128,-157.2147 206.2971,-151.4592"/>
</g>
<!-- struct_139713494394632&#45;&gt;struct_139713494627328 -->
<g id="edge25" class="edge">
<title>struct_139713494394632:port_child1&#45;&gt;struct_139713494627328</title>
<path fill="none" stroke="#000000" d="M411,-197C411,-187.2481 410.0114,-176.8745 408.6018,-167.0394"/>
<polygon fill="#000000" stroke="#000000" points="412.0372,-166.3568 407.0042,-157.0338 405.1248,-167.4606 412.0372,-166.3568"/>
</g>
<!-- struct_139713494394632&#45;&gt;struct_139713494629400 -->
<g id="edge26" class="edge">
<title>struct_139713494394632:port_child2&#45;&gt;struct_139713494629400</title>
<path fill="none" stroke="#000000" d="M429,-197C429,-184.9303 433.1498,-172.9886 438.8405,-162.2871"/>
<polygon fill="#000000" stroke="#000000" points="441.8871,-164.0107 443.9259,-153.6138 435.8486,-160.47 441.8871,-164.0107"/>
</g>
</g>
</svg>
